<svg width="351" height="57" viewBox="0 0 351 57" fill="none" xmlns="http://www.w3.org/2000/svg">
<g clip-path="url(#clip0_67_1808)">
<path d="M0 0H62.0719V57H0V54.2925H59.0132V2.38179H0V0Z" fill="white"/>
<path d="M0 10.3418H24.0417V12.5811H14.0702V40.6739H16.5376V35.3607C16.5376 35.3607 16.3744 30.6786 18.7602 28.9279C20.677 27.5436 22.3899 26.77 26.3663 26.4443V29.0704C23.797 29.2943 22.8997 29.7829 21.9617 30.5361C20.8402 31.4318 20.779 33.04 20.7382 34.4243V40.5722H24.7961V42.9132H20.7382V49.1832H16.456V43.0964H0V40.6739H9.95108V12.6014H0V10.3622V10.3418Z" fill="white"/>
<path d="M88.0507 0.447266V1.07834C87.0923 1.07834 86.4193 1.20048 86.0319 1.42441C85.6445 1.66869 85.4609 2.11655 85.4609 2.76798V16.5905C85.4609 17.1198 85.6445 17.5065 86.0319 17.7305C86.4397 17.9544 87.0923 18.0765 88.0507 18.0765V18.7076H81.1787V18.0765C82.0963 18.0765 82.7692 17.9544 83.1567 17.7305C83.5645 17.5065 83.748 17.1198 83.748 16.5905V2.76798C83.748 2.11655 83.5441 1.68905 83.1567 1.42441C82.7489 1.20048 82.0963 1.07834 81.1787 1.07834V0.447266H88.0507Z" fill="white"/>
<path d="M99.0825 18.0768C99.7758 18.0768 100.245 17.9546 100.53 17.7307C100.795 17.5271 100.938 17.1403 100.938 16.5907V9.16032C100.938 8.61068 100.816 8.24425 100.591 8.06104C100.347 7.87782 99.8778 7.79639 99.1845 7.79639L99.1029 7.40961L102.61 6.41211V8.67175L102.753 8.54961C103.63 7.87782 104.323 7.42997 104.874 7.16532C105.791 6.69711 106.75 6.45282 107.708 6.45282C108.83 6.45282 109.686 6.75818 110.298 7.38925C110.91 8.02032 111.216 8.89568 111.216 10.0357V16.5907C111.216 17.1403 111.358 17.5271 111.644 17.7307C111.909 17.9546 112.378 18.0768 113.051 18.0768V18.7078H107.667V18.0768C108.34 18.0768 108.809 17.9546 109.115 17.7307C109.401 17.5271 109.543 17.1403 109.543 16.5907V9.97461C109.543 9.18068 109.38 8.59032 109.034 8.22389C108.646 7.77604 108.034 7.55211 107.178 7.55211C106.322 7.55211 105.485 7.73532 104.711 8.08139C104.078 8.36639 103.385 8.81425 102.61 9.44532V16.611C102.61 17.1607 102.753 17.5271 103.038 17.751C103.324 17.975 103.813 18.0971 104.486 18.0971V18.7282H99.1029V18.0971L99.0825 18.0768Z" fill="white"/>
<path d="M124.103 6.90105C125.082 6.81962 125.836 6.43283 126.387 5.74069C126.958 5.00783 127.264 3.92891 127.345 2.50391H127.916V6.71783H131.668V7.43034H127.916V16.53C127.916 16.9982 128.059 17.3443 128.385 17.5886C128.691 17.8328 129.14 17.955 129.751 17.955C130.159 17.955 130.567 17.8328 131.036 17.5682C131.444 17.3646 131.831 17.0593 132.239 16.6725L132.566 16.8557C132.117 17.5682 131.587 18.1382 130.955 18.525C130.384 18.871 129.731 19.0543 129.058 19.0543C128.202 19.0543 127.529 18.8507 127.039 18.3825C126.53 17.8735 126.265 17.1407 126.265 16.1839V7.40998H124.123V6.88069L124.103 6.90105Z" fill="white"/>
<path d="M156.036 16.1029C155.343 17.0394 154.589 17.7315 153.753 18.2201C152.713 18.8104 151.489 19.0954 150.041 19.0954C148.084 19.0954 146.514 18.5051 145.331 17.3447C144.148 16.164 143.577 14.6169 143.577 12.7033C143.577 10.9119 144.148 9.42579 145.29 8.22472C146.493 7.00329 148.022 6.39258 149.939 6.39258C151.856 6.39258 153.222 6.90151 154.283 7.93972C155.363 8.99829 155.914 10.464 155.914 12.3369H145.392C145.392 14.3522 145.902 15.8586 146.901 16.8561C147.778 17.7111 148.961 18.159 150.429 18.159C151.509 18.159 152.468 17.9554 153.324 17.5483C154.16 17.1615 154.915 16.5711 155.629 15.7772L156.057 16.1029H156.036ZM152.876 8.12294C152.162 7.39008 151.183 7.02365 149.919 7.02365C148.716 7.02365 147.696 7.45115 146.819 8.30615C145.943 9.20186 145.453 10.3011 145.372 11.604H154.079C153.997 10.0365 153.589 8.87615 152.855 8.10258L152.876 8.12294Z" fill="white"/>
<path d="M167.088 18.0774C167.68 18.0774 168.128 17.9756 168.455 17.7721C168.801 17.5481 168.964 17.2021 168.964 16.7339V8.95742C168.964 8.48921 168.862 8.18385 168.638 8.04135C168.414 7.87849 167.945 7.79706 167.251 7.79706L167.088 7.38992L170.637 6.16849V9.28314L171.024 8.95742C172.166 8.04135 173.043 7.41028 173.654 7.04385C174.694 6.41278 175.571 6.10742 176.346 6.10742C176.734 6.10742 177.06 6.22956 177.345 6.47385C177.631 6.71814 177.774 7.00314 177.774 7.30849C177.774 7.59349 177.631 7.85814 177.345 8.10242C177.06 8.34671 176.713 8.46885 176.346 8.46885C176.122 8.46885 175.898 8.42814 175.694 8.32635C175.592 8.28564 175.429 8.20421 175.265 8.08206C175.061 7.91921 174.898 7.81742 174.776 7.81742C174.552 7.75635 174.307 7.77671 174.042 7.91921C173.593 8.12278 173.104 8.38742 172.594 8.71314C172.186 8.99814 171.534 9.48671 170.637 10.1789V16.7135C170.637 17.2021 170.759 17.5685 171.024 17.7517C171.269 17.9553 171.778 18.0571 172.492 18.0571V18.6881H167.109V18.0571L167.088 18.0774Z" fill="white"/>
<path d="M188.806 18.0768C189.499 18.0768 189.968 17.9546 190.233 17.7307C190.498 17.5271 190.641 17.1403 190.641 16.5907V9.16032C190.641 8.61068 190.519 8.24425 190.294 8.06104C190.05 7.87782 189.581 7.79639 188.887 7.79639L188.806 7.40961L192.313 6.41211V8.67175L192.456 8.54961C193.333 7.87782 194.026 7.42997 194.576 7.16532C195.494 6.69711 196.453 6.45282 197.431 6.45282C198.553 6.45282 199.409 6.75818 200.041 7.38925C200.653 8.02032 200.959 8.89568 200.959 10.0357V16.5907C200.959 17.1403 201.102 17.5271 201.387 17.7307C201.652 17.9546 202.121 18.0768 202.794 18.0768V18.7078H197.411V18.0768C198.084 18.0768 198.553 17.9546 198.859 17.7307C199.144 17.5271 199.287 17.1403 199.287 16.5907V9.97461C199.287 9.18068 199.124 8.59032 198.777 8.22389C198.39 7.77604 197.778 7.55211 196.922 7.55211C196.065 7.55211 195.229 7.73532 194.454 8.08139C193.822 8.36639 193.129 8.81425 192.354 9.44532V16.611C192.354 17.1607 192.497 17.5271 192.782 17.751C193.068 17.975 193.557 18.0971 194.23 18.0971V18.7282H188.846V18.0971L188.806 18.0768Z" fill="white"/>
<path d="M225.286 18.729C224.899 18.9733 224.47 19.0954 223.981 19.0954C223.41 19.0954 222.982 18.9122 222.758 18.5458C222.574 18.2608 222.472 17.874 222.472 17.3651C221.799 17.9147 221.147 18.3219 220.494 18.6069C219.678 18.9326 218.761 19.0954 217.741 19.0954C216.436 19.0954 215.457 18.8104 214.764 18.2404C214.132 17.7111 213.806 17.019 213.806 16.1437C213.806 15.0036 214.519 14.0265 215.967 13.2122C217.456 12.3776 219.617 11.7669 222.472 11.3597V9.54794C222.472 8.75401 222.268 8.14329 221.86 7.71579C221.432 7.24758 220.82 7.02365 220.025 7.02365C218.985 7.02365 218.21 7.16615 217.68 7.45115C217.191 7.71579 216.824 8.18401 216.579 8.85579C216.457 9.16115 216.314 9.40543 216.171 9.56829C215.947 9.79222 215.682 9.91436 215.355 9.91436C214.988 9.91436 214.723 9.81258 214.54 9.62936C214.356 9.44615 214.275 9.18151 214.275 8.83544C214.275 8.18401 214.805 7.61401 215.845 7.12544C216.966 6.63686 218.414 6.39258 220.188 6.39258C221.391 6.39258 222.35 6.67758 223.063 7.24758C223.798 7.83793 224.165 8.67258 224.165 9.77186V16.7951C224.165 17.2022 224.205 17.5279 224.267 17.7519C224.328 18.0165 224.491 18.1386 224.695 18.1386C224.899 18.1386 225.082 18.0979 225.245 18.0369C225.47 17.9351 225.714 17.7722 225.979 17.5686L226.224 17.8333C225.877 18.2404 225.572 18.5254 225.307 18.6883L225.286 18.729ZM217.68 13.3547C216.355 14.0876 215.682 15.0037 215.682 16.0826C215.682 16.6729 215.906 17.1412 216.334 17.5076C216.803 17.8944 217.456 18.0776 218.312 18.0776C219.271 18.0776 220.066 17.9554 220.678 17.7111C221.249 17.5076 221.86 17.1208 222.492 16.6119V12.0519C220.535 12.2351 218.924 12.6626 217.68 13.3547Z" fill="white"/>
<path d="M237.256 6.90105C238.235 6.81962 238.989 6.43283 239.54 5.74069C240.111 5.00783 240.417 3.92891 240.498 2.50391H241.069V6.71783H244.821V7.43034H241.069V16.53C241.069 16.9982 241.212 17.3443 241.538 17.5886C241.844 17.8328 242.293 17.955 242.884 17.955C243.292 17.955 243.72 17.8328 244.169 17.5682C244.576 17.3646 244.964 17.0593 245.372 16.6725L245.698 16.8557C245.249 17.5682 244.719 18.1382 244.087 18.525C243.516 18.871 242.864 19.0543 242.191 19.0543C241.334 19.0543 240.661 18.8507 240.172 18.3825C239.662 17.8735 239.417 17.1407 239.417 16.1839V7.40998H237.276V6.88069L237.256 6.90105Z" fill="white"/>
<path d="M256.832 18.7082V18.0771C257.505 18.0771 257.974 17.9957 258.239 17.8329C258.524 17.67 258.667 17.3443 258.667 16.8354V9.09964C258.667 8.71286 258.545 8.44821 258.321 8.265C258.035 8.06143 257.525 7.95964 256.812 7.95964L256.73 7.57286L260.339 6.39214V16.8354C260.339 17.3239 260.462 17.67 260.727 17.8329C260.971 17.9957 261.481 18.0771 262.215 18.0771V18.7082H256.832ZM259.544 0C259.055 0 258.688 0.122143 258.422 0.386786C258.178 0.610714 258.076 0.916071 258.076 1.26214C258.076 1.58786 258.198 1.87286 258.422 2.09679C258.667 2.36143 259.055 2.48357 259.544 2.48357C259.993 2.48357 260.36 2.36143 260.625 2.09679C260.89 1.87286 261.012 1.58786 261.012 1.26214C261.012 0.895714 260.89 0.610714 260.625 0.386786C260.36 0.122143 259.993 0 259.544 0Z" fill="white"/>
<path d="M284.361 8.34686C285.38 9.52758 285.91 10.9933 285.91 12.7644C285.91 14.5354 285.401 15.9604 284.361 17.1411C283.198 18.444 281.608 19.0954 279.569 19.0954C277.529 19.0954 275.898 18.444 274.777 17.1411C273.757 15.9604 273.268 14.5151 273.268 12.7644C273.268 11.0136 273.777 9.50722 274.777 8.34686C275.918 7.04401 277.509 6.39258 279.569 6.39258C281.628 6.39258 283.219 7.04401 284.361 8.34686ZM276.122 8.77436C275.409 9.83294 275.062 11.1561 275.062 12.7644C275.062 14.3726 275.409 15.6551 276.122 16.6729C276.938 17.8536 278.08 18.444 279.569 18.444C281.057 18.444 282.158 17.8536 282.974 16.6729C283.688 15.6347 284.055 14.3319 284.055 12.7644C284.055 11.1969 283.688 9.83294 282.974 8.77436C282.158 7.61401 281.016 7.02365 279.569 7.02365C278.121 7.02365 276.938 7.61401 276.122 8.77436Z" fill="white"/>
<path d="M296.942 18.0768C297.635 18.0768 298.104 17.9546 298.39 17.7307C298.655 17.5271 298.798 17.1403 298.798 16.5907V9.16032C298.798 8.61068 298.675 8.24425 298.451 8.06104C298.206 7.87782 297.737 7.79639 297.044 7.79639L296.962 7.40961L300.47 6.41211V8.67175L300.612 8.54961C301.489 7.87782 302.183 7.42997 302.733 7.16532C303.651 6.69711 304.609 6.45282 305.568 6.45282C306.689 6.45282 307.546 6.75818 308.178 7.38925C308.789 8.02032 309.095 8.89568 309.095 10.0357V16.5907C309.095 17.1403 309.238 17.5271 309.523 17.7307C309.789 17.9546 310.258 18.0768 310.931 18.0768V18.7078H305.547V18.0768C306.22 18.0768 306.689 17.9546 306.995 17.7307C307.28 17.5271 307.423 17.1403 307.423 16.5907V9.97461C307.423 9.18068 307.26 8.59032 306.913 8.22389C306.526 7.77604 305.914 7.55211 305.058 7.55211C304.201 7.55211 303.365 7.73532 302.59 8.08139C301.958 8.36639 301.265 8.81425 300.49 9.44532V16.611C300.49 17.1607 300.633 17.5271 300.918 17.751C301.204 17.975 301.693 18.0971 302.366 18.0971V18.7282H296.983V18.0971L296.942 18.0768Z" fill="white"/>
<path d="M333.443 18.729C333.056 18.9733 332.627 19.0954 332.138 19.0954C331.547 19.0954 331.139 18.9122 330.914 18.5458C330.731 18.2608 330.649 17.874 330.649 17.3651C329.976 17.9147 329.324 18.3219 328.671 18.6069C327.856 18.9326 326.938 19.0954 325.918 19.0954C324.613 19.0954 323.635 18.8104 322.941 18.2404C322.309 17.7111 321.983 17.019 321.983 16.1437C321.983 15.0036 322.697 14.0265 324.144 13.2122C325.633 12.3776 327.795 11.7669 330.649 11.3597V9.54794C330.649 8.75401 330.445 8.14329 330.038 7.71579C329.609 7.24758 328.998 7.02365 328.202 7.02365C327.162 7.02365 326.388 7.16615 325.857 7.45115C325.368 7.71579 325.001 8.18401 324.756 8.85579C324.634 9.16115 324.491 9.40543 324.348 9.56829C324.124 9.79222 323.859 9.91436 323.533 9.91436C323.166 9.91436 322.901 9.81258 322.717 9.62936C322.533 9.44615 322.432 9.18151 322.432 8.83544C322.432 8.18401 322.962 7.61401 324.002 7.12544C325.123 6.63686 326.571 6.39258 328.345 6.39258C329.548 6.39258 330.507 6.67758 331.22 7.24758C331.954 7.83793 332.321 8.67258 332.321 9.77186V16.7951C332.321 17.2022 332.362 17.5279 332.423 17.7519C332.505 18.0165 332.648 18.1386 332.852 18.1386C333.056 18.1386 333.239 18.0979 333.402 18.0369C333.647 17.9351 333.892 17.7722 334.136 17.5686L334.381 17.8333C334.034 18.2404 333.728 18.5254 333.463 18.6883L333.443 18.729ZM325.817 13.3547C324.491 14.0876 323.818 15.0037 323.818 16.0826C323.818 16.6729 324.042 17.1412 324.471 17.5076C324.94 17.8944 325.592 18.0776 326.449 18.0776C327.407 18.0776 328.202 17.9554 328.814 17.7111C329.385 17.5076 329.997 17.1208 330.629 16.6119V12.0519C328.671 12.2351 327.06 12.6626 325.817 13.3547Z" fill="white"/>
<path d="M345.515 18.0778C346.187 18.0778 346.656 17.9557 346.962 17.7114C347.248 17.4671 347.391 17.06 347.391 16.5307V2.95247C347.391 2.54532 347.248 2.23997 346.983 2.05675C346.697 1.85318 346.208 1.7514 345.515 1.7514L345.413 1.40532L349.063 0.224609V16.5103C349.063 17.06 349.205 17.4468 349.491 17.691C349.797 17.9353 350.307 18.0575 351.02 18.0575V18.6885H345.535V18.0575L345.515 18.0778Z" fill="white"/>
<path d="M81.0972 52.9889C81.8924 52.9889 82.4022 52.8871 82.6673 52.6632C82.912 52.4393 83.0344 52.0118 83.0344 51.34V39.3904C83.0344 38.8814 82.912 38.515 82.6673 38.3114C82.3818 38.0671 81.8517 37.945 81.0972 37.945V37.375H92.3329L93.9235 41.0596L93.5768 41.2632C92.9447 40.3268 92.2921 39.6143 91.6192 39.085C90.5996 38.3114 89.4781 37.9246 88.2546 37.9246H85.9707C85.4406 37.9246 85.0531 38.0468 84.788 38.2911C84.5433 38.5354 84.421 38.8814 84.421 39.37V44.7646H87.6021C88.4381 44.7646 89.0295 44.6221 89.3761 44.3168C89.8248 43.93 90.0695 43.1564 90.0695 42.0368H90.5996V48.3475H90.0695C90.0695 47.2482 89.8248 46.4543 89.3557 45.9861C88.9479 45.5586 88.3566 45.355 87.5817 45.355H84.421V51.34C84.421 51.9914 84.5637 52.4189 84.8696 52.6632C85.1755 52.8871 85.7872 52.9889 86.7048 52.9889V53.5589H81.0972V52.9889Z" fill="white"/>
<path d="M97.6753 52.9894C98.2055 52.9894 98.5929 52.8876 98.8172 52.6637C99.0415 52.4397 99.1639 52.0937 99.1639 51.6051V39.5944C99.1639 39.2279 99.0619 38.9633 98.8376 38.8004C98.6133 38.6172 98.2259 38.5358 97.6753 38.5358L97.5938 38.2304L100.489 37.1719V51.5847C100.489 52.0733 100.612 52.4194 100.836 52.6433C101.081 52.8672 101.489 52.969 102.039 52.969V53.539H97.6957V52.969L97.6753 52.9894Z" fill="white"/>
<path d="M115.355 44.3785C116.171 45.4168 116.579 46.7196 116.579 48.2871C116.579 49.8546 116.171 51.1168 115.355 52.155C114.438 53.3153 113.173 53.8853 111.562 53.8853C109.951 53.8853 108.667 53.3153 107.77 52.155C106.974 51.1168 106.566 49.8343 106.566 48.2871C106.566 46.74 106.974 45.3964 107.77 44.3785C108.667 43.2182 109.931 42.6482 111.562 42.6482C113.194 42.6482 114.438 43.2182 115.355 44.3785ZM108.809 44.7653C108.259 45.7018 107.973 46.8825 107.973 48.3075C107.973 49.7325 108.259 50.8521 108.809 51.7682C109.442 52.8064 110.359 53.3357 111.542 53.3357C112.725 53.3357 113.601 52.8064 114.254 51.7682C114.825 50.8521 115.11 49.6918 115.11 48.3075C115.11 46.9232 114.825 45.7018 114.254 44.7653C113.601 43.7271 112.704 43.2182 111.542 43.2182C110.38 43.2182 109.462 43.7271 108.809 44.7653Z" fill="white"/>
<path d="M122.003 52.9892C122.472 52.9892 122.839 52.9078 123.084 52.7245C123.349 52.5413 123.491 52.236 123.491 51.8085V44.9278C123.491 44.5206 123.41 44.256 123.226 44.1135C123.043 43.971 122.676 43.8895 122.125 43.8895L122.003 43.5435L124.796 42.4645V45.2331L125.102 44.9481C126 44.1542 126.693 43.5842 127.182 43.2585C127.998 42.7088 128.712 42.4238 129.303 42.4238C129.609 42.4238 129.874 42.5256 130.098 42.7495C130.323 42.9735 130.445 43.2178 130.445 43.5028C130.445 43.747 130.323 43.9913 130.098 44.2153C129.874 44.4392 129.609 44.541 129.303 44.541C129.119 44.541 128.936 44.5003 128.793 44.4188C128.712 44.3781 128.589 44.2967 128.447 44.1949C128.283 44.0524 128.161 43.971 128.059 43.9506C127.896 43.8895 127.692 43.9303 127.468 44.032C127.101 44.2153 126.734 44.4392 126.326 44.7242C126 44.9685 125.49 45.4163 124.776 46.027V51.8085C124.776 52.2563 124.878 52.5617 125.082 52.7245C125.286 52.9078 125.673 52.9892 126.244 52.9892V53.5592H121.982V52.9892H122.003Z" fill="white"/>
<path d="M136.032 53.5601V52.9901C136.562 52.9901 136.929 52.9087 137.154 52.7662C137.378 52.6237 137.5 52.3387 137.5 51.8908V45.0305C137.5 44.7048 137.398 44.4401 137.215 44.2976C136.991 44.1144 136.583 44.033 136.012 44.033L135.951 43.6869L138.826 42.6283V51.8705C138.826 52.3183 138.928 52.6033 139.132 52.7458C139.336 52.8883 139.723 52.9698 140.314 52.9698V53.5398H136.053L136.032 53.5601ZM138.173 37.0098C137.786 37.0098 137.5 37.1319 137.297 37.3558C137.113 37.5594 137.011 37.824 137.011 38.1294C137.011 38.4144 137.113 38.6587 137.297 38.8623C137.5 39.0862 137.786 39.2083 138.173 39.2083C138.54 39.2083 138.826 39.0862 139.03 38.8623C139.234 38.6587 139.336 38.4144 139.336 38.1294C139.336 37.8037 139.234 37.5391 139.03 37.3558C138.806 37.1319 138.52 37.0098 138.173 37.0098Z" fill="white"/>
<path d="M148.125 52.358C149.022 53.0298 150.001 53.3758 151.102 53.3758C151.856 53.3758 152.448 53.1723 152.937 52.7448C153.426 52.3173 153.671 51.7473 153.671 51.0348C153.671 50.5055 153.447 50.078 152.978 49.7319C152.509 49.3858 151.713 49.0398 150.572 48.6937C148.92 48.1644 147.798 47.6148 147.166 47.0651C146.616 46.5765 146.35 45.9455 146.35 45.1719C146.35 44.4594 146.656 43.869 147.268 43.3805C147.921 42.9123 148.757 42.668 149.776 42.668C150.102 42.668 150.429 42.6883 150.755 42.7494C150.939 42.7901 151.183 42.8512 151.489 42.953C151.713 43.014 151.877 43.0548 151.979 43.0548C152.121 43.0751 152.244 43.0751 152.346 43.0344L153.161 42.668L154.405 45.8844L154.038 46.0676C153.691 45.4365 153.182 44.8462 152.509 44.2965C151.611 43.584 150.694 43.238 149.756 43.238C149.042 43.238 148.492 43.4008 148.084 43.7265C147.676 44.0726 147.452 44.5408 147.452 45.1515C147.452 45.6605 147.717 46.0676 148.247 46.4137C148.655 46.6783 149.409 47.004 150.551 47.3705C152.08 47.859 153.161 48.3476 153.773 48.8565C154.426 49.4062 154.731 50.1187 154.731 51.0144C154.731 51.9508 154.344 52.6837 153.569 53.2537C152.896 53.7423 152.06 53.9865 151.081 53.9865C150.755 53.9865 150.429 53.9458 150.123 53.8848C149.919 53.8644 149.674 53.783 149.348 53.6812C149.042 53.5998 148.838 53.559 148.695 53.5387C148.492 53.5183 148.308 53.5387 148.165 53.5794L147.268 53.9458L145.983 50.5055L146.269 50.3833C146.921 51.279 147.533 51.9305 148.145 52.3783L148.125 52.358Z" fill="white"/>
<path d="M160.318 43.0961C161.093 43.0146 161.685 42.6889 162.133 42.0579C162.582 41.4064 162.827 40.4496 162.888 39.1875H163.336V42.9129H166.293V43.5439H163.336V51.6054C163.336 52.0125 163.459 52.3179 163.703 52.5418C163.948 52.7657 164.295 52.8675 164.784 52.8675C165.09 52.8675 165.437 52.7454 165.804 52.5214C166.11 52.3382 166.436 52.0736 166.742 51.7275L167.007 51.8904C166.64 52.5214 166.232 53.01 165.743 53.3561C165.294 53.6614 164.784 53.8243 164.234 53.8243C163.561 53.8243 163.03 53.6411 162.643 53.2339C162.235 52.7861 162.031 52.1346 162.031 51.2796V43.5032H160.339V43.035L160.318 43.0961Z" fill="white"/>
<path d="M175.021 52.358C175.918 53.0298 176.897 53.3758 177.998 53.3758C178.753 53.3758 179.344 53.1723 179.833 52.7448C180.323 52.3173 180.567 51.7473 180.567 51.0348C180.567 50.5055 180.343 50.078 179.874 49.7319C179.405 49.3858 178.61 49.0398 177.468 48.6937C175.816 48.1644 174.695 47.6148 174.062 47.0651C173.512 46.5765 173.247 45.9455 173.247 45.1719C173.247 44.4594 173.553 43.869 174.164 43.3805C174.817 42.9123 175.653 42.668 176.673 42.668C176.999 42.668 177.325 42.6883 177.651 42.7494C177.835 42.7901 178.08 42.8512 178.386 42.953C178.61 43.014 178.773 43.0548 178.875 43.0548C179.018 43.0751 179.14 43.0751 179.242 43.0344L180.058 42.668L181.301 45.8844L180.934 46.0676C180.588 45.4365 180.078 44.8462 179.405 44.2965C178.508 43.584 177.59 43.238 176.652 43.238C175.959 43.238 175.388 43.4008 174.98 43.7265C174.572 44.0726 174.348 44.5408 174.348 45.1515C174.348 45.6605 174.613 46.0676 175.143 46.4137C175.551 46.6783 176.306 47.004 177.447 47.3705C178.977 47.859 180.058 48.3476 180.669 48.8565C181.301 49.4062 181.628 50.1187 181.628 51.0144C181.628 51.9508 181.24 52.6837 180.465 53.2537C179.793 53.7423 178.956 53.9865 177.978 53.9865C177.651 53.9865 177.325 53.9458 176.999 53.8848C176.795 53.8644 176.55 53.783 176.224 53.6812C175.918 53.5998 175.714 53.559 175.571 53.5387C175.368 53.5183 175.184 53.5387 175.041 53.5794L174.144 53.9458L172.859 50.5055L173.145 50.3833C173.797 51.279 174.409 51.9305 175.021 52.3783V52.358Z" fill="white"/>
<path d="M209.849 51.4023C210.033 51.9926 210.318 52.4201 210.665 52.6441C210.971 52.868 211.44 52.9901 212.072 52.9901V53.5601H206.485V52.9901C207.423 52.9901 208.035 52.8883 208.32 52.7051C208.626 52.4812 208.687 52.0741 208.463 51.4837L207.035 47.6566H200.388L199.205 50.9544C198.94 51.7687 198.94 52.3183 199.205 52.6033C199.47 52.868 200.082 52.9901 201.081 52.9901V53.5601H196.289V52.9901C196.901 52.9901 197.349 52.8476 197.655 52.6033C197.961 52.3183 198.267 51.6669 198.614 50.6898L203.222 37.5187L204.446 37.0098L209.87 51.4023H209.849ZM200.592 47.0051H206.77L203.63 38.5162L200.592 47.0051Z" fill="white"/>
<path d="M219.148 52.358C220.045 53.0298 221.024 53.3758 222.105 53.3758C222.859 53.3758 223.471 53.1723 223.94 52.7448C224.429 52.3173 224.674 51.7473 224.674 51.0348C224.674 50.5055 224.45 50.078 223.981 49.7319C223.532 49.3858 222.717 49.0398 221.575 48.6937C219.923 48.1644 218.801 47.6148 218.169 47.0651C217.619 46.5765 217.354 45.9455 217.354 45.1719C217.354 44.4594 217.659 43.869 218.271 43.3805C218.924 42.9123 219.76 42.668 220.8 42.668C221.126 42.668 221.452 42.6883 221.779 42.7494C221.962 42.7901 222.207 42.8512 222.513 42.953C222.737 43.014 222.9 43.0548 223.002 43.0548C223.145 43.0751 223.267 43.0751 223.369 43.0344L224.185 42.668L225.429 45.8844L225.062 46.0676C224.715 45.4365 224.205 44.8462 223.532 44.2965C222.635 43.584 221.717 43.238 220.779 43.238C220.066 43.238 219.515 43.4008 219.107 43.7265C218.699 44.0726 218.496 44.5408 218.496 45.1515C218.496 45.6605 218.761 46.0676 219.291 46.4137C219.699 46.6783 220.453 47.004 221.595 47.3705C223.124 47.859 224.205 48.3476 224.817 48.8565C225.469 49.4062 225.775 50.1187 225.775 51.0144C225.775 51.9508 225.388 52.6837 224.613 53.2537C223.94 53.7423 223.104 53.9865 222.125 53.9865C221.799 53.9865 221.473 53.9458 221.167 53.8848C220.963 53.8644 220.698 53.783 220.392 53.6812C220.086 53.5998 219.882 53.559 219.739 53.5387C219.536 53.5183 219.352 53.5387 219.209 53.5794L218.312 53.9458L217.027 50.5055L217.313 50.3833C217.965 51.279 218.577 51.9305 219.189 52.3783L219.148 52.358Z" fill="white"/>
<path d="M233.096 52.358C233.993 53.0298 234.972 53.3758 236.073 53.3758C236.807 53.3758 237.419 53.1723 237.909 52.7448C238.398 52.3173 238.643 51.7473 238.643 51.0348C238.643 50.5055 238.418 50.078 237.949 49.7319C237.48 49.3858 236.685 49.0398 235.543 48.6937C233.891 48.1644 232.77 47.6148 232.138 47.0651C231.587 46.5765 231.322 45.9455 231.322 45.1719C231.322 44.4594 231.628 43.869 232.24 43.3805C232.892 42.9123 233.728 42.668 234.748 42.668C235.074 42.668 235.4 42.6883 235.747 42.7494C235.931 42.7901 236.175 42.8512 236.481 42.953C236.705 43.014 236.869 43.0548 236.971 43.0548C237.113 43.0751 237.236 43.0751 237.338 43.0344L238.153 42.668L239.397 45.8844L239.03 46.0676C238.683 45.4365 238.174 44.8462 237.501 44.2965C236.604 43.584 235.686 43.238 234.748 43.238C234.034 43.238 233.484 43.4008 233.076 43.7265C232.668 44.0726 232.444 44.5408 232.444 45.1515C232.444 45.6605 232.709 46.0676 233.239 46.4137C233.647 46.6783 234.401 47.004 235.543 47.3705C237.073 47.859 238.153 48.3476 238.765 48.8565C239.418 49.4062 239.723 50.1187 239.723 51.0144C239.723 51.9508 239.336 52.6837 238.561 53.2537C237.888 53.7423 237.052 53.9865 236.073 53.9865C235.747 53.9865 235.421 53.9458 235.095 53.8848C234.891 53.8644 234.626 53.783 234.32 53.6812C234.014 53.5998 233.81 53.559 233.667 53.5387C233.463 53.5183 233.28 53.5387 233.137 53.5794L232.24 53.9458L230.955 50.5055L231.241 50.3833C231.893 51.279 232.505 51.9305 233.117 52.3783L233.096 52.358Z" fill="white"/>
<path d="M254.67 44.3785C255.486 45.4168 255.894 46.7196 255.894 48.2871C255.894 49.8546 255.486 51.1168 254.67 52.155C253.752 53.3153 252.488 53.8853 250.877 53.8853C249.266 53.8853 247.982 53.3153 247.084 52.155C246.289 51.1168 245.881 49.8343 245.881 48.2871C245.881 46.74 246.289 45.3964 247.084 44.3785C247.982 43.2182 249.246 42.6482 250.877 42.6482C252.509 42.6482 253.752 43.2182 254.67 44.3785ZM248.124 44.7653C247.574 45.7018 247.288 46.8825 247.288 48.3075C247.288 49.7325 247.574 50.8521 248.124 51.7682C248.757 52.8064 249.674 53.3357 250.857 53.3357C252.04 53.3357 252.916 52.8064 253.569 51.7682C254.14 50.8521 254.425 49.6918 254.425 48.3075C254.425 46.9232 254.14 45.7018 253.569 44.7653C252.916 43.7271 252.019 43.2182 250.857 43.2182C249.695 43.2182 248.777 43.7271 248.124 44.7653Z" fill="white"/>
<path d="M269.148 53.0303C268.373 53.6207 267.496 53.9057 266.477 53.9057C265.151 53.9057 264.009 53.3764 263.071 52.3382C262.133 51.3 261.644 50.0582 261.644 48.6128C261.644 46.8621 262.174 45.4168 263.255 44.2768C264.295 43.1978 265.518 42.6482 266.966 42.6482C267.741 42.6482 268.455 42.8111 269.128 43.1571C269.76 43.4625 270.168 43.8289 270.372 44.2564C270.576 44.6635 270.596 45.03 270.453 45.3353C270.31 45.6611 270.045 45.8239 269.678 45.8239C269.393 45.8239 269.169 45.7221 269.026 45.5389C268.944 45.4371 268.842 45.2335 268.72 44.9485L268.577 44.6025C268.332 44.1343 268.067 43.8085 267.802 43.6253C267.456 43.4014 266.987 43.2793 266.416 43.2793C265.498 43.2793 264.723 43.7068 264.111 44.5414C263.459 45.4575 263.133 46.6789 263.133 48.2057C263.133 49.7325 263.459 50.8114 264.091 51.6664C264.764 52.5621 265.702 53.0303 266.885 53.0303C267.578 53.0303 268.169 52.8878 268.679 52.5825C269.27 52.2568 269.882 51.7071 270.535 50.9132L270.881 51.0964C270.29 51.9718 269.719 52.6232 269.148 53.0507V53.0303Z" fill="white"/>
<path d="M276.53 53.5601V52.9901C277.06 52.9901 277.427 52.9087 277.651 52.7662C277.876 52.6237 277.998 52.3387 277.998 51.8908V45.0305C277.998 44.7048 277.896 44.4401 277.713 44.2976C277.488 44.1144 277.08 44.033 276.509 44.033L276.448 43.6869L279.323 42.6283V51.8705C279.323 52.3183 279.425 52.6033 279.629 52.7458C279.833 52.8883 280.221 52.9698 280.812 52.9698V53.5398H276.55L276.53 53.5601ZM278.671 37.0098C278.283 37.0098 277.978 37.1319 277.794 37.3558C277.611 37.5594 277.509 37.824 277.509 38.1294C277.509 38.4144 277.611 38.6587 277.794 38.8623C277.998 39.0862 278.283 39.2083 278.671 39.2083C279.038 39.2083 279.323 39.0862 279.527 38.8623C279.731 38.6587 279.833 38.4144 279.833 38.1294C279.833 37.8037 279.731 37.5391 279.527 37.3558C279.303 37.1319 279.018 37.0098 278.671 37.0098Z" fill="white"/>
<path d="M296.228 53.5794C295.922 53.8033 295.576 53.9051 295.188 53.9051C294.719 53.9051 294.413 53.7423 294.21 53.4165C294.067 53.1723 293.985 52.8262 293.985 52.358C293.455 52.8465 292.945 53.213 292.415 53.4573C291.763 53.7423 291.049 53.9051 290.233 53.9051C289.214 53.9051 288.418 53.6608 287.868 53.1519C287.358 52.6837 287.113 52.073 287.113 51.2994C287.113 50.2815 287.684 49.4265 288.826 48.714C289.988 47.9812 291.722 47.4315 293.965 47.0855V45.4773C293.965 44.7851 293.802 44.2355 293.475 43.8487C293.129 43.4415 292.66 43.238 292.028 43.238C291.212 43.238 290.58 43.3601 290.172 43.6044C289.785 43.8487 289.499 44.2558 289.295 44.8462C289.193 45.1312 289.091 45.3348 288.969 45.4773C288.785 45.6808 288.581 45.7826 288.316 45.7826C288.031 45.7826 287.807 45.7012 287.664 45.518C287.521 45.3551 287.44 45.1312 287.44 44.8258C287.44 44.2355 287.847 43.7469 288.683 43.3194C289.581 42.8919 290.723 42.668 292.13 42.668C293.088 42.668 293.843 42.9326 294.413 43.4415C295.005 43.9708 295.29 44.7037 295.29 45.6808V51.8898C295.29 52.2562 295.311 52.5412 295.372 52.7448C295.433 52.9687 295.535 53.0908 295.719 53.0908C295.882 53.0908 296.024 53.0705 296.147 53.0094C296.33 52.928 296.534 52.7855 296.718 52.6023L296.922 52.8465C296.657 53.213 296.412 53.4573 296.188 53.6201L296.228 53.5794ZM290.192 48.8158C289.132 49.4673 288.602 50.2815 288.602 51.2383C288.602 51.7676 288.765 52.1748 289.112 52.5005C289.479 52.8262 290.009 53.0094 290.661 53.0094C291.416 53.0094 292.048 52.9076 292.537 52.6837C292.986 52.5005 293.475 52.1748 293.965 51.7065V47.6758C292.415 47.8387 291.151 48.2255 290.152 48.8362L290.192 48.8158Z" fill="white"/>
<path d="M302.04 43.0961C302.815 43.0146 303.427 42.6889 303.855 42.0579C304.304 41.4064 304.548 40.4496 304.609 39.1875H305.058V42.9129H308.015V43.5439H305.058V51.6054C305.058 52.0125 305.18 52.3179 305.425 52.5418C305.67 52.7657 306.037 52.8675 306.506 52.8675C306.812 52.8675 307.158 52.7454 307.525 52.5214C307.831 52.3382 308.158 52.0736 308.463 51.7275L308.728 51.8904C308.361 52.5214 307.954 53.01 307.464 53.3561C306.995 53.6614 306.506 53.8243 305.955 53.8243C305.282 53.8243 304.752 53.6411 304.365 53.2339C303.957 52.7861 303.753 52.1346 303.753 51.2796V43.5032H302.06V43.035L302.04 43.0961Z" fill="white"/>
<path d="M314.601 53.5601V52.9901C315.131 52.9901 315.498 52.9087 315.723 52.7662C315.947 52.6237 316.069 52.3387 316.069 51.8908V45.0305C316.069 44.7048 315.967 44.4401 315.784 44.2976C315.559 44.1144 315.152 44.033 314.581 44.033L314.52 43.6869L317.395 42.6283V51.8705C317.395 52.3183 317.497 52.6033 317.701 52.7458C317.905 52.8883 318.292 52.9698 318.883 52.9698V53.5398H314.621L314.601 53.5601ZM316.763 37.0098C316.375 37.0098 316.09 37.1319 315.886 37.3558C315.702 37.5594 315.6 37.824 315.6 38.1294C315.6 38.4144 315.702 38.6587 315.886 38.8623C316.09 39.0862 316.375 39.2083 316.763 39.2083C317.13 39.2083 317.415 39.0862 317.619 38.8623C317.823 38.6587 317.925 38.4144 317.925 38.1294C317.925 37.8037 317.823 37.5391 317.619 37.3558C317.395 37.1319 317.109 37.0098 316.763 37.0098Z" fill="white"/>
<path d="M332.872 44.3785C333.687 45.4168 334.095 46.7196 334.095 48.2871C334.095 49.8546 333.687 51.1168 332.872 52.155C331.954 53.3153 330.69 53.8853 329.079 53.8853C327.468 53.8853 326.183 53.3153 325.286 52.155C324.491 51.1168 324.083 49.8343 324.083 48.2871C324.083 46.74 324.491 45.3964 325.286 44.3785C326.183 43.2182 327.448 42.6482 329.079 42.6482C330.71 42.6482 331.954 43.2182 332.872 44.3785ZM326.346 44.7653C325.796 45.7018 325.51 46.8825 325.51 48.3075C325.51 49.7325 325.796 50.8521 326.346 51.7682C326.999 52.8064 327.896 53.3357 329.079 53.3357C330.262 53.3357 331.139 52.8064 331.791 51.7682C332.362 50.8521 332.647 49.6918 332.647 48.3075C332.647 46.9232 332.362 45.7018 331.791 44.7653C331.139 43.7271 330.241 43.2182 329.079 43.2182C327.917 43.2182 326.999 43.7271 326.346 44.7653Z" fill="white"/>
<path d="M339.948 52.9896C340.498 52.9896 340.865 52.8878 341.09 52.6843C341.314 52.501 341.416 52.155 341.416 51.6664V45.0707C341.416 44.5821 341.314 44.2564 341.13 44.1139C340.947 43.951 340.58 43.8696 340.009 43.8696L339.948 43.5235L342.741 42.6482V44.6432L342.843 44.5414C343.537 43.951 344.087 43.5439 344.515 43.2996C345.25 42.8925 346.004 42.6685 346.779 42.6685C347.656 42.6685 348.349 42.9536 348.838 43.5032C349.328 44.0528 349.573 44.8468 349.573 45.8646V51.6664C349.573 52.155 349.695 52.4807 349.919 52.6843C350.144 52.8878 350.511 52.9896 351.041 52.9896V53.5596H346.779V52.9896C347.309 52.9896 347.676 52.8878 347.921 52.6843C348.145 52.501 348.267 52.155 348.267 51.6664V45.8035C348.267 45.091 348.125 44.5821 347.86 44.236C347.554 43.8493 347.064 43.6457 346.371 43.6457C345.678 43.6457 345.046 43.8085 344.434 44.1139C343.924 44.3582 343.374 44.7653 342.762 45.315V51.6664C342.762 52.155 342.884 52.4807 343.108 52.6843C343.333 52.8878 343.72 52.9896 344.25 52.9896V53.5596H339.989V52.9896H339.948Z" fill="white"/>
</g>
<defs>
<clipPath id="clip0_67_1808">
<rect width="351" height="57" fill="white"/>
</clipPath>
</defs>
</svg>
