<svg width="296" height="295" viewBox="0 0 296 295" fill="none" xmlns="http://www.w3.org/2000/svg">
<g clip-path="url(#clip0_67_1704)">
<path d="M117.085 80.3745H174.795V88.048H150.661V184.024H159.731V165.896C159.731 165.896 159.384 149.876 164.197 143.942C168.038 139.212 171.486 136.546 179.469 135.433V144.382C174.309 145.147 172.481 146.816 170.607 149.389C168.362 152.426 168.247 157.967 168.177 162.696V183.7H176.345V191.675H168.177V213.119H159.592V192.347H116.576V184.048H142.4V88.0712H116.831L117.108 80.3977L117.085 80.3745Z" fill="#231815"/>
<path d="M148 39.2251C88.7397 39.2251 40.7021 87.3524 40.7021 146.723C40.7021 206.094 88.7397 254.222 148 254.222C207.26 254.222 255.298 206.094 255.298 146.723C255.298 87.3524 207.26 39.2251 148 39.2251ZM148 251.926C90.0123 251.926 43.0161 204.842 43.0161 146.747C43.0161 88.6506 90.0123 41.5434 148 41.5434C205.987 41.5434 252.984 88.6275 252.984 146.723C252.984 204.819 205.987 251.903 148 251.903V251.926Z" fill="#231815"/>
<path d="M148 0C66.2483 0 0 66.0475 0 147.512C0 228.976 66.2483 295 148 295C229.752 295 296 228.976 296 147.512C296 66.0475 229.729 0 148 0ZM148 291.824C68.03 291.824 3.19325 227.214 3.19325 147.512C3.19325 67.8094 68.03 3.17603 148 3.17603C227.97 3.17603 292.807 67.7862 292.807 147.488C292.807 227.191 227.97 291.801 148 291.801V291.824Z" fill="#231815"/>
<path d="M36.2827 69.5946C36.2827 69.5946 36.3522 69.4323 36.3753 69.3396C36.4216 69.2237 36.4679 69.1309 36.5373 69.0382C36.653 68.8759 36.8381 68.6441 37.1158 68.3195C37.4629 67.9254 37.6943 67.7168 37.8331 67.7168C37.9257 67.7168 38.0182 67.8559 38.1339 68.1341C38.1802 68.25 38.2265 68.3195 38.2496 68.3891C38.2959 68.505 38.3653 68.5977 38.4347 68.6905C39.0826 69.5714 39.7768 70.5451 40.4941 71.6115C41.1883 72.6779 41.6511 73.3966 41.8594 73.7907L42.9932 71.9361C43.1089 71.7274 43.1783 71.5188 43.2014 71.3797C43.2246 71.2869 43.2477 71.171 43.2477 71.0319C43.2477 70.8465 43.294 70.661 43.3634 70.4987C43.4791 70.2437 43.7337 69.8728 44.1039 69.386C44.4047 68.9918 44.7055 68.7368 44.9832 68.5977C45.2146 68.4818 45.4228 68.4818 45.5848 68.5977C45.7236 68.6905 45.7931 68.8527 45.7931 69.0846C45.7931 69.3396 45.7005 69.5946 45.5154 69.8496C44.613 71.0319 43.618 72.4461 42.5073 74.0689C41.5123 75.5294 40.7949 76.619 40.3553 77.3608C41.466 78.1027 42.3453 78.7518 42.9932 79.285C43.6642 79.795 44.1733 80.2586 44.5204 80.6759L46.0707 78.1954L46.3484 77.6158C46.4178 77.4072 46.5104 77.2449 46.5798 77.129C46.6955 76.9203 46.8806 76.6653 47.1352 76.3639C47.436 75.993 47.6674 75.8308 47.8293 75.8539C47.9219 75.8539 48.0145 75.993 48.107 76.248C48.1533 76.3408 48.1764 76.3871 48.1996 76.4335C48.2227 76.503 48.269 76.5494 48.3153 76.5726L51.4854 78.7981C51.9713 79.1459 52.3647 79.4704 52.6655 79.7486C52.9894 80.0732 53.2671 80.3977 53.4985 80.6991C53.8456 81.2787 53.9382 81.6496 53.753 81.7887C53.6142 81.9278 53.2903 81.8351 52.8043 81.4873L47.2046 77.6854C46.7881 78.3113 46.117 79.3545 45.1914 80.815C44.1733 82.4842 43.3866 83.852 42.7849 84.9647C42.6924 85.127 42.623 85.2893 42.5767 85.4516C42.5535 85.5443 42.5304 85.6834 42.4841 85.8225C42.4378 86.1471 42.299 86.4021 42.1139 86.5875C41.8131 86.8425 41.1883 87.1903 40.2165 87.6771C39.8462 87.8162 39.638 87.8394 39.5917 87.7235C39.5454 87.6307 39.6611 87.4453 39.9851 87.1439C40.6098 86.518 41.3271 85.6138 42.137 84.4083C42.7618 83.5042 43.3171 82.6001 43.8262 81.696L39.4529 78.7286C38.7124 79.8877 38.0645 80.9309 37.5091 81.8583C36.8612 82.9247 36.491 83.597 36.3984 83.8751C36.329 84.0142 36.2827 84.1302 36.2596 84.2692C36.2596 84.3388 36.2365 84.4547 36.1902 84.5706C36.1208 84.8952 35.9819 85.1734 35.7505 85.4052C35.4034 85.7298 34.663 86.2166 33.5292 86.8889C33.1821 87.028 32.9738 87.0744 32.9044 86.9816C32.7887 86.9121 32.9044 86.6803 33.2978 86.2862C34.4547 85.0343 35.8662 83.1333 37.5323 80.6064C38.4579 79.1691 39.6842 77.2217 41.142 74.7643L41.3734 74.4166C40.9801 73.837 40.4479 73.1647 39.7537 72.3997C38.9206 71.4724 37.9951 70.5915 36.9769 69.7105C36.5604 70.2901 35.7968 71.4492 34.663 73.2111C33.5292 74.9962 32.6499 76.4335 31.9788 77.5694C31.8862 77.7317 31.8168 77.894 31.7706 78.0563C31.7474 78.149 31.7243 78.2881 31.678 78.4504C31.5854 78.7981 31.4466 79.0531 31.2615 79.2386C30.9838 79.4704 30.3822 79.8182 29.4797 80.2818C29.1558 80.4441 28.9475 80.4905 28.8318 80.4441C28.7161 80.3977 28.8318 80.1891 29.1558 79.8182C29.526 79.4704 30.0814 78.8213 30.7987 77.8245C31.7011 76.619 32.673 75.2048 33.7143 73.5588L35.9588 70.0119C36.0514 69.8496 36.1208 69.7105 36.1439 69.5946H36.2827Z" fill="#231815"/>
<path d="M59.5612 51.2338L57.7794 53.0421C57.6637 53.158 57.5943 53.2739 57.5249 53.3898C57.4786 53.4362 57.4555 53.5289 57.4092 53.6217C57.3398 53.8071 57.2241 53.9462 57.0621 54.0389C56.8307 54.178 56.3216 54.3635 55.5812 54.5953C55.0721 54.6649 54.7713 54.6649 54.725 54.5953C54.6556 54.5026 54.8639 54.3171 55.3035 54.0389C55.8589 53.668 56.5993 53.0885 57.5249 52.2771C58.3348 51.5584 59.029 50.9093 59.6074 50.3065L59.8388 49.9124C59.8851 49.7965 59.9545 49.6806 60.024 49.5879C60.1628 49.4488 60.4636 49.2169 60.8801 48.9156C61.2041 48.6606 61.4123 48.5678 61.528 48.6374C61.5974 48.6837 61.6437 48.8228 61.6669 49.0315L61.7131 49.2169C62.014 50.237 62.2222 51.1179 62.3842 51.883C62.5462 52.7175 62.6619 53.6448 62.7776 54.6649C63.5412 54.8967 64.1891 55.0358 64.7213 55.059C65.0452 55.0822 65.3923 55.0822 65.7857 55.059C66.0171 55.059 66.1791 55.0358 66.2948 55.059C66.4799 55.059 66.665 55.1285 66.8732 55.2213C67.4517 55.4763 67.9145 55.7313 68.2616 56.0095C68.5393 56.2413 68.7013 56.4268 68.7938 56.6354C68.8401 56.7977 68.817 56.9368 68.7013 57.0295C68.5856 57.1222 68.4699 57.1686 68.3079 57.1222C67.9145 57.0759 67.4054 56.96 66.7807 56.7513C66.4105 56.6354 65.832 56.4499 65.0684 56.1486C64.4899 55.9399 64.0734 55.7777 63.8188 55.6849C63.3792 55.5458 63.0321 55.4299 62.7776 55.3835C62.7776 56.7513 62.6619 58.1423 62.4305 59.5333C62.2222 60.8083 61.9214 62.2456 61.5049 63.7989C61.3892 64.193 61.2735 64.3784 61.1578 64.3553C61.0652 64.3553 61.0421 64.1002 61.1347 63.683C61.4586 62.292 61.6437 60.5069 61.69 58.3277C61.7363 55.1285 61.2966 52.5089 60.3942 50.492L60.024 50.8397L59.5612 51.3034V51.2338ZM61.9908 45.2527C61.5974 45.2991 61.0652 45.3918 60.4405 45.5773C60.024 45.7395 59.7694 45.7627 59.7463 45.6468C59.7 45.5077 59.862 45.2991 60.2322 44.9745C60.6024 44.6963 60.9958 44.4645 61.3892 44.2558C61.69 44.0936 62.0834 43.9313 62.523 43.7458C62.8933 43.6067 63.1478 43.5604 63.2866 43.6067C63.3792 43.6067 63.4717 43.6995 63.5643 43.8617C63.6106 43.9545 63.6569 44.0008 63.68 44.0472C63.7263 44.1399 63.7957 44.2095 63.8651 44.279L72.5193 54.549C72.9821 55.1517 73.3523 55.6849 73.63 56.1254C73.8151 56.4268 74.0002 56.7513 74.1853 57.0991C74.3936 57.725 74.3936 58.0727 74.139 58.0959C73.7457 58.1191 73.1903 57.7018 72.4499 56.8441L67.1278 50.5615L65.8088 51.9061C65.8088 51.9061 65.6237 52.1148 65.5774 52.2307C65.5312 52.3002 65.4849 52.3698 65.4386 52.4857C65.3692 52.6712 65.2766 52.7871 65.1609 52.8566C64.9758 52.9725 64.6056 53.0885 64.0502 53.2507C63.5874 53.3666 63.356 53.3666 63.3329 53.2739C63.3098 53.158 63.518 52.9725 63.9345 52.6712C64.351 52.3234 64.837 51.8598 65.3923 51.3266C65.9477 50.7934 66.3873 50.3529 66.665 50.0283L62.685 45.3222C62.685 45.3222 62.361 45.2295 61.9445 45.2759L61.9908 45.2527ZM63.6569 41.0103C63.3098 41.0798 62.7313 41.2189 61.8983 41.4507C61.4123 41.6362 61.1578 41.6594 61.1347 41.5203C61.0884 41.4044 61.2272 41.1725 61.5512 40.848C61.9214 40.5698 62.3842 40.2684 62.9395 39.9902C63.2866 39.8048 63.7031 39.6193 64.2585 39.4107C64.6056 39.2947 64.837 39.2484 64.9758 39.2947C65.0684 39.2947 65.2072 39.4338 65.346 39.6657L65.5543 39.9439L76.8695 53.3667C77.3786 53.9694 77.7951 54.5258 78.0727 55.0126C78.2579 55.314 78.4661 55.7081 78.6744 56.2181L78.7206 56.2645C78.952 56.8672 78.952 57.215 78.7206 57.3077C78.443 57.3773 77.9802 57.0295 77.3091 56.2413L64.4667 41.0566C64.4667 41.0566 64.0965 40.9407 63.68 41.0334L63.6569 41.0103Z" fill="#231815"/>
<path d="M87.5599 26.3124C87.5599 26.3124 87.6525 26.2197 87.6756 26.1733C87.7219 26.127 87.7682 26.0574 87.8376 26.011C87.9765 25.9183 88.2078 25.8256 88.5318 25.6633C89.2028 25.3851 89.6194 25.3156 89.7582 25.4547C89.8276 25.5242 89.8276 25.7329 89.7351 26.1038C89.7119 26.1965 89.6888 26.2661 89.6656 26.3124C89.6656 26.4052 89.6656 26.4979 89.6656 26.5442C89.8508 28.0511 89.9665 29.2566 90.0127 30.1376C90.0821 31.4822 90.0127 32.5254 89.8508 33.2904C89.6888 33.7309 89.5499 33.9395 89.4342 33.9627C89.3185 33.9627 89.226 33.7773 89.2028 33.3831C89.1566 32.5486 89.0409 31.5517 88.8326 30.3694C88.6012 28.9553 88.3467 27.7266 88.0227 26.7297L85.9402 28.0048C85.8245 28.0743 85.7088 28.167 85.6394 28.2598C85.5931 28.3061 85.5237 28.3525 85.4543 28.4452C85.2923 28.6075 85.1303 28.7234 84.9683 28.7698C84.6907 28.8393 84.2047 28.8625 83.5105 28.8625C83.256 28.8393 83.1172 28.7698 83.1172 28.7002C83.094 28.5843 83.2791 28.4684 83.6725 28.3293C84.1353 28.1207 84.575 27.912 84.9915 27.7266C85.5237 27.4716 86.0096 27.2165 86.5187 26.9615L87.1897 26.6138C87.3517 26.4979 87.4674 26.4052 87.5368 26.3356L87.5599 26.3124ZM92.72 29.7898C92.5118 29.7435 92.1878 29.7435 91.7945 29.7898C91.4474 29.8362 91.2391 29.7898 91.216 29.6739C91.1697 29.558 91.3085 29.4189 91.6556 29.2566C92.7432 28.793 93.4605 28.5611 93.8307 28.5611C94.039 28.5611 94.201 28.7002 94.2704 28.9784L94.3629 29.1871L95.6588 32.224C96.4686 31.8299 97.1628 31.4822 97.7413 31.1576C98.4355 30.8099 99.2222 30.3694 100.032 29.8362C100.31 29.6739 100.541 29.5116 100.726 29.3494C100.819 29.2566 100.935 29.1639 101.073 29.0016C101.259 28.8162 101.444 28.6771 101.629 28.5611C101.953 28.3989 102.462 28.1902 103.156 27.9584C103.549 27.8193 103.896 27.7729 104.174 27.8193C104.429 27.8425 104.614 27.9352 104.683 28.1207C104.753 28.2598 104.683 28.4452 104.544 28.6307C104.359 28.8393 104.105 29.0016 103.734 29.1639C101.999 29.7898 99.7313 30.7867 96.9546 32.1776C94.5249 33.3832 92.2341 34.5655 90.0359 35.6782C89.388 36.1651 88.9946 36.4896 88.8789 36.6055C88.8095 36.6751 88.7169 36.7678 88.6012 36.8837C88.3698 37.1851 88.1153 37.3706 87.8145 37.4633C87.3748 37.556 86.5649 37.5792 85.3617 37.556C84.922 37.5097 84.7138 37.4401 84.7369 37.301C84.7369 37.1851 85.0146 37.046 85.5237 36.8837C86.4724 36.5824 87.6988 36.0723 89.2028 35.4C90.4755 34.7973 92.1878 33.9395 94.3398 32.8268L93.044 29.9753C93.044 29.9753 92.8589 29.813 92.6506 29.7666L92.72 29.7898ZM100.958 36.0028C100.958 36.0028 101.143 35.8173 101.259 35.6782C101.42 35.4928 101.582 35.3537 101.721 35.2609C101.976 35.0987 102.369 34.9132 102.925 34.7277C103.318 34.5886 103.665 34.5423 103.92 34.5887C104.151 34.635 104.29 34.7509 104.336 34.9132C104.382 35.0523 104.336 35.2146 104.151 35.4C103.989 35.5855 103.758 35.7246 103.434 35.8173C102.948 35.9796 101.999 36.3969 100.587 37.0692C99.4768 37.5792 98.5281 38.0429 97.7413 38.4602C98.0421 38.6224 98.2272 38.7615 98.2967 38.8775C98.3198 38.947 98.3429 39.0629 98.2967 39.2252V39.3875C99.1297 39.4802 99.847 39.5729 100.449 39.6193C100.958 39.6657 101.467 39.712 101.953 39.712C102.092 39.712 102.253 39.712 102.415 39.6888C102.508 39.6888 102.647 39.6425 102.832 39.5961C103.272 39.5034 103.665 39.4802 103.989 39.5266C104.567 39.5497 105.354 39.6888 106.326 39.967C106.789 40.1061 106.997 40.3843 106.928 40.7784C106.835 41.1494 106.511 41.2885 105.933 41.1725L103.179 40.7321C102.138 40.5698 101.351 40.4307 100.773 40.3148C99.8239 40.1525 98.9677 40.0134 98.2272 39.9207C97.6488 41.5203 96.9546 42.8881 96.1678 44.0704C95.3348 45.2759 94.2241 46.4814 92.8589 47.6869C92.5581 47.9419 92.373 48.0346 92.3498 47.9651C92.3267 47.8955 92.4424 47.6869 92.7663 47.3391C93.7845 46.18 94.6175 44.9745 95.2654 43.7458C95.9133 42.4708 96.3761 41.1494 96.6538 39.7352C96.6306 39.5266 96.5843 39.3643 96.5149 39.3179C96.4224 39.202 96.2141 39.2484 95.9364 39.4107L93.5068 40.8016C93.5068 40.8016 93.3217 40.9407 93.2522 41.0334C93.206 41.0798 93.1366 41.1494 93.044 41.2189C92.882 41.4276 92.6969 41.5666 92.4655 41.6362C92.0953 41.7289 91.4011 41.7753 90.383 41.7521C89.9896 41.7057 89.7813 41.6362 89.7582 41.5435C89.7119 41.4507 89.8739 41.358 90.2441 41.2421C91.1928 40.9407 92.211 40.5234 93.2985 40.0134C93.9927 39.6888 95.0803 39.1556 96.5843 38.3906L97.0703 38.1356L100.379 36.4433C100.611 36.3274 100.796 36.1883 100.935 36.026L100.958 36.0028ZM95.9596 22.4177C95.9596 22.4177 96.0058 22.3482 96.0521 22.3018C96.1447 22.1627 96.2372 22.07 96.3529 22.0004C96.5149 21.8613 96.8157 21.7222 97.2091 21.5832C97.7876 21.3513 98.1347 21.2586 98.2735 21.2818C98.3661 21.305 98.4123 21.4672 98.3661 21.7222C98.3661 21.8613 98.3661 21.9541 98.3661 22.0236C98.3661 22.1627 98.3661 22.325 98.4123 22.4641V22.7887C98.5975 24.2723 98.7132 25.3619 98.7363 26.0574C98.8057 27.1702 98.7826 28.0279 98.6669 28.6771C98.5512 29.1871 98.4124 29.4421 98.2735 29.4653C98.1578 29.4653 98.0653 29.2334 98.0421 28.7698C97.9264 27.9352 97.7644 27.0079 97.5562 25.9415C97.3017 24.7592 97.024 23.6696 96.7 22.7191L94.6175 23.8319L94.3629 23.9942L93.9233 24.3883C93.7382 24.5737 93.5762 24.6896 93.3911 24.736C93.1134 24.8055 92.6043 24.8519 91.8639 24.8751C91.6094 24.8751 91.4937 24.8055 91.4937 24.736C91.4937 24.6896 91.6556 24.5737 91.9796 24.4346C92.3498 24.2723 92.8357 24.0637 93.4605 23.7623C93.9002 23.5537 94.4786 23.2523 95.2422 22.8582L95.8439 22.5336C95.8439 22.5336 95.9364 22.4641 95.9827 22.4177H95.9596ZM94.4092 37.2315C94.1315 37.2083 93.6919 37.1387 93.1134 37.0228C92.8357 36.9765 92.72 36.9301 92.7432 36.8374C92.7432 36.7446 92.9283 36.6519 93.3448 36.536C93.8539 36.3737 94.5712 36.0955 95.5431 35.7014C96.2372 35.3769 97.0471 35.0291 97.9033 34.635C98.0421 34.5655 98.2041 34.5655 98.3892 34.635C98.5512 34.6814 98.6437 34.7973 98.7132 34.9132C98.7826 35.0523 98.7594 35.2146 98.6437 35.4C98.5049 35.5855 98.2735 35.771 97.9496 35.9564L95.4274 37.1619C95.1497 37.2315 94.8257 37.2547 94.4092 37.2315Z" fill="#231815"/>
<path d="M124.097 19.0562C124.12 18.8476 124.051 18.6389 123.843 18.4303C123.611 18.2448 123.496 18.1289 123.542 18.0362C123.588 17.9435 123.82 17.8971 124.236 17.8739C124.838 17.9898 125.185 18.1753 125.324 18.3839C125.393 18.523 125.37 18.7317 125.254 19.0099L125.162 19.3576C125.787 19.404 126.342 19.5199 126.828 19.7053C127.337 19.8676 127.753 20.1226 128.054 20.424L131.918 19.6822L131.317 15.6716C131.247 15.4397 130.993 15.2311 130.53 15.0224C130.114 14.8138 129.743 14.6979 129.396 14.6515C129.003 14.5588 128.795 14.4661 128.795 14.327C128.748 14.211 129.003 14.0951 129.489 13.9792C129.836 13.9792 130.299 13.9792 130.877 14.0488C131.34 14.1183 131.756 14.1879 132.127 14.2806C132.428 14.3501 132.613 14.4197 132.682 14.5124C132.751 14.582 132.775 14.6979 132.751 14.8833L132.798 15.3006L134.741 28.3293C134.88 29.303 134.927 30.1144 134.927 30.7403C134.927 31.459 134.857 32.0154 134.718 32.4095C134.533 32.8268 134.348 32.9659 134.186 32.8268C133.978 32.6877 133.816 32.1776 133.677 31.2735L132.821 25.5938C132.474 25.6401 132.127 25.7097 131.803 25.7792C131.595 25.8256 131.317 25.8951 130.97 25.9879L130.877 26.0342C130.738 26.0806 130.6 26.127 130.507 26.1733C130.438 26.2197 130.368 26.2661 130.276 26.3356C130.137 26.4283 129.975 26.4979 129.836 26.4979C129.605 26.4979 129.188 26.382 128.586 26.2197C128.239 26.6138 127.846 26.9615 127.383 27.2165C126.828 27.5411 126.226 27.7729 125.601 27.8657C124.236 28.0743 123.079 27.8657 122.061 27.1934C121.159 26.6138 120.557 25.8256 120.279 24.7824C119.979 23.7391 120.117 22.7655 120.65 21.8382C121.205 20.8181 122.2 20.0763 123.565 19.6126L123.82 19.5431C123.958 19.4272 124.051 19.2881 124.074 19.1258L124.097 19.0562ZM122.107 21.815C121.645 22.4873 121.459 23.2523 121.598 24.1101C121.737 24.9678 122.107 25.6401 122.755 26.127C123.473 26.7065 124.375 26.892 125.439 26.7297C126.411 26.5906 127.152 26.127 127.615 25.3851C128.031 24.736 128.193 23.971 128.054 23.1132C127.915 22.2554 127.568 21.5831 126.967 21.0731C126.296 20.5167 125.463 20.3081 124.491 20.4472C123.426 20.6095 122.616 21.0731 122.084 21.7918L122.107 21.815ZM132.011 20.4008L128.656 21.1195C129.026 21.7454 129.257 22.4641 129.327 23.2523C129.396 24.0869 129.281 24.8287 128.98 25.4547C129.327 25.4547 129.882 25.3619 130.6 25.1997C131.039 25.1069 131.733 24.9446 132.682 24.7592L132.034 20.424L132.011 20.4008ZM134.163 12.9128C133.77 12.7042 133.191 12.4723 132.451 12.2405C131.988 12.1478 131.756 12.0319 131.803 11.8696C131.849 11.7305 132.15 11.6146 132.682 11.5219C133.029 11.5219 133.446 11.5219 133.885 11.5914C134.14 11.6146 134.51 11.6609 135.019 11.7537L135.366 11.8232C135.76 11.916 136.037 12.0319 136.153 12.1478C136.246 12.2405 136.269 12.4492 136.292 12.7274V13.0751L138.814 29.6739C138.93 30.4621 139.022 31.204 139.045 31.8763C139.069 32.5949 139.045 33.1977 138.999 33.6382C138.837 34.2873 138.652 34.6118 138.421 34.635C138.166 34.635 138.004 34.2641 137.888 33.5222L134.88 13.6315C134.811 13.3997 134.58 13.191 134.186 12.936L134.163 12.9128Z" fill="#231815"/>
<path d="M172.227 22.7191C172.227 22.7191 172.413 22.6727 172.551 22.6264C172.76 22.5337 172.968 22.4873 173.176 22.5105C173.523 22.5105 174.079 22.6032 174.819 22.7655C175.189 22.835 175.444 22.9741 175.629 23.1596C175.814 23.3219 175.883 23.4841 175.86 23.6696C175.86 23.8551 175.721 23.9942 175.536 24.0869C175.374 24.1796 175.143 24.2028 174.888 24.1564C173.708 23.971 172.135 23.7392 170.122 23.4841C168.039 23.2523 166.535 23.09 165.61 23.0205L165.563 23.1828C165.471 23.8783 165.401 24.3651 165.332 24.6665C165.239 25.1069 165.1 25.501 164.938 25.8488C164.638 26.382 164.36 26.637 164.082 26.5906C163.805 26.5211 163.712 26.1965 163.805 25.5706L164.129 22.9278C163.226 22.835 162.301 22.7423 161.329 22.6727C160.241 22.58 159.385 22.5337 158.737 22.5105C158.483 22.5105 158.251 22.5105 158.02 22.6032C157.904 22.6032 157.765 22.6727 157.626 22.7191C157.326 22.835 157.002 22.8582 156.724 22.7423C156.261 22.6032 155.451 22.1627 154.271 21.3977C153.947 21.1195 153.808 20.9109 153.878 20.8181C153.924 20.7022 154.155 20.7022 154.572 20.8645C155.683 21.2354 157.788 21.5832 160.889 21.9309C162.925 22.1627 166.234 22.5105 170.816 22.9278H171.394C171.811 22.8582 172.065 22.7887 172.227 22.7655V22.7191ZM165.054 12.8896C164.823 12.6346 164.522 12.3564 164.129 12.0319C163.99 11.8696 163.92 11.7769 163.943 11.7073C163.967 11.6378 164.175 11.6146 164.568 11.661C164.985 11.8001 165.448 12.0087 165.957 12.2869C166.396 12.5419 166.882 12.8433 167.391 13.2142C167.6 13.3533 167.715 13.4924 167.738 13.6315C167.761 13.7938 167.669 13.9561 167.461 14.1647L167.16 14.4429L165.957 15.5093C166.327 15.7643 166.836 16.0193 167.438 16.3207C167.97 16.5757 168.571 16.8307 169.266 17.0857C169.543 17.2248 169.821 17.3175 170.099 17.3639C170.214 17.3871 170.423 17.4103 170.7 17.4335C171.07 17.4566 171.394 17.5262 171.672 17.6189C172.135 17.7812 172.713 18.1289 173.408 18.639C174.032 19.0562 174.217 19.4504 174.032 19.7749C173.824 20.0995 173.361 20.0531 172.621 19.6822L171.464 19.1026C170.284 18.523 169.335 18.013 168.595 17.6421C167.345 16.9698 166.281 16.3902 165.378 15.9034C164.314 16.6221 162.995 17.2944 161.421 17.8971C159.94 18.4303 158.274 18.894 156.423 19.2417C155.984 19.2649 155.752 19.2417 155.706 19.1258C155.66 19.0331 155.845 18.9403 156.238 18.8476C158.205 18.2912 160.01 17.5957 161.676 16.7148C163.411 15.7875 164.661 14.8602 165.471 13.8865L165.54 13.6547C165.54 13.4692 165.355 13.2142 165.077 12.9128L165.054 12.8896ZM158.39 29.6971C158.205 29.6044 157.904 29.4653 157.488 29.2798C157.187 29.1871 157.048 29.0712 157.048 28.9784C157.048 28.8625 157.326 28.793 157.858 28.7466C158.344 28.793 158.899 28.8857 159.478 29.0248C160.01 29.1639 160.357 29.2798 160.565 29.3726C161.468 29.4885 162.324 29.5812 163.11 29.6276C163.643 29.6971 164.476 29.7898 165.586 29.8826L166.466 29.9753C166.605 29.9753 166.72 29.9753 166.859 29.9521C166.928 29.9521 167.021 29.9521 167.16 29.9521L167.831 29.9058C167.877 29.6971 167.923 29.4189 167.97 29.0712C168.016 28.8393 168.085 28.4221 168.201 27.8193L168.294 27.2166L161.051 26.5674C160.866 26.5674 160.704 26.5674 160.565 26.637C160.496 26.637 160.403 26.6834 160.264 26.7297C160.01 26.8225 159.778 26.8225 159.547 26.7761C159.223 26.6602 158.668 26.3588 157.881 25.8488C157.557 25.6401 157.441 25.4779 157.488 25.4083C157.557 25.3156 157.788 25.3388 158.251 25.4547C159.246 25.6633 160.681 25.872 162.578 26.0806C164.383 26.2661 166.142 26.4283 167.854 26.5211L168.155 26.4515C168.294 26.4283 168.409 26.382 168.502 26.382C168.687 26.382 168.965 26.4515 169.335 26.5674C169.844 26.6602 170.145 26.7761 170.214 26.9152C170.261 27.0079 170.191 27.147 170.006 27.3557L169.821 27.6802V27.7266C169.52 28.2598 169.335 28.6771 169.196 28.9321C168.965 29.3957 168.803 29.7435 168.733 29.9521C169.335 30.1376 169.659 30.323 169.659 30.5781C169.659 30.8331 169.358 30.9258 168.78 30.8562L160.727 30.068L160.496 30.1144C160.496 30.1144 160.334 30.1608 160.287 30.1608C160.241 30.2071 160.218 30.2767 160.218 30.3694L159.94 32.5718C159.94 32.7572 159.94 32.9195 160.033 33.0586C160.125 33.1513 160.264 33.2209 160.496 33.2441C161.167 33.3368 162.023 33.4295 163.087 33.5686C164.337 33.7309 165.54 33.8468 166.697 33.9627C166.998 33.9627 167.276 33.9164 167.484 33.87C167.623 33.87 167.761 33.8004 167.947 33.7309C168.178 33.6382 168.433 33.5918 168.641 33.5918C169.011 33.5918 169.543 33.6382 170.307 33.8004C170.908 33.9627 171.163 34.2177 171.117 34.5887C171.047 34.9596 170.77 35.1219 170.237 35.0523L160.473 33.8468C159.616 33.7309 159.038 33.5223 158.737 33.2209C158.483 32.9659 158.39 32.6413 158.459 32.224L158.714 30.1376C158.714 29.9985 158.575 29.8594 158.367 29.7203L158.39 29.6971Z" fill="#231815"/>
<path d="M198.537 23.206C198.653 23.0669 198.676 22.8351 198.606 22.5105C198.468 22.2091 198.468 22.0237 198.606 21.9773C198.768 21.9309 199 22.07 199.301 22.3482C199.717 22.7655 199.949 23.0669 199.949 23.2987C199.949 23.4146 199.856 23.5537 199.648 23.716C199.578 23.7624 199.509 23.8087 199.463 23.8319C199.393 23.9015 199.347 23.9478 199.324 24.0174C200.62 24.8751 201.429 25.8952 201.753 27.0775C202.031 28.1439 201.892 29.1639 201.314 30.1144C200.735 31.0649 199.879 31.6909 198.768 32.0154C197.565 32.3863 196.293 32.2936 194.974 31.7372C193.539 31.1345 192.544 30.2535 191.942 29.0944C191.387 28.0512 191.271 26.9848 191.618 25.8952C191.942 24.8288 192.636 24.0406 193.678 23.5305C194.812 22.9741 196.2 22.9046 197.773 23.3219L197.935 23.3683C198.213 23.3683 198.398 23.3219 198.514 23.206H198.537ZM193.4 35.9797C193.192 35.7015 192.798 35.3537 192.243 34.9364C191.873 34.6814 191.711 34.496 191.78 34.3337C191.85 34.1714 192.151 34.1946 192.683 34.3337C193.354 34.6351 193.909 34.8901 194.349 35.1219C194.788 35.3537 195.112 35.5392 195.321 35.7015C195.552 35.8406 195.668 36.0028 195.645 36.1419C195.645 36.2347 195.598 36.3969 195.436 36.6288L195.274 36.9301L193.84 40.3844C193.724 40.6394 193.747 40.848 193.886 41.0335C194.002 41.2189 194.233 41.4276 194.626 41.6131L199.416 43.5836C199.763 43.6995 200.064 43.769 200.296 43.7922C200.458 43.7922 200.62 43.7922 200.805 43.7922C201.082 43.7459 201.314 43.7459 201.522 43.7922C201.892 43.8618 202.424 44.0704 203.119 44.395C203.466 44.5573 203.697 44.7427 203.859 44.9745C203.998 45.1832 204.067 45.3686 204.021 45.5773C203.975 45.7396 203.882 45.8787 203.743 45.9482C203.581 46.0178 203.373 46.0178 203.165 45.9482L194.303 42.1926C193.493 41.8217 192.937 41.4508 192.683 41.0798C192.382 40.6626 192.313 40.1757 192.498 39.6193L193.678 36.8606C193.747 36.6288 193.678 36.3506 193.423 36.026L193.4 35.9797ZM194.927 24.4347C194.094 24.7592 193.516 25.3388 193.169 26.1734C192.822 27.0079 192.822 27.8193 193.169 28.6539C193.539 29.5812 194.256 30.2767 195.367 30.7404C196.478 31.204 197.496 31.2736 198.421 30.9026C199.254 30.5781 199.856 29.9985 200.203 29.1871C200.55 28.3525 200.55 27.5411 200.203 26.7066C199.81 25.8024 199.069 25.107 197.959 24.6201C196.871 24.1565 195.853 24.1101 194.95 24.4578L194.927 24.4347ZM208.117 25.4315C207.885 25.0374 207.492 24.5738 206.937 23.9942C206.613 23.6696 206.497 23.4378 206.613 23.3219C206.728 23.1828 207.029 23.2292 207.538 23.4378C208.024 23.6696 208.441 23.9246 208.788 24.2028C209.019 24.3651 209.32 24.6201 209.713 24.9679L209.852 25.107C210.153 25.3852 210.315 25.617 210.338 25.7561C210.338 25.872 210.269 26.0343 210.13 26.2197L209.922 26.6138L205.849 36.2115C205.409 37.2547 205.016 38.0893 204.715 38.6688C204.368 39.3411 204.044 39.8743 203.72 40.2453C203.258 40.7089 202.934 40.8712 202.702 40.7553C202.494 40.6394 202.54 40.2453 202.818 39.573L208.371 26.4052C208.441 26.1502 208.371 25.8256 208.094 25.4083L208.117 25.4315Z" fill="#231815"/>
<path d="M224.522 52.138C224.43 51.8366 224.314 51.512 224.129 51.1643C223.851 50.7934 223.782 50.5615 223.874 50.4688C223.967 50.3761 224.221 50.4688 224.638 50.7006C225.587 51.5584 226.142 52.1843 226.327 52.5784C226.443 52.8103 226.396 53.0189 226.188 53.1812L226.049 53.3203L225.17 54.4331L230.932 58.8841L231.88 57.7018C231.996 57.5395 231.996 57.3541 231.927 57.0991C231.857 56.8441 231.719 56.5195 231.464 56.1022C231.186 55.7081 231.094 55.4531 231.186 55.3372C231.256 55.2213 231.533 55.314 232.019 55.5922C232.505 56.079 232.876 56.4963 233.153 56.7977C233.385 57.0759 233.547 57.3309 233.616 57.5164C233.685 57.6555 233.685 57.7945 233.616 57.9105C233.593 57.98 233.523 58.0727 233.408 58.2118L233.246 58.4205L232.852 58.9073C231.672 60.391 230.839 61.3879 230.376 61.9443C229.613 62.8252 229.034 63.4048 228.641 63.683C228.132 64.0075 227.762 64.0771 227.53 63.9612C227.299 63.7989 227.461 63.312 228.039 62.5238L222.231 58.0496C221.56 58.5596 221.005 58.8146 220.588 58.7914C220.172 58.7914 220.195 58.4437 220.681 57.8177L224.453 52.9494L224.545 52.8335C224.638 52.6944 224.661 52.4393 224.568 52.138H224.522ZM222.717 57.4932L228.433 61.9674L230.469 59.4173L224.707 54.9663L222.717 57.47V57.4932ZM233.894 44.8586C233.894 44.8586 234.102 44.9281 234.241 44.9513C234.449 44.9977 234.634 45.0672 234.773 45.1368C235.027 45.2759 235.351 45.5077 235.791 45.8555C236.115 46.1105 236.323 46.3655 236.416 46.5973C236.508 46.8059 236.508 46.9914 236.416 47.1073C236.346 47.2232 236.208 47.2696 235.999 47.2464C235.768 47.2464 235.513 47.1305 235.282 46.945C234.495 46.3191 233.755 45.7627 233.084 45.2527C232.598 44.8818 231.857 44.3486 230.862 43.6531L230.909 43.9777C230.909 44.0936 230.955 44.1863 230.978 44.2558C230.978 44.3486 230.978 44.4413 230.978 44.5109C230.978 44.65 230.932 44.7659 230.862 44.8586C230.816 44.905 230.724 44.9513 230.608 45.0209L230.423 45.16C231.348 46.1336 231.881 47.1537 231.973 48.1969C232.042 49.1474 231.765 49.9356 231.163 50.5847C230.538 51.2107 229.729 51.512 228.757 51.512C227.692 51.512 226.628 51.0947 225.587 50.2602C224.615 49.4951 224.013 48.5678 223.782 47.5478C223.55 46.6205 223.666 45.7627 224.129 44.9977C224.592 44.2095 225.263 43.7458 226.165 43.5835C227.183 43.4213 228.271 43.6995 229.451 44.4181C229.729 44.4645 229.937 44.3718 230.052 44.1168C230.168 43.8849 230.214 43.5604 230.191 43.1431C229.844 42.8881 229.52 42.6562 229.219 42.4244C228.71 42.0767 228.178 41.7289 227.6 41.358C227.484 41.2885 227.345 41.2189 227.229 41.1957C227.16 41.1725 227.091 41.1494 226.952 41.1494C226.744 41.103 226.582 41.0103 226.466 40.848C226.304 40.6393 226.049 40.1293 225.702 39.3411C225.54 38.9238 225.494 38.7152 225.61 38.6688C225.702 38.6224 225.887 38.7384 226.119 39.0166C226.952 39.8048 227.877 40.6162 228.919 41.4507C229.914 42.239 231.186 43.1894 232.714 44.279L233.246 44.65C233.431 44.7427 233.616 44.8122 233.801 44.8586H233.894ZM227.206 44.534C226.512 44.6036 225.957 44.905 225.517 45.4614C225.101 45.9946 224.916 46.6205 225.008 47.2928C225.101 48.0578 225.517 48.7301 226.258 49.3329C227.044 49.9588 227.831 50.2602 228.641 50.2138C229.358 50.1674 229.937 49.8661 230.353 49.3329C230.793 48.7765 230.955 48.1505 230.839 47.4319C230.7 46.6437 230.238 45.9482 229.451 45.3223C228.71 44.7195 227.947 44.4645 227.206 44.5109V44.534ZM230.677 39.9439C230.562 39.6657 230.446 39.3179 230.33 38.9006C230.284 38.5993 230.284 38.4138 230.353 38.3674C230.446 38.3211 230.654 38.4834 230.955 38.8775C231.302 39.2716 231.626 39.5961 231.95 39.8975C232.459 40.3843 233.269 41.0798 234.38 41.9608C234.958 42.4476 235.12 42.8185 234.912 43.0735C234.704 43.3285 234.264 43.2126 233.593 42.749L231.071 40.7089C230.909 40.5234 230.77 40.2684 230.654 39.967L230.677 39.9439ZM240.211 46.1568C240.095 45.6932 239.864 45.1832 239.563 44.6036C239.331 44.2558 239.216 44.024 239.216 43.9081C239.216 43.6995 239.47 43.7458 240.002 44.0472C240.234 44.2327 240.604 44.6036 241.067 45.1832C241.437 45.67 241.738 46.0409 241.946 46.3655C242.178 46.7132 242.27 46.9682 242.247 47.1305C242.247 47.2464 242.131 47.3855 241.969 47.5246L241.622 47.8492L236.809 53.8535C236.208 54.6185 235.699 55.1749 235.282 55.5458C234.75 56.0327 234.218 56.3572 233.709 56.5427C233.385 56.6122 233.246 56.4963 233.292 56.2181C233.338 55.9168 233.57 55.5226 233.986 55.0126L234.426 54.4794L233.87 54.0621C233.523 53.8303 233.269 53.6448 233.107 53.5521C232.852 53.3898 232.644 53.2739 232.482 53.2044C232.39 53.1348 232.297 53.1116 232.204 53.0885C232.158 53.0885 232.089 53.0653 231.996 53.0421C231.811 53.0421 231.672 52.9494 231.58 52.8335C231.418 52.6248 231.14 52.1843 230.816 51.5352C230.7 51.257 230.7 51.0716 230.839 51.0252C230.978 50.9788 231.163 51.1411 231.418 51.4657C231.742 51.7439 232.112 52.0452 232.552 52.3466C232.829 52.5553 233.246 52.8335 233.801 53.1812L234.889 53.8999L237.179 51.0484L235.421 49.7038L235.259 49.6111C235.143 49.5415 235.004 49.472 234.889 49.4488C234.842 49.4488 234.75 49.4256 234.657 49.4024C234.472 49.4024 234.333 49.3097 234.218 49.1706C234.056 48.9851 233.801 48.591 233.5 47.9187C233.338 47.4551 233.292 47.2001 233.408 47.1305C233.523 47.0841 233.732 47.2696 234.079 47.6173C234.912 48.3128 235.537 48.8228 235.976 49.1706C236.462 49.5415 237.017 49.9588 237.642 50.4224L240.234 47.1769C240.396 46.9914 240.396 46.6437 240.234 46.1568H240.211Z" fill="#231815"/>
<path d="M259.648 73.0024C259.648 73.0024 259.903 73.1414 260.065 73.211C260.319 73.3269 260.527 73.4428 260.689 73.5587C260.921 73.7906 261.222 74.1847 261.592 74.7411C261.777 75.0193 261.869 75.2974 261.893 75.5293C261.893 75.7379 261.846 75.9002 261.731 76.0161C261.615 76.1088 261.453 76.132 261.268 76.0857C261.06 76.0161 260.875 75.8538 260.689 75.622L257.38 71.4723C257.357 71.6809 257.311 71.82 257.288 71.9128C257.265 72.075 257.218 72.191 257.195 72.2837C257.149 72.3532 257.103 72.3996 257.01 72.446C256.964 72.4691 256.918 72.4923 256.802 72.4923C256.709 72.4923 256.663 72.4923 256.64 72.4923C256.571 72.5155 256.524 72.5619 256.501 72.6314C257.08 73.6051 257.334 74.602 257.195 75.5756C257.103 76.4566 256.733 77.1752 256.108 77.7084C255.46 78.2416 254.719 78.4735 253.84 78.3807C252.891 78.2648 251.989 77.8012 251.133 76.9666L249.652 78.0562C250.23 78.7285 251.017 79.5631 252.012 80.5367C253.192 81.6727 254.233 82.5768 255.113 83.2027L265.34 75.8306C265.502 75.6915 265.549 75.367 265.526 74.8801C265.479 74.3933 265.387 73.8137 265.202 73.1878C265.04 72.701 265.016 72.446 265.109 72.3764C265.225 72.2837 265.479 72.4691 265.849 72.8864C266.104 73.2805 266.359 73.6978 266.567 74.1615C266.682 74.4397 266.844 74.8106 267.006 75.3206L267.145 75.7843C267.238 76.0856 267.261 76.2711 267.192 76.387C267.145 76.4798 267.053 76.5493 266.844 76.642C266.752 76.6884 266.683 76.7116 266.613 76.7348C266.521 76.8043 266.451 76.8507 266.382 76.897L257.519 83.3187L253.724 86.0774C252.753 86.7729 251.989 87.3061 251.41 87.6538C250.67 88.1175 249.953 88.4652 249.282 88.7434C248.726 88.8825 248.379 88.8593 248.24 88.697C248.032 88.5116 248.24 88.2102 248.819 87.7697L254.719 83.4809C253.308 82.5073 251.711 81.2554 249.953 79.7022C248.425 78.3576 246.829 76.8507 245.163 75.2279C245.093 75.1583 245.024 75.112 244.931 75.0656C244.885 75.0424 244.839 75.0192 244.746 74.9729C244.492 74.8802 244.307 74.6715 244.191 74.3933C244.029 73.976 243.821 73.0255 243.566 71.5187C243.52 71.0318 243.566 70.7536 243.705 70.7304C243.844 70.6841 244.006 70.8927 244.191 71.31C244.492 72.075 245.07 72.956 245.88 73.9992C246.528 74.8106 247.407 75.8075 248.518 76.9898L250.138 75.8306C249.513 74.7179 249.282 73.6747 249.374 72.6546C249.467 71.7273 249.837 71.0086 250.485 70.4986C251.133 69.9654 251.896 69.78 252.799 69.919C253.794 70.0813 254.743 70.6377 255.645 71.5882C255.853 71.6809 256.085 71.6114 256.316 71.4491C256.524 71.2636 256.663 71.0086 256.709 70.6841L256.594 70.5218C256.247 70.0813 255.992 69.7568 255.807 69.5018C255.483 69.0845 255.182 68.7135 254.881 68.389C254.789 68.2731 254.673 68.1803 254.581 68.1108C254.511 68.0876 254.419 68.0181 254.326 67.9717C254.118 67.8558 253.979 67.6935 253.91 67.4849C253.817 67.2067 253.701 66.6039 253.632 65.6534C253.632 65.3057 253.701 65.1202 253.817 65.097C253.933 65.097 254.072 65.2593 254.233 65.6766C254.627 66.488 255.275 67.5312 256.223 68.8295C256.918 69.8031 257.82 71.0318 258.977 72.4923L259.07 72.6082C259.278 72.7705 259.463 72.9096 259.648 73.0255V73.0024ZM253.47 71.1941C252.776 71.055 252.151 71.1941 251.572 71.6114C251.017 72.0055 250.693 72.5619 250.601 73.2574C250.485 74.0456 250.716 74.8338 251.295 75.622C251.85 76.4102 252.544 76.8739 253.308 77.0361C254.002 77.1984 254.627 77.0593 255.182 76.6652C255.761 76.2479 256.085 75.6915 256.154 74.9729C256.247 74.1847 255.992 73.4196 255.437 72.6314C254.858 71.8432 254.187 71.3564 253.424 71.2173L253.47 71.1941ZM261.569 71.3796C261.615 71.6346 261.569 71.82 261.499 71.9591C261.407 72.0982 261.268 72.1446 261.106 72.0982C260.898 72.0519 260.689 71.8896 260.458 71.6114L259 69.5945L258.399 68.7599C258.26 68.5281 258.167 68.2267 258.167 67.879C258.144 67.5312 258.167 67.0676 258.283 66.5344C258.352 66.233 258.422 66.0939 258.537 66.1171C258.63 66.1403 258.769 66.3489 258.931 66.743C259.185 67.253 259.463 67.7862 259.764 68.3194C260.088 68.8526 260.574 69.5945 261.175 70.4986L261.245 70.5914C261.43 70.8464 261.546 71.1246 261.592 71.3796H261.569Z" fill="#231815"/>
<path d="M27.3741 121.153C27.3741 123.286 25.6386 125.024 23.5098 125.024C21.381 125.024 19.6455 123.286 19.6455 121.153C19.6455 119.02 21.381 117.281 23.5098 117.281C25.6386 117.281 27.3741 119.02 27.3741 121.153Z" fill="#231815"/>
<path d="M276.493 119.994C276.493 122.127 274.758 123.865 272.629 123.865C270.5 123.865 268.765 122.127 268.765 119.994C268.765 117.861 270.5 116.122 272.629 116.122C274.758 116.122 276.493 117.861 276.493 119.994Z" fill="#231815"/>
<path d="M29.5722 165.246L28.9937 165.339C28.9012 164.806 28.7392 164.435 28.5078 164.273C28.2533 164.087 27.8367 164.064 27.2351 164.157L14.6704 166.174C14.1845 166.243 13.8605 166.406 13.6985 166.661C13.5134 166.916 13.4903 167.31 13.5597 167.843L12.9812 167.936L12.3564 164.064L12.9349 163.971C13.0275 164.481 13.1895 164.852 13.4209 165.038C13.6754 165.223 14.0225 165.293 14.5084 165.2L27.0731 163.183C27.6516 163.09 28.045 162.905 28.2301 162.65C28.4152 162.395 28.4384 162.001 28.369 161.491L28.9474 161.398L29.5722 165.27V165.246Z" fill="#231815"/>
<path d="M13.9766 170.509C14.0923 170.996 14.3006 171.32 14.5783 171.459C14.8559 171.622 15.2956 171.622 15.8509 171.483L27.976 168.608C28.5545 168.469 28.9247 168.26 29.133 168.005C29.3181 167.727 29.3644 167.356 29.2487 166.892L29.7809 166.753L30.2437 168.724L18.2343 178.994L30.0817 176.189C30.5213 176.096 30.8222 175.887 30.9841 175.632C31.123 175.354 31.1461 175.006 31.0304 174.52L31.5626 174.404L32.3031 177.58L31.7709 177.696C31.6552 177.232 31.4701 176.907 31.2155 176.722C30.961 176.56 30.6139 176.513 30.1742 176.629L15.5732 180.083L15.5038 179.828L28.1843 169.072L15.9435 171.969C15.365 172.109 14.9948 172.294 14.8096 172.526C14.6245 172.781 14.5783 173.152 14.6939 173.662L14.1155 173.801L13.375 170.648L13.9535 170.509H13.9766Z" fill="#231815"/>
<path d="M18.2107 186.829C18.3958 187.386 18.5809 187.757 18.7892 187.942C19.09 188.22 19.4834 188.29 19.9693 188.128L32.3258 184.024C32.7886 183.862 33.0894 183.677 33.2051 183.422C33.3208 183.167 33.3208 182.819 33.1588 182.355C32.8811 181.497 32.2795 180.872 31.4002 180.524C30.8448 180.292 29.9655 180.153 28.8086 180.06L28.878 179.782L32.8348 179.434L35.7736 188.313L32.2564 190.469L32.0481 190.261L32.3721 189.982C33.2745 189.217 33.853 188.638 34.1307 188.197C34.5703 187.525 34.6397 186.806 34.3852 186.018C34.2001 185.485 33.9918 185.137 33.7141 184.952C33.4365 184.766 33.0894 184.743 32.6266 184.905L20.247 189.009C19.7379 189.171 19.4602 189.426 19.3677 189.774C19.3214 190.052 19.3677 190.492 19.5991 191.118L19.0206 191.304L17.5859 186.992L18.1644 186.806L18.2107 186.829Z" fill="#231815"/>
<path d="M21.6589 196.543C21.844 196.983 22.0985 197.262 22.4225 197.354C22.7464 197.47 23.1398 197.424 23.672 197.192L35.1492 192.254C35.6351 192.046 35.9359 191.791 36.0747 191.489C36.1904 191.211 36.1673 190.84 35.9822 190.4L36.5144 190.168L39.7308 197.702L36.5144 200.299L36.2136 200.183L36.7689 199.51C37.44 198.722 37.8796 198.096 38.0647 197.633C38.3887 196.821 38.3887 196.01 38.0416 195.175L37.4168 193.738C37.2549 193.344 37.0235 193.112 36.7458 193.019C36.445 192.926 36.0516 192.973 35.5657 193.205L30.4056 195.43L31.3543 197.656C31.5857 198.189 31.9559 198.49 32.4419 198.583C32.9741 198.676 33.7377 198.513 34.7095 198.096L34.8484 198.421L28.8552 200.994L28.7164 200.669C29.642 200.275 30.2899 199.835 30.6138 199.371C30.9378 198.908 30.9841 198.444 30.7527 197.911L29.804 195.685L24.0885 198.143C23.5794 198.351 23.2555 198.606 23.0935 198.908C22.9315 199.186 22.9547 199.534 23.0935 199.951L23.672 201.295C24.0191 202.13 24.5976 202.733 25.3843 203.104C26.1479 203.451 27.2586 203.66 28.7395 203.73L28.647 204.077L24.4819 204.703L21.1035 196.844L21.6357 196.613L21.6589 196.543Z" fill="#231815"/>
<path d="M26.4711 207.694C26.7487 208.204 27.0496 208.482 27.3966 208.552C27.7206 208.621 28.1371 208.529 28.6693 208.25L39.7763 202.316C40.239 202.061 40.5167 201.806 40.5861 201.504C40.6556 201.226 40.563 200.832 40.2853 200.299L40.7944 200.021L43.2009 204.564C43.7562 205.608 43.8488 206.604 43.4786 207.555C43.1315 208.459 42.391 209.224 41.3035 209.804C40.2622 210.36 39.2903 210.592 38.3879 210.499C37.416 210.406 36.6293 209.943 36.0739 209.085L31.3304 214.51C31.0295 214.857 30.8676 215.159 30.8444 215.46C30.8213 215.738 30.9138 216.063 31.1221 216.457L30.613 216.735L29.5949 214.834L35.4955 208.134L34.4542 206.21L29.0627 209.085C28.5536 209.363 28.2297 209.665 28.114 209.966C27.9751 210.29 28.0445 210.708 28.2991 211.195L27.79 211.473L25.8926 207.926L26.4016 207.648L26.4711 207.694ZM36.3979 208.552C36.7681 209.247 37.3929 209.618 38.2953 209.618C39.0358 209.618 39.8688 209.363 40.8175 208.876C41.8125 208.343 42.4604 207.717 42.7844 206.999C43.1083 206.28 43.0852 205.561 42.6918 204.819L42.0208 203.591C41.8357 203.243 41.6043 203.034 41.3497 202.965C41.0489 202.895 40.6787 202.988 40.239 203.22L35.0327 206.002L36.3979 208.575V208.552Z" fill="#231815"/>
<path d="M32.28 218.381C32.5576 218.798 32.8584 219.03 33.1593 219.077C33.4832 219.123 33.8766 218.984 34.3625 218.659L44.729 211.751C45.2149 211.426 45.5157 211.102 45.5851 210.777C45.6777 210.476 45.5851 210.105 45.3075 209.688L45.7703 209.386L46.881 211.079L39.1755 224.895L49.3106 218.149C49.6808 217.894 49.9122 217.616 49.9585 217.315C50.0048 217.013 49.8891 216.666 49.6114 216.271L50.0742 215.97L51.8791 218.706L51.4163 219.007C51.1618 218.613 50.8609 218.381 50.5601 218.288C50.2593 218.219 49.9122 218.288 49.5651 218.543L37.0467 226.866L36.9078 226.657L45.0761 212.099L34.5939 219.077C34.108 219.401 33.8072 219.703 33.7377 220.004C33.6452 220.305 33.7377 220.676 34.0386 221.117L33.5295 221.441L31.7246 218.729L32.2337 218.404L32.28 218.381Z" fill="#231815"/>
<path d="M47.2044 235.884C46.811 236.394 46.6028 236.811 46.5796 237.159C46.5334 237.484 46.6491 237.831 46.9267 238.156L46.464 238.527L43.9186 235.444L44.3814 235.073C44.8211 235.606 45.1681 235.861 45.4458 235.884C45.7698 235.907 46.1169 235.675 46.5102 235.142L48.9167 231.827L45.8855 228.164L42.7154 229.694C41.9286 230.088 41.489 230.459 41.3964 230.784C41.3039 231.108 41.489 231.526 41.9286 232.082L41.4658 232.453L39.2676 229.81L39.7304 229.439C40.008 229.787 40.332 229.949 40.6559 229.926C41.0262 229.903 41.6741 229.648 42.6228 229.207L55.2569 223.018L56.2288 223.365L47.2044 235.907V235.884ZM46.5102 227.863L49.3332 231.271L54.7016 223.899L46.5102 227.863Z" fill="#231815"/>
<path d="M50.6519 242.004C51.0684 242.422 51.4155 242.653 51.6931 242.723C52.0865 242.839 52.4567 242.723 52.827 242.329L61.9439 232.917C62.291 232.546 62.453 232.244 62.453 231.966C62.453 231.688 62.2679 231.387 61.9208 231.039C61.2729 230.39 60.463 230.135 59.5143 230.228C58.9127 230.274 58.0796 230.552 56.9921 231.016L56.9458 230.738L60.2779 228.628L66.9883 235.165L64.8595 238.689L64.5818 238.596L64.7207 238.202C65.1834 237.113 65.4148 236.325 65.4611 235.815C65.5305 235.026 65.276 234.331 64.6975 233.774C64.3041 233.38 63.9339 233.172 63.61 233.125C63.286 233.079 62.9621 233.241 62.615 233.589L53.498 243.001C53.1278 243.372 52.989 243.743 53.0815 244.091C53.1509 244.346 53.4286 244.717 53.8914 245.18L53.498 245.598L50.2354 242.422L50.6287 242.004H50.6519Z" fill="#231815"/>
<path d="M71.5931 238.944L71.246 239.385C70.8295 239.037 70.4593 238.875 70.1584 238.898C69.8576 238.944 69.5105 239.176 69.1172 239.64L61.0415 249.492C60.7407 249.863 60.6018 250.211 60.625 250.512C60.6713 250.814 60.9027 251.138 61.296 251.486L60.9258 251.95L57.8945 249.469L58.2648 249.005C58.6581 249.33 59.0284 249.492 59.3292 249.469C59.63 249.469 59.9539 249.237 60.2548 248.866L68.3304 239.014C68.7007 238.55 68.8858 238.156 68.8395 237.855C68.7932 237.553 68.585 237.229 68.1684 236.904L68.5155 236.464L71.5468 238.944H71.5931Z" fill="#231815"/>
<path d="M78.6971 246.919C78.4425 248.751 77.6327 250.651 76.2674 252.622C74.9254 254.593 73.4444 256.007 71.8247 256.864C70.0198 257.861 68.4694 257.884 67.1505 256.98C65.8778 256.099 65.3919 254.639 65.6927 252.622C65.9472 250.814 66.7571 248.913 68.0992 246.965C69.4644 244.995 70.9454 243.558 72.542 242.653C74.3237 241.657 75.8509 241.61 77.1236 242.491C78.4426 243.395 78.9516 244.879 78.6971 246.896V246.919ZM72.9816 243.465C71.5933 244.369 70.2512 245.76 68.9785 247.591C67.729 249.423 66.9191 251.138 66.572 252.761C66.1786 254.569 66.4795 255.821 67.4744 256.517C68.5157 257.235 69.8115 257.096 71.385 256.099C72.7734 255.218 74.1155 253.851 75.365 252.019C76.6377 250.165 77.4476 248.426 77.7946 246.803C78.1649 244.972 77.8409 243.697 76.7996 242.978C75.8047 242.283 74.532 242.445 72.9585 243.465H72.9816Z" fill="#231815"/>
<path d="M74.278 260.62C74.7176 260.852 75.0879 260.921 75.3887 260.806C75.6895 260.69 75.9903 260.388 76.268 259.878L82.1685 248.913C82.4462 248.38 82.5619 247.962 82.4693 247.661C82.3999 247.336 82.1454 247.058 81.7057 246.826L81.9834 246.316L83.7652 247.267L83.4412 263.077L89.2261 252.344C89.4343 251.95 89.5037 251.602 89.4112 251.301C89.2955 251.022 89.0409 250.767 88.6244 250.536L88.9021 250.026L91.7714 251.579L91.4937 252.089C91.0772 251.857 90.707 251.787 90.4062 251.857C90.1054 251.927 89.8508 252.158 89.6426 252.552L82.5388 265.767L82.3305 265.651L82.7007 249.006L76.7308 260.11C76.4531 260.643 76.3374 261.037 76.4068 261.339C76.4762 261.64 76.7308 261.941 77.1935 262.173L76.9159 262.683L74.0234 261.13L74.3011 260.62H74.278Z" fill="#231815"/>
<path d="M95.6816 268.989C95.5659 269.615 95.5891 270.102 95.7279 270.426C95.8436 270.728 96.0981 270.983 96.5146 271.145L96.2833 271.678L92.5809 270.148L92.8123 269.615C93.4371 269.87 93.8768 269.939 94.1313 269.847C94.4321 269.708 94.6172 269.337 94.7098 268.688L95.2883 264.584L90.8918 262.776L88.7861 265.651C88.277 266.369 88.0687 266.903 88.1382 267.25C88.2076 267.575 88.5547 267.876 89.2257 268.154L88.9943 268.688L85.8242 267.389L86.0556 266.856C86.4721 267.018 86.8192 267.018 87.12 266.856C87.444 266.648 87.9068 266.138 88.5084 265.28L96.7692 253.851L97.7873 253.688L95.7048 269.012L95.6816 268.989ZM91.3083 262.22L95.404 263.912L96.6766 254.871L91.3083 262.22Z" fill="#231815"/>
<path d="M98.7359 271.864C99.2681 272.026 99.6846 272.026 99.9854 271.864C100.24 271.701 100.448 271.4 100.61 270.913L104.359 258.765C104.521 258.209 104.544 257.815 104.405 257.56C104.266 257.282 103.919 257.073 103.364 256.911L103.526 256.378L107.436 257.583L107.274 258.116C106.65 257.931 106.187 257.885 105.909 258.024C105.655 258.163 105.446 258.487 105.284 259.044L101.536 271.191C101.397 271.678 101.351 272.049 101.443 272.304C101.536 272.582 101.79 272.791 102.207 272.93L103.757 273.417C104.451 273.626 105.215 273.533 106.048 273.069C106.835 272.652 107.621 271.956 108.385 270.983L108.616 271.284L106.302 274.808L98.5508 272.397L98.7359 271.817V271.864Z" fill="#231815"/>
<path d="M116.531 276.778C117.086 276.871 117.479 276.825 117.688 276.639C117.896 276.454 118.058 276.013 118.197 275.341L120.441 263.077C120.534 262.544 120.511 262.173 120.395 261.918C120.233 261.617 119.886 261.431 119.354 261.339L119.446 260.806L127.36 262.266L127.8 266.23L127.545 266.393C127.267 265.349 126.943 264.538 126.573 263.912C125.995 262.985 125.277 262.452 124.421 262.289L122.802 261.988C122.431 261.918 122.13 261.988 121.899 262.22C121.691 262.428 121.529 262.776 121.436 263.263L120.418 268.78L122.686 269.198C123.287 269.314 123.727 269.244 124.028 268.989C124.421 268.641 124.722 267.899 124.93 266.74L125.301 266.81L124.12 273.278L123.75 273.208C123.958 272.096 123.935 271.238 123.681 270.681C123.473 270.195 123.102 269.893 122.547 269.8L120.302 269.383L119.192 275.527C119.076 276.176 119.099 276.663 119.261 276.941C119.446 277.219 119.84 277.404 120.488 277.52L120.372 278.1L116.415 277.381L116.531 276.802V276.778Z" fill="#231815"/>
<path d="M128.03 278.795C128.586 278.865 129.002 278.795 129.257 278.563C129.488 278.355 129.627 278.007 129.696 277.497L131.154 264.839C131.224 264.26 131.154 263.866 130.969 263.657C130.784 263.425 130.391 263.263 129.835 263.193L129.905 262.614L134 263.077L133.931 263.657C133.283 263.587 132.82 263.657 132.589 263.819C132.381 264.005 132.219 264.376 132.172 264.932L130.715 277.59C130.645 278.077 130.715 278.471 130.83 278.703C130.969 278.958 131.27 279.12 131.686 279.166L133.306 279.352C134.047 279.444 134.764 279.189 135.481 278.587C136.175 278.03 136.823 277.196 137.402 276.083L137.68 276.338L136.06 280.256L127.961 279.329L128.03 278.749V278.795Z" fill="#231815"/>
<path d="M149.273 266.624C150.013 268.317 150.337 270.357 150.198 272.745C150.083 275.132 149.55 277.103 148.648 278.703C147.63 280.488 146.334 281.345 144.737 281.276C143.187 281.206 142.007 280.209 141.197 278.332C140.48 276.639 140.179 274.622 140.295 272.258C140.41 269.87 140.919 267.876 141.822 266.253C142.817 264.468 144.089 263.634 145.64 263.703C147.236 263.796 148.44 264.77 149.273 266.624ZM142.609 266.717C141.891 268.224 141.475 270.102 141.359 272.327C141.243 274.53 141.475 276.431 142.03 277.984C142.655 279.723 143.557 280.627 144.761 280.696C146.01 280.766 147.051 279.954 147.861 278.285C148.579 276.802 148.995 274.947 149.111 272.721C149.226 270.473 148.995 268.572 148.44 267.018C147.792 265.257 146.843 264.352 145.594 264.283C144.39 264.213 143.372 265.025 142.585 266.717H142.609Z" fill="#231815"/>
<path d="M152.767 280.627C153.345 280.627 153.739 280.488 153.97 280.209C154.178 279.954 154.294 279.537 154.294 278.958L154.248 266.346C154.248 265.813 154.132 265.442 153.924 265.257C153.716 265.071 153.299 264.955 152.721 264.955V264.376H157.858C159.038 264.376 159.963 264.747 160.634 265.512C161.282 266.253 161.606 267.25 161.606 268.479C161.606 269.661 161.352 270.612 160.866 271.377C160.334 272.211 159.547 272.652 158.552 272.768L161.143 279.514C161.305 279.931 161.514 280.233 161.768 280.372C162 280.511 162.324 280.604 162.763 280.604V281.183H160.611L157.464 272.837H155.266V278.958C155.266 279.537 155.382 279.954 155.613 280.209C155.845 280.488 156.238 280.627 156.793 280.604V281.183H152.79V280.627H152.767ZM158.158 272.235C158.968 272.235 159.57 271.84 159.986 271.052C160.334 270.38 160.496 269.522 160.496 268.479C160.496 267.366 160.241 266.485 159.755 265.859C159.269 265.233 158.621 264.932 157.765 264.932H156.354C155.937 264.932 155.659 265.048 155.497 265.233C155.312 265.465 155.197 265.836 155.22 266.346V272.258H158.158V272.235Z" fill="#231815"/>
<path d="M167.784 263.958L167.83 264.538C167.275 264.584 166.905 264.7 166.72 264.932C166.512 265.187 166.442 265.604 166.465 266.184L167.298 278.911C167.321 279.398 167.46 279.746 167.692 279.931C167.923 280.117 168.316 280.209 168.849 280.186L168.895 280.766L165.007 281.021L164.961 280.441C165.493 280.418 165.84 280.279 166.072 280.047C166.28 279.815 166.373 279.468 166.35 278.981L165.517 266.253C165.47 265.651 165.331 265.257 165.1 265.048C164.869 264.863 164.475 264.77 163.966 264.793L163.92 264.213L167.807 263.958H167.784Z" fill="#231815"/>
<path d="M173.499 278.679C174.425 279.468 175.374 279.769 176.369 279.63C177.225 279.514 177.849 279.143 178.243 278.54C178.706 277.845 178.844 276.871 178.659 275.596C178.52 274.507 178.127 273.718 177.549 273.231C177.04 272.814 176.114 272.42 174.772 272.072C173.615 271.725 172.712 271.284 172.065 270.751C171.185 270.009 170.653 268.943 170.468 267.598C170.306 266.462 170.422 265.488 170.792 264.677C171.255 263.68 172.088 263.101 173.245 262.938C173.545 262.892 173.869 262.892 174.17 262.938C174.355 262.985 174.587 263.031 174.888 263.124C175.119 263.193 175.258 263.217 175.35 263.24C175.489 263.24 175.605 263.24 175.674 263.17L176.369 262.637L177.919 266.694L177.687 266.949C177.016 265.767 176.322 264.886 175.628 264.329C174.818 263.68 173.985 263.402 173.129 263.518C172.435 263.611 171.903 263.935 171.532 264.468C171.116 265.094 171 265.975 171.139 267.088C171.301 268.201 171.741 269.035 172.458 269.638C172.99 270.079 173.8 270.426 174.864 270.728C176.183 271.029 177.155 271.446 177.803 271.98C178.682 272.675 179.215 273.695 179.423 275.04C179.631 276.593 179.446 277.822 178.868 278.726C178.335 279.56 177.549 280.047 176.461 280.186C176.137 280.233 175.79 280.209 175.42 280.14C175.212 280.094 174.911 280.024 174.54 279.908C174.355 279.862 174.24 279.815 174.147 279.792C174.031 279.792 173.939 279.792 173.893 279.792C173.731 279.792 173.545 279.908 173.337 280.07C173.152 280.209 172.99 280.395 172.828 280.627L171.116 276.361L171.394 276.083C172.065 277.196 172.736 278.053 173.407 278.61L173.499 278.679Z" fill="#231815"/>
<path d="M185.833 277.613C186.388 277.474 186.782 277.312 186.99 277.126C187.291 276.848 187.383 276.454 187.267 275.967L184.144 263.286C184.028 262.799 183.843 262.498 183.611 262.359C183.38 262.22 183.01 262.197 182.547 262.312C181.668 262.521 181.02 263.077 180.603 263.935C180.326 264.468 180.117 265.326 179.932 266.485L179.678 266.393V262.428L188.725 260.18L190.576 263.866L190.345 264.051L190.09 263.727C189.419 262.776 188.864 262.127 188.471 261.826C187.823 261.339 187.129 261.2 186.342 261.385C185.787 261.524 185.416 261.71 185.231 261.965C185.023 262.22 184.977 262.591 185.116 263.054L188.239 275.735C188.355 276.245 188.586 276.57 188.934 276.663C189.188 276.732 189.651 276.709 190.276 276.547L190.414 277.126L185.995 278.216L185.856 277.636L185.833 277.613Z" fill="#231815"/>
<path d="M197.357 273.278C198.421 273.834 199.416 273.95 200.365 273.602C201.175 273.301 201.707 272.814 201.962 272.142C202.262 271.377 202.193 270.38 201.753 269.175C201.36 268.131 200.828 267.436 200.134 267.065C199.555 266.764 198.56 266.578 197.149 266.508C195.922 266.416 194.95 266.184 194.233 265.813C193.215 265.257 192.474 264.353 192.012 263.101C191.618 262.034 191.526 261.061 191.711 260.18C191.965 259.113 192.636 258.348 193.724 257.954C194.002 257.838 194.326 257.792 194.626 257.769C194.812 257.769 195.066 257.769 195.367 257.792C195.598 257.792 195.76 257.792 195.853 257.792C195.992 257.792 196.084 257.722 196.154 257.653L196.709 256.957L199.139 260.597L199 260.898C198.097 259.878 197.241 259.183 196.431 258.789C195.506 258.325 194.626 258.232 193.817 258.534C193.146 258.789 192.706 259.206 192.474 259.809C192.197 260.504 192.266 261.385 192.66 262.452C193.053 263.495 193.655 264.213 194.488 264.654C195.112 264.955 195.969 265.141 197.079 265.21C198.421 265.21 199.463 265.419 200.203 265.813C201.198 266.3 201.915 267.204 202.378 268.479C202.91 269.94 203.003 271.191 202.61 272.211C202.262 273.139 201.591 273.765 200.573 274.159C200.272 274.275 199.925 274.344 199.532 274.344C199.324 274.344 199.023 274.344 198.63 274.321C198.444 274.321 198.306 274.321 198.236 274.321C198.12 274.321 198.028 274.344 197.982 274.367C197.82 274.437 197.658 274.553 197.496 274.762C197.334 274.947 197.218 275.156 197.125 275.411L194.557 271.655L194.788 271.331C195.691 272.281 196.524 272.953 197.287 273.371L197.357 273.278Z" fill="#231815"/>
<path d="M219.733 261.802C220.172 262.266 220.543 262.544 220.89 262.637C221.214 262.73 221.561 262.66 221.931 262.452L222.232 262.962L218.761 264.978L218.46 264.468C219.038 264.121 219.362 263.819 219.432 263.541C219.524 263.24 219.339 262.846 218.876 262.382L215.984 259.438L211.865 261.849L212.86 265.257C213.115 266.091 213.416 266.601 213.716 266.74C214.017 266.879 214.48 266.787 215.082 266.416L215.382 266.926L212.421 268.664L212.12 268.154C212.513 267.923 212.721 267.644 212.745 267.32C212.768 266.949 212.652 266.253 212.351 265.257L208.302 251.741L208.788 250.837L219.686 261.826L219.733 261.802ZM211.703 261.2L215.521 258.974L209.135 252.46L211.703 261.2Z" fill="#231815"/>
<path d="M224.823 259.113C226.003 259.368 226.998 259.183 227.808 258.58C228.502 258.07 228.872 257.444 228.941 256.725C229.011 255.891 228.664 254.964 227.9 253.943C227.252 253.063 226.535 252.529 225.771 252.39C225.123 252.274 224.128 252.39 222.763 252.692C221.56 252.947 220.565 252.993 219.755 252.831C218.621 252.599 217.649 251.927 216.839 250.837C216.168 249.91 215.775 249.006 215.729 248.101C215.659 246.989 216.099 246.085 217.048 245.389C217.302 245.204 217.58 245.065 217.881 244.949C218.066 244.902 218.297 244.833 218.621 244.763C218.853 244.717 219.015 244.67 219.084 244.647C219.2 244.601 219.292 244.508 219.339 244.415L219.686 243.604L223.018 246.409L222.971 246.734C221.814 246.015 220.796 245.575 219.917 245.435C218.899 245.25 218.043 245.412 217.349 245.922C216.77 246.34 216.469 246.873 216.4 247.522C216.33 248.264 216.654 249.098 217.325 250.026C217.996 250.93 218.783 251.463 219.709 251.625C220.38 251.741 221.259 251.695 222.347 251.44C223.642 251.092 224.684 250.976 225.517 251.138C226.604 251.324 227.553 251.973 228.363 253.063C229.289 254.314 229.705 255.474 229.612 256.563C229.543 257.537 229.08 258.348 228.201 258.997C227.946 259.183 227.622 259.345 227.252 259.461C227.044 259.531 226.743 259.6 226.373 259.693C226.188 259.739 226.049 259.762 225.98 259.786C225.864 259.832 225.794 259.855 225.748 259.901C225.609 259.994 225.494 260.18 225.401 260.411C225.309 260.62 225.262 260.875 225.216 261.13L221.699 258.232L221.814 257.861C222.948 258.51 223.92 258.928 224.799 259.113H224.823Z" fill="#231815"/>
<path d="M233.731 252.112C234.935 252.251 235.906 251.973 236.647 251.301C237.295 250.721 237.596 250.072 237.596 249.353C237.596 248.519 237.156 247.638 236.3 246.687C235.559 245.876 234.796 245.412 234.032 245.343C233.384 245.273 232.389 245.482 231.07 245.945C229.913 246.316 228.918 246.455 228.108 246.386C226.951 246.247 225.933 245.69 225.031 244.67C224.267 243.813 223.804 242.955 223.666 242.074C223.504 240.984 223.851 240.034 224.707 239.246C224.938 239.037 225.193 238.875 225.494 238.736C225.656 238.666 225.91 238.573 226.211 238.481C226.442 238.411 226.581 238.342 226.674 238.318C226.789 238.249 226.882 238.179 226.905 238.063L227.183 237.229L230.793 239.663V239.987C229.543 239.385 228.479 239.037 227.599 238.967C226.558 238.875 225.725 239.13 225.077 239.709C224.545 240.196 224.29 240.753 224.29 241.402C224.29 242.143 224.684 242.955 225.424 243.789C226.165 244.624 227.021 245.065 227.946 245.157C228.641 245.227 229.497 245.065 230.561 244.717C231.811 244.23 232.852 244.044 233.685 244.114C234.773 244.207 235.768 244.763 236.693 245.783C237.734 246.942 238.267 248.078 238.267 249.168C238.267 250.142 237.896 250.999 237.086 251.718C236.855 251.927 236.554 252.112 236.207 252.274C235.999 252.367 235.721 252.46 235.351 252.576C235.166 252.645 235.05 252.668 234.958 252.715C234.865 252.761 234.773 252.808 234.749 252.854C234.611 252.97 234.518 253.155 234.449 253.41C234.379 253.642 234.333 253.874 234.356 254.152L230.584 251.602L230.677 251.208C231.857 251.764 232.898 252.066 233.754 252.182L233.731 252.112Z" fill="#231815"/>
<path d="M237.133 230.506C238.891 230.993 240.673 232.059 242.432 233.682C244.19 235.305 245.394 236.951 246.018 238.666C246.736 240.59 246.574 242.143 245.486 243.326C244.445 244.462 242.941 244.763 240.974 244.184C239.215 243.674 237.48 242.607 235.721 241.007C233.963 239.385 232.759 237.739 232.088 236C231.371 234.099 231.51 232.569 232.574 231.433C233.662 230.251 235.189 229.926 237.156 230.483L237.133 230.506ZM232.921 235.745C233.616 237.252 234.796 238.759 236.439 240.289C238.058 241.773 239.655 242.816 241.205 243.372C242.941 243.998 244.213 243.859 245.046 242.978C245.903 242.051 245.949 240.729 245.185 239.037C244.514 237.53 243.357 236.023 241.714 234.516C240.071 232.986 238.452 231.966 236.901 231.41C235.143 230.784 233.847 230.946 232.991 231.874C232.158 232.778 232.158 234.053 232.921 235.745Z" fill="#231815"/>
<path d="M254.627 229.88C254.928 231.108 254.742 232.175 254.071 233.056C253.192 234.192 251.873 234.679 250.115 234.47C248.217 234.261 246.158 233.311 243.983 231.642C242.039 230.158 240.674 228.582 239.887 226.912C239.054 225.15 239.077 223.713 239.933 222.6C240.188 222.253 240.465 221.974 240.766 221.789C240.951 221.65 241.252 221.488 241.669 221.302L241.831 221.233L242.085 220.004L246.158 221.719V222.044C244.978 221.789 243.959 221.673 243.126 221.719C241.9 221.789 240.998 222.183 240.442 222.925C239.771 223.806 239.841 224.988 240.651 226.449C241.46 227.909 242.803 229.347 244.677 230.784C246.435 232.128 248.148 232.917 249.767 233.172C251.41 233.427 252.637 233.056 253.4 232.059C253.886 231.41 254.071 230.645 253.956 229.787C253.817 228.906 253.354 227.84 252.567 226.611L252.891 226.518C253.817 227.747 254.419 228.86 254.673 229.88H254.627Z" fill="#231815"/>
<path d="M246.296 214.208L246.759 214.533C246.458 214.996 246.342 215.367 246.389 215.669C246.458 215.97 246.736 216.295 247.245 216.619L257.843 223.69C258.259 223.968 258.606 224.061 258.907 223.991C259.208 223.922 259.509 223.667 259.81 223.226L260.319 223.574L258.167 226.82L257.658 226.472C257.935 226.031 258.074 225.661 258.005 225.359C257.958 225.058 257.727 224.756 257.334 224.501L246.736 217.431C246.25 217.106 245.833 216.967 245.533 217.037C245.232 217.106 244.931 217.361 244.653 217.802L244.19 217.477L246.342 214.231L246.296 214.208Z" fill="#231815"/>
<path d="M264.577 212.075C265.179 212.284 265.664 212.33 265.988 212.215C266.312 212.145 266.59 211.913 266.798 211.542L267.307 211.844L265.294 215.321L264.785 215.02C265.132 214.44 265.271 214 265.179 213.745C265.086 213.443 264.739 213.188 264.114 213.003L260.157 211.867L257.751 215.993L260.296 218.474C260.944 219.077 261.43 219.355 261.777 219.332C262.101 219.332 262.448 218.984 262.818 218.381L263.327 218.683L261.592 221.65L261.083 221.349C261.314 220.978 261.361 220.607 261.222 220.305C261.06 219.958 260.62 219.424 259.856 218.706L249.698 208.923V207.903L264.554 212.099L264.577 212.075ZM257.288 215.507L259.509 211.681L250.74 209.178L257.265 215.53L257.288 215.507Z" fill="#231815"/>
<path d="M269.273 206.72C269.528 206.187 269.644 205.793 269.644 205.515C269.644 205.097 269.389 204.796 268.926 204.564L257.195 198.815C256.732 198.606 256.385 198.537 256.153 198.63C255.876 198.722 255.644 198.977 255.436 199.418C255.043 200.252 255.02 201.087 255.436 201.945C255.667 202.501 256.176 203.22 256.963 204.101L256.709 204.24L253.654 201.713L257.773 193.297L261.799 194.225V194.526H261.383C260.203 194.433 259.37 194.433 258.884 194.549C258.097 194.735 257.542 195.175 257.171 195.917C256.917 196.427 256.824 196.821 256.894 197.146C256.963 197.47 257.218 197.725 257.657 197.934L269.389 203.683C269.875 203.915 270.245 203.938 270.546 203.753C270.777 203.591 271.032 203.22 271.31 202.64L271.842 202.895L269.852 206.975L269.32 206.72H269.273Z" fill="#231815"/>
<path d="M260.25 187.363L260.759 187.571C260.55 188.081 260.481 188.475 260.597 188.754C260.712 189.032 261.059 189.31 261.615 189.542L273.346 194.572C273.786 194.758 274.156 194.804 274.434 194.688C274.712 194.573 274.966 194.248 275.175 193.761L275.707 193.993L274.18 197.586L273.647 197.354C273.856 196.868 273.902 196.497 273.786 196.195C273.67 195.894 273.393 195.662 272.953 195.477L261.221 190.446C260.689 190.214 260.25 190.168 259.949 190.284C259.671 190.4 259.417 190.701 259.208 191.188L258.699 190.979L260.226 187.386L260.25 187.363Z" fill="#231815"/>
<path d="M266.381 177.951C268.209 177.742 270.245 178.043 272.49 178.878C274.734 179.712 276.447 180.802 277.696 182.147C279.108 183.653 279.524 185.16 278.969 186.667C278.437 188.128 277.141 188.962 275.105 189.171C273.277 189.356 271.263 189.055 269.042 188.22C266.821 187.386 265.062 186.296 263.789 184.975C262.401 183.491 261.961 182.031 262.517 180.57C263.072 179.063 264.368 178.182 266.404 177.951H266.381ZM264.46 184.372C265.687 185.508 267.33 186.459 269.435 187.224C271.495 187.989 273.369 188.336 275.035 188.267C276.863 188.197 277.997 187.595 278.414 186.459C278.853 185.276 278.414 184.048 277.048 182.773C275.845 181.637 274.202 180.686 272.12 179.921C270.014 179.133 268.14 178.785 266.474 178.878C264.622 178.971 263.465 179.597 263.026 180.779C262.609 181.915 263.072 183.12 264.437 184.372H264.46Z" fill="#231815"/>
<path d="M280.751 178.785C280.89 178.298 280.867 177.927 280.705 177.649C280.543 177.371 280.173 177.162 279.617 176.977L267.701 173.453C267.122 173.291 266.706 173.268 266.405 173.407C266.104 173.546 265.896 173.847 265.757 174.334L265.225 174.172L265.803 172.224L281.307 169.28L269.621 165.826C269.181 165.687 268.834 165.71 268.557 165.872C268.302 166.035 268.117 166.336 267.978 166.8L267.446 166.637L268.372 163.508L268.904 163.67C268.765 164.134 268.765 164.505 268.904 164.783C269.043 165.061 269.32 165.27 269.76 165.385L284.13 169.651L284.06 169.906L267.701 172.943L279.756 176.513C280.335 176.675 280.751 176.699 281.029 176.583C281.307 176.444 281.538 176.142 281.7 175.632L282.278 175.795L281.353 178.947L280.774 178.785H280.751Z" fill="#231815"/>
</g>
<defs>
<clipPath id="clip0_67_1704">
<rect width="296" height="295" fill="white"/>
</clipPath>
</defs>
</svg>
