<svg width="65" height="28" viewBox="0 0 65 28" fill="none" xmlns="http://www.w3.org/2000/svg">
<path d="M48.9072 12.5264C48.9072 12.8454 48.8454 13.1221 48.7217 13.3564C48.598 13.5908 48.4255 13.7829 48.2041 13.9326C47.9827 14.0791 47.7223 14.1816 47.4229 14.2402V14.2793C47.9893 14.3509 48.4141 14.5332 48.6973 14.8262C48.9837 15.1191 49.127 15.5033 49.127 15.9785C49.127 16.3919 49.0293 16.7581 48.834 17.0771C48.6419 17.3962 48.3457 17.6468 47.9453 17.8291C47.5482 18.0081 47.0387 18.0977 46.417 18.0977C46.0394 18.0977 45.6895 18.0667 45.3672 18.0049C45.0482 17.9463 44.7422 17.847 44.4492 17.707V16.9453C44.7454 17.0918 45.0677 17.2074 45.416 17.292C45.7643 17.3734 46.1012 17.4141 46.4268 17.4141C47.0778 17.4141 47.5482 17.2855 47.8379 17.0283C48.1276 16.7679 48.2725 16.4131 48.2725 15.9639C48.2725 15.6546 48.1911 15.4056 48.0283 15.2168C47.8688 15.0247 47.6377 14.8848 47.335 14.7969C47.0355 14.7057 46.6742 14.6602 46.251 14.6602H45.5381V13.9668H46.2559C46.6432 13.9668 46.972 13.9098 47.2422 13.7959C47.5124 13.682 47.7174 13.5225 47.8574 13.3174C48.0007 13.109 48.0723 12.8633 48.0723 12.5801C48.0723 12.2188 47.9518 11.9404 47.7109 11.7451C47.4701 11.5465 47.1429 11.4473 46.7295 11.4473C46.4756 11.4473 46.2445 11.4733 46.0361 11.5254C45.8278 11.5775 45.6325 11.6491 45.4502 11.7402C45.2679 11.8314 45.0856 11.9372 44.9033 12.0576L44.4932 11.501C44.7536 11.2992 45.071 11.125 45.4453 10.9785C45.8197 10.832 46.2445 10.7588 46.7197 10.7588C47.4489 10.7588 47.9958 10.9248 48.3604 11.2568C48.7249 11.5889 48.9072 12.012 48.9072 12.5264ZM50.7551 17.4922C50.7551 17.2643 50.8104 17.1032 50.9211 17.0088C51.0318 16.9111 51.1669 16.8623 51.3264 16.8623C51.4924 16.8623 51.6324 16.9111 51.7463 17.0088C51.8602 17.1032 51.9172 17.2643 51.9172 17.4922C51.9172 17.7168 51.8602 17.8812 51.7463 17.9854C51.6324 18.0863 51.4924 18.1367 51.3264 18.1367C51.1669 18.1367 51.0318 18.0863 50.9211 17.9854C50.8104 17.8812 50.7551 17.7168 50.7551 17.4922ZM58.1596 14.4209C58.1596 15.0003 58.1156 15.5179 58.0277 15.9736C57.9398 16.4294 57.8015 16.8151 57.6127 17.1309C57.4239 17.4466 57.1798 17.6875 56.8803 17.8535C56.5808 18.0163 56.2211 18.0977 55.8012 18.0977C55.2706 18.0977 54.8311 17.9528 54.4828 17.6631C54.1378 17.3734 53.879 16.9551 53.7064 16.4082C53.5372 15.8581 53.4525 15.1956 53.4525 14.4209C53.4525 13.6592 53.529 13.0049 53.682 12.458C53.8383 11.9079 54.0889 11.4863 54.434 11.1934C54.779 10.8971 55.2348 10.749 55.8012 10.749C56.3383 10.749 56.781 10.8955 57.1293 11.1885C57.4776 11.4782 57.7364 11.8981 57.9057 12.4482C58.0749 12.9951 58.1596 13.6527 58.1596 14.4209ZM54.268 14.4209C54.268 15.085 54.3184 15.6383 54.4193 16.0811C54.5202 16.5238 54.683 16.8558 54.9076 17.0771C55.1355 17.2952 55.4333 17.4043 55.8012 17.4043C56.169 17.4043 56.4652 17.2952 56.6898 17.0771C56.9177 16.859 57.0821 16.5286 57.183 16.0859C57.2872 15.6432 57.3393 15.0882 57.3393 14.4209C57.3393 13.7666 57.2888 13.2197 57.1879 12.7803C57.087 12.3376 56.9242 12.0055 56.6996 11.7842C56.475 11.5596 56.1755 11.4473 55.8012 11.4473C55.4268 11.4473 55.1273 11.5596 54.9027 11.7842C54.6781 12.0055 54.5154 12.3376 54.4145 12.7803C54.3168 13.2197 54.268 13.7666 54.268 14.4209ZM64.7145 18H63.7721L61.8434 14.8555L59.8854 18H59.0016L61.3795 14.2793L59.1676 10.8613H60.0904L61.8727 13.708L63.6646 10.8613H64.5436L62.3365 14.2646L64.7145 18Z" fill="#2C2C2C"/>
<path d="M30 1H37V27H30" stroke="#231815" stroke-width="0.5"/>
<g clip-path="url(#clip0_65_1113)">
<path d="M0 1H28.0747V26.6843H0V25.4586H26.6933V2.07714H0V1Z" fill="#231815"/>
<path d="M0 5.66162H10.8827V6.68305H6.36533V19.3488H7.48533V16.953C7.48533 16.953 7.41067 14.8359 8.49333 14.0559C9.352 13.4245 10.136 13.0902 11.928 12.9416V14.1302C10.7707 14.2231 10.36 14.4459 9.93067 14.7988C9.42667 15.2073 9.38933 15.9316 9.38933 16.563V19.3302H11.2187V20.3888H9.38933V23.2116H7.448V20.4816H0V19.3859H4.49867V6.68305H0V5.66162Z" fill="#231815"/>
</g>
<defs>
<clipPath id="clip0_65_1113">
<rect width="28" height="26" fill="white" transform="translate(0 1)"/>
</clipPath>
</defs>
</svg>
