<svg width="153" height="71" viewBox="0 0 153 71" fill="none" xmlns="http://www.w3.org/2000/svg">
<path d="M132.907 10.5264C132.907 10.8454 132.845 11.1221 132.722 11.3564C132.598 11.5908 132.425 11.7829 132.204 11.9326C131.983 12.0791 131.722 12.1816 131.423 12.2402V12.2793C131.989 12.3509 132.414 12.5332 132.697 12.8262C132.984 13.1191 133.127 13.5033 133.127 13.9785C133.127 14.3919 133.029 14.7581 132.834 15.0771C132.642 15.3962 132.346 15.6468 131.945 15.8291C131.548 16.0081 131.039 16.0977 130.417 16.0977C130.039 16.0977 129.689 16.0667 129.367 16.0049C129.048 15.9463 128.742 15.847 128.449 15.707V14.9453C128.745 15.0918 129.068 15.2074 129.416 15.292C129.764 15.3734 130.101 15.4141 130.427 15.4141C131.078 15.4141 131.548 15.2855 131.838 15.0283C132.128 14.7679 132.272 14.4131 132.272 13.9639C132.272 13.6546 132.191 13.4056 132.028 13.2168C131.869 13.0247 131.638 12.8848 131.335 12.7969C131.035 12.7057 130.674 12.6602 130.251 12.6602H129.538V11.9668H130.256C130.643 11.9668 130.972 11.9098 131.242 11.7959C131.512 11.682 131.717 11.5225 131.857 11.3174C132.001 11.109 132.072 10.8633 132.072 10.5801C132.072 10.2188 131.952 9.94043 131.711 9.74512C131.47 9.54655 131.143 9.44727 130.729 9.44727C130.476 9.44727 130.244 9.47331 130.036 9.52539C129.828 9.57747 129.632 9.64909 129.45 9.74023C129.268 9.83138 129.086 9.93717 128.903 10.0576L128.493 9.50098C128.754 9.29915 129.071 9.125 129.445 8.97852C129.82 8.83203 130.244 8.75879 130.72 8.75879C131.449 8.75879 131.996 8.9248 132.36 9.25684C132.725 9.58887 132.907 10.012 132.907 10.5264ZM134.755 15.4922C134.755 15.2643 134.81 15.1032 134.921 15.0088C135.032 14.9111 135.167 14.8623 135.326 14.8623C135.492 14.8623 135.632 14.9111 135.746 15.0088C135.86 15.1032 135.917 15.2643 135.917 15.4922C135.917 15.7168 135.86 15.8812 135.746 15.9854C135.632 16.0863 135.492 16.1367 135.326 16.1367C135.167 16.1367 135.032 16.0863 134.921 15.9854C134.81 15.8812 134.755 15.7168 134.755 15.4922ZM142.16 12.4209C142.16 13.0003 142.116 13.5179 142.028 13.9736C141.94 14.4294 141.801 14.8151 141.613 15.1309C141.424 15.4466 141.18 15.6875 140.88 15.8535C140.581 16.0163 140.221 16.0977 139.801 16.0977C139.271 16.0977 138.831 15.9528 138.483 15.6631C138.138 15.3734 137.879 14.9551 137.706 14.4082C137.537 13.8581 137.453 13.1956 137.453 12.4209C137.453 11.6592 137.529 11.0049 137.682 10.458C137.838 9.90788 138.089 9.48633 138.434 9.19336C138.779 8.89714 139.235 8.74902 139.801 8.74902C140.338 8.74902 140.781 8.89551 141.129 9.18848C141.478 9.47819 141.736 9.89811 141.906 10.4482C142.075 10.9951 142.16 11.6527 142.16 12.4209ZM138.268 12.4209C138.268 13.085 138.318 13.6383 138.419 14.0811C138.52 14.5238 138.683 14.8558 138.908 15.0771C139.135 15.2952 139.433 15.4043 139.801 15.4043C140.169 15.4043 140.465 15.2952 140.69 15.0771C140.918 14.859 141.082 14.5286 141.183 14.0859C141.287 13.6432 141.339 13.0882 141.339 12.4209C141.339 11.7666 141.289 11.2197 141.188 10.7803C141.087 10.3376 140.924 10.0055 140.7 9.78418C140.475 9.55957 140.176 9.44727 139.801 9.44727C139.427 9.44727 139.127 9.55957 138.903 9.78418C138.678 10.0055 138.515 10.3376 138.414 10.7803C138.317 11.2197 138.268 11.7666 138.268 12.4209ZM148.714 16H147.772L145.843 12.8555L143.885 16H143.002L145.379 12.2793L143.168 8.86133H144.09L145.873 11.708L147.665 8.86133H148.544L146.337 12.2646L148.714 16Z" fill="#2C2C2C"/>
<path d="M118 1H125V20H118" stroke="#231815" stroke-width="0.5"/>
<g clip-path="url(#clip0_65_1111)">
<path d="M0 2H19.6312V20H0V19.141H18.6653V2.75488H0V2Z" fill="#231815"/>
<path d="M0 5.2666H7.60971V5.98244H4.45096V14.8588H5.23413V13.1798C5.23413 13.1798 5.18191 11.6961 5.93897 11.1495C6.53939 10.7069 7.08761 10.4727 8.34066 10.3686V11.2015C7.5314 11.2666 7.24424 11.4228 6.94403 11.6701C6.5916 11.9564 6.5655 12.464 6.5655 12.9065V14.8458H7.84466V15.5876H6.5655V17.566H5.20802V15.6527H0V14.8848H3.1457V5.98244H0V5.2666Z" fill="#231815"/>
<path d="M27.8409 2.14307V2.33829C27.5407 2.33829 27.3319 2.37734 27.2013 2.44242C27.0839 2.52051 27.0186 2.66367 27.0186 2.8589V7.232C27.0186 7.4012 27.0839 7.51834 27.2013 7.59643C27.3319 7.67452 27.5407 7.70055 27.8409 7.70055V7.89578H25.6611V7.70055C25.9483 7.70055 26.1571 7.6615 26.2877 7.59643C26.4182 7.51834 26.4704 7.4012 26.4704 7.232V2.87192C26.4704 2.66367 26.4051 2.53352 26.2877 2.45543C26.1571 2.37734 25.9483 2.35131 25.6611 2.35131V2.14307H27.8409Z" fill="#231815"/>
<path d="M31.3398 7.71357C31.5617 7.71357 31.7053 7.67453 31.7967 7.60945C31.8881 7.54437 31.9272 7.42724 31.9272 7.24502V4.90229C31.9272 4.73309 31.8881 4.61596 31.8097 4.5639C31.7314 4.51184 31.5878 4.47279 31.3659 4.47279L31.3398 4.34264L32.4493 4.03027V4.74611L32.4885 4.70706C32.7626 4.49882 32.9845 4.35565 33.1542 4.26455C33.4413 4.12138 33.7415 4.04329 34.0548 4.04329C34.4072 4.04329 34.6813 4.14741 34.8771 4.34264C35.0729 4.53787 35.1643 4.8242 35.1643 5.17561V7.24502C35.1643 7.41422 35.2034 7.53136 35.3079 7.60945C35.3992 7.68754 35.5428 7.71357 35.7516 7.71357V7.9088H34.0417V7.71357C34.2506 7.71357 34.4072 7.67453 34.4986 7.60945C34.59 7.54437 34.6422 7.42724 34.6422 7.24502V5.14958C34.6422 4.90229 34.59 4.72008 34.4855 4.58993C34.3681 4.44676 34.1723 4.38168 33.8982 4.38168C33.6241 4.38168 33.363 4.43374 33.115 4.55088C32.9192 4.64199 32.6973 4.78515 32.4493 4.98038V7.24502C32.4493 7.41422 32.5015 7.53136 32.5929 7.60945C32.6843 7.68754 32.8409 7.71357 33.0497 7.71357V7.9088H31.3398V7.71357Z" fill="#231815"/>
<path d="M39.2494 4.17339C39.5626 4.14736 39.7976 4.03022 39.9673 3.80896C40.15 3.57469 40.2414 3.23629 40.2675 2.78076H40.4502V4.10831H41.638V4.34258H40.4502V7.21894C40.4502 7.36211 40.5024 7.47924 40.5938 7.55733C40.6852 7.63543 40.8288 7.67447 41.0245 7.67447C41.1551 7.67447 41.2856 7.63543 41.4292 7.55733C41.5597 7.49226 41.6772 7.40115 41.8077 7.271L41.9121 7.33608C41.7685 7.57035 41.5989 7.73955 41.4031 7.85668C41.2203 7.97382 41.0245 8.02588 40.8027 8.02588C40.5285 8.02588 40.3197 7.9608 40.1631 7.81764C40.0064 7.66146 39.9151 7.42718 39.9151 7.12783V4.34258H39.2363V4.17339H39.2494Z" fill="#231815"/>
<path d="M49.3521 7.08899C49.1302 7.38834 48.8952 7.6096 48.6342 7.75277C48.3078 7.93498 47.9163 8.02609 47.4594 8.02609C46.846 8.02609 46.3499 7.84387 45.9714 7.46643C45.6059 7.08899 45.4102 6.60743 45.4102 5.99572C45.4102 5.42305 45.5929 4.9545 45.9453 4.57706C46.3238 4.18661 46.8068 4.00439 47.4203 4.00439C48.0337 4.00439 48.4514 4.17359 48.7908 4.48596C49.1302 4.82435 49.2999 5.27988 49.2999 5.87858H45.9714C45.9714 6.51633 46.1281 6.99789 46.4544 7.31025C46.7285 7.58357 47.107 7.71372 47.5769 7.71372C47.9163 7.71372 48.2165 7.64865 48.4906 7.51849C48.7516 7.40136 48.9996 7.20613 49.2215 6.95884L49.3521 7.06296V7.08899ZM48.347 4.56405C48.1251 4.32977 47.8118 4.22565 47.4072 4.22565C47.0287 4.22565 46.7024 4.3558 46.4283 4.62912C46.1542 4.91546 45.9975 5.25385 45.9714 5.67034H48.7255C48.6994 5.17576 48.5689 4.81134 48.334 4.56405H48.347Z" fill="#231815"/>
<path d="M52.8369 7.71354C53.0197 7.71354 53.1632 7.68751 53.2677 7.62243C53.3721 7.55735 53.4373 7.44022 53.4373 7.29705V4.83718C53.4373 4.69401 53.3982 4.58989 53.3329 4.55085C53.2546 4.49879 53.111 4.47276 52.8891 4.47276L52.8369 4.3426L53.9594 3.96516V4.95432L54.0769 4.8502C54.4424 4.56386 54.7165 4.36863 54.9123 4.2515C55.2386 4.05627 55.5258 3.95215 55.7607 3.95215C55.8782 3.95215 55.9826 3.99119 56.074 4.06929C56.1653 4.14738 56.2176 4.23848 56.2176 4.32959C56.2176 4.4207 56.1653 4.49879 56.074 4.57688C55.9826 4.65497 55.8782 4.69401 55.7607 4.69401C55.6824 4.69401 55.6171 4.681 55.5519 4.64195C55.5127 4.62894 55.4736 4.60291 55.4083 4.56386C55.343 4.5118 55.2908 4.48577 55.2517 4.47276C55.1864 4.44673 55.1081 4.47276 55.0167 4.49879C54.8731 4.56386 54.7165 4.64195 54.5599 4.74607C54.4293 4.83718 54.2205 4.99336 53.9464 5.21462V7.27102C53.9464 7.4272 53.9855 7.54434 54.0639 7.5964C54.1422 7.66148 54.2988 7.68751 54.5338 7.68751V7.88273H52.8369V7.68751V7.71354Z" fill="#231815"/>
<path d="M59.7031 7.71357C59.925 7.71357 60.0686 7.67453 60.16 7.60945C60.2513 7.54437 60.2905 7.42724 60.2905 7.24502V4.90229C60.2905 4.73309 60.2513 4.61596 60.173 4.5639C60.0947 4.51184 59.9511 4.47279 59.7292 4.47279L59.7031 4.34264L60.8126 4.03027V4.74611L60.8518 4.70706C61.1259 4.49882 61.3478 4.35565 61.5174 4.26455C61.8046 4.12138 62.1048 4.04329 62.4181 4.04329C62.7705 4.04329 63.0446 4.14741 63.2404 4.34264C63.4362 4.53787 63.5276 4.8242 63.5276 5.17561V7.24502C63.5276 7.41422 63.5667 7.53136 63.6711 7.60945C63.7625 7.68754 63.9061 7.71357 64.1149 7.71357V7.9088H62.405V7.71357C62.6139 7.71357 62.7705 7.67453 62.8619 7.60945C62.9532 7.54437 63.0055 7.42724 63.0055 7.24502V5.14958C63.0055 4.90229 62.9532 4.72008 62.8488 4.58993C62.7313 4.44676 62.5356 4.38168 62.2614 4.38168C61.9873 4.38168 61.7263 4.43374 61.4783 4.55088C61.2825 4.64199 61.0606 4.78515 60.8126 4.98038V7.24502C60.8126 7.41422 60.8518 7.53136 60.9562 7.60945C61.0475 7.68754 61.2042 7.71357 61.413 7.71357V7.9088H59.7162V7.71357H59.7031Z" fill="#231815"/>
<path d="M71.2413 7.90895C71.1238 7.98704 70.9803 8.02609 70.8236 8.02609C70.6409 8.02609 70.5104 7.97403 70.432 7.85689C70.3798 7.76578 70.3407 7.64865 70.3407 7.47945C70.1318 7.64865 69.923 7.7788 69.7141 7.8699C69.4531 7.97403 69.1659 8.02609 68.8396 8.02609C68.435 8.02609 68.1087 7.93498 67.8998 7.75277C67.704 7.58357 67.5996 7.36231 67.5996 7.08899C67.5996 6.72457 67.8215 6.4122 68.2783 6.16492C68.7482 5.90461 69.427 5.70938 70.3276 5.57923V5.00656C70.3276 4.75928 70.2624 4.56405 70.1318 4.4339C70.0013 4.29073 69.8055 4.21264 69.5575 4.21264C69.2312 4.21264 68.9832 4.25168 68.8135 4.34279C68.6569 4.42088 68.5394 4.57706 68.4611 4.78531C68.4219 4.88943 68.3828 4.9545 68.3306 5.00656C68.2653 5.08465 68.1739 5.11069 68.0695 5.11069C67.952 5.11069 67.8737 5.08465 67.8085 5.01958C67.7562 4.96752 67.7171 4.87641 67.7171 4.77229C67.7171 4.56405 67.8868 4.38183 68.2131 4.23867C68.5655 4.08249 69.0224 4.00439 69.5836 4.00439C69.9621 4.00439 70.2754 4.0955 70.4973 4.27771C70.7322 4.45993 70.8497 4.73324 70.8497 5.07164V7.28422C70.8497 7.41437 70.8497 7.51849 70.8889 7.58357C70.915 7.66166 70.9541 7.71372 71.0325 7.71372C71.0977 7.71372 71.1499 7.71372 71.2021 7.68769C71.2805 7.66166 71.3588 7.6096 71.4371 7.54453L71.5154 7.63563C71.411 7.76578 71.3066 7.85689 71.2283 7.90895H71.2413ZM68.8396 6.21698C68.4219 6.45125 68.2131 6.73758 68.2131 7.07598C68.2131 7.25819 68.2783 7.41437 68.4219 7.53151C68.5655 7.64865 68.7744 7.71372 69.0485 7.71372C69.3487 7.71372 69.5967 7.67468 69.8055 7.59659C69.9882 7.53151 70.184 7.41437 70.3798 7.24518V5.80049C69.7533 5.85255 69.2573 5.99572 68.8657 6.21698H68.8396Z" fill="#231815"/>
<path d="M75.0267 4.17339C75.34 4.14736 75.5749 4.03022 75.7446 3.80896C75.9274 3.57469 76.0187 3.23629 76.0448 2.78076H76.2276V4.10831H77.4154V4.34258H76.2276V7.21894C76.2276 7.36211 76.2798 7.47924 76.3711 7.55733C76.4625 7.63543 76.6061 7.67447 76.8019 7.67447C76.9324 7.67447 77.0629 7.63543 77.2065 7.55733C77.337 7.49226 77.4545 7.40115 77.585 7.271L77.6895 7.33608C77.5459 7.57035 77.3762 7.73955 77.1804 7.85668C76.9977 7.97382 76.8019 8.02588 76.58 8.02588C76.3059 8.02588 76.097 7.9608 75.9404 7.81764C75.7838 7.66146 75.6924 7.42718 75.6924 7.12783V4.34258H75.0137V4.17339H75.0267Z" fill="#231815"/>
<path d="M81.214 7.90889V7.71367C81.4228 7.71367 81.5794 7.68764 81.6578 7.63557C81.7491 7.58351 81.8013 7.47939 81.8013 7.32321V4.87636C81.8013 4.75922 81.7622 4.66811 81.6839 4.61605C81.5925 4.55098 81.4359 4.52495 81.2009 4.52495L81.1748 4.40781L82.3234 4.03037V7.32321C82.3234 7.47939 82.3626 7.58351 82.4409 7.63557C82.5192 7.68764 82.6759 7.71367 82.9108 7.71367V7.90889H81.214ZM82.0754 2C81.9188 2 81.8013 2.03905 81.723 2.13015C81.6447 2.20824 81.6055 2.29935 81.6055 2.40347C81.6055 2.50759 81.6447 2.5987 81.723 2.66377C81.8013 2.74187 81.9188 2.79393 82.0754 2.79393C82.219 2.79393 82.3365 2.75488 82.4148 2.66377C82.4931 2.58568 82.5323 2.50759 82.5323 2.40347C82.5323 2.28633 82.4931 2.19523 82.4148 2.13015C82.3234 2.05206 82.219 2 82.0754 2Z" fill="#231815"/>
<path d="M89.9204 4.62929C90.2467 4.99372 90.4033 5.46226 90.4033 6.02192C90.4033 6.58157 90.2336 7.0371 89.9204 7.40153C89.5549 7.81801 89.0458 8.01324 88.4062 8.01324C87.7667 8.01324 87.2446 7.805 86.8921 7.40153C86.5658 7.0371 86.4092 6.56855 86.4092 6.02192C86.4092 5.47528 86.5658 4.99372 86.8921 4.62929C87.2576 4.21281 87.7536 4.01758 88.4062 4.01758C89.0589 4.01758 89.5549 4.22582 89.9204 4.62929ZM87.3229 4.77246C87.101 5.11085 86.9835 5.52734 86.9835 6.03493C86.9835 6.54252 87.101 6.94599 87.3229 7.27137C87.5839 7.64881 87.9364 7.83103 88.4062 7.83103C88.8761 7.83103 89.2286 7.64881 89.4896 7.27137C89.7246 6.94599 89.829 6.52951 89.829 6.03493C89.829 5.54035 89.7115 5.11085 89.4896 4.77246C89.2286 4.40803 88.8761 4.22582 88.4062 4.22582C87.9364 4.22582 87.5709 4.40803 87.3229 4.77246Z" fill="#231815"/>
<path d="M93.9008 7.71357C94.1226 7.71357 94.2662 7.67453 94.3576 7.60945C94.449 7.54437 94.4881 7.42724 94.4881 7.24502V4.90229C94.4881 4.73309 94.449 4.61596 94.3706 4.5639C94.2923 4.51184 94.1487 4.47279 93.9269 4.47279L93.9008 4.34264L95.0102 4.03027V4.74611L95.0494 4.70706C95.3235 4.49882 95.5454 4.35565 95.7151 4.26455C96.0022 4.12138 96.3024 4.04329 96.6157 4.04329C96.9681 4.04329 97.2422 4.14741 97.438 4.34264C97.6338 4.53787 97.7252 4.8242 97.7252 5.17561V7.24502C97.7252 7.41422 97.7774 7.53136 97.8688 7.60945C97.9601 7.68754 98.1037 7.71357 98.3126 7.71357V7.9088H96.6027V7.71357C96.8115 7.71357 96.9681 7.67453 97.0595 7.60945C97.1509 7.54437 97.19 7.42724 97.19 7.24502V5.14958C97.19 4.90229 97.1378 4.72008 97.0334 4.58993C96.9159 4.44676 96.7201 4.38168 96.446 4.38168C96.1719 4.38168 95.9109 4.43374 95.6629 4.55088C95.4671 4.64199 95.2452 4.78515 94.9972 4.98038V7.24502C94.9972 7.41422 95.0363 7.53136 95.1408 7.60945C95.2321 7.68754 95.3888 7.71357 95.5976 7.71357V7.9088H93.8877V7.71357H93.9008Z" fill="#231815"/>
<path d="M105.44 7.90895C105.322 7.98704 105.178 8.02609 105.022 8.02609C104.839 8.02609 104.709 7.97403 104.63 7.85689C104.578 7.76578 104.539 7.64865 104.539 7.47945C104.33 7.64865 104.121 7.7788 103.912 7.8699C103.651 7.97403 103.364 8.02609 103.038 8.02609C102.633 8.02609 102.307 7.93498 102.098 7.75277C101.902 7.58357 101.798 7.36231 101.798 7.08899C101.798 6.72457 102.02 6.4122 102.477 6.16492C102.946 5.90461 103.625 5.70938 104.526 5.57923V5.00656C104.526 4.75928 104.461 4.56405 104.33 4.4339C104.2 4.29073 104.004 4.21264 103.756 4.21264C103.429 4.21264 103.181 4.25168 103.012 4.34279C102.855 4.42088 102.738 4.57706 102.659 4.78531C102.62 4.88943 102.581 4.9545 102.529 5.00656C102.464 5.08465 102.372 5.11069 102.268 5.11069C102.15 5.11069 102.059 5.08465 102.007 5.01958C101.954 4.96752 101.915 4.87641 101.915 4.77229C101.915 4.56405 102.085 4.38183 102.411 4.23867C102.764 4.08249 103.221 4.00439 103.782 4.00439C104.16 4.00439 104.474 4.0955 104.696 4.27771C104.93 4.45993 105.048 4.73324 105.048 5.07164V7.28422C105.048 7.41437 105.048 7.51849 105.087 7.58357C105.113 7.66166 105.152 7.71372 105.231 7.71372C105.296 7.71372 105.348 7.71372 105.4 7.68769C105.479 7.66166 105.557 7.6096 105.635 7.54453L105.714 7.63563C105.609 7.76578 105.505 7.85689 105.426 7.90895H105.44ZM103.038 6.21698C102.62 6.45125 102.411 6.73758 102.411 7.07598C102.411 7.25819 102.477 7.41437 102.62 7.53151C102.764 7.64865 102.973 7.71372 103.247 7.71372C103.547 7.71372 103.795 7.67468 104.004 7.59659C104.186 7.53151 104.382 7.41437 104.578 7.24518V5.80049C103.952 5.85255 103.456 5.99572 103.051 6.21698H103.038Z" fill="#231815"/>
<path d="M109.264 7.7137C109.473 7.7137 109.629 7.67465 109.721 7.59656C109.812 7.51847 109.851 7.38832 109.851 7.21912V2.93713C109.851 2.80698 109.812 2.71587 109.721 2.65079C109.629 2.58572 109.473 2.55969 109.264 2.55969L109.225 2.45557L110.373 2.07812V7.21912C110.373 7.38832 110.412 7.51847 110.504 7.59656C110.608 7.67465 110.765 7.7137 110.987 7.7137V7.90893H109.251V7.7137H109.264Z" fill="#231815"/>
<path d="M25.6488 18.7374C25.8968 18.7374 26.0665 18.6984 26.1448 18.6333C26.2231 18.5682 26.2623 18.4251 26.2623 18.2168V14.4424C26.2623 14.2863 26.2231 14.1691 26.1448 14.104C26.0534 14.0259 25.8837 13.9869 25.6488 13.9869V13.8047H29.1991L29.7082 14.9761L29.6038 15.0411C29.408 14.7418 29.1991 14.5205 28.9903 14.3513C28.664 14.104 28.3115 13.9869 27.92 13.9869H27.189C27.0193 13.9869 26.9019 14.0259 26.8105 14.104C26.7322 14.1821 26.693 14.2863 26.693 14.4424V16.1474H27.6981C27.9591 16.1474 28.1549 16.0954 28.2593 16.0043C28.4029 15.8741 28.4812 15.6398 28.4812 15.2884H28.6509V17.2797H28.4812C28.4812 16.9283 28.4029 16.681 28.2593 16.5379C28.1288 16.4077 27.9461 16.3426 27.6981 16.3426H26.693V18.2299C26.693 18.4381 26.7452 18.5682 26.8366 18.6463C26.941 18.7114 27.1237 18.7505 27.4109 18.7505V18.9327H25.6357V18.7505L25.6488 18.7374Z" fill="#231815"/>
<path d="M30.8952 18.7377C31.0649 18.7377 31.1824 18.6987 31.2607 18.6336C31.339 18.5685 31.3651 18.4514 31.3651 18.3082V14.5078C31.3651 14.3907 31.326 14.3126 31.2607 14.2605C31.1824 14.2085 31.0649 14.1824 30.8952 14.1824L30.8691 14.0913L31.7828 13.7529V18.3082C31.7828 18.4644 31.822 18.5685 31.8873 18.6466C31.9656 18.7117 32.0961 18.7508 32.2658 18.7508V18.933H30.8952V18.7508V18.7377Z" fill="#231815"/>
<path d="M36.4824 16.0173C36.7434 16.3427 36.874 16.7592 36.874 17.2538C36.874 17.7484 36.7434 18.1518 36.4824 18.4772C36.1952 18.8416 35.7906 19.0238 35.2815 19.0238C34.7725 19.0238 34.3678 18.8416 34.0807 18.4772C33.8327 18.1518 33.7021 17.7353 33.7021 17.2538C33.7021 16.7722 33.8327 16.3427 34.0807 16.0173C34.3678 15.6529 34.7725 15.4707 35.2815 15.4707C35.7906 15.4707 36.1952 15.6529 36.4824 16.0173ZM34.407 16.1345C34.2243 16.4338 34.1459 16.7983 34.1459 17.2538C34.1459 17.7093 34.2373 18.0607 34.407 18.3471C34.6158 18.6724 34.903 18.8416 35.2685 18.8416C35.6339 18.8416 35.9211 18.6724 36.1299 18.3471C36.3127 18.0607 36.4041 17.6963 36.4041 17.2538C36.4041 16.8113 36.3127 16.4338 36.1299 16.1345C35.9211 15.8091 35.647 15.6399 35.2685 15.6399C34.8899 15.6399 34.6158 15.8091 34.407 16.1345Z" fill="#231815"/>
<path d="M38.584 18.7376C38.7276 18.7376 38.845 18.7116 38.9234 18.6596C39.0147 18.5945 39.0539 18.5034 39.0539 18.3732V16.1997C39.0539 16.0695 39.0278 15.9784 38.9756 15.9394C38.9103 15.8873 38.8059 15.8743 38.6231 15.8743L38.584 15.7572L39.4716 15.4188V16.2908L39.5629 16.1997C39.8501 15.9524 40.072 15.7702 40.2156 15.6661C40.4766 15.4969 40.6985 15.4058 40.8943 15.4058C40.9857 15.4058 41.077 15.4448 41.1423 15.5099C41.2206 15.575 41.2467 15.6531 41.2467 15.7442C41.2467 15.8222 41.2076 15.9003 41.1423 15.9654C41.064 16.0305 40.9857 16.0695 40.8943 16.0695C40.8421 16.0695 40.7768 16.0565 40.7377 16.0305C40.7116 16.0175 40.6724 15.9914 40.6333 15.9654C40.581 15.9134 40.5419 15.9003 40.5158 15.8873C40.4636 15.8743 40.3983 15.8873 40.333 15.9134C40.2156 15.9654 40.0981 16.0435 39.9676 16.1346C39.8631 16.2127 39.7065 16.3559 39.4716 16.5511V18.3732C39.4716 18.5164 39.4977 18.6075 39.5629 18.6596C39.6282 18.7116 39.7457 18.7376 39.9284 18.7376V18.9199H38.584V18.7376Z" fill="#231815"/>
<path d="M43.0216 18.9196V18.7374C43.1913 18.7374 43.3087 18.7114 43.374 18.6723C43.4523 18.6203 43.4784 18.5291 43.4784 18.399V16.2385C43.4784 16.1344 43.4523 16.0563 43.3871 16.0042C43.3087 15.9521 43.1913 15.9261 43.0085 15.9261L42.9824 15.822L43.8831 15.4836V18.399C43.8831 18.5422 43.9092 18.6333 43.9744 18.6723C44.0397 18.7244 44.1572 18.7374 44.353 18.7374V18.9196H43.0085H43.0216ZM43.7003 13.6875C43.5828 13.6875 43.4784 13.7265 43.4262 13.7916C43.3609 13.8567 43.3348 13.9348 43.3348 14.0389C43.3348 14.13 43.3609 14.2081 43.4262 14.2732C43.4915 14.3513 43.5828 14.3773 43.7003 14.3773C43.8178 14.3773 43.9092 14.3383 43.9744 14.2732C44.0397 14.2081 44.0658 14.13 44.0658 14.0389C44.0658 13.9348 44.0397 13.8567 43.9744 13.7916C43.9092 13.7135 43.8178 13.6875 43.7003 13.6875Z" fill="#231815"/>
<path d="M46.8457 18.5423C47.1329 18.7505 47.4462 18.8547 47.7855 18.8547C48.0205 18.8547 48.2163 18.7896 48.3598 18.6594C48.5165 18.5293 48.5948 18.3471 48.5948 18.1258C48.5948 17.9566 48.5165 17.8265 48.3729 17.7223C48.2293 17.6182 47.9683 17.5011 47.6158 17.397C47.0937 17.2278 46.7413 17.0586 46.5455 16.8894C46.3758 16.7332 46.2845 16.538 46.2845 16.2907C46.2845 16.0694 46.3758 15.8742 46.5716 15.731C46.7805 15.5879 47.0415 15.5098 47.3678 15.5098C47.4723 15.5098 47.5767 15.5098 47.6811 15.5358C47.7464 15.5488 47.8116 15.5748 47.9161 15.6009C47.9944 15.6139 48.0466 15.6269 48.0727 15.6399C48.1118 15.6399 48.151 15.6399 48.1902 15.6399L48.4512 15.5228L48.8428 16.538L48.7253 16.59C48.6209 16.3948 48.4512 16.1996 48.2424 16.0304C47.9552 15.8091 47.6681 15.692 47.3678 15.692C47.1459 15.692 46.9632 15.744 46.8327 15.8482C46.7022 15.9523 46.6369 16.1085 46.6369 16.3037C46.6369 16.4599 46.7152 16.59 46.8849 16.6941C47.0154 16.7722 47.2504 16.8764 47.6158 16.9935C48.0988 17.1497 48.4382 17.3059 48.6339 17.462C48.8428 17.6312 48.9342 17.8655 48.9342 18.1388C48.9342 18.4382 48.8167 18.6725 48.5687 18.8417C48.3598 18.9978 48.0988 19.0759 47.7855 19.0759C47.6811 19.0759 47.5767 19.0759 47.4853 19.0369C47.4201 19.0369 47.3417 19.0108 47.2373 18.9718C47.1459 18.9458 47.0807 18.9328 47.0285 18.9197C46.9632 18.9197 46.911 18.9197 46.8588 18.9328L46.5716 19.0499L46.167 17.9696L46.2584 17.9306C46.4672 18.2169 46.663 18.4252 46.8457 18.5553V18.5423Z" fill="#231815"/>
<path d="M50.6966 15.6139C50.9446 15.5879 51.1274 15.4837 51.271 15.2885C51.4145 15.0803 51.4929 14.7809 51.5059 14.3774H51.6495V15.5488H52.5893V15.7571H51.6495V18.308C51.6495 18.4382 51.6886 18.5423 51.767 18.6074C51.8453 18.6725 51.9628 18.7115 52.1063 18.7115C52.2108 18.7115 52.3152 18.6725 52.4196 18.6074C52.524 18.5553 52.6154 18.4642 52.7198 18.3601L52.7981 18.4121C52.6807 18.6074 52.5501 18.7636 52.3935 18.8807C52.2499 18.9848 52.0933 19.0239 51.9236 19.0239C51.7148 19.0239 51.5451 18.9718 51.4145 18.8416C51.284 18.6985 51.2188 18.4902 51.2188 18.2299V15.7701H50.6836V15.6269L50.6966 15.6139Z" fill="#231815"/>
<path d="M55.3565 18.5423C55.6436 18.7505 55.9438 18.8547 56.2963 18.8547C56.5312 18.8547 56.727 18.7896 56.8706 18.6594C57.0272 18.5293 57.1055 18.3471 57.1055 18.1258C57.1055 17.9566 57.0272 17.8265 56.8836 17.7223C56.7401 17.6182 56.479 17.5011 56.1266 17.397C55.6045 17.2278 55.2521 17.0586 55.0563 16.8894C54.8866 16.7332 54.7952 16.538 54.7952 16.2907C54.7952 16.0694 54.8866 15.8742 55.0824 15.731C55.2912 15.5879 55.5523 15.5098 55.8786 15.5098C55.983 15.5098 56.0874 15.5098 56.1918 15.5358C56.2571 15.5488 56.3224 15.5748 56.4268 15.6009C56.5051 15.6139 56.5443 15.6269 56.5834 15.6399C56.6226 15.6399 56.6617 15.6399 56.7009 15.6399L56.962 15.5228L57.3535 16.538L57.2361 16.59C57.1316 16.3948 56.962 16.1996 56.7531 16.0304C56.466 15.8091 56.1788 15.692 55.8786 15.692C55.6567 15.692 55.474 15.744 55.3434 15.8482C55.2129 15.9523 55.1476 16.1085 55.1476 16.3037C55.1476 16.4599 55.2259 16.59 55.3956 16.6941C55.5262 16.7722 55.7611 16.8764 56.1266 16.9935C56.6095 17.1497 56.9489 17.3059 57.1447 17.462C57.3535 17.6312 57.4449 17.8655 57.4449 18.1388C57.4449 18.4382 57.3274 18.6725 57.0794 18.8417C56.8706 18.9978 56.6095 19.0759 56.2963 19.0759C56.1918 19.0759 56.0874 19.0759 55.9961 19.0369C55.9308 19.0369 55.8525 19.0108 55.7481 18.9718C55.6567 18.9458 55.5914 18.9328 55.5392 18.9197C55.4739 18.9197 55.4217 18.9197 55.3695 18.9328L55.0824 19.0499L54.6777 17.9696L54.7691 17.9306C54.9779 18.2169 55.1737 18.4252 55.3565 18.5553V18.5423Z" fill="#231815"/>
<path d="M66.3594 18.2298C66.4116 18.425 66.503 18.5552 66.6205 18.6203C66.7249 18.6983 66.8685 18.7374 67.0642 18.7374V18.9196H65.3021V18.7374C65.6023 18.7374 65.7981 18.7114 65.8765 18.6463C65.9809 18.5812 65.9939 18.4511 65.9287 18.2558L65.4849 17.0454H63.3834L63.0049 18.0866C62.9135 18.3469 62.9135 18.5161 63.0049 18.6072C63.0832 18.6853 63.279 18.7374 63.5922 18.7374V18.9196H62.0781V18.7374C62.2739 18.7374 62.4175 18.6983 62.5089 18.6072C62.6002 18.5161 62.7047 18.3079 62.8091 18.0085L64.271 13.8437L64.6626 13.6875L66.3725 18.2298H66.3594ZM63.4356 16.8502H65.3935L64.4015 14.1691L63.4487 16.8502H63.4356Z" fill="#231815"/>
<path d="M69.2969 18.5423C69.5841 18.7505 69.8843 18.8547 70.2367 18.8547C70.4716 18.8547 70.6674 18.7896 70.811 18.6594C70.9676 18.5293 71.046 18.3471 71.046 18.1258C71.046 17.9566 70.9676 17.8265 70.8241 17.7223C70.6805 17.6182 70.4194 17.5011 70.067 17.397C69.5449 17.2278 69.1925 17.0586 68.9967 16.8894C68.827 16.7332 68.7356 16.538 68.7356 16.2907C68.7356 16.0694 68.827 15.8742 69.0228 15.731C69.2316 15.5879 69.4927 15.5098 69.819 15.5098C69.9234 15.5098 70.0279 15.5098 70.1323 15.5358C70.1975 15.5488 70.2628 15.5748 70.3672 15.6009C70.4455 15.6139 70.4977 15.6269 70.5239 15.6399C70.563 15.6399 70.6022 15.6399 70.6413 15.6399L70.9024 15.5228L71.294 16.538L71.1765 16.59C71.0721 16.3948 70.9024 16.1996 70.6935 16.0304C70.4064 15.8091 70.1192 15.692 69.819 15.692C69.5971 15.692 69.4144 15.744 69.2839 15.8482C69.1533 15.9523 69.0881 16.1085 69.0881 16.3037C69.0881 16.4599 69.1664 16.59 69.3361 16.6941C69.4666 16.7722 69.7015 16.8764 70.067 16.9935C70.55 17.1497 70.8893 17.3059 71.0851 17.462C71.294 17.6312 71.3853 17.8655 71.3853 18.1388C71.3853 18.4382 71.2679 18.6725 71.0199 18.8417C70.811 18.9978 70.55 19.0759 70.2367 19.0759C70.1323 19.0759 70.0279 19.0759 69.9365 19.0369C69.8712 19.0369 69.7929 19.0108 69.6885 18.9718C69.5971 18.9458 69.5188 18.9328 69.4796 18.9197C69.4144 18.9197 69.3622 18.9197 69.31 18.9328L69.0228 19.0499L68.6182 17.9696L68.7095 17.9306C68.9184 18.2169 69.1142 18.4252 69.2969 18.5553V18.5423Z" fill="#231815"/>
<path d="M73.708 18.5423C73.9952 18.7505 74.3085 18.8547 74.6478 18.8547C74.8828 18.8547 75.0786 18.7896 75.2221 18.6594C75.3788 18.5293 75.4571 18.3471 75.4571 18.1258C75.4571 17.9566 75.3788 17.8265 75.2352 17.7223C75.0916 17.6182 74.8306 17.5011 74.4781 17.397C73.956 17.2278 73.6036 17.0586 73.4078 16.8894C73.2381 16.7332 73.1468 16.538 73.1468 16.2907C73.1468 16.0694 73.2381 15.8742 73.4339 15.731C73.6428 15.5879 73.9038 15.5098 74.2301 15.5098C74.3346 15.5098 74.439 15.5098 74.5434 15.5358C74.5956 15.5488 74.6739 15.5748 74.7784 15.6009C74.8567 15.6139 74.9089 15.6269 74.935 15.6399C74.9741 15.6399 75.0133 15.6399 75.0525 15.6399L75.3135 15.5228L75.7051 16.538L75.5876 16.59C75.4832 16.3948 75.3135 16.1996 75.1047 16.0304C74.8175 15.8091 74.5304 15.692 74.2301 15.692C74.0082 15.692 73.8255 15.744 73.695 15.8482C73.5645 15.9523 73.4992 16.1085 73.4992 16.3037C73.4992 16.4599 73.5775 16.59 73.7472 16.6941C73.8777 16.7722 74.1127 16.8764 74.4781 16.9935C74.9611 17.1497 75.3005 17.3059 75.4963 17.462C75.7051 17.6312 75.7965 17.8655 75.7965 18.1388C75.7965 18.4382 75.679 18.6725 75.431 18.8417C75.2221 18.9978 74.9611 19.0759 74.6478 19.0759C74.5434 19.0759 74.439 19.0759 74.3476 19.0369C74.2824 19.0369 74.204 19.0108 74.0996 18.9718C74.0082 18.9458 73.943 18.9328 73.8908 18.9197C73.8255 18.9197 73.7733 18.9197 73.7211 18.9328L73.4339 19.0499L73.0293 17.9696L73.1207 17.9306C73.3295 18.2169 73.5253 18.4252 73.708 18.5553V18.5423Z" fill="#231815"/>
<path d="M80.5351 16.0173C80.7962 16.3427 80.9267 16.7592 80.9267 17.2538C80.9267 17.7484 80.7962 18.1518 80.5351 18.4772C80.2479 18.8416 79.8433 19.0238 79.3343 19.0238C78.8252 19.0238 78.4206 18.8416 78.1334 18.4772C77.8854 18.1518 77.7549 17.7353 77.7549 17.2538C77.7549 16.7722 77.8854 16.3427 78.1334 16.0173C78.4206 15.6529 78.8252 15.4707 79.3343 15.4707C79.8433 15.4707 80.2479 15.6529 80.5351 16.0173ZM78.4728 16.1345C78.29 16.4338 78.2117 16.7983 78.2117 17.2538C78.2117 17.7093 78.3031 18.0607 78.4728 18.3471C78.6816 18.6724 78.9688 18.8416 79.3343 18.8416C79.6997 18.8416 79.9869 18.6724 80.1827 18.3471C80.3654 18.0607 80.4568 17.6963 80.4568 17.2538C80.4568 16.8113 80.3654 16.4338 80.1827 16.1345C79.9738 15.8091 79.6997 15.6399 79.3343 15.6399C78.9688 15.6399 78.6816 15.8091 78.4728 16.1345Z" fill="#231815"/>
<path d="M85.1164 18.7507C84.8684 18.9329 84.5943 19.024 84.2811 19.024C83.8634 19.024 83.4979 18.8548 83.1977 18.5294C82.8975 18.2041 82.7539 17.8136 82.7539 17.3581C82.7539 16.8114 82.9236 16.3429 83.263 15.9915C83.5893 15.6531 83.9809 15.4839 84.4377 15.4839C84.6857 15.4839 84.9076 15.5359 85.1295 15.6401C85.3253 15.7312 85.4558 15.8483 85.5211 15.9915C85.5863 16.1216 85.5994 16.2388 85.5472 16.3299C85.508 16.434 85.4166 16.4861 85.2992 16.4861C85.2078 16.4861 85.1425 16.46 85.0903 16.395C85.0642 16.3559 85.0381 16.3038 84.999 16.2127L84.9468 16.1086C84.8684 15.9654 84.7901 15.8613 84.6988 15.7963C84.5943 15.7182 84.4377 15.6921 84.255 15.6921C83.9678 15.6921 83.7198 15.8223 83.524 16.0956C83.3152 16.3819 83.2107 16.7724 83.2107 17.254C83.2107 17.7355 83.3152 18.0739 83.511 18.3472C83.7198 18.6336 84.02 18.7767 84.3985 18.7767C84.6204 18.7767 84.8032 18.7247 84.9729 18.6336C85.1556 18.5294 85.3514 18.3602 85.5602 18.113L85.6646 18.165C85.4819 18.4383 85.2992 18.6466 85.1164 18.7897V18.7507Z" fill="#231815"/>
<path d="M87.4532 18.9196V18.7374C87.6229 18.7374 87.7404 18.7114 87.8056 18.6723C87.884 18.6203 87.9101 18.5291 87.9101 18.399V16.2385C87.9101 16.1344 87.884 16.0563 87.8187 16.0042C87.7404 15.9521 87.6229 15.9261 87.4402 15.9261L87.4141 15.822L88.3277 15.4836V18.399C88.3277 18.5422 88.3539 18.6333 88.4191 18.6723C88.4844 18.7244 88.6019 18.7374 88.7976 18.7374V18.9196H87.4532ZM88.132 13.6875C88.0145 13.6875 87.9101 13.7265 87.8578 13.7916C87.8056 13.8567 87.7665 13.9348 87.7665 14.0389C87.7665 14.13 87.7926 14.2081 87.8578 14.2732C87.9231 14.3513 88.0145 14.3773 88.132 14.3773C88.2494 14.3773 88.3408 14.3383 88.4061 14.2732C88.4713 14.2081 88.4974 14.13 88.4974 14.0389C88.4974 13.9348 88.4713 13.8567 88.4061 13.7916C88.3408 13.7135 88.2494 13.6875 88.132 13.6875Z" fill="#231815"/>
<path d="M93.6792 18.9196C93.5878 18.9846 93.4704 19.0237 93.3529 19.0237C93.2093 19.0237 93.1049 18.9716 93.0396 18.8675C93.0005 18.7894 92.9744 18.6723 92.9744 18.5291C92.8047 18.6853 92.648 18.8024 92.4784 18.8805C92.2695 18.9716 92.0476 19.0237 91.7866 19.0237C91.4603 19.0237 91.2123 18.9456 91.0426 18.7894C90.8859 18.6462 90.8076 18.451 90.8076 18.2037C90.8076 17.8783 90.9904 17.605 91.3558 17.3838C91.7213 17.1495 92.2695 16.9803 92.9874 16.8632V16.3556C92.9874 16.1343 92.9352 15.9651 92.8308 15.848C92.7264 15.7178 92.5697 15.6527 92.3739 15.6527C92.1129 15.6527 91.9171 15.6918 91.7866 15.7699C91.6691 15.848 91.5777 15.9781 91.5125 16.1603C91.4864 16.2514 91.4472 16.3165 91.408 16.3556C91.3558 16.4206 91.2906 16.4467 91.1992 16.4467C91.1078 16.4467 91.0426 16.4206 90.9904 16.3686C90.9512 16.3165 90.9251 16.2384 90.9251 16.1473C90.9251 15.9651 91.0556 15.8089 91.3167 15.6658C91.6038 15.5226 91.9563 15.4575 92.4 15.4575C92.7003 15.4575 92.9483 15.5356 93.1179 15.7048C93.3007 15.874 93.3921 16.1083 93.3921 16.4076V18.3729C93.3921 18.4901 93.392 18.5812 93.4182 18.6462C93.4312 18.7243 93.4704 18.7504 93.5226 18.7504C93.5748 18.7504 93.6139 18.7504 93.6662 18.7243C93.7184 18.6983 93.7836 18.6462 93.8489 18.5942L93.9142 18.6723C93.8228 18.7894 93.7575 18.8675 93.6792 18.9196ZM91.7735 17.4098C91.4341 17.618 91.2775 17.8653 91.2775 18.1777C91.2775 18.3469 91.3297 18.477 91.4342 18.5812C91.5516 18.6853 91.7213 18.7373 91.9301 18.7373C92.1651 18.7373 92.3609 18.6983 92.5306 18.6332C92.6742 18.5681 92.8308 18.464 92.9874 18.3209V17.0454C92.4914 17.0974 92.0998 17.2146 91.7866 17.4098H91.7735Z" fill="#231815"/>
<path d="M95.5062 15.6139C95.7542 15.5879 95.937 15.4837 96.0805 15.2885C96.2241 15.0803 96.3024 14.7809 96.3155 14.3774H96.4591V15.5488H97.3989V15.7571H96.4591V18.308C96.4591 18.4382 96.4982 18.5423 96.5765 18.6074C96.6548 18.6725 96.7723 18.7115 96.9159 18.7115C97.0203 18.7115 97.1247 18.6725 97.2292 18.6074C97.3336 18.5553 97.425 18.4642 97.5294 18.3601L97.6077 18.4121C97.4902 18.6074 97.3597 18.7636 97.2031 18.8807C97.0595 18.9848 96.9028 19.0239 96.7332 19.0239C96.5243 19.0239 96.3546 18.9718 96.2241 18.8416C96.0936 18.6985 96.0283 18.4902 96.0283 18.2299V15.7701H95.4932V15.6269L95.5062 15.6139Z" fill="#231815"/>
<path d="M99.4874 18.9196V18.7374C99.6571 18.7374 99.7746 18.7114 99.8398 18.6723C99.9181 18.6203 99.9442 18.5291 99.9442 18.399V16.2385C99.9442 16.1344 99.9181 16.0563 99.8529 16.0042C99.7746 15.9521 99.6571 15.9261 99.4743 15.9261L99.4482 15.822L100.362 15.4836V18.399C100.362 18.5422 100.388 18.6333 100.453 18.6723C100.519 18.7244 100.636 18.7374 100.832 18.7374V18.9196H99.4874ZM100.166 13.6875C100.049 13.6875 99.9573 13.7265 99.892 13.7916C99.8398 13.8567 99.8007 13.9348 99.8007 14.0389C99.8007 14.13 99.8268 14.2081 99.892 14.2732C99.9573 14.3513 100.049 14.3773 100.166 14.3773C100.284 14.3773 100.375 14.3383 100.44 14.2732C100.506 14.2081 100.532 14.13 100.532 14.0389C100.532 13.9348 100.506 13.8567 100.44 13.7916C100.375 13.7135 100.284 13.6875 100.166 13.6875Z" fill="#231815"/>
<path d="M105.269 16.0173C105.531 16.3427 105.661 16.7592 105.661 17.2538C105.661 17.7484 105.531 18.1518 105.269 18.4772C104.982 18.8416 104.578 19.0238 104.069 19.0238C103.56 19.0238 103.155 18.8416 102.868 18.4772C102.62 18.1518 102.489 17.7353 102.489 17.2538C102.489 16.7722 102.62 16.3427 102.868 16.0173C103.155 15.6529 103.56 15.4707 104.069 15.4707C104.578 15.4707 104.982 15.6529 105.269 16.0173ZM103.194 16.1345C103.011 16.4338 102.933 16.7983 102.933 17.2538C102.933 17.7093 103.024 18.0607 103.194 18.3471C103.403 18.6724 103.69 18.8416 104.056 18.8416C104.421 18.8416 104.708 18.6724 104.917 18.3471C105.1 18.0607 105.191 17.6963 105.191 17.2538C105.191 16.8113 105.1 16.4338 104.917 16.1345C104.708 15.8091 104.434 15.6399 104.056 15.6399C103.677 15.6399 103.403 15.8091 103.194 16.1345Z" fill="#231815"/>
<path d="M107.502 18.7377C107.672 18.7377 107.789 18.7117 107.867 18.6466C107.933 18.5815 107.972 18.4774 107.972 18.3342V16.2518C107.972 16.0956 107.946 15.9915 107.88 15.9524C107.828 15.9004 107.698 15.8743 107.528 15.8743L107.502 15.7572L108.376 15.4839V16.1086L108.416 16.0696C108.638 15.8874 108.807 15.7572 108.951 15.6791C109.186 15.549 109.421 15.4839 109.669 15.4839C109.943 15.4839 110.165 15.575 110.321 15.7442C110.478 15.9264 110.556 16.1737 110.556 16.4861V18.3212C110.556 18.4774 110.595 18.5815 110.661 18.6466C110.726 18.7117 110.843 18.7377 111.013 18.7377V18.9199H109.669V18.7377C109.838 18.7377 109.956 18.7117 110.034 18.6466C110.112 18.5815 110.139 18.4774 110.139 18.3342V16.4861C110.139 16.2648 110.099 16.0956 110.008 15.9915C109.917 15.8613 109.76 15.8093 109.538 15.8093C109.316 15.8093 109.12 15.8613 108.925 15.9524C108.768 16.0305 108.585 16.1607 108.403 16.3299V18.3342C108.403 18.4904 108.442 18.5945 108.507 18.6466C108.585 18.7117 108.703 18.7377 108.872 18.7377V18.9199H107.528V18.7377H107.502Z" fill="#231815"/>
</g>
<defs>
<clipPath id="clip0_65_1111">
<rect width="111" height="18" fill="white" transform="translate(0 2)"/>
</clipPath>
</defs>
</svg>
