<svg width="1057" height="244" viewBox="0 0 1057 244" fill="none" xmlns="http://www.w3.org/2000/svg">
<g clip-path="url(#clip0_65_1109)">
<path d="M135 59H273.999V187H135V180.92H267.149V64.3486H135V59Z" fill="#231815"/>
<path d="M135 82.2227H188.837V87.2512H166.508V150.337H172.033V138.406C172.033 138.406 171.668 127.891 177.01 123.96C181.302 120.851 185.138 119.114 194.042 118.383V124.28C188.289 124.783 186.28 125.88 184.179 127.571C181.668 129.583 181.531 133.194 181.439 136.303V150.108H190.526V155.366H181.439V169.446H171.85V155.777H135V150.337H157.284V87.2969H135V82.2684V82.2227Z" fill="#231815"/>
<path d="M332.174 60.0059V61.423C330.027 61.423 328.521 61.6973 327.653 62.2001C326.785 62.7487 326.374 63.7544 326.374 65.2173V96.2573C326.374 97.4459 326.785 98.3144 327.653 98.8173C328.566 99.3201 330.027 99.5944 332.174 99.5944V101.012H316.785V99.5944C318.84 99.5944 320.347 99.3201 321.214 98.8173C322.128 98.3144 322.539 97.4459 322.539 96.2573V65.2173C322.539 63.7544 322.082 62.7944 321.214 62.2001C320.301 61.6973 318.84 61.423 316.785 61.423V60.0059H332.174Z" fill="#231815"/>
<path d="M356.877 99.5942C358.43 99.5942 359.48 99.3199 360.119 98.817C360.713 98.3599 361.032 97.4913 361.032 96.257V79.5713C361.032 78.337 360.758 77.5142 360.256 77.1028C359.708 76.6913 358.658 76.5085 357.105 76.5085L356.923 75.6399L364.777 73.3999V78.4742L365.096 78.1999C367.06 76.6913 368.612 75.6856 369.845 75.0913C371.9 74.0399 374.046 73.4913 376.192 73.4913C378.704 73.4913 380.622 74.177 381.992 75.5942C383.362 77.0113 384.047 78.977 384.047 81.537V96.257C384.047 97.4913 384.366 98.3599 385.005 98.817C385.599 99.3199 386.649 99.5942 388.156 99.5942V101.011H376.101V99.5942C377.608 99.5942 378.658 99.3199 379.343 98.817C379.983 98.3599 380.302 97.4913 380.302 96.257V81.3999C380.302 79.617 379.937 78.2913 379.161 77.4685C378.293 76.4628 376.923 75.9599 375.005 75.9599C373.087 75.9599 371.215 76.3713 369.48 77.1485C368.064 77.7885 366.512 78.7942 364.777 80.2113V96.3028C364.777 97.537 365.096 98.3599 365.736 98.8628C366.375 99.3656 367.471 99.6399 368.978 99.6399V101.057H356.923V99.6399L356.877 99.5942Z" fill="#231815"/>
<path d="M412.906 74.4973C415.098 74.3145 416.788 73.4459 418.021 71.8916C419.299 70.2459 419.984 67.823 420.167 64.623H421.445V74.0859H429.847V75.6859H421.445V96.1202C421.445 97.1716 421.765 97.9488 422.496 98.4973C423.18 99.0459 424.185 99.3202 425.555 99.3202C426.468 99.3202 427.381 99.0459 428.432 98.4516C429.345 97.9945 430.213 97.3088 431.126 96.4402L431.856 96.8516C430.852 98.4516 429.665 99.7316 428.249 100.6C426.971 101.377 425.509 101.789 424.002 101.789C422.085 101.789 420.578 101.332 419.482 100.28C418.34 99.1373 417.747 97.4916 417.747 95.343V75.6402H412.952V74.4516L412.906 74.4973Z" fill="#231815"/>
<path d="M484.415 95.1602C482.862 97.2631 481.173 98.8173 479.301 99.9145C476.972 101.24 474.232 101.88 470.99 101.88C466.606 101.88 463.09 100.554 460.442 97.9488C457.793 95.2973 456.515 91.8231 456.515 87.5259C456.515 83.5031 457.793 80.1659 460.35 77.4688C463.044 74.7259 466.469 73.3545 470.762 73.3545C475.054 73.3545 478.113 74.4973 480.488 76.8288C482.908 79.2059 484.141 82.4973 484.141 86.7031H460.579C460.579 91.2288 461.72 94.6116 463.958 96.8516C465.921 98.7716 468.57 99.7773 471.857 99.7773C474.278 99.7773 476.424 99.3202 478.342 98.4059C480.214 97.5373 481.903 96.2116 483.502 94.4288L484.46 95.1602H484.415ZM477.337 77.2402C475.739 75.5945 473.547 74.7716 470.716 74.7716C468.022 74.7716 465.739 75.7316 463.775 77.6516C461.812 79.6631 460.716 82.1316 460.533 85.0573H480.031C479.848 81.5373 478.935 78.9316 477.291 77.1945L477.337 77.2402Z" fill="#231815"/>
<path d="M509.164 99.5944C510.488 99.5944 511.493 99.3658 512.223 98.9086C513 98.4058 513.365 97.6286 513.365 96.5772V79.1144C513.365 78.0629 513.137 77.3772 512.634 77.0572C512.132 76.6915 511.082 76.5086 509.529 76.5086L509.164 75.5944L517.109 72.8515V79.8458L517.977 79.1144C520.534 77.0572 522.498 75.6401 523.868 74.8172C526.196 73.4001 528.16 72.7144 529.895 72.7144C530.763 72.7144 531.493 72.9886 532.133 73.5372C532.772 74.0858 533.092 74.7258 533.092 75.4115C533.092 76.0515 532.772 76.6458 532.133 77.1944C531.493 77.7429 530.717 78.0172 529.895 78.0172C529.393 78.0172 528.891 77.9258 528.434 77.6972C528.206 77.6058 527.84 77.4229 527.475 77.1486C527.018 76.7829 526.653 76.5544 526.379 76.5544C525.877 76.4172 525.329 76.4629 524.735 76.7829C523.731 77.2401 522.635 77.8344 521.493 78.5658C520.58 79.2058 519.119 80.3029 517.109 81.8572V96.5315C517.109 97.6286 517.383 98.4515 517.977 98.8629C518.525 99.3201 519.667 99.5486 521.265 99.5486V100.966H509.21V99.5486L509.164 99.5944Z" fill="#231815"/>
<path d="M557.795 99.5942C559.347 99.5942 560.398 99.3199 560.991 98.817C561.585 98.3599 561.905 97.4913 561.905 96.257V79.5713C561.905 78.337 561.631 77.5142 561.128 77.1028C560.58 76.6913 559.53 76.5085 557.978 76.5085L557.795 75.6399L565.649 73.3999V78.4742L565.969 78.1999C567.932 76.6913 569.485 75.6856 570.718 75.0913C572.772 74.0399 574.919 73.4913 577.11 73.4913C579.622 73.4913 581.54 74.177 582.955 75.5942C584.325 77.0113 585.01 78.977 585.01 81.537V96.257C585.01 97.4913 585.33 98.3599 585.969 98.817C586.563 99.3199 587.613 99.5942 589.12 99.5942V101.011H577.065V99.5942C578.572 99.5942 579.622 99.3199 580.307 98.817C580.946 98.3599 581.266 97.4913 581.266 96.257V81.3999C581.266 79.617 580.901 78.2913 580.124 77.4685C579.257 76.4628 577.887 75.9599 575.969 75.9599C574.051 75.9599 572.179 76.3713 570.444 77.1485C569.028 77.7885 567.476 78.7942 565.74 80.2113V96.3028C565.74 97.537 566.06 98.3599 566.699 98.8628C567.339 99.3656 568.434 99.6399 569.941 99.6399V101.057H557.886V99.6399L557.795 99.5942Z" fill="#231815"/>
<path d="M639.487 101.057C638.619 101.606 637.66 101.88 636.564 101.88C635.286 101.88 634.327 101.469 633.824 100.646C633.413 100.006 633.185 99.1373 633.185 97.9945C631.678 99.2288 630.217 100.143 628.756 100.783C626.929 101.514 624.874 101.88 622.591 101.88C619.669 101.88 617.477 101.24 615.924 99.9602C614.509 98.7716 613.778 97.2173 613.778 95.2516C613.778 92.6916 615.377 90.4973 618.619 88.6688C621.952 86.7945 626.792 85.4231 633.185 84.5088V80.4402C633.185 78.6573 632.729 77.2859 631.815 76.3259C630.856 75.2745 629.486 74.7716 627.706 74.7716C625.377 74.7716 623.642 75.0916 622.454 75.7316C621.358 76.3259 620.536 77.3773 619.989 78.8859C619.715 79.5716 619.395 80.1202 619.075 80.4859C618.573 80.9888 617.979 81.2631 617.249 81.2631C616.427 81.2631 615.833 81.0345 615.422 80.6231C615.011 80.2116 614.829 79.6173 614.829 78.8402C614.829 77.3773 616.016 76.0973 618.345 75.0002C620.856 73.9031 624.098 73.3545 628.071 73.3545C630.765 73.3545 632.911 73.9945 634.509 75.2745C636.153 76.6002 636.975 78.4745 636.975 80.9431V96.7145C636.975 97.6288 637.067 98.3602 637.204 98.8631C637.341 99.4573 637.706 99.7316 638.162 99.7316C638.619 99.7316 639.03 99.6402 639.395 99.5031C639.898 99.2745 640.446 98.9088 641.039 98.4516L641.587 99.0459C640.811 99.9602 640.126 100.6 639.532 100.966L639.487 101.057ZM622.454 88.9888C619.486 90.6345 617.979 92.6916 617.979 95.1145C617.979 96.4402 618.482 97.4916 619.441 98.3145C620.491 99.1831 621.952 99.5945 623.87 99.5945C626.016 99.5945 627.797 99.3202 629.167 98.7716C630.445 98.3145 631.815 97.4459 633.231 96.3031V86.0631C628.847 86.4745 625.24 87.4345 622.454 88.9888Z" fill="#231815"/>
<path d="M666.291 74.4973C668.483 74.3145 670.172 73.4459 671.405 71.8916C672.684 70.2459 673.369 67.823 673.551 64.623H674.83V74.0859H683.232V75.6859H674.83V96.1202C674.83 97.1716 675.15 97.9488 675.88 98.4973C676.565 99.0459 677.57 99.3202 678.894 99.3202C679.807 99.3202 680.766 99.0459 681.771 98.4516C682.684 97.9945 683.552 97.3088 684.465 96.4402L685.196 96.8516C684.191 98.4516 683.004 99.7316 681.588 100.6C680.31 101.377 678.848 101.789 677.341 101.789C675.424 101.789 673.917 101.332 672.821 100.28C671.679 99.1373 671.131 97.4916 671.131 95.343V75.6402H666.337V74.4516L666.291 74.4973Z" fill="#231815"/>
<path d="M710.128 101.011V99.5943C711.635 99.5943 712.685 99.4114 713.278 99.0457C713.918 98.68 714.237 97.9486 714.237 96.8057V79.4343C714.237 78.5657 713.963 77.9714 713.461 77.56C712.822 77.1029 711.68 76.8743 710.082 76.8743L709.899 76.0057L717.982 73.3543V96.8057C717.982 97.9029 718.256 98.68 718.849 99.0457C719.397 99.4114 720.539 99.5943 722.183 99.5943V101.011H710.128ZM716.201 59C715.105 59 714.283 59.2743 713.689 59.8686C713.142 60.3714 712.913 61.0571 712.913 61.8343C712.913 62.5657 713.187 63.2057 713.689 63.7086C714.237 64.3029 715.105 64.5771 716.201 64.5771C717.206 64.5771 718.027 64.3029 718.621 63.7086C719.215 63.2057 719.489 62.5657 719.489 61.8343C719.489 61.0114 719.215 60.3714 718.621 59.8686C718.027 59.2743 717.206 59 716.201 59Z" fill="#231815"/>
<path d="M771.772 77.7431C774.056 80.3945 775.243 83.6859 775.243 87.6631C775.243 91.6402 774.101 94.8402 771.772 97.4916C769.17 100.417 765.608 101.88 761.042 101.88C756.475 101.88 752.822 100.417 750.311 97.4916C748.028 94.8402 746.932 91.5945 746.932 87.6631C746.932 83.7316 748.073 80.3488 750.311 77.7431C752.868 74.8173 756.43 73.3545 761.042 73.3545C765.654 73.3545 769.215 74.8173 771.772 77.7431ZM753.325 78.7031C751.726 81.0802 750.95 84.0516 750.95 87.6631C750.95 91.2745 751.726 94.1545 753.325 96.4402C755.151 99.0916 757.708 100.417 761.042 100.417C764.375 100.417 766.841 99.0916 768.667 96.4402C770.266 94.1088 771.087 91.1831 771.087 87.6631C771.087 84.1431 770.266 81.0802 768.667 78.7031C766.841 76.0973 764.284 74.7716 761.042 74.7716C757.8 74.7716 755.151 76.0973 753.325 78.7031Z" fill="#231815"/>
<path d="M799.947 99.5942C801.5 99.5942 802.55 99.3199 803.189 98.817C803.783 98.3599 804.103 97.4913 804.103 96.257V79.5713C804.103 78.337 803.829 77.5142 803.326 77.1028C802.778 76.6913 801.728 76.5085 800.176 76.5085L799.993 75.6399L807.847 73.3999V78.4742L808.167 78.1999C810.13 76.6913 811.683 75.6856 812.916 75.0913C814.97 74.0399 817.117 73.4913 819.263 73.4913C821.774 73.4913 823.692 74.177 825.108 75.5942C826.478 77.0113 827.163 78.977 827.163 81.537V96.257C827.163 97.4913 827.482 98.3599 828.121 98.817C828.715 99.3199 829.765 99.5942 831.272 99.5942V101.011H819.217V99.5942C820.724 99.5942 821.774 99.3199 822.459 98.817C823.099 98.3599 823.418 97.4913 823.418 96.257V81.3999C823.418 79.617 823.053 78.2913 822.277 77.4685C821.409 76.4628 820.039 75.9599 818.121 75.9599C816.203 75.9599 814.331 76.3713 812.596 77.1485C811.18 77.7885 809.628 78.7942 807.893 80.2113V96.3028C807.893 97.537 808.212 98.3599 808.852 98.8628C809.491 99.3656 810.587 99.6399 812.094 99.6399V101.057H800.039V99.6399L799.947 99.5942Z" fill="#231815"/>
<path d="M881.684 101.057C880.817 101.606 879.858 101.88 878.762 101.88C877.438 101.88 876.524 101.469 876.022 100.646C875.611 100.006 875.428 99.1373 875.428 97.9945C873.921 99.2288 872.46 100.143 870.999 100.783C869.172 101.514 867.118 101.88 864.835 101.88C861.912 101.88 859.72 101.24 858.168 99.9602C856.752 98.7716 856.021 97.2173 856.021 95.2516C856.021 92.6916 857.62 90.4973 860.862 88.6688C864.195 86.7945 869.035 85.4231 875.428 84.5088V80.4402C875.428 78.6573 874.972 77.2859 874.058 76.3259C873.1 75.2745 871.73 74.7716 869.949 74.7716C867.62 74.7716 865.885 75.0916 864.698 75.7316C863.602 76.3259 862.78 77.3773 862.232 78.8859C861.958 79.5716 861.638 80.1202 861.318 80.4859C860.816 80.9888 860.223 81.2631 859.492 81.2631C858.67 81.2631 858.076 81.0345 857.665 80.6231C857.254 80.2116 857.026 79.6173 857.026 78.8402C857.026 77.3773 858.213 76.0973 860.542 75.0002C863.054 73.9031 866.296 73.3545 870.268 73.3545C872.963 73.3545 875.109 73.9945 876.707 75.2745C878.351 76.6002 879.173 78.4745 879.173 80.9431V96.7145C879.173 97.6288 879.264 98.3602 879.401 98.8631C879.584 99.4573 879.903 99.7316 880.36 99.7316C880.817 99.7316 881.228 99.6402 881.593 99.5031C882.141 99.2745 882.689 98.9088 883.237 98.4516L883.785 99.0459C883.008 99.9602 882.323 100.6 881.73 100.966L881.684 101.057ZM864.606 88.9888C861.638 90.6345 860.131 92.6916 860.131 95.1145C860.131 96.4402 860.633 97.4916 861.592 98.3145C862.643 99.1831 864.104 99.5945 866.022 99.5945C868.168 99.5945 869.949 99.3202 871.319 98.7716C872.597 98.3145 873.967 97.4459 875.383 96.3031V86.0631C870.999 86.4745 867.392 87.4345 864.606 88.9888Z" fill="#231815"/>
<path d="M908.717 99.5944C910.223 99.5944 911.274 99.3201 911.959 98.7715C912.598 98.2229 912.918 97.3086 912.918 96.1201V65.6286C912.918 64.7144 912.598 64.0286 912.004 63.6172C911.365 63.1601 910.269 62.9315 908.717 62.9315L908.488 62.1544L916.662 59.5029V96.0744C916.662 97.3086 916.982 98.1772 917.621 98.7258C918.306 99.2744 919.447 99.5486 921.046 99.5486V100.966H908.762V99.5486L908.717 99.5944Z" fill="#231815"/>
<path d="M316.603 177.994C318.383 177.994 319.525 177.766 320.119 177.263C320.667 176.76 320.941 175.8 320.941 174.292V147.457C320.941 146.314 320.667 145.492 320.119 145.034C319.479 144.486 318.292 144.212 316.603 144.212V142.932H341.763L345.325 151.206L344.548 151.663C343.133 149.56 341.672 147.96 340.165 146.772C337.882 145.034 335.37 144.166 332.63 144.166H327.516C326.329 144.166 325.461 144.44 324.868 144.989C324.32 145.537 324.046 146.314 324.046 147.412V159.526H331.169C333.041 159.526 334.366 159.206 335.142 158.52C336.146 157.652 336.694 155.914 336.694 153.4H337.882V167.572H336.694C336.694 165.103 336.146 163.32 335.096 162.269C334.183 161.309 332.859 160.852 331.123 160.852H324.046V174.292C324.046 175.754 324.365 176.715 325.05 177.263C325.735 177.766 327.105 177.994 329.16 177.994V179.274H316.603V177.994Z" fill="#231815"/>
<path d="M353.727 177.994C354.914 177.994 355.781 177.766 356.284 177.263C356.786 176.76 357.06 175.983 357.06 174.886V147.914C357.06 147.091 356.832 146.497 356.329 146.131C355.827 145.72 354.96 145.537 353.727 145.537L353.544 144.851L360.028 142.474V174.84C360.028 175.937 360.302 176.714 360.804 177.217C361.352 177.72 362.266 177.948 363.499 177.948V179.228H353.772V177.948L353.727 177.994Z" fill="#231815"/>
<path d="M393.317 158.657C395.143 160.989 396.056 163.914 396.056 167.434C396.056 170.954 395.143 173.789 393.317 176.12C391.262 178.726 388.431 180.006 384.823 180.006C381.216 180.006 378.339 178.726 376.33 176.12C374.549 173.789 373.636 170.909 373.636 167.434C373.636 163.96 374.549 160.943 376.33 158.657C378.339 156.051 381.17 154.771 384.823 154.771C388.476 154.771 391.262 156.051 393.317 158.657ZM378.659 159.526C377.426 161.629 376.787 164.28 376.787 167.48C376.787 170.68 377.426 173.194 378.659 175.251C380.074 177.583 382.129 178.771 384.778 178.771C387.426 178.771 389.39 177.583 390.851 175.251C392.129 173.194 392.769 170.589 392.769 167.48C392.769 164.371 392.129 161.629 390.851 159.526C389.39 157.194 387.38 156.051 384.778 156.051C382.175 156.051 380.12 157.194 378.659 159.526Z" fill="#231815"/>
<path d="M408.203 177.994C409.253 177.994 410.075 177.811 410.623 177.4C411.217 176.989 411.536 176.303 411.536 175.343V159.891C411.536 158.977 411.354 158.383 410.943 158.063C410.532 157.743 409.71 157.56 408.477 157.56L408.203 156.783L414.459 154.36V160.577L415.144 159.937C417.153 158.154 418.705 156.874 419.801 156.143C421.628 154.909 423.226 154.269 424.55 154.269C425.235 154.269 425.829 154.497 426.331 155C426.833 155.503 427.107 156.051 427.107 156.691C427.107 157.24 426.833 157.789 426.331 158.291C425.829 158.794 425.235 159.023 424.55 159.023C424.139 159.023 423.728 158.931 423.409 158.749C423.226 158.657 422.952 158.474 422.632 158.246C422.267 157.926 421.993 157.743 421.765 157.697C421.4 157.56 420.943 157.651 420.441 157.88C419.619 158.291 418.797 158.794 417.883 159.434C417.153 159.983 416.011 160.989 414.413 162.36V175.343C414.413 176.349 414.641 177.034 415.098 177.4C415.555 177.811 416.422 177.994 417.701 177.994V179.274H408.157V177.994H408.203Z" fill="#231815"/>
<path d="M439.619 179.274V177.994C440.806 177.994 441.628 177.811 442.131 177.491C442.633 177.171 442.907 176.531 442.907 175.526V160.12C442.907 159.388 442.679 158.794 442.268 158.474C441.765 158.063 440.852 157.88 439.574 157.88L439.437 157.103L445.875 154.726V175.48C445.875 176.486 446.103 177.126 446.56 177.446C447.017 177.766 447.884 177.948 449.208 177.948V179.228H439.665L439.619 179.274ZM444.414 142.108C443.546 142.108 442.907 142.383 442.45 142.886C442.039 143.343 441.811 143.937 441.811 144.623C441.811 145.263 442.039 145.811 442.45 146.268C442.907 146.771 443.546 147.046 444.414 147.046C445.236 147.046 445.875 146.771 446.332 146.268C446.788 145.811 447.017 145.263 447.017 144.623C447.017 143.891 446.788 143.297 446.332 142.886C445.829 142.383 445.19 142.108 444.414 142.108Z" fill="#231815"/>
<path d="M466.697 176.577C468.706 178.086 470.898 178.863 473.364 178.863C475.053 178.863 476.378 178.406 477.473 177.446C478.569 176.486 479.117 175.206 479.117 173.606C479.117 172.417 478.615 171.457 477.565 170.68C476.515 169.903 474.734 169.126 472.177 168.349C468.478 167.16 465.966 165.926 464.551 164.692C463.318 163.595 462.724 162.177 462.724 160.44C462.724 158.84 463.409 157.515 464.779 156.417C466.24 155.366 468.113 154.817 470.396 154.817C471.126 154.817 471.857 154.863 472.588 155C472.999 155.092 473.546 155.229 474.231 155.457C474.734 155.595 475.099 155.686 475.327 155.686C475.647 155.732 475.921 155.732 476.149 155.64L477.976 154.817L480.761 162.04L479.939 162.452C479.163 161.035 478.021 159.709 476.515 158.475C474.505 156.875 472.451 156.097 470.35 156.097C468.752 156.097 467.519 156.463 466.606 157.195C465.692 157.972 465.19 159.023 465.19 160.395C465.19 161.537 465.784 162.452 466.971 163.229C467.884 163.823 469.574 164.555 472.131 165.377C475.556 166.475 477.976 167.572 479.346 168.715C480.807 169.949 481.492 171.549 481.492 173.56C481.492 175.663 480.624 177.309 478.889 178.589C477.382 179.686 475.51 180.235 473.318 180.235C472.588 180.235 471.857 180.143 471.172 180.006C470.715 179.96 470.167 179.777 469.437 179.549C468.752 179.366 468.295 179.275 467.976 179.229C467.519 179.183 467.108 179.229 466.788 179.32L464.779 180.143L461.902 172.417L462.542 172.143C464.003 174.155 465.373 175.617 466.743 176.623L466.697 176.577Z" fill="#231815"/>
<path d="M494.004 155.777C495.739 155.594 497.063 154.863 498.068 153.446C499.073 151.983 499.62 149.834 499.757 147H500.762V155.366H507.383V156.783H500.762V174.886C500.762 175.8 501.036 176.486 501.584 176.989C502.132 177.491 502.908 177.72 504.004 177.72C504.689 177.72 505.465 177.446 506.287 176.943C506.972 176.531 507.703 175.937 508.388 175.16L508.981 175.526C508.159 176.943 507.246 178.04 506.15 178.817C505.146 179.503 504.004 179.869 502.771 179.869C501.264 179.869 500.077 179.457 499.21 178.543C498.296 177.537 497.84 176.074 497.84 174.154V156.691H494.05V155.64L494.004 155.777Z" fill="#231815"/>
<path d="M526.927 176.577C528.936 178.086 531.128 178.863 533.594 178.863C535.284 178.863 536.608 178.406 537.704 177.446C538.8 176.486 539.348 175.206 539.348 173.606C539.348 172.417 538.845 171.457 537.795 170.68C536.745 169.903 534.964 169.126 532.407 168.349C528.708 167.16 526.197 165.926 524.781 164.692C523.548 163.595 522.955 162.177 522.955 160.44C522.955 158.84 523.639 157.515 525.009 156.417C526.471 155.366 528.343 154.817 530.626 154.817C531.357 154.817 532.087 154.863 532.818 155C533.229 155.092 533.777 155.229 534.462 155.457C534.964 155.595 535.329 155.686 535.558 155.686C535.877 155.732 536.151 155.732 536.38 155.64L538.206 154.817L540.991 162.04L540.17 162.452C539.393 161.035 538.252 159.709 536.745 158.475C534.736 156.875 532.681 156.097 530.58 156.097C529.028 156.097 527.749 156.463 526.836 157.195C525.923 157.972 525.42 159.023 525.42 160.395C525.42 161.537 526.014 162.452 527.201 163.229C528.114 163.823 529.804 164.555 532.361 165.377C535.786 166.475 538.206 167.572 539.576 168.715C540.991 169.949 541.722 171.549 541.722 173.56C541.722 175.663 540.854 177.309 539.119 178.589C537.612 179.686 535.74 180.235 533.548 180.235C532.818 180.235 532.087 180.143 531.357 180.006C530.9 179.96 530.352 179.777 529.621 179.549C528.936 179.366 528.48 179.275 528.16 179.229C527.703 179.183 527.293 179.229 526.973 179.32L524.964 180.143L522.087 172.417L522.726 172.143C524.187 174.155 525.557 175.617 526.927 176.623V176.577Z" fill="#231815"/>
<path d="M604.92 174.428C605.331 175.754 605.97 176.714 606.746 177.217C607.431 177.72 608.481 177.994 609.897 177.994V179.274H597.385V177.994C599.486 177.994 600.856 177.766 601.495 177.354C602.18 176.851 602.317 175.937 601.815 174.611L598.618 166.017H583.732L581.084 173.423C580.49 175.251 580.49 176.486 581.084 177.126C581.677 177.72 583.047 177.994 585.285 177.994V179.274H574.554V177.994C575.924 177.994 576.928 177.674 577.613 177.126C578.298 176.486 578.983 175.023 579.759 172.828L590.079 143.251L592.819 142.108L604.965 174.428H604.92ZM584.189 164.554H598.025L590.992 145.491L584.189 164.554Z" fill="#231815"/>
<path d="M625.742 176.577C627.751 178.086 629.943 178.863 632.363 178.863C634.053 178.863 635.423 178.406 636.473 177.446C637.569 176.486 638.117 175.206 638.117 173.606C638.117 172.417 637.615 171.457 636.564 170.68C635.56 169.903 633.733 169.126 631.176 168.349C627.477 167.16 624.966 165.926 623.55 164.692C622.317 163.595 621.724 162.177 621.724 160.44C621.724 158.84 622.409 157.515 623.779 156.417C625.24 155.366 627.112 154.817 629.441 154.817C630.171 154.817 630.902 154.863 631.633 155C632.044 155.092 632.592 155.229 633.277 155.457C633.779 155.595 634.144 155.686 634.372 155.686C634.692 155.732 634.966 155.732 635.194 155.64L637.021 154.817L639.806 162.04L638.984 162.452C638.208 161.035 637.067 159.709 635.56 158.475C633.551 156.875 631.496 156.097 629.395 156.097C627.797 156.097 626.564 156.463 625.651 157.195C624.738 157.972 624.281 159.023 624.281 160.395C624.281 161.537 624.875 162.452 626.062 163.229C626.975 163.823 628.665 164.555 631.222 165.377C634.646 166.475 637.067 167.572 638.436 168.715C639.898 169.949 640.583 171.549 640.583 173.56C640.583 175.663 639.715 177.309 637.98 178.589C636.473 179.686 634.601 180.235 632.409 180.235C631.678 180.235 630.948 180.143 630.263 180.006C629.806 179.96 629.213 179.777 628.528 179.549C627.843 179.366 627.386 179.275 627.066 179.229C626.61 179.183 626.199 179.229 625.879 179.32L623.87 180.143L620.993 172.417L621.632 172.143C623.094 174.155 624.464 175.617 625.833 176.623L625.742 176.577Z" fill="#231815"/>
<path d="M656.975 176.577C658.984 178.086 661.176 178.863 663.642 178.863C665.286 178.863 666.656 178.406 667.752 177.446C668.848 176.486 669.396 175.206 669.396 173.606C669.396 172.417 668.893 171.457 667.843 170.68C666.793 169.903 665.012 169.126 662.455 168.349C658.756 167.16 656.245 165.926 654.829 164.692C653.596 163.595 653.003 162.177 653.003 160.44C653.003 158.84 653.688 157.515 655.057 156.417C656.519 155.366 658.391 154.817 660.674 154.817C661.405 154.817 662.135 154.863 662.911 155C663.322 155.092 663.87 155.229 664.555 155.457C665.058 155.595 665.423 155.686 665.651 155.686C665.971 155.732 666.245 155.732 666.473 155.64L668.3 154.817L671.085 162.04L670.263 162.452C669.487 161.035 668.345 159.709 666.839 158.475C664.829 156.875 662.775 156.097 660.674 156.097C659.076 156.097 657.843 156.463 656.93 157.195C656.016 157.972 655.514 159.023 655.514 160.395C655.514 161.537 656.108 162.452 657.295 163.229C658.208 163.823 659.898 164.555 662.455 165.377C665.88 166.475 668.3 167.572 669.67 168.715C671.131 169.949 671.816 171.549 671.816 173.56C671.816 175.663 670.948 177.309 669.213 178.589C667.706 179.686 665.834 180.235 663.642 180.235C662.911 180.235 662.181 180.143 661.45 180.006C660.994 179.96 660.4 179.777 659.715 179.549C659.03 179.366 658.573 179.275 658.254 179.229C657.797 179.183 657.386 179.229 657.067 179.32L655.057 180.143L652.181 172.417L652.82 172.143C654.281 174.155 655.651 175.617 657.021 176.623L656.975 176.577Z" fill="#231815"/>
<path d="M705.287 158.657C707.114 160.989 708.027 163.914 708.027 167.434C708.027 170.954 707.114 173.789 705.287 176.12C703.232 178.726 700.401 180.006 696.794 180.006C693.187 180.006 690.31 178.726 688.301 176.12C686.52 173.789 685.606 170.909 685.606 167.434C685.606 163.96 686.52 160.943 688.301 158.657C690.31 156.051 693.141 154.771 696.794 154.771C700.447 154.771 703.232 156.051 705.287 158.657ZM690.629 159.526C689.396 161.629 688.757 164.28 688.757 167.48C688.757 170.68 689.396 173.194 690.629 175.251C692.045 177.583 694.1 178.771 696.748 178.771C699.397 178.771 701.36 177.583 702.821 175.251C704.1 173.194 704.739 170.589 704.739 167.48C704.739 164.371 704.1 161.629 702.821 159.526C701.36 157.194 699.351 156.051 696.748 156.051C694.145 156.051 692.091 157.194 690.629 159.526Z" fill="#231815"/>
<path d="M737.708 178.086C735.973 179.411 734.01 180.051 731.726 180.051C728.758 180.051 726.201 178.863 724.101 176.531C722 174.2 720.904 171.411 720.904 168.166C720.904 164.234 722.092 160.989 724.512 158.429C726.841 156.006 729.58 154.771 732.822 154.771C734.558 154.771 736.156 155.137 737.663 155.914C739.078 156.6 739.991 157.423 740.448 158.383C740.905 159.297 740.95 160.12 740.631 160.806C740.311 161.537 739.718 161.903 738.896 161.903C738.256 161.903 737.754 161.674 737.434 161.263C737.252 161.034 737.023 160.577 736.749 159.937L736.43 159.16C735.882 158.109 735.288 157.377 734.695 156.966C733.918 156.463 732.868 156.189 731.589 156.189C729.535 156.189 727.799 157.149 726.43 159.023C724.968 161.08 724.238 163.823 724.238 167.251C724.238 170.68 724.968 173.103 726.384 175.023C727.891 177.034 729.991 178.086 732.64 178.086C734.192 178.086 735.516 177.766 736.658 177.08C737.982 176.349 739.352 175.114 740.813 173.331L741.59 173.743C740.265 175.709 738.987 177.171 737.708 178.131V178.086Z" fill="#231815"/>
<path d="M754.238 179.274V177.994C755.426 177.994 756.247 177.811 756.75 177.491C757.252 177.171 757.526 176.531 757.526 175.526V160.12C757.526 159.388 757.298 158.794 756.887 158.474C756.384 158.063 755.471 157.88 754.193 157.88L754.056 157.103L760.494 154.726V175.48C760.494 176.486 760.722 177.126 761.179 177.446C761.636 177.766 762.503 177.948 763.828 177.948V179.228H754.284L754.238 179.274ZM759.033 142.108C758.165 142.108 757.48 142.383 757.069 142.886C756.658 143.343 756.43 143.937 756.43 144.623C756.43 145.263 756.658 145.811 757.069 146.268C757.526 146.771 758.165 147.046 759.033 147.046C759.855 147.046 760.494 146.771 760.951 146.268C761.407 145.811 761.636 145.263 761.636 144.623C761.636 143.891 761.407 143.297 760.951 142.886C760.448 142.383 759.809 142.108 759.033 142.108Z" fill="#231815"/>
<path d="M798.349 179.32C797.664 179.823 796.888 180.052 796.02 180.052C794.97 180.052 794.285 179.686 793.828 178.955C793.509 178.406 793.326 177.629 793.326 176.577C792.139 177.675 790.997 178.497 789.81 179.046C788.349 179.686 786.75 180.052 784.924 180.052C782.641 180.052 780.86 179.503 779.627 178.36C778.485 177.309 777.938 175.937 777.938 174.2C777.938 171.915 779.216 169.995 781.773 168.395C784.376 166.749 788.257 165.515 793.28 164.737V161.126C793.28 159.572 792.915 158.337 792.184 157.469C791.408 156.555 790.358 156.097 788.942 156.097C787.116 156.097 785.7 156.372 784.787 156.92C783.919 157.469 783.28 158.383 782.823 159.709C782.595 160.349 782.367 160.806 782.093 161.126C781.682 161.583 781.225 161.812 780.632 161.812C779.992 161.812 779.49 161.629 779.17 161.217C778.851 160.852 778.668 160.349 778.668 159.663C778.668 158.337 779.581 157.24 781.454 156.28C783.463 155.32 786.02 154.817 789.171 154.817C791.317 154.817 793.006 155.412 794.285 156.555C795.609 157.743 796.248 159.389 796.248 161.583V175.526C796.248 176.349 796.294 176.989 796.431 177.446C796.568 177.949 796.796 178.223 797.207 178.223C797.573 178.223 797.892 178.177 798.166 178.04C798.577 177.857 799.034 177.537 799.445 177.126L799.901 177.675C799.308 178.497 798.76 179.046 798.258 179.412L798.349 179.32ZM784.833 168.623C782.458 170.086 781.271 171.915 781.271 174.063C781.271 175.252 781.636 176.166 782.412 176.897C783.234 177.629 784.422 178.04 785.883 178.04C787.572 178.04 788.988 177.812 790.084 177.309C791.089 176.897 792.184 176.166 793.28 175.115V166.063C789.81 166.429 786.979 167.297 784.741 168.669L784.833 168.623Z" fill="#231815"/>
<path d="M811.362 155.777C813.098 155.594 814.467 154.863 815.426 153.446C816.431 151.983 816.979 149.834 817.116 147H818.121V155.366H824.742V156.783H818.121V174.886C818.121 175.8 818.394 176.486 818.942 176.989C819.49 177.491 820.312 177.72 821.363 177.72C822.047 177.72 822.824 177.446 823.646 176.943C824.331 176.531 825.061 175.937 825.746 175.16L826.34 175.526C825.518 176.943 824.605 178.04 823.509 178.817C822.458 179.503 821.363 179.869 820.13 179.869C818.623 179.869 817.436 179.457 816.568 178.543C815.655 177.537 815.198 176.074 815.198 174.154V156.691H811.408V155.64L811.362 155.777Z" fill="#231815"/>
<path d="M839.491 179.274V177.994C840.678 177.994 841.5 177.811 842.003 177.491C842.505 177.171 842.779 176.531 842.779 175.526V160.12C842.779 159.388 842.551 158.794 842.14 158.474C841.637 158.063 840.724 157.88 839.446 157.88L839.309 157.103L845.747 154.726V175.48C845.747 176.486 845.975 177.126 846.432 177.446C846.889 177.766 847.756 177.948 849.081 177.948V179.228H839.537L839.491 179.274ZM844.331 142.108C843.464 142.108 842.825 142.383 842.368 142.886C841.957 143.343 841.729 143.937 841.729 144.623C841.729 145.263 841.957 145.811 842.368 146.268C842.825 146.771 843.464 147.046 844.331 147.046C845.153 147.046 845.793 146.771 846.249 146.268C846.706 145.811 846.934 145.263 846.934 144.623C846.934 143.891 846.706 143.297 846.249 142.886C845.747 142.383 845.108 142.108 844.331 142.108Z" fill="#231815"/>
<path d="M880.405 158.657C882.232 160.989 883.145 163.914 883.145 167.434C883.145 170.954 882.232 173.789 880.405 176.12C878.351 178.726 875.52 180.006 871.912 180.006C868.305 180.006 865.428 178.726 863.419 176.12C861.638 173.789 860.725 170.909 860.725 167.434C860.725 163.96 861.638 160.943 863.419 158.657C865.428 156.051 868.259 154.771 871.912 154.771C875.565 154.771 878.351 156.051 880.405 158.657ZM865.793 159.526C864.56 161.629 863.921 164.28 863.921 167.48C863.921 170.68 864.56 173.194 865.793 175.251C867.254 177.583 869.264 178.771 871.912 178.771C874.561 178.771 876.524 177.583 877.985 175.251C879.264 173.194 879.903 170.589 879.903 167.48C879.903 164.371 879.264 161.629 877.985 159.526C876.524 157.194 874.515 156.051 871.912 156.051C869.309 156.051 867.254 157.194 865.793 159.526Z" fill="#231815"/>
<path d="M896.251 177.994C897.484 177.994 898.306 177.766 898.808 177.309C899.31 176.897 899.539 176.12 899.539 175.023V160.211C899.539 159.114 899.31 158.383 898.899 158.063C898.488 157.697 897.667 157.514 896.388 157.514L896.251 156.737L902.507 154.771V159.251L902.735 159.023C904.288 157.697 905.521 156.783 906.479 156.234C908.123 155.32 909.813 154.817 911.548 154.817C913.512 154.817 915.064 155.457 916.16 156.691C917.256 157.926 917.804 159.709 917.804 161.994V175.023C917.804 176.12 918.078 176.851 918.58 177.309C919.083 177.766 919.904 177.994 921.092 177.994V179.274H911.548V177.994C912.735 177.994 913.557 177.766 914.105 177.309C914.608 176.897 914.881 176.12 914.881 175.023V161.857C914.881 160.257 914.562 159.114 913.968 158.337C913.283 157.469 912.187 157.011 910.635 157.011C909.082 157.011 907.667 157.377 906.297 158.063C905.155 158.611 903.922 159.526 902.552 160.76V175.023C902.552 176.12 902.826 176.851 903.329 177.309C903.831 177.766 904.699 177.994 905.886 177.994V179.274H896.342V177.994H896.251Z" fill="#231815"/>
</g>
<line y1="0.75" x2="1056" y2="0.75" stroke="#A5A5A5" stroke-width="0.5"/>
<line y1="27.75" x2="1056" y2="27.75" stroke="#A5A5A5" stroke-width="0.5"/>
<line y1="54.75" x2="1056" y2="54.75" stroke="#A5A5A5" stroke-width="0.5"/>
<line y1="81.75" x2="1056" y2="81.75" stroke="#A5A5A5" stroke-width="0.5"/>
<line y1="108.75" x2="1056" y2="108.75" stroke="#A5A5A5" stroke-width="0.5"/>
<line y1="135.75" x2="1056" y2="135.75" stroke="#A5A5A5" stroke-width="0.5"/>
<line y1="162.75" x2="1056" y2="162.75" stroke="#A5A5A5" stroke-width="0.5"/>
<line y1="189.75" x2="1056" y2="189.75" stroke="#A5A5A5" stroke-width="0.5"/>
<line y1="216.75" x2="1056" y2="216.75" stroke="#A5A5A5" stroke-width="0.5"/>
<line y1="243.75" x2="1056" y2="243.75" stroke="#A5A5A5" stroke-width="0.5"/>
<line x1="0.25" y1="1" x2="0.249989" y2="244" stroke="#A5A5A5" stroke-width="0.5"/>
<line x1="27.25" y1="1" x2="27.25" y2="244" stroke="#A5A5A5" stroke-width="0.5"/>
<line x1="54.25" y1="1" x2="54.25" y2="244" stroke="#A5A5A5" stroke-width="0.5"/>
<line x1="81.25" y1="1" x2="81.25" y2="244" stroke="#A5A5A5" stroke-width="0.5"/>
<line x1="108.25" y1="1" x2="108.25" y2="244" stroke="#A5A5A5" stroke-width="0.5"/>
<line x1="135.25" y1="1" x2="135.25" y2="244" stroke="#A5A5A5" stroke-width="0.5"/>
<line x1="162.25" y1="1" x2="162.25" y2="244" stroke="#A5A5A5" stroke-width="0.5"/>
<line x1="190.25" y1="1" x2="190.25" y2="244" stroke="#A5A5A5" stroke-width="0.5"/>
<line x1="217.25" y1="1" x2="217.25" y2="244" stroke="#A5A5A5" stroke-width="0.5"/>
<line x1="244.25" y1="1" x2="244.25" y2="244" stroke="#A5A5A5" stroke-width="0.5"/>
<line x1="271.25" y1="1" x2="271.25" y2="244" stroke="#A5A5A5" stroke-width="0.5"/>
<line x1="298.25" y1="1" x2="298.25" y2="244" stroke="#A5A5A5" stroke-width="0.5"/>
<line x1="325.25" y1="1" x2="325.25" y2="244" stroke="#A5A5A5" stroke-width="0.5"/>
<line x1="352.25" y1="1" x2="352.25" y2="244" stroke="#A5A5A5" stroke-width="0.5"/>
<line x1="379.25" y1="1" x2="379.25" y2="244" stroke="#A5A5A5" stroke-width="0.5"/>
<line x1="406.25" y1="1" x2="406.25" y2="244" stroke="#A5A5A5" stroke-width="0.5"/>
<line x1="433.25" y1="1" x2="433.25" y2="244" stroke="#A5A5A5" stroke-width="0.5"/>
<line x1="460.25" y1="1" x2="460.25" y2="244" stroke="#A5A5A5" stroke-width="0.5"/>
<line x1="487.25" y1="1" x2="487.25" y2="244" stroke="#A5A5A5" stroke-width="0.5"/>
<line x1="514.25" y1="1" x2="514.25" y2="244" stroke="#A5A5A5" stroke-width="0.5"/>
<line x1="542.25" y1="1" x2="542.25" y2="244" stroke="#A5A5A5" stroke-width="0.5"/>
<line x1="569.25" y1="1" x2="569.25" y2="244" stroke="#A5A5A5" stroke-width="0.5"/>
<line x1="596.25" y1="1" x2="596.25" y2="244" stroke="#A5A5A5" stroke-width="0.5"/>
<line x1="623.25" y1="1" x2="623.25" y2="244" stroke="#A5A5A5" stroke-width="0.5"/>
<line x1="650.25" y1="1" x2="650.25" y2="244" stroke="#A5A5A5" stroke-width="0.5"/>
<line x1="677.25" y1="1" x2="677.25" y2="244" stroke="#A5A5A5" stroke-width="0.5"/>
<line x1="704.25" y1="1" x2="704.25" y2="244" stroke="#A5A5A5" stroke-width="0.5"/>
<line x1="731.25" y1="1" x2="731.25" y2="244" stroke="#A5A5A5" stroke-width="0.5"/>
<line x1="758.25" y1="1" x2="758.25" y2="244" stroke="#A5A5A5" stroke-width="0.5"/>
<line x1="785.25" y1="1" x2="785.25" y2="244" stroke="#A5A5A5" stroke-width="0.5"/>
<line x1="812.25" y1="1" x2="812.25" y2="244" stroke="#A5A5A5" stroke-width="0.5"/>
<line x1="839.25" y1="1" x2="839.25" y2="244" stroke="#A5A5A5" stroke-width="0.5"/>
<line x1="866.25" y1="1" x2="866.25" y2="244" stroke="#A5A5A5" stroke-width="0.5"/>
<line x1="894.25" y1="1" x2="894.25" y2="244" stroke="#A5A5A5" stroke-width="0.5"/>
<line x1="921.25" y1="1" x2="921.25" y2="244" stroke="#A5A5A5" stroke-width="0.5"/>
<line x1="948.25" y1="1" x2="948.25" y2="244" stroke="#A5A5A5" stroke-width="0.5"/>
<line x1="975.25" y1="1" x2="975.25" y2="244" stroke="#A5A5A5" stroke-width="0.5"/>
<line x1="1002.25" y1="1" x2="1002.25" y2="244" stroke="#A5A5A5" stroke-width="0.5"/>
<line x1="1029.25" y1="1" x2="1029.25" y2="244" stroke="#A5A5A5" stroke-width="0.5"/>
<line x1="1056.25" y1="1" x2="1056.25" y2="244" stroke="#A5A5A5" stroke-width="0.5"/>
<defs>
<clipPath id="clip0_65_1109">
<rect width="786" height="128" fill="white" transform="translate(135 59)"/>
</clipPath>
</defs>
</svg>
