<svg width="469" height="119" viewBox="0 0 469 119" fill="none" xmlns="http://www.w3.org/2000/svg">
<g clip-path="url(#clip0_65_1110)">
<path d="M18 16H88.9141V81H18V77.9125H85.4196V18.7161H18V16Z" fill="#231815"/>
<path d="M18 27.793H45.4664V30.3465H34.0745V62.3823H36.8933V56.3233C36.8933 56.3233 36.707 50.984 39.4326 48.9876C41.6225 47.409 43.5794 46.5269 48.1222 46.1555V49.1501C45.1868 49.4055 44.1618 49.9626 43.0902 50.8215C41.8089 51.843 41.739 53.6769 41.6924 55.2555V62.2662H46.3284V64.9358H41.6924V72.0858H36.8001V65.1448H18V62.3823H29.3686V30.3698H18V27.8162V27.793Z" fill="#231815"/>
<path d="M118.594 16.5107V17.2304C117.499 17.2304 116.73 17.3697 116.288 17.625C115.845 17.9036 115.635 18.4143 115.635 19.1572V34.9197C115.635 35.5232 115.845 35.9643 116.288 36.2197C116.754 36.475 117.499 36.6143 118.594 36.6143V37.334H110.743V36.6143C111.791 36.6143 112.56 36.475 113.003 36.2197C113.469 35.9643 113.678 35.5232 113.678 34.9197V19.1572C113.678 18.4143 113.446 17.9268 113.003 17.625C112.537 17.3697 111.791 17.2304 110.743 17.2304V16.5107H118.594Z" fill="#231815"/>
<path d="M131.197 36.6143C131.989 36.6143 132.525 36.475 132.851 36.2196C133.154 35.9875 133.317 35.5464 133.317 34.9196V26.4464C133.317 25.8196 133.177 25.4018 132.921 25.1929C132.642 24.9839 132.106 24.8911 131.314 24.8911L131.221 24.45L135.228 23.3125V25.8893L135.391 25.75C136.392 24.9839 137.184 24.4732 137.813 24.1714C138.862 23.6375 139.957 23.3589 141.052 23.3589C142.333 23.3589 143.311 23.7071 144.01 24.4268C144.709 25.1464 145.059 26.1446 145.059 27.4446V34.9196C145.059 35.5464 145.222 35.9875 145.548 36.2196C145.851 36.475 146.386 36.6143 147.155 36.6143V37.3339H141.005V36.6143C141.774 36.6143 142.31 36.475 142.659 36.2196C142.985 35.9875 143.148 35.5464 143.148 34.9196V27.375C143.148 26.4696 142.962 25.7964 142.566 25.3786C142.123 24.8679 141.424 24.6125 140.446 24.6125C139.467 24.6125 138.512 24.8214 137.627 25.2161C136.905 25.5411 136.113 26.0518 135.228 26.7714V34.9429C135.228 35.5696 135.391 35.9875 135.717 36.2429C136.043 36.4982 136.602 36.6375 137.371 36.6375V37.3571H131.221V36.6375L131.197 36.6143Z" fill="#231815"/>
<path d="M159.781 23.8698C160.899 23.7769 161.761 23.3358 162.39 22.5465C163.043 21.7108 163.392 20.4805 163.485 18.8555H164.138V23.6608H168.424V24.4733H164.138V34.8501C164.138 35.384 164.301 35.7787 164.673 36.0573C165.023 36.3358 165.535 36.4751 166.234 36.4751C166.7 36.4751 167.166 36.3358 167.702 36.034C168.168 35.8019 168.611 35.4537 169.076 35.0126L169.449 35.2215C168.937 36.034 168.331 36.684 167.609 37.1251C166.957 37.5198 166.211 37.7287 165.442 37.7287C164.464 37.7287 163.695 37.4965 163.136 36.9626C162.554 36.3823 162.251 35.5465 162.251 34.4555V24.4501H159.805V23.8465L159.781 23.8698Z" fill="#231815"/>
<path d="M196.263 34.3623C195.471 35.4301 194.609 36.2194 193.654 36.7766C192.466 37.4498 191.068 37.7748 189.414 37.7748C187.178 37.7748 185.384 37.1016 184.033 35.7783C182.682 34.4319 182.029 32.6676 182.029 30.4855C182.029 28.4426 182.682 26.748 183.986 25.3783C185.361 23.9855 187.108 23.2891 189.298 23.2891C191.488 23.2891 193.048 23.8694 194.26 25.0533C195.495 26.2605 196.124 27.9319 196.124 30.0676H184.103C184.103 32.3658 184.685 34.0837 185.827 35.2212C186.828 36.1962 188.18 36.7069 189.857 36.7069C191.092 36.7069 192.187 36.4748 193.165 36.0105C194.12 35.5694 194.982 34.8962 195.797 33.9908L196.287 34.3623H196.263ZM192.652 25.2623C191.837 24.4266 190.719 24.0087 189.274 24.0087C187.9 24.0087 186.735 24.4962 185.733 25.4712C184.732 26.4926 184.173 27.7462 184.079 29.2319H194.027C193.934 27.4444 193.468 26.1212 192.629 25.2391L192.652 25.2623Z" fill="#231815"/>
<path d="M208.891 36.6144C209.566 36.6144 210.079 36.4983 210.451 36.2661C210.848 36.0108 211.034 35.6161 211.034 35.0822V26.2144C211.034 25.6804 210.917 25.3322 210.661 25.1697C210.405 24.984 209.869 24.8911 209.077 24.8911L208.891 24.4269L212.944 23.034V26.5858L213.387 26.2144C214.691 25.1697 215.693 24.4501 216.392 24.0322C217.58 23.3126 218.582 22.9644 219.467 22.9644C219.91 22.9644 220.283 23.1036 220.609 23.3822C220.935 23.6608 221.098 23.9858 221.098 24.334C221.098 24.659 220.935 24.9608 220.609 25.2394C220.283 25.5179 219.887 25.6572 219.467 25.6572C219.211 25.6572 218.955 25.6108 218.722 25.4947C218.605 25.4483 218.419 25.3554 218.232 25.2161C217.999 25.0304 217.813 24.9144 217.673 24.9144C217.417 24.8447 217.138 24.8679 216.835 25.0304C216.322 25.2626 215.763 25.5644 215.181 25.9358C214.715 26.2608 213.969 26.8179 212.944 27.6072V35.059C212.944 35.6161 213.084 36.034 213.387 36.2429C213.666 36.4751 214.249 36.5911 215.064 36.5911V37.3108H208.914V36.5911L208.891 36.6144Z" fill="#231815"/>
<path d="M233.701 36.6143C234.493 36.6143 235.029 36.475 235.332 36.2196C235.635 35.9875 235.798 35.5464 235.798 34.9196V26.4464C235.798 25.8196 235.658 25.4018 235.402 25.1929C235.122 24.9839 234.586 24.8911 233.794 24.8911L233.701 24.45L237.708 23.3125V25.8893L237.871 25.75C238.873 24.9839 239.665 24.4732 240.294 24.1714C241.342 23.6375 242.437 23.3589 243.556 23.3589C244.837 23.3589 245.815 23.7071 246.537 24.4268C247.236 25.1464 247.586 26.1446 247.586 27.4446V34.9196C247.586 35.5464 247.749 35.9875 248.075 36.2196C248.378 36.475 248.914 36.6143 249.682 36.6143V37.3339H243.532V36.6143C244.301 36.6143 244.837 36.475 245.186 36.2196C245.512 35.9875 245.676 35.5464 245.676 34.9196V27.375C245.676 26.4696 245.489 25.7964 245.093 25.3786C244.65 24.8679 243.952 24.6125 242.973 24.6125C241.995 24.6125 241.04 24.8214 240.154 25.2161C239.432 25.5411 238.64 26.0518 237.755 26.7714V34.9429C237.755 35.5696 237.918 35.9875 238.244 36.2429C238.57 36.4982 239.129 36.6375 239.898 36.6375V37.3571H233.748V36.6375L233.701 36.6143Z" fill="#231815"/>
<path d="M275.378 37.3569C274.935 37.6355 274.446 37.7748 273.887 37.7748C273.234 37.7748 272.745 37.5658 272.489 37.148C272.279 36.823 272.163 36.3819 272.163 35.8016C271.394 36.4283 270.648 36.8926 269.903 37.2176C268.971 37.5891 267.923 37.7748 266.758 37.7748C265.267 37.7748 264.149 37.4498 263.357 36.7998C262.634 36.1962 262.262 35.4069 262.262 34.4087C262.262 33.1087 263.077 31.9944 264.731 31.0658C266.432 30.1141 268.901 29.4176 272.163 28.9533V26.8873C272.163 25.9819 271.93 25.2855 271.464 24.798C270.975 24.2641 270.276 24.0087 269.367 24.0087C268.179 24.0087 267.294 24.1712 266.688 24.4962C266.129 24.798 265.71 25.3319 265.43 26.098C265.29 26.4462 265.127 26.7248 264.964 26.9105C264.708 27.1658 264.405 27.3051 264.032 27.3051C263.613 27.3051 263.31 27.1891 263.1 26.9801C262.891 26.7712 262.798 26.4694 262.798 26.0748C262.798 25.3319 263.403 24.6819 264.591 24.1248C265.873 23.5676 267.527 23.2891 269.553 23.2891C270.928 23.2891 272.023 23.6141 272.838 24.2641C273.677 24.9373 274.096 25.8891 274.096 27.1426V35.1516C274.096 35.6158 274.143 35.9873 274.213 36.2426C274.283 36.5444 274.469 36.6837 274.702 36.6837C274.935 36.6837 275.145 36.6373 275.331 36.5676C275.587 36.4516 275.867 36.2658 276.17 36.0337L276.449 36.3355C276.053 36.7998 275.704 37.1248 275.401 37.3105L275.378 37.3569ZM266.688 31.2283C265.174 32.0641 264.405 33.1087 264.405 34.3391C264.405 35.0123 264.661 35.5462 265.15 35.9641C265.686 36.4051 266.432 36.6141 267.41 36.6141C268.505 36.6141 269.414 36.4748 270.113 36.1962C270.765 35.9641 271.464 35.523 272.186 34.9426V29.7426C269.95 29.9516 268.109 30.4391 266.688 31.2283Z" fill="#231815"/>
<path d="M289.053 23.8698C290.171 23.7769 291.033 23.3358 291.662 22.5465C292.314 21.7108 292.664 20.4805 292.757 18.8555H293.409V23.6608H297.696V24.4733H293.409V34.8501C293.409 35.384 293.572 35.7787 293.945 36.0573C294.294 36.3358 294.807 36.4751 295.483 36.4751C295.948 36.4751 296.438 36.3358 296.95 36.034C297.416 35.8019 297.859 35.4537 298.325 35.0126L298.697 35.2215C298.185 36.034 297.579 36.684 296.857 37.1251C296.205 37.5198 295.459 37.7287 294.69 37.7287C293.712 37.7287 292.943 37.4965 292.384 36.9626C291.802 36.3823 291.522 35.5465 291.522 34.4555V24.4501H289.076V23.8465L289.053 23.8698Z" fill="#231815"/>
<path d="M311.417 37.3339V36.6143C312.186 36.6143 312.722 36.5214 313.025 36.3357C313.351 36.15 313.514 35.7786 313.514 35.1982V26.3768C313.514 25.9357 313.374 25.6339 313.118 25.425C312.792 25.1929 312.209 25.0768 311.394 25.0768L311.301 24.6357L315.424 23.2893V35.1982C315.424 35.7554 315.564 36.15 315.867 36.3357C316.146 36.5214 316.729 36.6143 317.567 36.6143V37.3339H311.417ZM314.516 16C313.957 16 313.537 16.1393 313.234 16.4411C312.955 16.6964 312.838 17.0446 312.838 17.4393C312.838 17.8107 312.978 18.1357 313.234 18.3911C313.514 18.6929 313.957 18.8321 314.516 18.8321C315.028 18.8321 315.448 18.6929 315.75 18.3911C316.053 18.1357 316.193 17.8107 316.193 17.4393C316.193 17.0214 316.053 16.6964 315.75 16.4411C315.448 16.1393 315.028 16 314.516 16Z" fill="#231815"/>
<path d="M342.868 25.5176C344.032 26.8641 344.638 28.5355 344.638 30.5551C344.638 32.5748 344.056 34.1998 342.868 35.5462C341.54 37.0319 339.723 37.7748 337.393 37.7748C335.063 37.7748 333.2 37.0319 331.918 35.5462C330.753 34.1998 330.194 32.5516 330.194 30.5551C330.194 28.5587 330.777 26.8408 331.918 25.5176C333.223 24.0319 335.04 23.2891 337.393 23.2891C339.746 23.2891 341.563 24.0319 342.868 25.5176ZM333.456 26.0051C332.64 27.2123 332.244 28.7212 332.244 30.5551C332.244 32.3891 332.64 33.8516 333.456 35.0123C334.388 36.3587 335.692 37.0319 337.393 37.0319C339.094 37.0319 340.352 36.3587 341.283 35.0123C342.099 33.8283 342.518 32.3426 342.518 30.5551C342.518 28.7676 342.099 27.2123 341.283 26.0051C340.352 24.6819 339.047 24.0087 337.393 24.0087C335.739 24.0087 334.388 24.6819 333.456 26.0051Z" fill="#231815"/>
<path d="M357.241 36.6143C358.033 36.6143 358.569 36.475 358.895 36.2196C359.198 35.9875 359.361 35.5464 359.361 34.9196V26.4464C359.361 25.8196 359.221 25.4018 358.965 25.1929C358.686 24.9839 358.15 24.8911 357.358 24.8911L357.265 24.45L361.272 23.3125V25.8893L361.435 25.75C362.436 24.9839 363.228 24.4732 363.857 24.1714C364.906 23.6375 366.001 23.3589 367.096 23.3589C368.377 23.3589 369.355 23.7071 370.078 24.4268C370.776 25.1464 371.126 26.1446 371.126 27.4446V34.9196C371.126 35.5464 371.289 35.9875 371.615 36.2196C371.918 36.475 372.454 36.6143 373.223 36.6143V37.3339H367.072V36.6143C367.841 36.6143 368.377 36.475 368.726 36.2196C369.052 35.9875 369.216 35.5464 369.216 34.9196V27.375C369.216 26.4696 369.029 25.7964 368.633 25.3786C368.19 24.8679 367.492 24.6125 366.513 24.6125C365.535 24.6125 364.58 24.8214 363.694 25.2161C362.972 25.5411 362.18 26.0518 361.295 26.7714V34.9429C361.295 35.5696 361.458 35.9875 361.784 36.2429C362.11 36.4982 362.669 36.6375 363.438 36.6375V37.3571H357.288V36.6375L357.241 36.6143Z" fill="#231815"/>
<path d="M398.942 37.3569C398.5 37.6355 398.01 37.7748 397.451 37.7748C396.776 37.7748 396.31 37.5658 396.053 37.148C395.844 36.823 395.751 36.3819 395.751 35.8016C394.982 36.4283 394.236 36.8926 393.491 37.2176C392.559 37.5891 391.511 37.7748 390.346 37.7748C388.855 37.7748 387.737 37.4498 386.945 36.7998C386.222 36.1962 385.85 35.4069 385.85 34.4087C385.85 33.1087 386.665 31.9944 388.319 31.0658C390.02 30.1141 392.489 29.4176 395.751 28.9533V26.8873C395.751 25.9819 395.518 25.2855 395.052 24.798C394.562 24.2641 393.864 24.0087 392.955 24.0087C391.767 24.0087 390.882 24.1712 390.276 24.4962C389.717 24.798 389.297 25.3319 389.018 26.098C388.878 26.4462 388.715 26.7248 388.552 26.9105C388.296 27.1658 387.993 27.3051 387.62 27.3051C387.201 27.3051 386.898 27.1891 386.688 26.9801C386.479 26.7712 386.362 26.4694 386.362 26.0748C386.362 25.3319 386.968 24.6819 388.156 24.1248C389.437 23.5676 391.091 23.2891 393.118 23.2891C394.493 23.2891 395.587 23.6141 396.403 24.2641C397.242 24.9373 397.661 25.8891 397.661 27.1426V35.1516C397.661 35.6158 397.707 35.9873 397.777 36.2426C397.871 36.5444 398.034 36.6837 398.267 36.6837C398.5 36.6837 398.709 36.6373 398.896 36.5676C399.175 36.4516 399.455 36.2658 399.734 36.0337L400.014 36.3355C399.618 36.7998 399.268 37.1248 398.965 37.3105L398.942 37.3569ZM390.229 31.2283C388.715 32.0641 387.946 33.1087 387.946 34.3391C387.946 35.0123 388.203 35.5462 388.692 35.9641C389.228 36.4051 389.973 36.6141 390.952 36.6141C392.046 36.6141 392.955 36.4748 393.654 36.1962C394.306 35.9641 395.005 35.523 395.727 34.9426V29.7426C393.491 29.9516 391.65 30.4391 390.229 31.2283Z" fill="#231815"/>
<path d="M412.734 36.6143C413.502 36.6143 414.038 36.475 414.388 36.1964C414.714 35.9179 414.877 35.4536 414.877 34.85V19.3661C414.877 18.9018 414.714 18.5536 414.411 18.3447C414.085 18.1125 413.526 17.9964 412.734 17.9964L412.617 17.6018L416.787 16.2554V34.8268C416.787 35.4536 416.95 35.8947 417.276 36.1732C417.626 36.4518 418.208 36.5911 419.024 36.5911V37.3107H412.757V36.5911L412.734 36.6143Z" fill="#231815"/>
<path d="M110.649 76.4269C111.558 76.4269 112.14 76.3109 112.443 76.0555C112.723 75.8002 112.863 75.3127 112.863 74.5466V60.9198C112.863 60.3394 112.723 59.9216 112.443 59.6894C112.117 59.4109 111.511 59.2716 110.649 59.2716V58.6216H123.486L125.303 62.8234L124.907 63.0555C124.185 61.9877 123.439 61.1752 122.67 60.5716C121.506 59.6894 120.224 59.2484 118.826 59.2484H116.217C115.612 59.2484 115.169 59.3877 114.866 59.6662C114.586 59.9448 114.447 60.3394 114.447 60.8966V67.0484H118.081C119.036 67.0484 119.712 66.8859 120.108 66.5377C120.62 66.0966 120.9 65.2144 120.9 63.9377H121.506V71.1341H120.9C120.9 69.8805 120.62 68.9752 120.084 68.4412C119.619 67.9537 118.943 67.7216 118.058 67.7216H114.447V74.5466C114.447 75.2894 114.61 75.7769 114.959 76.0555C115.309 76.3109 116.008 76.4269 117.056 76.4269V77.0769H110.649V76.4269Z" fill="#231815"/>
<path d="M129.589 76.4267C130.195 76.4267 130.638 76.3106 130.894 76.0552C131.15 75.7999 131.29 75.4052 131.29 74.8481V61.1517C131.29 60.7338 131.173 60.432 130.917 60.2463C130.661 60.0374 130.218 59.9445 129.589 59.9445L129.496 59.5963L132.804 58.3892V74.8249C132.804 75.382 132.944 75.7767 133.2 76.032C133.48 76.2874 133.946 76.4034 134.575 76.4034V77.0534H129.613V76.4034L129.589 76.4267Z" fill="#231815"/>
<path d="M149.788 66.607C150.72 67.7909 151.186 69.2766 151.186 71.0641C151.186 72.8516 150.72 74.2909 149.788 75.4749C148.739 76.7981 147.295 77.4481 145.455 77.4481C143.614 77.4481 142.147 76.7981 141.122 75.4749C140.213 74.2909 139.747 72.8284 139.747 71.0641C139.747 69.2999 140.213 67.7677 141.122 66.607C142.147 65.2838 143.591 64.6338 145.455 64.6338C147.318 64.6338 148.739 65.2838 149.788 66.607ZM142.31 67.0481C141.681 68.1159 141.355 69.4624 141.355 71.0874C141.355 72.7124 141.681 73.9891 142.31 75.0338C143.032 76.2177 144.08 76.8213 145.431 76.8213C146.783 76.8213 147.784 76.2177 148.53 75.0338C149.182 73.9891 149.508 72.6659 149.508 71.0874C149.508 69.5088 149.182 68.1159 148.53 67.0481C147.784 65.8641 146.759 65.2838 145.431 65.2838C144.103 65.2838 143.055 65.8641 142.31 67.0481Z" fill="#231815"/>
<path d="M157.382 76.4266C157.918 76.4266 158.337 76.3338 158.616 76.1248C158.919 75.9159 159.082 75.5677 159.082 75.0802V67.2338C159.082 66.7695 158.989 66.4677 158.779 66.3052C158.57 66.1427 158.15 66.0498 157.521 66.0498L157.382 65.6552L160.573 64.4248V67.582L160.923 67.257C161.948 66.3516 162.74 65.7016 163.299 65.3302C164.231 64.7034 165.046 64.3784 165.722 64.3784C166.071 64.3784 166.374 64.4945 166.63 64.7498C166.887 65.0052 167.026 65.2838 167.026 65.6088C167.026 65.8873 166.887 66.1659 166.63 66.4213C166.374 66.6766 166.071 66.7927 165.722 66.7927C165.512 66.7927 165.302 66.7463 165.139 66.6534C165.046 66.607 164.906 66.5141 164.743 66.3981C164.557 66.2356 164.417 66.1427 164.301 66.1195C164.114 66.0498 163.881 66.0963 163.625 66.2123C163.206 66.4213 162.786 66.6766 162.321 67.0016C161.948 67.2802 161.365 67.7909 160.55 68.4873V75.0802C160.55 75.5909 160.666 75.9391 160.899 76.1248C161.132 76.3338 161.575 76.4266 162.227 76.4266V77.0766H157.358V76.4266H157.382Z" fill="#231815"/>
<path d="M173.41 77.0768V76.4268C174.015 76.4268 174.435 76.334 174.691 76.1715C174.947 76.009 175.087 75.684 175.087 75.1733V67.35C175.087 66.9786 174.97 66.6768 174.761 66.5143C174.505 66.3054 174.039 66.2125 173.386 66.2125L173.316 65.8179L176.601 64.6108V75.15C176.601 75.6608 176.718 75.9858 176.951 76.1483C177.184 76.3108 177.626 76.4036 178.302 76.4036V77.0536H173.433L173.41 77.0768ZM175.856 58.2036C175.413 58.2036 175.087 58.3429 174.854 58.5983C174.644 58.8304 174.528 59.1322 174.528 59.4804C174.528 59.8054 174.644 60.084 174.854 60.3161C175.087 60.5715 175.413 60.7108 175.856 60.7108C176.275 60.7108 176.601 60.5715 176.834 60.3161C177.067 60.084 177.184 59.8054 177.184 59.4804C177.184 59.109 177.067 58.8072 176.834 58.5983C176.578 58.3429 176.252 58.2036 175.856 58.2036Z" fill="#231815"/>
<path d="M187.224 75.7072C188.249 76.4733 189.368 76.8679 190.626 76.8679C191.488 76.8679 192.163 76.6358 192.722 76.1483C193.281 75.6608 193.561 75.0108 193.561 74.1983C193.561 73.5947 193.305 73.1072 192.769 72.7126C192.233 72.3179 191.325 71.9233 190.02 71.5287C188.133 70.9251 186.852 70.2983 186.13 69.6715C185.501 69.1144 185.198 68.3947 185.198 67.5126C185.198 66.7001 185.547 66.0269 186.246 65.4697C186.991 64.9358 187.947 64.6572 189.111 64.6572C189.484 64.6572 189.857 64.6804 190.23 64.7501C190.439 64.7965 190.719 64.8662 191.068 64.9822C191.325 65.0519 191.511 65.0983 191.627 65.0983C191.791 65.1215 191.93 65.1215 192.047 65.0751L192.979 64.6572L194.4 68.3251L193.98 68.534C193.584 67.8144 193.002 67.1412 192.233 66.5144C191.208 65.7019 190.16 65.3072 189.088 65.3072C188.273 65.3072 187.644 65.4929 187.178 65.8644C186.712 66.259 186.456 66.7929 186.456 67.4894C186.456 68.0697 186.759 68.534 187.364 68.9287C187.83 69.2304 188.692 69.6019 189.997 70.0197C191.744 70.5769 192.979 71.134 193.678 71.7144C194.423 72.3412 194.772 73.1537 194.772 74.1751C194.772 75.2429 194.33 76.0787 193.445 76.7287C192.676 77.2858 191.721 77.5644 190.602 77.5644C190.23 77.5644 189.857 77.5179 189.507 77.4483C189.275 77.4251 188.995 77.3322 188.622 77.2162C188.273 77.1233 188.04 77.0769 187.877 77.0537C187.644 77.0304 187.434 77.0537 187.271 77.1001L186.246 77.5179L184.778 73.5947L185.104 73.4554C185.85 74.4769 186.549 75.2197 187.248 75.7304L187.224 75.7072Z" fill="#231815"/>
<path d="M201.156 65.1446C202.042 65.0518 202.717 64.6804 203.23 63.9607C203.742 63.2179 204.022 62.1268 204.092 60.6875H204.604V64.9357H207.982V65.6554H204.604V74.8482C204.604 75.3125 204.744 75.6607 205.023 75.9161C205.303 76.1714 205.699 76.2875 206.258 76.2875C206.608 76.2875 207.004 76.1482 207.423 75.8929C207.772 75.6839 208.145 75.3821 208.495 74.9875L208.797 75.1732C208.378 75.8929 207.912 76.45 207.353 76.8446C206.841 77.1929 206.258 77.3786 205.629 77.3786C204.86 77.3786 204.255 77.1696 203.812 76.7054C203.346 76.1946 203.113 75.4518 203.113 74.4768V65.6089H201.18V65.075L201.156 65.1446Z" fill="#231815"/>
<path d="M217.953 75.7072C218.978 76.4733 220.096 76.8679 221.354 76.8679C222.216 76.8679 222.892 76.6358 223.451 76.1483C224.01 75.6608 224.289 75.0108 224.289 74.1983C224.289 73.5947 224.033 73.1072 223.497 72.7126C222.962 72.3179 222.053 71.9233 220.748 71.5287C218.861 70.9251 217.58 70.2983 216.858 69.6715C216.229 69.1144 215.926 68.3947 215.926 67.5126C215.926 66.7001 216.275 66.0269 216.974 65.4697C217.72 64.9358 218.675 64.6572 219.84 64.6572C220.213 64.6572 220.585 64.6804 220.958 64.7501C221.168 64.7965 221.447 64.8662 221.797 64.9822C222.053 65.0519 222.239 65.0983 222.356 65.0983C222.519 65.1215 222.659 65.1215 222.775 65.0751L223.707 64.6572L225.128 68.3251L224.709 68.534C224.313 67.8144 223.73 67.1412 222.962 66.5144C221.937 65.7019 220.888 65.3072 219.817 65.3072C219.024 65.3072 218.372 65.4929 217.906 65.8644C217.44 66.259 217.184 66.7929 217.184 67.4894C217.184 68.0697 217.487 68.534 218.093 68.9287C218.559 69.2304 219.42 69.6019 220.725 70.0197C222.472 70.5769 223.707 71.134 224.406 71.7144C225.128 72.3412 225.501 73.1537 225.501 74.1751C225.501 75.2429 225.058 76.0787 224.173 76.7287C223.404 77.2858 222.449 77.5644 221.331 77.5644C220.958 77.5644 220.585 77.5179 220.213 77.4483C219.98 77.4251 219.7 77.3322 219.327 77.2162C218.978 77.1233 218.745 77.0769 218.582 77.0537C218.349 77.0304 218.139 77.0537 217.976 77.1001L216.951 77.5179L215.483 73.5947L215.81 73.4554C216.555 74.4769 217.254 75.2197 217.953 75.7304V75.7072Z" fill="#231815"/>
<path d="M257.743 74.6161C257.953 75.2893 258.279 75.7768 258.675 76.0322C259.024 76.2875 259.56 76.4268 260.282 76.4268V77.0768H253.899V76.4268C254.971 76.4268 255.67 76.3108 255.996 76.1018C256.345 75.8465 256.415 75.3822 256.159 74.709L254.528 70.3447H246.934L245.582 74.1054C245.28 75.034 245.28 75.6608 245.582 75.9858C245.885 76.2875 246.584 76.4268 247.726 76.4268V77.0768H242.251V76.4268C242.95 76.4268 243.462 76.2643 243.812 75.9858C244.161 75.6608 244.511 74.9179 244.907 73.8036L250.172 58.784L251.57 58.2036L257.766 74.6161H257.743ZM247.167 69.6018H254.225L250.638 59.9215L247.167 69.6018Z" fill="#231815"/>
<path d="M268.366 75.7072C269.391 76.4733 270.509 76.8679 271.744 76.8679C272.606 76.8679 273.305 76.6358 273.841 76.1483C274.4 75.6608 274.679 75.0108 274.679 74.1983C274.679 73.5947 274.423 73.1072 273.887 72.7126C273.375 72.3179 272.443 71.9233 271.138 71.5287C269.251 70.9251 267.97 70.2983 267.248 69.6715C266.619 69.1144 266.316 68.3947 266.316 67.5126C266.316 66.7001 266.666 66.0269 267.364 65.4697C268.11 64.9358 269.065 64.6572 270.253 64.6572C270.626 64.6572 270.999 64.6804 271.371 64.7501C271.581 64.7965 271.861 64.8662 272.21 64.9822C272.466 65.0519 272.653 65.0983 272.769 65.0983C272.932 65.1215 273.072 65.1215 273.189 65.0751L274.12 64.6572L275.541 68.3251L275.122 68.534C274.726 67.8144 274.144 67.1412 273.375 66.5144C272.35 65.7019 271.302 65.3072 270.23 65.3072C269.415 65.3072 268.786 65.4929 268.32 65.8644C267.854 66.259 267.621 66.7929 267.621 67.4894C267.621 68.0697 267.924 68.534 268.529 68.9287C268.995 69.2304 269.857 69.6019 271.162 70.0197C272.909 70.5769 274.144 71.134 274.843 71.7144C275.588 72.3412 275.937 73.1537 275.937 74.1751C275.937 75.2429 275.495 76.0787 274.61 76.7287C273.841 77.2858 272.886 77.5644 271.767 77.5644C271.395 77.5644 271.022 77.5179 270.673 77.4483C270.44 77.4251 270.137 77.3322 269.787 77.2162C269.438 77.1233 269.205 77.0769 269.042 77.0537C268.809 77.0304 268.599 77.0537 268.436 77.1001L267.411 77.5179L265.943 73.5947L266.27 73.4554C267.015 74.4769 267.714 75.2197 268.413 75.7304L268.366 75.7072Z" fill="#231815"/>
<path d="M284.301 75.7072C285.326 76.4733 286.444 76.8679 287.702 76.8679C288.541 76.8679 289.239 76.6358 289.799 76.1483C290.358 75.6608 290.637 75.0108 290.637 74.1983C290.637 73.5947 290.381 73.1072 289.845 72.7126C289.309 72.3179 288.401 71.9233 287.096 71.5287C285.209 70.9251 283.928 70.2983 283.206 69.6715C282.577 69.1144 282.274 68.3947 282.274 67.5126C282.274 66.7001 282.623 66.0269 283.322 65.4697C284.068 64.9358 285.023 64.6572 286.188 64.6572C286.56 64.6572 286.933 64.6804 287.329 64.7501C287.539 64.7965 287.818 64.8662 288.168 64.9822C288.424 65.0519 288.61 65.0983 288.727 65.0983C288.89 65.1215 289.03 65.1215 289.146 65.0751L290.078 64.6572L291.499 68.3251L291.08 68.534C290.684 67.8144 290.101 67.1412 289.333 66.5144C288.308 65.7019 287.259 65.3072 286.188 65.3072C285.372 65.3072 284.743 65.4929 284.277 65.8644C283.811 66.259 283.555 66.7929 283.555 67.4894C283.555 68.0697 283.858 68.534 284.464 68.9287C284.93 69.2304 285.792 69.6019 287.096 70.0197C288.843 70.5769 290.078 71.134 290.777 71.7144C291.522 72.3412 291.872 73.1537 291.872 74.1751C291.872 75.2429 291.429 76.0787 290.544 76.7287C289.775 77.2858 288.82 77.5644 287.702 77.5644C287.329 77.5644 286.956 77.5179 286.584 77.4483C286.351 77.4251 286.048 77.3322 285.698 77.2162C285.349 77.1233 285.116 77.0769 284.953 77.0537C284.72 77.0304 284.51 77.0537 284.347 77.1001L283.322 77.5179L281.854 73.5947L282.181 73.4554C282.926 74.4769 283.625 75.2197 284.324 75.7304L284.301 75.7072Z" fill="#231815"/>
<path d="M308.948 66.607C309.88 67.7909 310.346 69.2766 310.346 71.0641C310.346 72.8516 309.88 74.2909 308.948 75.4749C307.9 76.7981 306.455 77.4481 304.615 77.4481C302.774 77.4481 301.307 76.7981 300.282 75.4749C299.373 74.2909 298.907 72.8284 298.907 71.0641C298.907 69.2999 299.373 67.7677 300.282 66.607C301.307 65.2838 302.751 64.6338 304.615 64.6338C306.479 64.6338 307.9 65.2838 308.948 66.607ZM301.47 67.0481C300.841 68.1159 300.515 69.4624 300.515 71.0874C300.515 72.7124 300.841 73.9891 301.47 75.0338C302.192 76.2177 303.24 76.8213 304.592 76.8213C305.943 76.8213 306.944 76.2177 307.69 75.0338C308.342 73.9891 308.668 72.6659 308.668 71.0874C308.668 69.5088 308.342 68.1159 307.69 67.0481C306.944 65.8641 305.919 65.2838 304.592 65.2838C303.264 65.2838 302.215 65.8641 301.47 67.0481Z" fill="#231815"/>
<path d="M325.488 76.4731C324.603 77.1463 323.601 77.4713 322.436 77.4713C320.922 77.4713 319.617 76.8677 318.546 75.6838C317.474 74.4999 316.915 73.0838 316.915 71.4356C316.915 69.4391 317.521 67.7909 318.755 66.4909C319.944 65.2606 321.341 64.6338 322.995 64.6338C323.881 64.6338 324.696 64.8195 325.465 65.2141C326.187 65.5624 326.653 65.9802 326.886 66.4677C327.119 66.932 327.142 67.3499 326.979 67.6981C326.816 68.0695 326.513 68.2552 326.094 68.2552C325.768 68.2552 325.511 68.1391 325.348 67.9302C325.255 67.8141 325.139 67.582 324.999 67.257L324.836 66.8624C324.556 66.3284 324.253 65.957 323.951 65.7481C323.555 65.4927 323.019 65.3534 322.366 65.3534C321.318 65.3534 320.433 65.8409 319.734 66.7927C318.988 67.8374 318.616 69.2302 318.616 70.9713C318.616 72.7124 318.988 73.9427 319.711 74.9177C320.479 75.9391 321.551 76.4731 322.902 76.4731C323.694 76.4731 324.37 76.3106 324.952 75.9624C325.628 75.5909 326.327 74.9641 327.072 74.0588L327.468 74.2677C326.793 75.2659 326.14 76.0088 325.488 76.4963V76.4731Z" fill="#231815"/>
<path d="M333.921 77.0768V76.4268C334.527 76.4268 334.946 76.334 335.203 76.1715C335.459 76.009 335.599 75.684 335.599 75.1733V67.35C335.599 66.9786 335.482 66.6768 335.272 66.5143C335.016 66.3054 334.55 66.2125 333.898 66.2125L333.828 65.8179L337.113 64.6108V75.15C337.113 75.6608 337.229 75.9858 337.462 76.1483C337.695 76.3108 338.138 76.4036 338.814 76.4036V77.0536H333.945L333.921 77.0768ZM336.367 58.2036C335.925 58.2036 335.575 58.3429 335.366 58.5983C335.156 58.8304 335.04 59.1322 335.04 59.4804C335.04 59.8054 335.156 60.084 335.366 60.3161C335.599 60.5715 335.925 60.7108 336.367 60.7108C336.787 60.7108 337.113 60.5715 337.346 60.3161C337.579 60.084 337.695 59.8054 337.695 59.4804C337.695 59.109 337.579 58.8072 337.346 58.5983C337.09 58.3429 336.763 58.2036 336.367 58.2036Z" fill="#231815"/>
<path d="M356.426 77.1001C356.077 77.3554 355.681 77.4715 355.238 77.4715C354.702 77.4715 354.353 77.2858 354.12 76.9144C353.957 76.6358 353.864 76.2412 353.864 75.7072C353.258 76.2644 352.675 76.6822 352.07 76.9608C351.324 77.2858 350.509 77.4715 349.577 77.4715C348.412 77.4715 347.504 77.1929 346.875 76.6126C346.292 76.0787 346.013 75.3822 346.013 74.5001C346.013 73.3394 346.665 72.3644 347.97 71.5519C349.297 70.7162 351.278 70.0894 353.84 69.6947V67.8608C353.84 67.0715 353.654 66.4447 353.281 66.0037C352.885 65.5394 352.349 65.3072 351.627 65.3072C350.695 65.3072 349.973 65.4465 349.507 65.7251C349.065 66.0037 348.738 66.4679 348.505 67.1412C348.389 67.4662 348.272 67.6983 348.133 67.8608C347.923 68.0929 347.69 68.209 347.387 68.209C347.061 68.209 346.805 68.1162 346.642 67.9072C346.479 67.7215 346.385 67.4662 346.385 67.1179C346.385 66.4447 346.851 65.8876 347.807 65.4001C348.832 64.9126 350.136 64.6572 351.744 64.6572C352.839 64.6572 353.7 64.959 354.353 65.5394C355.028 66.1429 355.355 66.9787 355.355 68.0929V75.1733C355.355 75.5912 355.378 75.9162 355.448 76.1483C355.518 76.4037 355.634 76.5429 355.844 76.5429C356.03 76.5429 356.193 76.5197 356.333 76.4501C356.543 76.3572 356.776 76.1947 356.985 75.9858L357.218 76.2644C356.915 76.6822 356.636 76.9608 356.38 77.1465L356.426 77.1001ZM349.53 71.6679C348.319 72.4108 347.713 73.3394 347.713 74.4304C347.713 75.034 347.9 75.4983 348.296 75.8697C348.715 76.2412 349.321 76.4501 350.066 76.4501C350.928 76.4501 351.65 76.334 352.21 76.0787C352.722 75.8697 353.281 75.4983 353.84 74.9644V70.3679C352.07 70.5537 350.625 70.9947 349.484 71.6912L349.53 71.6679Z" fill="#231815"/>
<path d="M363.065 65.1446C363.951 65.0518 364.65 64.6804 365.139 63.9607C365.651 63.2179 365.931 62.1268 366.001 60.6875H366.513V64.9357H369.891V65.6554H366.513V74.8482C366.513 75.3125 366.653 75.6607 366.933 75.9161C367.212 76.1714 367.632 76.2875 368.167 76.2875C368.517 76.2875 368.913 76.1482 369.332 75.8929C369.682 75.6839 370.054 75.3821 370.404 74.9875L370.707 75.1732C370.287 75.8929 369.821 76.45 369.262 76.8446C368.726 77.1929 368.167 77.3786 367.538 77.3786C366.77 77.3786 366.164 77.1696 365.721 76.7054C365.255 76.1946 365.022 75.4518 365.022 74.4768V65.6089H363.089V65.075L363.065 65.1446Z" fill="#231815"/>
<path d="M377.416 77.0768V76.4268C378.022 76.4268 378.441 76.334 378.698 76.1715C378.954 76.009 379.094 75.684 379.094 75.1733V67.35C379.094 66.9786 378.977 66.6768 378.768 66.5143C378.511 66.3054 378.045 66.2125 377.393 66.2125L377.323 65.8179L380.608 64.6108V75.15C380.608 75.6608 380.725 75.9858 380.957 76.1483C381.19 76.3108 381.633 76.4036 382.309 76.4036V77.0536H377.44L377.416 77.0768ZM379.886 58.2036C379.443 58.2036 379.117 58.3429 378.884 58.5983C378.674 58.8304 378.558 59.1322 378.558 59.4804C378.558 59.8054 378.674 60.084 378.884 60.3161C379.117 60.5715 379.443 60.7108 379.886 60.7108C380.305 60.7108 380.631 60.5715 380.864 60.3161C381.097 60.084 381.214 59.8054 381.214 59.4804C381.214 59.109 381.097 58.8072 380.864 58.5983C380.608 58.3429 380.282 58.2036 379.886 58.2036Z" fill="#231815"/>
<path d="M398.29 66.607C399.222 67.7909 399.688 69.2766 399.688 71.0641C399.688 72.8516 399.222 74.2909 398.29 75.4749C397.241 76.7981 395.797 77.4481 393.957 77.4481C392.116 77.4481 390.649 76.7981 389.624 75.4749C388.715 74.2909 388.249 72.8284 388.249 71.0641C388.249 69.2999 388.715 67.7677 389.624 66.607C390.649 65.2838 392.093 64.6338 393.957 64.6338C395.82 64.6338 397.241 65.2838 398.29 66.607ZM390.835 67.0481C390.206 68.1159 389.88 69.4624 389.88 71.0874C389.88 72.7124 390.206 73.9891 390.835 75.0338C391.58 76.2177 392.605 76.8213 393.957 76.8213C395.308 76.8213 396.31 76.2177 397.055 75.0338C397.707 73.9891 398.034 72.6659 398.034 71.0874C398.034 69.5088 397.707 68.1159 397.055 67.0481C396.31 65.8641 395.285 65.2838 393.957 65.2838C392.629 65.2838 391.58 65.8641 390.835 67.0481Z" fill="#231815"/>
<path d="M406.373 76.4266C407.002 76.4266 407.421 76.3106 407.678 76.0784C407.934 75.8695 408.05 75.4749 408.05 74.9177V67.3963C408.05 66.8391 407.934 66.4677 407.724 66.3052C407.515 66.1195 407.095 66.0266 406.443 66.0266L406.373 65.632L409.565 64.6338V66.9088L409.681 66.7927C410.473 66.1195 411.102 65.6552 411.591 65.3766C412.43 64.9124 413.292 64.657 414.177 64.657C415.179 64.657 415.971 64.982 416.53 65.6088C417.089 66.2356 417.369 67.1409 417.369 68.3016V74.9177C417.369 75.4749 417.509 75.8463 417.765 76.0784C418.021 76.3106 418.441 76.4266 419.046 76.4266V77.0766H414.177V76.4266C414.783 76.4266 415.202 76.3106 415.482 76.0784C415.738 75.8695 415.878 75.4749 415.878 74.9177V68.232C415.878 67.4195 415.715 66.8391 415.412 66.4445C415.063 66.0034 414.503 65.7713 413.711 65.7713C412.919 65.7713 412.197 65.957 411.498 66.3052C410.916 66.5838 410.287 67.0481 409.588 67.6749V74.9177C409.588 75.4749 409.728 75.8463 409.984 76.0784C410.24 76.3106 410.683 76.4266 411.289 76.4266V77.0766H406.42V76.4266H406.373Z" fill="#231815"/>
</g>
<rect x="3.5" y="1.5" width="430" height="94" fill="#D9D9D9" fill-opacity="0.3" stroke="#D9D9D9"/>
<path d="M452.21 8.4209C452.21 9.00033 452.166 9.5179 452.078 9.97363C451.99 10.4294 451.852 10.8151 451.663 11.1309C451.474 11.4466 451.23 11.6875 450.931 11.8535C450.631 12.0163 450.271 12.0977 449.852 12.0977C449.321 12.0977 448.882 11.9528 448.533 11.6631C448.188 11.3734 447.929 10.9551 447.757 10.4082C447.588 9.85807 447.503 9.19564 447.503 8.4209C447.503 7.65918 447.579 7.00488 447.732 6.45801C447.889 5.90788 448.139 5.48633 448.484 5.19336C448.829 4.89714 449.285 4.74902 449.852 4.74902C450.389 4.74902 450.831 4.89551 451.18 5.18848C451.528 5.47819 451.787 5.89811 451.956 6.44824C452.125 6.99512 452.21 7.65267 452.21 8.4209ZM448.318 8.4209C448.318 9.08496 448.369 9.63835 448.47 10.0811C448.571 10.5238 448.733 10.8558 448.958 11.0771C449.186 11.2952 449.484 11.4043 449.852 11.4043C450.219 11.4043 450.516 11.2952 450.74 11.0771C450.968 10.859 451.132 10.5286 451.233 10.0859C451.338 9.64323 451.39 9.08822 451.39 8.4209C451.39 7.7666 451.339 7.21973 451.238 6.78027C451.137 6.33757 450.975 6.00553 450.75 5.78418C450.525 5.55957 450.226 5.44727 449.852 5.44727C449.477 5.44727 449.178 5.55957 448.953 5.78418C448.729 6.00553 448.566 6.33757 448.465 6.78027C448.367 7.21973 448.318 7.7666 448.318 8.4209ZM453.755 11.4922C453.755 11.2643 453.81 11.1032 453.921 11.0088C454.032 10.9111 454.167 10.8623 454.326 10.8623C454.492 10.8623 454.632 10.9111 454.746 11.0088C454.86 11.1032 454.917 11.2643 454.917 11.4922C454.917 11.7168 454.86 11.8812 454.746 11.9854C454.632 12.0863 454.492 12.1367 454.326 12.1367C454.167 12.1367 454.032 12.0863 453.921 11.9854C453.81 11.8812 453.755 11.7168 453.755 11.4922ZM458.699 7.63477C459.184 7.63477 459.605 7.71777 459.963 7.88379C460.321 8.04655 460.598 8.28418 460.793 8.59668C460.992 8.90918 461.091 9.28841 461.091 9.73438C461.091 10.2227 460.985 10.6442 460.774 10.999C460.562 11.3506 460.258 11.6224 459.861 11.8145C459.464 12.0033 458.988 12.0977 458.435 12.0977C458.064 12.0977 457.719 12.0651 457.4 12C457.081 11.9349 456.812 11.8372 456.594 11.707V10.9355C456.832 11.0788 457.12 11.1927 457.458 11.2773C457.797 11.362 458.126 11.4043 458.445 11.4043C458.806 11.4043 459.122 11.3473 459.392 11.2334C459.665 11.1162 459.877 10.9404 460.027 10.7061C460.18 10.4684 460.256 10.1706 460.256 9.8125C460.256 9.33724 460.11 8.97103 459.817 8.71387C459.527 8.45345 459.068 8.32324 458.44 8.32324C458.238 8.32324 458.017 8.33952 457.776 8.37207C457.535 8.40462 457.336 8.44043 457.18 8.47949L456.77 8.21094L457.043 4.86133H460.593V5.60352H457.737L457.556 7.75684C457.68 7.73079 457.839 7.70475 458.035 7.67871C458.23 7.64941 458.451 7.63477 458.699 7.63477ZM467.714 12H466.772L464.843 8.85547L462.885 12H462.002L464.379 8.2793L462.168 4.86133H463.09L464.873 7.70801L466.665 4.86133H467.544L465.337 8.26465L467.714 12Z" fill="#2C2C2C"/>
<line x1="3" y1="15.75" x2="434" y2="15.75" stroke="#A5A5A5" stroke-width="0.5" stroke-dasharray="1 1"/>
<line x1="3" y1="37.75" x2="434" y2="37.75" stroke="#A5A5A5" stroke-width="0.5" stroke-dasharray="1 1"/>
<line x1="3" y1="57.75" x2="434" y2="57.75" stroke="#A5A5A5" stroke-width="0.5" stroke-dasharray="1 1"/>
<line x1="3" y1="80.75" x2="434" y2="80.75" stroke="#A5A5A5" stroke-width="0.5" stroke-dasharray="1 1"/>
<line x1="18.25" y1="1" x2="18.25" y2="95" stroke="#A5A5A5" stroke-width="0.5" stroke-dasharray="1 1"/>
<line x1="89.25" y1="1" x2="89.25" y2="96" stroke="#A5A5A5" stroke-width="0.5" stroke-dasharray="1 1"/>
<line x1="110.25" y1="1" x2="110.25" y2="96" stroke="#A5A5A5" stroke-width="0.5" stroke-dasharray="1 1"/>
<line x1="419.25" y1="1" x2="419.25" y2="96" stroke="#A5A5A5" stroke-width="0.5" stroke-dasharray="1 1"/>
<path d="M436 1H444V16H436" stroke="#231815" stroke-width="0.5"/>
<path d="M421.21 112.421C421.21 113 421.166 113.518 421.078 113.974C420.99 114.429 420.852 114.815 420.663 115.131C420.474 115.447 420.23 115.688 419.931 115.854C419.631 116.016 419.271 116.098 418.852 116.098C418.321 116.098 417.882 115.953 417.533 115.663C417.188 115.373 416.929 114.955 416.757 114.408C416.588 113.858 416.503 113.196 416.503 112.421C416.503 111.659 416.579 111.005 416.732 110.458C416.889 109.908 417.139 109.486 417.484 109.193C417.829 108.897 418.285 108.749 418.852 108.749C419.389 108.749 419.831 108.896 420.18 109.188C420.528 109.478 420.787 109.898 420.956 110.448C421.125 110.995 421.21 111.653 421.21 112.421ZM417.318 112.421C417.318 113.085 417.369 113.638 417.47 114.081C417.571 114.524 417.733 114.856 417.958 115.077C418.186 115.295 418.484 115.404 418.852 115.404C419.219 115.404 419.516 115.295 419.74 115.077C419.968 114.859 420.132 114.529 420.233 114.086C420.338 113.643 420.39 113.088 420.39 112.421C420.39 111.767 420.339 111.22 420.238 110.78C420.137 110.338 419.975 110.006 419.75 109.784C419.525 109.56 419.226 109.447 418.852 109.447C418.477 109.447 418.178 109.56 417.953 109.784C417.729 110.006 417.566 110.338 417.465 110.78C417.367 111.22 417.318 111.767 417.318 112.421ZM422.755 115.492C422.755 115.264 422.81 115.103 422.921 115.009C423.032 114.911 423.167 114.862 423.326 114.862C423.492 114.862 423.632 114.911 423.746 115.009C423.86 115.103 423.917 115.264 423.917 115.492C423.917 115.717 423.86 115.881 423.746 115.985C423.632 116.086 423.492 116.137 423.326 116.137C423.167 116.137 423.032 116.086 422.921 115.985C422.81 115.881 422.755 115.717 422.755 115.492ZM427.699 111.635C428.184 111.635 428.605 111.718 428.963 111.884C429.321 112.047 429.598 112.284 429.793 112.597C429.992 112.909 430.091 113.288 430.091 113.734C430.091 114.223 429.985 114.644 429.774 114.999C429.562 115.351 429.258 115.622 428.861 115.814C428.464 116.003 427.988 116.098 427.435 116.098C427.064 116.098 426.719 116.065 426.4 116C426.081 115.935 425.812 115.837 425.594 115.707V114.936C425.832 115.079 426.12 115.193 426.458 115.277C426.797 115.362 427.126 115.404 427.445 115.404C427.806 115.404 428.122 115.347 428.392 115.233C428.665 115.116 428.877 114.94 429.027 114.706C429.18 114.468 429.256 114.171 429.256 113.812C429.256 113.337 429.11 112.971 428.817 112.714C428.527 112.453 428.068 112.323 427.44 112.323C427.238 112.323 427.017 112.34 426.776 112.372C426.535 112.405 426.336 112.44 426.18 112.479L425.77 112.211L426.043 108.861H429.593V109.604H426.737L426.556 111.757C426.68 111.731 426.839 111.705 427.035 111.679C427.23 111.649 427.451 111.635 427.699 111.635ZM436.714 116H435.772L433.843 112.855L431.885 116H431.002L433.379 112.279L431.168 108.861H432.09L433.873 111.708L435.665 108.861H436.544L434.337 112.265L436.714 116Z" fill="#2C2C2C"/>
<path d="M5.20996 112.421C5.20996 113 5.16602 113.518 5.07812 113.974C4.99023 114.429 4.85189 114.815 4.66309 115.131C4.47428 115.447 4.23014 115.688 3.93066 115.854C3.63118 116.016 3.27148 116.098 2.85156 116.098C2.32096 116.098 1.88151 115.953 1.5332 115.663C1.18815 115.373 0.929362 114.955 0.756836 114.408C0.587565 113.858 0.50293 113.196 0.50293 112.421C0.50293 111.659 0.579427 111.005 0.732422 110.458C0.888672 109.908 1.13932 109.486 1.48438 109.193C1.82943 108.897 2.28516 108.749 2.85156 108.749C3.38867 108.749 3.83138 108.896 4.17969 109.188C4.52799 109.478 4.78678 109.898 4.95605 110.448C5.12533 110.995 5.20996 111.653 5.20996 112.421ZM1.31836 112.421C1.31836 113.085 1.36882 113.638 1.46973 114.081C1.57064 114.524 1.7334 114.856 1.95801 115.077C2.18587 115.295 2.48372 115.404 2.85156 115.404C3.2194 115.404 3.51562 115.295 3.74023 115.077C3.9681 114.859 4.13249 114.529 4.2334 114.086C4.33757 113.643 4.38965 113.088 4.38965 112.421C4.38965 111.767 4.33919 111.22 4.23828 110.78C4.13737 110.338 3.97461 110.006 3.75 109.784C3.52539 109.56 3.22591 109.447 2.85156 109.447C2.47721 109.447 2.17773 109.56 1.95312 109.784C1.72852 110.006 1.56576 110.338 1.46484 110.78C1.36719 111.22 1.31836 111.767 1.31836 112.421ZM6.75508 115.492C6.75508 115.264 6.81042 115.103 6.92109 115.009C7.03177 114.911 7.16686 114.862 7.32637 114.862C7.49238 114.862 7.63236 114.911 7.74629 115.009C7.86022 115.103 7.91719 115.264 7.91719 115.492C7.91719 115.717 7.86022 115.881 7.74629 115.985C7.63236 116.086 7.49238 116.137 7.32637 116.137C7.16686 116.137 7.03177 116.086 6.92109 115.985C6.81042 115.881 6.75508 115.717 6.75508 115.492ZM11.6986 111.635C12.1837 111.635 12.6052 111.718 12.9633 111.884C13.3214 112.047 13.598 112.284 13.7934 112.597C13.9919 112.909 14.0912 113.288 14.0912 113.734C14.0912 114.223 13.9854 114.644 13.7738 114.999C13.5622 115.351 13.2579 115.622 12.8607 115.814C12.4636 116.003 11.9883 116.098 11.435 116.098C11.0639 116.098 10.7188 116.065 10.3998 116C10.0808 115.935 9.81224 115.837 9.59414 115.707V114.936C9.83177 115.079 10.1199 115.193 10.4584 115.277C10.7969 115.362 11.1257 115.404 11.4447 115.404C11.8061 115.404 12.1218 115.347 12.392 115.233C12.6654 115.116 12.877 114.94 13.0268 114.706C13.1798 114.468 13.2563 114.171 13.2563 113.812C13.2563 113.337 13.1098 112.971 12.8168 112.714C12.5271 112.453 12.0681 112.323 11.4398 112.323C11.238 112.323 11.0167 112.34 10.7758 112.372C10.5349 112.405 10.3363 112.44 10.1801 112.479L9.76992 112.211L10.0434 108.861H13.5932V109.604H10.7367L10.5561 111.757C10.6798 111.731 10.8393 111.705 11.0346 111.679C11.2299 111.649 11.4512 111.635 11.6986 111.635ZM20.7145 116H19.7721L17.8434 112.855L15.8854 116H15.0016L17.3795 112.279L15.1676 108.861H16.0904L17.8727 111.708L19.6646 108.861H20.5436L18.3365 112.265L20.7145 116Z" fill="#2C2C2C"/>
<path d="M434 97L434 105L419 105L419 97" stroke="#231815" stroke-width="0.5"/>
<path d="M18 97L18 105L3 105L3 97" stroke="#231815" stroke-width="0.5"/>
<defs>
<clipPath id="clip0_65_1110">
<rect width="401" height="65" fill="white" transform="translate(18 16)"/>
</clipPath>
</defs>
</svg>
