<svg width="204" height="54" viewBox="0 0 204 54" fill="none" xmlns="http://www.w3.org/2000/svg">
<rect width="204" height="54" fill="#231815"/>
<path d="M55.5815 33H53.3477V22.292H59.4854V24.1523H55.5815V26.9136H59.2144V28.7666H55.5815V33ZM64.0882 33H61.8543V21.6035H64.0882V33ZM74.3307 28.8911C74.3307 29.5747 74.2379 30.1802 74.0523 30.7075C73.8717 31.2349 73.6056 31.6816 73.254 32.0479C72.9073 32.4092 72.4874 32.6826 71.9942 32.8682C71.506 33.0537 70.9542 33.1465 70.339 33.1465C69.7628 33.1465 69.233 33.0537 68.7496 32.8682C68.2711 32.6826 67.8536 32.4092 67.4972 32.0479C67.1456 31.6816 66.8722 31.2349 66.6769 30.7075C66.4864 30.1802 66.3912 29.5747 66.3912 28.8911C66.3912 27.9829 66.5523 27.2139 66.8746 26.584C67.1969 25.9541 67.6559 25.4756 68.2516 25.1484C68.8473 24.8213 69.5577 24.6577 70.3829 24.6577C71.1495 24.6577 71.8282 24.8213 72.419 25.1484C73.0147 25.4756 73.4811 25.9541 73.818 26.584C74.1598 27.2139 74.3307 27.9829 74.3307 28.8911ZM68.669 28.8911C68.669 29.4282 68.7276 29.8799 68.8448 30.2461C68.962 30.6123 69.1451 30.8882 69.3941 31.0737C69.6432 31.2593 69.9679 31.3521 70.3683 31.3521C70.7638 31.3521 71.0836 31.2593 71.3277 31.0737C71.5768 30.8882 71.7574 30.6123 71.8697 30.2461C71.9869 29.8799 72.0455 29.4282 72.0455 28.8911C72.0455 28.3491 71.9869 27.8999 71.8697 27.5435C71.7574 27.1821 71.5768 26.9111 71.3277 26.7305C71.0787 26.5498 70.754 26.4595 70.3536 26.4595C69.7628 26.4595 69.3331 26.6621 69.0646 27.0674C68.8009 27.4727 68.669 28.0806 68.669 28.8911ZM83.3573 33L82.7274 30.1362C82.6933 29.9653 82.6371 29.7139 82.559 29.3818C82.4809 29.0449 82.3954 28.686 82.3026 28.3052C82.2147 27.9194 82.1317 27.563 82.0536 27.2358C81.9804 26.9087 81.9267 26.6694 81.8925 26.5181H81.8266C81.7924 26.6694 81.7387 26.9087 81.6654 27.2358C81.5922 27.563 81.5092 27.9194 81.4164 28.3052C81.3285 28.6909 81.2455 29.0547 81.1674 29.3965C81.0893 29.7334 81.0307 29.9897 80.9916 30.1655L80.3324 33H77.9301L75.601 24.8115H77.8275L78.7724 28.437C78.8358 28.6909 78.8969 28.9937 78.9555 29.3452C79.0141 29.6919 79.0653 30.0288 79.1093 30.356C79.1581 30.6782 79.1947 30.9346 79.2191 31.125H79.2777C79.2875 30.9834 79.307 30.7954 79.3363 30.561C79.3705 30.3267 79.4071 30.085 79.4462 29.8359C79.4901 29.582 79.5292 29.355 79.5634 29.1548C79.6024 28.9497 79.6317 28.8105 79.6513 28.7373L80.662 24.8115H83.1229L84.0824 28.7373C84.1166 28.8789 84.1605 29.1035 84.2143 29.4111C84.2729 29.7188 84.3241 30.0361 84.3681 30.3633C84.412 30.6855 84.4364 30.9395 84.4413 31.125H84.4999C84.5194 30.959 84.5536 30.7124 84.6024 30.3853C84.6513 30.0581 84.7074 29.7163 84.7709 29.3599C84.8393 28.9985 84.9076 28.6909 84.976 28.437L85.9574 24.8115H88.1474L85.789 33H83.3573ZM93.2995 24.6577C94.0563 24.6577 94.7082 24.8042 95.2551 25.0972C95.802 25.3853 96.2243 25.8052 96.5222 26.3569C96.82 26.9087 96.9689 27.5825 96.9689 28.3784V29.4624H91.6882C91.7126 30.0923 91.9006 30.5879 92.2521 30.9492C92.6086 31.3057 93.1018 31.4839 93.7316 31.4839C94.2541 31.4839 94.7326 31.4302 95.1672 31.3228C95.6018 31.2153 96.0485 31.0542 96.5075 30.8394V32.5679C96.1022 32.7681 95.6774 32.9146 95.2331 33.0073C94.7937 33.1001 94.259 33.1465 93.6291 33.1465C92.8088 33.1465 92.0812 32.9951 91.4465 32.6924C90.8166 32.3896 90.321 31.9282 89.9597 31.3081C89.6032 30.688 89.425 29.9067 89.425 28.9644C89.425 28.0073 89.5861 27.2114 89.9084 26.5767C90.2355 25.937 90.6896 25.4585 91.2707 25.1411C91.8518 24.8188 92.528 24.6577 93.2995 24.6577ZM93.3142 26.2471C92.8796 26.2471 92.5183 26.3862 92.2302 26.6646C91.947 26.9429 91.7834 27.3799 91.7395 27.9756H94.8742C94.8693 27.6436 94.8083 27.3481 94.6911 27.0894C94.5788 26.8306 94.4079 26.6255 94.1784 26.4741C93.9538 26.3228 93.6657 26.2471 93.3142 26.2471ZM103.806 24.6577C103.918 24.6577 104.047 24.665 104.194 24.6797C104.345 24.6895 104.467 24.7041 104.56 24.7236L104.392 26.8184C104.318 26.7939 104.213 26.7769 104.077 26.7671C103.945 26.7524 103.83 26.7451 103.732 26.7451C103.444 26.7451 103.164 26.7817 102.89 26.855C102.622 26.9282 102.38 27.0479 102.165 27.2139C101.95 27.375 101.779 27.5898 101.652 27.8584C101.53 28.1221 101.469 28.4468 101.469 28.8325V33H99.2354V24.8115H100.927L101.257 26.1885H101.367C101.528 25.9102 101.728 25.6562 101.967 25.4268C102.211 25.1924 102.487 25.0068 102.795 24.8701C103.107 24.7285 103.444 24.6577 103.806 24.6577ZM111.019 22.292H114.352C115.777 22.292 116.857 22.4922 117.589 22.8926C118.321 23.293 118.688 23.9961 118.688 25.002C118.688 25.4072 118.622 25.7734 118.49 26.1006C118.363 26.4277 118.177 26.6963 117.933 26.9062C117.689 27.1162 117.391 27.2529 117.04 27.3164V27.3896C117.396 27.4629 117.718 27.5898 118.006 27.7705C118.295 27.9463 118.524 28.2051 118.695 28.5469C118.871 28.8838 118.959 29.333 118.959 29.8945C118.959 30.5439 118.8 31.1006 118.483 31.5645C118.165 32.0283 117.711 32.3848 117.12 32.6338C116.534 32.8779 115.836 33 115.025 33H111.019V22.292ZM113.29 26.5327H114.608C115.267 26.5327 115.724 26.4302 115.978 26.2251C116.232 26.0151 116.358 25.7075 116.358 25.3022C116.358 24.8921 116.207 24.5991 115.904 24.4233C115.607 24.2427 115.133 24.1523 114.483 24.1523H113.29V26.5327ZM113.29 28.3345V31.125H114.769C115.453 31.125 115.929 30.9932 116.197 30.7295C116.466 30.4658 116.6 30.1118 116.6 29.6675C116.6 29.4038 116.542 29.1719 116.424 28.9717C116.307 28.7715 116.109 28.6152 115.831 28.5029C115.558 28.3906 115.179 28.3345 114.696 28.3345H113.29ZM123.605 33H121.371V21.6035H123.605V33ZM129.761 24.6431C130.86 24.6431 131.702 24.8823 132.288 25.3608C132.874 25.8394 133.167 26.5669 133.167 27.5435V33H131.607L131.175 31.8867H131.116C130.882 32.1797 130.642 32.4189 130.398 32.6045C130.154 32.79 129.873 32.9268 129.556 33.0146C129.238 33.1025 128.853 33.1465 128.399 33.1465C127.915 33.1465 127.481 33.0537 127.095 32.8682C126.714 32.6826 126.414 32.3994 126.194 32.0186C125.974 31.6328 125.864 31.1445 125.864 30.5537C125.864 29.6846 126.17 29.0449 126.78 28.6348C127.39 28.2197 128.306 27.9902 129.527 27.9463L130.947 27.9023V27.5435C130.947 27.1138 130.835 26.7988 130.611 26.5986C130.386 26.3984 130.073 26.2983 129.673 26.2983C129.278 26.2983 128.889 26.3545 128.508 26.4668C128.128 26.5791 127.747 26.7207 127.366 26.8916L126.626 25.3828C127.061 25.1533 127.547 24.9727 128.084 24.8408C128.626 24.709 129.185 24.6431 129.761 24.6431ZM130.947 29.2061L130.083 29.2354C129.361 29.2549 128.858 29.3843 128.574 29.6235C128.296 29.8628 128.157 30.1777 128.157 30.5684C128.157 30.9102 128.257 31.1543 128.457 31.3008C128.657 31.4424 128.919 31.5132 129.241 31.5132C129.719 31.5132 130.122 31.3716 130.449 31.0884C130.781 30.8052 130.947 30.4023 130.947 29.8799V29.2061ZM139.249 33.1465C138.438 33.1465 137.748 33 137.176 32.707C136.605 32.4092 136.17 31.9502 135.873 31.3301C135.575 30.71 135.426 29.9165 135.426 28.9497C135.426 27.9487 135.594 27.1333 135.931 26.5034C136.273 25.8687 136.744 25.4023 137.345 25.1045C137.95 24.8066 138.651 24.6577 139.447 24.6577C140.013 24.6577 140.501 24.7139 140.912 24.8262C141.327 24.9336 141.688 25.063 141.996 25.2144L141.336 26.9429C140.985 26.8013 140.658 26.6865 140.355 26.5986C140.052 26.5059 139.75 26.4595 139.447 26.4595C139.056 26.4595 138.731 26.5522 138.473 26.7378C138.214 26.9185 138.021 27.1919 137.894 27.5581C137.767 27.9243 137.704 28.3833 137.704 28.9351C137.704 29.4771 137.772 29.9263 137.909 30.2827C138.045 30.6392 138.243 30.9053 138.502 31.0811C138.761 31.252 139.076 31.3374 139.447 31.3374C139.911 31.3374 140.323 31.2764 140.685 31.1543C141.046 31.0273 141.397 30.8516 141.739 30.627V32.5386C141.397 32.7534 141.039 32.9072 140.663 33C140.292 33.0977 139.82 33.1465 139.249 33.1465ZM146.327 21.6035V26.7012C146.327 27.0088 146.315 27.3164 146.291 27.624C146.266 27.9316 146.24 28.2393 146.21 28.5469H146.24C146.391 28.332 146.545 28.1196 146.701 27.9097C146.862 27.6997 147.033 27.4971 147.214 27.3018L149.506 24.8115H152.026L148.774 28.3638L152.223 33H149.645L147.287 29.6821L146.327 30.4512V33H144.094V21.6035H146.327Z" fill="white"/>
</svg>
