<svg width="204" height="54" viewBox="0 0 204 54" fill="none" xmlns="http://www.w3.org/2000/svg">
<rect width="204" height="54" fill="#E32449"/>
<path d="M62.5815 33H60.3477V22.292H66.4854V24.1523H62.5815V26.9136H66.2144V28.7666H62.5815V33ZM71.0882 33H68.8543V21.6035H71.0882V33ZM81.3307 28.8911C81.3307 29.5747 81.2379 30.1802 81.0523 30.7075C80.8717 31.2349 80.6056 31.6816 80.254 32.0479C79.9073 32.4092 79.4874 32.6826 78.9942 32.8682C78.506 33.0537 77.9542 33.1465 77.339 33.1465C76.7628 33.1465 76.233 33.0537 75.7496 32.8682C75.2711 32.6826 74.8536 32.4092 74.4972 32.0479C74.1456 31.6816 73.8722 31.2349 73.6769 30.7075C73.4864 30.1802 73.3912 29.5747 73.3912 28.8911C73.3912 27.9829 73.5523 27.2139 73.8746 26.584C74.1969 25.9541 74.6559 25.4756 75.2516 25.1484C75.8473 24.8213 76.5577 24.6577 77.3829 24.6577C78.1495 24.6577 78.8282 24.8213 79.419 25.1484C80.0147 25.4756 80.4811 25.9541 80.818 26.584C81.1598 27.2139 81.3307 27.9829 81.3307 28.8911ZM75.669 28.8911C75.669 29.4282 75.7276 29.8799 75.8448 30.2461C75.962 30.6123 76.1451 30.8882 76.3941 31.0737C76.6432 31.2593 76.9679 31.3521 77.3683 31.3521C77.7638 31.3521 78.0836 31.2593 78.3277 31.0737C78.5768 30.8882 78.7574 30.6123 78.8697 30.2461C78.9869 29.8799 79.0455 29.4282 79.0455 28.8911C79.0455 28.3491 78.9869 27.8999 78.8697 27.5435C78.7574 27.1821 78.5768 26.9111 78.3277 26.7305C78.0787 26.5498 77.754 26.4595 77.3536 26.4595C76.7628 26.4595 76.3331 26.6621 76.0646 27.0674C75.8009 27.4727 75.669 28.0806 75.669 28.8911ZM90.3573 33L89.7274 30.1362C89.6933 29.9653 89.6371 29.7139 89.559 29.3818C89.4809 29.0449 89.3954 28.686 89.3026 28.3052C89.2147 27.9194 89.1317 27.563 89.0536 27.2358C88.9804 26.9087 88.9267 26.6694 88.8925 26.5181H88.8266C88.7924 26.6694 88.7387 26.9087 88.6654 27.2358C88.5922 27.563 88.5092 27.9194 88.4164 28.3052C88.3285 28.6909 88.2455 29.0547 88.1674 29.3965C88.0893 29.7334 88.0307 29.9897 87.9916 30.1655L87.3324 33H84.9301L82.601 24.8115H84.8275L85.7724 28.437C85.8358 28.6909 85.8969 28.9937 85.9555 29.3452C86.0141 29.6919 86.0653 30.0288 86.1093 30.356C86.1581 30.6782 86.1947 30.9346 86.2191 31.125H86.2777C86.2875 30.9834 86.307 30.7954 86.3363 30.561C86.3705 30.3267 86.4071 30.085 86.4462 29.8359C86.4901 29.582 86.5292 29.355 86.5634 29.1548C86.6024 28.9497 86.6317 28.8105 86.6513 28.7373L87.662 24.8115H90.1229L91.0824 28.7373C91.1166 28.8789 91.1605 29.1035 91.2143 29.4111C91.2729 29.7188 91.3241 30.0361 91.3681 30.3633C91.412 30.6855 91.4364 30.9395 91.4413 31.125H91.4999C91.5194 30.959 91.5536 30.7124 91.6024 30.3853C91.6513 30.0581 91.7074 29.7163 91.7709 29.3599C91.8393 28.9985 91.9076 28.6909 91.976 28.437L92.9574 24.8115H95.1474L92.789 33H90.3573ZM100.3 24.6577C101.056 24.6577 101.708 24.8042 102.255 25.0972C102.802 25.3853 103.224 25.8052 103.522 26.3569C103.82 26.9087 103.969 27.5825 103.969 28.3784V29.4624H98.6882C98.7126 30.0923 98.9006 30.5879 99.2521 30.9492C99.6086 31.3057 100.102 31.4839 100.732 31.4839C101.254 31.4839 101.733 31.4302 102.167 31.3228C102.602 31.2153 103.049 31.0542 103.508 30.8394V32.5679C103.102 32.7681 102.677 32.9146 102.233 33.0073C101.794 33.1001 101.259 33.1465 100.629 33.1465C99.8088 33.1465 99.0812 32.9951 98.4465 32.6924C97.8166 32.3896 97.321 31.9282 96.9597 31.3081C96.6032 30.688 96.425 29.9067 96.425 28.9644C96.425 28.0073 96.5861 27.2114 96.9084 26.5767C97.2355 25.937 97.6896 25.4585 98.2707 25.1411C98.8518 24.8188 99.528 24.6577 100.3 24.6577ZM100.314 26.2471C99.8796 26.2471 99.5183 26.3862 99.2302 26.6646C98.947 26.9429 98.7834 27.3799 98.7395 27.9756H101.874C101.869 27.6436 101.808 27.3481 101.691 27.0894C101.579 26.8306 101.408 26.6255 101.178 26.4741C100.954 26.3228 100.666 26.2471 100.314 26.2471ZM110.806 24.6577C110.918 24.6577 111.047 24.665 111.194 24.6797C111.345 24.6895 111.467 24.7041 111.56 24.7236L111.392 26.8184C111.318 26.7939 111.213 26.7769 111.077 26.7671C110.945 26.7524 110.83 26.7451 110.732 26.7451C110.444 26.7451 110.164 26.7817 109.89 26.855C109.622 26.9282 109.38 27.0479 109.165 27.2139C108.95 27.375 108.779 27.5898 108.652 27.8584C108.53 28.1221 108.469 28.4468 108.469 28.8325V33H106.235V24.8115H107.927L108.257 26.1885H108.367C108.528 25.9102 108.728 25.6562 108.967 25.4268C109.211 25.1924 109.487 25.0068 109.795 24.8701C110.107 24.7285 110.444 24.6577 110.806 24.6577ZM121.139 22.292C122.111 22.292 122.912 22.4092 123.542 22.6436C124.176 22.8779 124.648 23.2319 124.955 23.7056C125.263 24.1792 125.417 24.7773 125.417 25.5C125.417 25.9883 125.324 26.4155 125.138 26.7817C124.953 27.1479 124.709 27.458 124.406 27.7119C124.103 27.9658 123.776 28.1733 123.424 28.3345L126.574 33H124.054L121.498 28.8911H120.29V33H118.019V22.292H121.139ZM120.978 24.1523H120.29V27.0454H121.022C121.774 27.0454 122.311 26.9209 122.633 26.6719C122.961 26.418 123.124 26.0469 123.124 25.5586C123.124 25.0508 122.948 24.6895 122.597 24.4746C122.25 24.2598 121.711 24.1523 120.978 24.1523ZM131.572 24.6577C132.329 24.6577 132.981 24.8042 133.528 25.0972C134.075 25.3853 134.497 25.8052 134.795 26.3569C135.093 26.9087 135.242 27.5825 135.242 28.3784V29.4624H129.961C129.985 30.0923 130.173 30.5879 130.525 30.9492C130.881 31.3057 131.374 31.4839 132.004 31.4839C132.527 31.4839 133.005 31.4302 133.44 31.3228C133.874 31.2153 134.321 31.0542 134.78 30.8394V32.5679C134.375 32.7681 133.95 32.9146 133.506 33.0073C133.066 33.1001 132.532 33.1465 131.902 33.1465C131.081 33.1465 130.354 32.9951 129.719 32.6924C129.089 32.3896 128.594 31.9282 128.232 31.3081C127.876 30.688 127.698 29.9067 127.698 28.9644C127.698 28.0073 127.859 27.2114 128.181 26.5767C128.508 25.937 128.962 25.4585 129.543 25.1411C130.124 24.8188 130.801 24.6577 131.572 24.6577ZM131.587 26.2471C131.152 26.2471 130.791 26.3862 130.503 26.6646C130.22 26.9429 130.056 27.3799 130.012 27.9756H133.147C133.142 27.6436 133.081 27.3481 132.964 27.0894C132.851 26.8306 132.681 26.6255 132.451 26.4741C132.226 26.3228 131.938 26.2471 131.587 26.2471ZM140.101 33.1465C139.188 33.1465 138.443 32.79 137.867 32.0771C137.296 31.3594 137.01 30.3071 137.01 28.9204C137.01 27.519 137.3 26.4595 137.882 25.7417C138.463 25.019 139.222 24.6577 140.159 24.6577C140.55 24.6577 140.894 24.7114 141.192 24.8188C141.49 24.9263 141.746 25.0703 141.961 25.251C142.181 25.4316 142.366 25.6343 142.518 25.8589H142.591C142.562 25.7026 142.525 25.4731 142.481 25.1704C142.442 24.8628 142.423 24.5479 142.423 24.2256V21.6035H144.664V33H142.95L142.518 31.938H142.423C142.281 32.1626 142.103 32.3677 141.888 32.5532C141.678 32.7339 141.426 32.8779 141.133 32.9854C140.841 33.0928 140.496 33.1465 140.101 33.1465ZM140.884 31.3667C141.495 31.3667 141.925 31.186 142.174 30.8247C142.427 30.4585 142.562 29.9092 142.576 29.1768V28.9351C142.576 28.1392 142.454 27.5312 142.21 27.1113C141.966 26.6865 141.512 26.4741 140.848 26.4741C140.355 26.4741 139.969 26.6865 139.691 27.1113C139.412 27.5361 139.273 28.1489 139.273 28.9497C139.273 29.7505 139.412 30.3535 139.691 30.7588C139.974 31.1641 140.372 31.3667 140.884 31.3667Z" fill="white"/>
</svg>
