<svg width="87" height="41" viewBox="0 0 87 41" fill="none" xmlns="http://www.w3.org/2000/svg">
<path d="M70.9072 19.5264C70.9072 19.8454 70.8454 20.1221 70.7217 20.3564C70.598 20.5908 70.4255 20.7829 70.2041 20.9326C69.9827 21.0791 69.7223 21.1816 69.4229 21.2402V21.2793C69.9893 21.3509 70.4141 21.5332 70.6973 21.8262C70.9837 22.1191 71.127 22.5033 71.127 22.9785C71.127 23.3919 71.0293 23.7581 70.834 24.0771C70.6419 24.3962 70.3457 24.6468 69.9453 24.8291C69.5482 25.0081 69.0387 25.0977 68.417 25.0977C68.0394 25.0977 67.6895 25.0667 67.3672 25.0049C67.0482 24.9463 66.7422 24.847 66.4492 24.707V23.9453C66.7454 24.0918 67.0677 24.2074 67.416 24.292C67.7643 24.3734 68.1012 24.4141 68.4268 24.4141C69.0778 24.4141 69.5482 24.2855 69.8379 24.0283C70.1276 23.7679 70.2725 23.4131 70.2725 22.9639C70.2725 22.6546 70.1911 22.4056 70.0283 22.2168C69.8688 22.0247 69.6377 21.8848 69.335 21.7969C69.0355 21.7057 68.6742 21.6602 68.251 21.6602H67.5381V20.9668H68.2559C68.6432 20.9668 68.972 20.9098 69.2422 20.7959C69.5124 20.682 69.7174 20.5225 69.8574 20.3174C70.0007 20.109 70.0723 19.8633 70.0723 19.5801C70.0723 19.2188 69.9518 18.9404 69.7109 18.7451C69.4701 18.5465 69.1429 18.4473 68.7295 18.4473C68.4756 18.4473 68.2445 18.4733 68.0361 18.5254C67.8278 18.5775 67.6325 18.6491 67.4502 18.7402C67.2679 18.8314 67.0856 18.9372 66.9033 19.0576L66.4932 18.501C66.7536 18.2992 67.071 18.125 67.4453 17.9785C67.8197 17.832 68.2445 17.7588 68.7197 17.7588C69.4489 17.7588 69.9958 17.9248 70.3604 18.2568C70.7249 18.5889 70.9072 19.012 70.9072 19.5264ZM72.7551 24.4922C72.7551 24.2643 72.8104 24.1032 72.9211 24.0088C73.0318 23.9111 73.1669 23.8623 73.3264 23.8623C73.4924 23.8623 73.6324 23.9111 73.7463 24.0088C73.8602 24.1032 73.9172 24.2643 73.9172 24.4922C73.9172 24.7168 73.8602 24.8812 73.7463 24.9854C73.6324 25.0863 73.4924 25.1367 73.3264 25.1367C73.1669 25.1367 73.0318 25.0863 72.9211 24.9854C72.8104 24.8812 72.7551 24.7168 72.7551 24.4922ZM80.1596 21.4209C80.1596 22.0003 80.1156 22.5179 80.0277 22.9736C79.9398 23.4294 79.8015 23.8151 79.6127 24.1309C79.4239 24.4466 79.1798 24.6875 78.8803 24.8535C78.5808 25.0163 78.2211 25.0977 77.8012 25.0977C77.2706 25.0977 76.8311 24.9528 76.4828 24.6631C76.1378 24.3734 75.879 23.9551 75.7064 23.4082C75.5372 22.8581 75.4525 22.1956 75.4525 21.4209C75.4525 20.6592 75.529 20.0049 75.682 19.458C75.8383 18.9079 76.0889 18.4863 76.434 18.1934C76.779 17.8971 77.2348 17.749 77.8012 17.749C78.3383 17.749 78.781 17.8955 79.1293 18.1885C79.4776 18.4782 79.7364 18.8981 79.9057 19.4482C80.0749 19.9951 80.1596 20.6527 80.1596 21.4209ZM76.268 21.4209C76.268 22.085 76.3184 22.6383 76.4193 23.0811C76.5202 23.5238 76.683 23.8558 76.9076 24.0771C77.1355 24.2952 77.4333 24.4043 77.8012 24.4043C78.169 24.4043 78.4652 24.2952 78.6898 24.0771C78.9177 23.859 79.0821 23.5286 79.183 23.0859C79.2872 22.6432 79.3393 22.0882 79.3393 21.4209C79.3393 20.7666 79.2888 20.2197 79.1879 19.7803C79.087 19.3376 78.9242 19.0055 78.6996 18.7842C78.475 18.5596 78.1755 18.4473 77.8012 18.4473C77.4268 18.4473 77.1273 18.5596 76.9027 18.7842C76.6781 19.0055 76.5154 19.3376 76.4145 19.7803C76.3168 20.2197 76.268 20.7666 76.268 21.4209ZM86.7145 25H85.7721L83.8434 21.8555L81.8854 25H81.0016L83.3795 21.2793L81.1676 17.8613H82.0904L83.8727 20.708L85.6646 17.8613H86.5436L84.3365 21.2646L86.7145 25Z" fill="#2C2C2C"/>
<path d="M52 1H59V40H52" stroke="#231815" stroke-width="0.5"/>
<g clip-path="url(#clip0_65_1228)">
<path d="M15.4264 11.626H23.0301V12.6404H19.8502V25.3288H21.0454V22.9321C21.0454 22.9321 20.9996 20.8143 21.6338 20.0297C22.1399 19.4045 22.5941 19.0521 23.646 18.905V20.088C22.9661 20.1891 22.7252 20.4098 22.4783 20.75C22.1825 21.1515 22.1673 21.884 22.1582 22.5092V25.2859H23.2344V26.3402H22.1582V29.1752H21.0271V26.4291H15.3594V25.3319H18.7618V12.6435H15.3929L15.4295 11.629L15.4264 11.626Z" fill="#231815"/>
<path d="M19.5005 6.18555C11.6925 6.18555 5.36328 12.5481 5.36328 20.3972C5.36328 28.2462 11.6925 34.6088 19.5005 34.6088C27.3084 34.6088 33.6377 28.2462 33.6377 20.3972C33.6377 12.5481 27.3084 6.18555 19.5005 6.18555ZM19.5005 34.3054C11.8602 34.3054 5.66816 28.0807 5.66816 20.4002C5.66816 12.7198 11.8602 6.49203 19.5005 6.49203C27.1407 6.49203 33.3328 12.7167 33.3328 20.3972C33.3328 28.0777 27.1407 34.3023 19.5005 34.3023V34.3054Z" fill="#231815"/>
<path d="M19.5 1C8.72866 1 0 9.73171 0 20.5015C0 31.2714 8.72866 40 19.5 40C30.2713 40 39 31.2714 39 20.5015C39 9.73171 30.2683 1 19.5 1ZM19.5 39.5801C8.96341 39.5801 0.420732 31.0384 0.420732 20.5015C0.420732 9.96464 8.96341 1.41988 19.5 1.41988C30.0366 1.41988 38.5793 9.96157 38.5793 20.4985C38.5793 31.0354 30.0366 39.5771 19.5 39.5771V39.5801Z" fill="#231815"/>
<path d="M4.78044 10.2009C4.78044 10.2009 4.78959 10.1794 4.79264 10.1672C4.79873 10.1519 4.80483 10.1396 4.81398 10.1273C4.82922 10.1059 4.85361 10.0752 4.8902 10.0323C4.93593 9.98022 4.96642 9.95264 4.98471 9.95264C4.9969 9.95264 5.0091 9.97103 5.02434 10.0078C5.03044 10.0231 5.03654 10.0323 5.03959 10.0415C5.04569 10.0568 5.05483 10.0691 5.06398 10.0814C5.14934 10.1978 5.24081 10.3265 5.33532 10.4675C5.42678 10.6085 5.48776 10.7035 5.5152 10.7556L5.66459 10.5104C5.67983 10.4829 5.68898 10.4553 5.69203 10.4369C5.69508 10.4246 5.69812 10.4093 5.69812 10.3909C5.69812 10.3664 5.70422 10.3419 5.71337 10.3204C5.72861 10.2867 5.76215 10.2377 5.81093 10.1733C5.85056 10.1212 5.8902 10.0875 5.92678 10.0691C5.95727 10.0538 5.98471 10.0538 6.00605 10.0691C6.02434 10.0814 6.03349 10.1028 6.03349 10.1335C6.03349 10.1672 6.02129 10.2009 5.9969 10.2346C5.878 10.3909 5.7469 10.5779 5.60056 10.7924C5.46947 10.9855 5.37495 11.1295 5.31703 11.2276C5.46337 11.3257 5.57922 11.4115 5.66459 11.482C5.753 11.5494 5.82008 11.6107 5.86581 11.6659L6.07008 11.3379L6.10666 11.2613C6.11581 11.2337 6.128 11.2123 6.13715 11.197C6.15239 11.1694 6.17678 11.1357 6.21032 11.0958C6.24995 11.0468 6.28044 11.0253 6.30178 11.0284C6.31398 11.0284 6.32617 11.0468 6.33837 11.0805C6.34447 11.0928 6.34751 11.0989 6.35056 11.105C6.35361 11.1142 6.35971 11.1203 6.36581 11.1234L6.78349 11.4176C6.84751 11.4636 6.89934 11.5065 6.93898 11.5433C6.98166 11.5862 7.01825 11.6291 7.04873 11.6689C7.09447 11.7456 7.10666 11.7946 7.08227 11.813C7.06398 11.8314 7.02129 11.8191 6.95727 11.7731L6.21947 11.2705C6.16459 11.3533 6.07617 11.4912 5.95422 11.6843C5.82008 11.9049 5.71642 12.0858 5.63715 12.2329C5.62495 12.2543 5.61581 12.2758 5.60971 12.2972C5.60666 12.3095 5.60361 12.3279 5.59751 12.3463C5.59142 12.3892 5.57312 12.4229 5.54873 12.4474C5.5091 12.4811 5.42678 12.5271 5.29873 12.5915C5.24995 12.6098 5.22251 12.6129 5.21642 12.5976C5.21032 12.5853 5.22556 12.5608 5.26825 12.521C5.35056 12.4382 5.44507 12.3187 5.55178 12.1593C5.6341 12.0398 5.70727 11.9203 5.77434 11.8007L5.19812 11.4084C5.10056 11.5617 5.0152 11.6996 4.94203 11.8222C4.85666 11.9632 4.80788 12.052 4.79568 12.0888C4.78654 12.1072 4.78044 12.1225 4.77739 12.1409C4.77739 12.1501 4.77434 12.1654 4.76825 12.1808C4.7591 12.2237 4.74081 12.2605 4.71032 12.2911C4.66459 12.334 4.56703 12.3984 4.41764 12.4873C4.3719 12.5056 4.34447 12.5118 4.33532 12.4995C4.32008 12.4903 4.33532 12.4597 4.38715 12.4076C4.53959 12.2421 4.72556 11.9908 4.94508 11.6567C5.06703 11.4667 5.22861 11.2092 5.42069 10.8843L5.45117 10.8384C5.39934 10.7618 5.32922 10.6729 5.23776 10.5717C5.128 10.4491 5.00605 10.3327 4.8719 10.2162C4.81703 10.2928 4.71642 10.4461 4.56703 10.679C4.41764 10.915 4.30178 11.105 4.21337 11.2552C4.20117 11.2766 4.19203 11.2981 4.18593 11.3196C4.18288 11.3318 4.17983 11.3502 4.17373 11.3717C4.16154 11.4176 4.14325 11.4513 4.11886 11.4759C4.08227 11.5065 4.003 11.5525 3.8841 11.6138C3.84142 11.6352 3.81398 11.6414 3.79873 11.6352C3.78349 11.6291 3.79873 11.6015 3.84142 11.5525C3.8902 11.5065 3.96337 11.4207 4.05788 11.2889C4.17678 11.1295 4.30483 10.9426 4.44203 10.725L4.73776 10.2561C4.74995 10.2346 4.7591 10.2162 4.76215 10.2009H4.78044Z" fill="#231815"/>
<path d="M7.84791 7.77361L7.61315 8.01267C7.59791 8.02799 7.58876 8.04331 7.57961 8.05864C7.57352 8.06477 7.57047 8.07703 7.56437 8.08929C7.55522 8.11381 7.53998 8.13219 7.51864 8.14445C7.48815 8.16284 7.42108 8.18736 7.32352 8.21801C7.25644 8.2272 7.21681 8.2272 7.21071 8.21801C7.20157 8.20575 7.229 8.18123 7.28693 8.14445C7.3601 8.09542 7.45766 8.0188 7.57961 7.91153C7.68632 7.81652 7.77778 7.7307 7.854 7.65102L7.88449 7.59891C7.89059 7.58359 7.89974 7.56826 7.90888 7.55601C7.92718 7.53762 7.96681 7.50697 8.02169 7.46713C8.06437 7.43341 8.09181 7.42115 8.10705 7.43035C8.1162 7.43648 8.1223 7.45487 8.12535 7.48245L8.13144 7.50697C8.17108 7.64182 8.19852 7.75828 8.21986 7.85942C8.2412 7.96976 8.25644 8.09235 8.27169 8.2272C8.3723 8.25785 8.45766 8.27624 8.52778 8.27931C8.57047 8.28237 8.6162 8.28237 8.66803 8.27931C8.69852 8.27931 8.71986 8.27624 8.7351 8.27931C8.75949 8.27931 8.78388 8.2885 8.81132 8.30076C8.88754 8.33447 8.94852 8.36819 8.99425 8.40496C9.03083 8.43561 9.05217 8.46013 9.06437 8.48772C9.07047 8.50917 9.06742 8.52756 9.05218 8.53982C9.03693 8.55208 9.02169 8.55821 9.00035 8.55208C8.94852 8.54595 8.88144 8.53062 8.79913 8.50304C8.75035 8.48771 8.67413 8.4632 8.57352 8.42335C8.4973 8.39577 8.44242 8.37432 8.40888 8.36206C8.35096 8.34367 8.30522 8.32834 8.27169 8.32221C8.27169 8.50304 8.25644 8.68693 8.22596 8.87082C8.19852 9.03938 8.15888 9.2294 8.104 9.43475C8.08876 9.48685 8.07352 9.51137 8.05827 9.5083C8.04608 9.5083 8.04303 9.47459 8.05522 9.41942C8.09791 9.23553 8.1223 8.99954 8.12839 8.71145C8.13449 8.2885 8.07657 7.94217 7.95766 7.67553L7.90888 7.72151L7.84791 7.7828V7.77361ZM8.16803 6.98288C8.1162 6.98901 8.04608 7.00127 7.96376 7.02579C7.90888 7.04724 7.87535 7.05031 7.8723 7.03498C7.8662 7.0166 7.88754 6.98901 7.93632 6.9461C7.9851 6.90933 8.03693 6.87868 8.08876 6.85109C8.12839 6.82964 8.18022 6.80819 8.23815 6.78367C8.28693 6.76528 8.32047 6.75915 8.33876 6.76528C8.35096 6.76528 8.36315 6.77754 8.37535 6.79899C8.38144 6.81125 8.38754 6.81738 8.39059 6.82351C8.39669 6.83577 8.40583 6.84496 8.41498 6.85416L9.55522 8.21188C9.6162 8.29157 9.66498 8.36206 9.70157 8.42029C9.72596 8.46013 9.75035 8.50304 9.77474 8.54901C9.80218 8.63176 9.80218 8.67773 9.76864 8.6808C9.71681 8.68386 9.64364 8.6287 9.54608 8.5153L8.84486 7.68473L8.67108 7.86249C8.67108 7.86249 8.64669 7.89007 8.64059 7.9054C8.63449 7.91459 8.62839 7.92379 8.6223 7.93911C8.61315 7.96363 8.60096 7.97895 8.58571 7.98815C8.56132 8.00347 8.51254 8.0188 8.43937 8.04025C8.37839 8.05557 8.34791 8.05557 8.34486 8.04331C8.34181 8.02799 8.36925 8.00347 8.42413 7.96363C8.479 7.91766 8.54303 7.85636 8.6162 7.78587C8.68937 7.71538 8.7473 7.65715 8.78388 7.61424L8.25949 6.99208C8.25949 6.99208 8.21681 6.97982 8.16193 6.98595L8.16803 6.98288ZM8.38754 6.42202C8.34181 6.43121 8.26559 6.4496 8.15583 6.48025C8.09181 6.50477 8.05827 6.50783 8.05522 6.48944C8.04913 6.47412 8.06742 6.44347 8.1101 6.40056C8.15888 6.36379 8.21986 6.32394 8.29303 6.28716C8.33876 6.26265 8.39364 6.23813 8.46681 6.21054C8.51254 6.19522 8.54303 6.18909 8.56132 6.19522C8.57352 6.19522 8.59181 6.21361 8.6101 6.24426L8.63754 6.28103L10.1284 8.05557C10.1955 8.13526 10.2503 8.20881 10.2869 8.27318C10.3113 8.31302 10.3388 8.36512 10.3662 8.43255L10.3723 8.43868C10.4028 8.51836 10.4028 8.56434 10.3723 8.57659C10.3357 8.58579 10.2747 8.53982 10.1863 8.43561L8.49425 6.42815C8.49425 6.42815 8.44547 6.41282 8.39059 6.42508L8.38754 6.42202Z" fill="#231815"/>
<path d="M11.5368 4.479C11.5368 4.479 11.549 4.46674 11.552 4.46061C11.5581 4.45448 11.5642 4.44529 11.5734 4.43916C11.5917 4.4269 11.6222 4.41464 11.6648 4.39319C11.7533 4.35641 11.8081 4.34721 11.8264 4.3656C11.8356 4.3748 11.8356 4.40238 11.8234 4.45142C11.8203 4.46368 11.8173 4.47287 11.8142 4.479C11.8142 4.49126 11.8142 4.50352 11.8142 4.50965C11.8386 4.70886 11.8539 4.86824 11.86 4.9847C11.8691 5.16246 11.86 5.30038 11.8386 5.40152C11.8173 5.45975 11.799 5.48733 11.7837 5.4904C11.7685 5.4904 11.7563 5.46588 11.7533 5.41378C11.7472 5.30344 11.7319 5.17165 11.7045 5.01535C11.674 4.82839 11.6405 4.66596 11.5978 4.53417L11.3234 4.70273C11.3081 4.71193 11.2929 4.72419 11.2837 4.73645C11.2776 4.74258 11.2685 4.74871 11.2594 4.76097C11.238 4.78242 11.2167 4.79774 11.1953 4.80387C11.1587 4.81307 11.0947 4.81613 11.0033 4.81613C10.9697 4.81307 10.9514 4.80387 10.9514 4.79468C10.9484 4.77936 10.9728 4.76403 11.0246 4.74564C11.0856 4.71806 11.1435 4.69048 11.1984 4.66596C11.2685 4.63224 11.3325 4.59853 11.3996 4.56482L11.488 4.51884C11.5094 4.50352 11.5246 4.49126 11.5337 4.48207L11.5368 4.479ZM12.2167 4.93873C12.1892 4.9326 12.1465 4.9326 12.0947 4.93873C12.049 4.94486 12.0215 4.93873 12.0185 4.9234C12.0124 4.90808 12.0307 4.88969 12.0764 4.86824C12.2197 4.80694 12.3142 4.77629 12.363 4.77629C12.3905 4.77629 12.4118 4.79468 12.4209 4.83146L12.4331 4.85904L12.6039 5.26053C12.7106 5.20843 12.802 5.16246 12.8783 5.11955C12.9697 5.07358 13.0734 5.01535 13.1801 4.94486C13.2167 4.9234 13.2472 4.90195 13.2715 4.88049C13.2837 4.86824 13.299 4.85598 13.3173 4.83452C13.3417 4.81 13.3661 4.79161 13.3905 4.77629C13.4331 4.75484 13.5002 4.72725 13.5917 4.69661C13.6435 4.67822 13.6892 4.67209 13.7258 4.67822C13.7594 4.68128 13.7837 4.69354 13.7929 4.71806C13.802 4.73645 13.7929 4.76097 13.7746 4.78549C13.7502 4.81307 13.7167 4.83452 13.6679 4.85598C13.4392 4.93873 13.1405 5.07051 12.7746 5.2544C12.4545 5.41378 12.1526 5.57008 11.863 5.71719C11.7776 5.78156 11.7258 5.82446 11.7106 5.83979C11.7014 5.84898 11.6892 5.86124 11.674 5.87657C11.6435 5.91641 11.61 5.94093 11.5703 5.95319C11.5124 5.96545 11.4057 5.96851 11.2472 5.96545C11.1892 5.95932 11.1618 5.95012 11.1648 5.93173C11.1648 5.91641 11.2014 5.89802 11.2685 5.87657C11.3935 5.83672 11.5551 5.7693 11.7533 5.68042C11.9209 5.60073 12.1465 5.48733 12.4301 5.34022L12.2594 4.96325C12.2594 4.96325 12.235 4.94179 12.2075 4.93566L12.2167 4.93873ZM13.302 5.7601C13.302 5.7601 13.3264 5.73558 13.3417 5.71719C13.363 5.69268 13.3844 5.67429 13.4026 5.66203C13.4362 5.64057 13.488 5.61605 13.5612 5.59154C13.613 5.57315 13.6587 5.56702 13.6923 5.57315C13.7228 5.57928 13.7411 5.5946 13.7472 5.61606C13.7533 5.63444 13.7472 5.6559 13.7228 5.68042C13.7014 5.70494 13.6709 5.72332 13.6283 5.73558C13.5642 5.75704 13.4392 5.8122 13.2533 5.90108C13.1069 5.96851 12.9819 6.02981 12.8783 6.08497C12.9179 6.10643 12.9423 6.12482 12.9514 6.14014C12.9545 6.14934 12.9575 6.16466 12.9514 6.18611V6.20757C13.0612 6.21983 13.1557 6.23209 13.235 6.23822C13.302 6.24435 13.3691 6.25048 13.4331 6.25048C13.4514 6.25048 13.4728 6.25048 13.4941 6.24741C13.5063 6.24741 13.5246 6.24128 13.549 6.23515C13.6069 6.22289 13.6587 6.21983 13.7014 6.22596C13.7776 6.22902 13.8813 6.24741 14.0094 6.28419C14.0703 6.30258 14.0978 6.33936 14.0886 6.39146C14.0764 6.4405 14.0337 6.45888 13.9575 6.44356L13.5947 6.38533C13.4575 6.36387 13.3539 6.34549 13.2776 6.33016C13.1526 6.30871 13.0398 6.29032 12.9423 6.27806C12.8661 6.48953 12.7746 6.67036 12.6709 6.82666C12.5612 6.98604 12.4148 7.14541 12.235 7.30478C12.1953 7.33849 12.1709 7.35075 12.1679 7.34156C12.1648 7.33236 12.1801 7.30478 12.2228 7.25881C12.3569 7.10556 12.4667 6.94619 12.552 6.78376C12.6374 6.61519 12.6984 6.44049 12.735 6.25354C12.7319 6.22596 12.7258 6.2045 12.7167 6.19837C12.7045 6.18305 12.677 6.18918 12.6405 6.21063L12.3203 6.39452C12.3203 6.39452 12.2959 6.41291 12.2868 6.42517C12.2807 6.4313 12.2715 6.4405 12.2594 6.44969C12.238 6.47727 12.2136 6.49566 12.1831 6.50486C12.1344 6.51712 12.0429 6.52325 11.9087 6.52018C11.8569 6.51405 11.8295 6.50486 11.8264 6.4926C11.8203 6.48034 11.8417 6.46808 11.8905 6.45275C12.0155 6.41291 12.1496 6.35774 12.2929 6.29032C12.3844 6.24741 12.5276 6.17692 12.7258 6.07578L12.7898 6.04207L13.2258 5.81833C13.2563 5.80301 13.2807 5.78462 13.299 5.76317L13.302 5.7601ZM12.6435 3.96411C12.6435 3.96411 12.6496 3.95492 12.6557 3.94879C12.6679 3.9304 12.6801 3.91814 12.6953 3.90894C12.7167 3.89055 12.7563 3.87217 12.8081 3.85378C12.8844 3.82313 12.9301 3.81087 12.9484 3.81393C12.9606 3.817 12.9667 3.83845 12.9606 3.87216C12.9606 3.89055 12.9606 3.90281 12.9606 3.91201C12.9606 3.9304 12.9606 3.95185 12.9667 3.97024V4.01315C12.9911 4.2093 13.0063 4.35334 13.0094 4.44529C13.0185 4.5924 13.0155 4.7058 13.0002 4.79161C12.985 4.85904 12.9667 4.89275 12.9484 4.89582C12.9331 4.89582 12.9209 4.86517 12.9179 4.80387C12.9026 4.69354 12.8813 4.57095 12.8539 4.42996C12.8203 4.27366 12.7837 4.12961 12.7411 4.00395L12.4667 4.15106L12.4331 4.17252L12.3752 4.22462C12.3508 4.24914 12.3295 4.26446 12.3051 4.27059C12.2685 4.27979 12.2014 4.28592 12.1039 4.28898C12.0703 4.28898 12.0551 4.27979 12.0551 4.27059C12.0551 4.26446 12.0764 4.24914 12.1191 4.23075C12.1679 4.2093 12.2319 4.18171 12.3142 4.14187C12.3722 4.11429 12.4484 4.07444 12.549 4.02234L12.6283 3.97943C12.6283 3.97943 12.6405 3.97024 12.6465 3.96411H12.6435ZM12.4392 5.92254C12.4026 5.91947 12.3447 5.91028 12.2685 5.89495C12.2319 5.88883 12.2167 5.8827 12.2197 5.87044C12.2197 5.85818 12.2441 5.84592 12.299 5.83059C12.3661 5.80914 12.4606 5.77236 12.5886 5.72026C12.6801 5.67735 12.7868 5.63138 12.8996 5.57928C12.9179 5.57008 12.9392 5.57008 12.9636 5.57928C12.985 5.58541 12.9972 5.60073 13.0063 5.61606C13.0155 5.63444 13.0124 5.6559 12.9972 5.68042C12.9789 5.70494 12.9484 5.72945 12.9057 5.75397L12.5734 5.91334C12.5368 5.92254 12.4941 5.9256 12.4392 5.92254Z" fill="#231815"/>
<path d="M16.3508 3.51951C16.3538 3.49192 16.3447 3.46434 16.3173 3.43676C16.2868 3.41224 16.2715 3.39691 16.2776 3.38466C16.2837 3.3724 16.3142 3.36627 16.3691 3.3632C16.4483 3.37853 16.4941 3.40304 16.5124 3.43063C16.5215 3.44902 16.5185 3.4766 16.5032 3.51338L16.491 3.55935C16.5733 3.56548 16.6465 3.5808 16.7105 3.60532C16.7776 3.62678 16.8325 3.66049 16.8721 3.70033L17.3813 3.60226L17.302 3.07204C17.2929 3.04139 17.2593 3.01381 17.1983 2.98623C17.1435 2.95864 17.0947 2.94332 17.049 2.93719C16.9971 2.92493 16.9697 2.91267 16.9697 2.89428C16.9636 2.87896 16.9971 2.86363 17.0612 2.84831C17.1069 2.84831 17.1679 2.84831 17.2441 2.8575C17.3051 2.8667 17.3599 2.87589 17.4087 2.88815C17.4483 2.89735 17.4727 2.90654 17.4819 2.9188C17.491 2.928 17.4941 2.94332 17.491 2.96784L17.4971 3.02301L17.7532 4.74544C17.7715 4.87416 17.7776 4.98143 17.7776 5.06418C17.7776 5.15919 17.7685 5.23275 17.7502 5.28485C17.7258 5.34002 17.7014 5.35841 17.6801 5.34002C17.6526 5.32163 17.6313 5.2542 17.613 5.13468L17.5002 4.38379C17.4544 4.38992 17.4087 4.39912 17.366 4.40831C17.3386 4.41444 17.302 4.42363 17.2563 4.43589L17.2441 4.44202C17.2258 4.44815 17.2075 4.45428 17.1953 4.46041C17.1862 4.46654 17.177 4.47267 17.1648 4.48187C17.1465 4.49412 17.1252 4.50332 17.1069 4.50332C17.0764 4.50332 17.0215 4.488 16.9423 4.46654C16.8965 4.51864 16.8447 4.56462 16.7837 4.59833C16.7105 4.64124 16.6313 4.67189 16.549 4.68414C16.3691 4.71173 16.2166 4.68414 16.0825 4.59526C15.9636 4.51864 15.8843 4.41444 15.8477 4.27652C15.8081 4.1386 15.8264 4.00988 15.8965 3.88729C15.9697 3.75244 16.1008 3.65436 16.2807 3.59306L16.3142 3.58387C16.3325 3.56855 16.3447 3.55016 16.3477 3.5287L16.3508 3.51951ZM16.0886 3.88422C16.0276 3.9731 16.0032 4.07424 16.0215 4.18764C16.0398 4.30104 16.0886 4.38992 16.174 4.45428C16.2685 4.5309 16.3874 4.55542 16.5276 4.53397C16.6557 4.51558 16.7532 4.45428 16.8142 4.35621C16.8691 4.27039 16.8904 4.16925 16.8721 4.05585C16.8538 3.94246 16.8081 3.85357 16.7288 3.78615C16.6404 3.71259 16.5307 3.68501 16.4026 3.7034C16.2624 3.72485 16.1557 3.78615 16.0855 3.88116L16.0886 3.88422ZM17.3935 3.69727L16.9514 3.79228C17.0002 3.87503 17.0307 3.97004 17.0398 4.07424C17.049 4.18458 17.0337 4.28265 16.9941 4.3654C17.0398 4.3654 17.113 4.35314 17.2075 4.33169C17.2654 4.31943 17.3569 4.29798 17.4819 4.27346L17.3965 3.70033L17.3935 3.69727ZM17.677 2.70733C17.6252 2.67974 17.549 2.6491 17.4514 2.61845C17.3904 2.60619 17.3599 2.59086 17.366 2.56941C17.3721 2.55102 17.4118 2.5357 17.4819 2.52344C17.5276 2.52344 17.5825 2.52344 17.6404 2.53263C17.674 2.5357 17.7227 2.54183 17.7898 2.55409L17.8355 2.56328C17.8874 2.57554 17.924 2.59086 17.9392 2.60619C17.9514 2.61845 17.9544 2.64603 17.9575 2.68281V2.72878L18.2898 4.9232C18.3051 5.02741 18.3173 5.12548 18.3203 5.21436C18.3233 5.30937 18.3203 5.38906 18.3142 5.44729C18.2929 5.5331 18.2685 5.57601 18.238 5.57908C18.2044 5.57908 18.1831 5.53004 18.1679 5.43196L17.7715 2.80234C17.7624 2.77169 17.7319 2.74411 17.6801 2.71039L17.677 2.70733Z" fill="#231815"/>
<path d="M22.6924 4.00369C22.6924 4.00369 22.7168 3.99756 22.7351 3.99143C22.7626 3.97917 22.79 3.97304 22.8174 3.97611C22.8632 3.97611 22.9363 3.98836 23.0339 4.00982C23.0827 4.01901 23.1162 4.0374 23.1406 4.06192C23.165 4.08337 23.1742 4.10483 23.1711 4.12935C23.1711 4.15387 23.1528 4.17225 23.1284 4.18451C23.1071 4.19677 23.0766 4.19984 23.0431 4.19371C22.8876 4.16919 22.6802 4.13854 22.415 4.10483C22.1406 4.07418 21.9424 4.05273 21.8205 4.04353L21.8144 4.06499C21.8022 4.15693 21.7931 4.22129 21.7839 4.26113C21.7717 4.31937 21.7534 4.37147 21.7321 4.41744C21.6924 4.48793 21.6559 4.52165 21.6193 4.51552C21.5827 4.50632 21.5705 4.46341 21.5827 4.38066L21.6254 4.03127C21.5065 4.01901 21.3845 4.00675 21.2565 3.99756C21.1132 3.9853 21.0004 3.97917 20.915 3.97611C20.8815 3.97611 20.851 3.97611 20.8205 3.98836C20.8052 3.98836 20.787 3.99756 20.7687 4.00369C20.729 4.01901 20.6863 4.02208 20.6498 4.00675C20.5888 3.98836 20.4821 3.93013 20.3266 3.82899C20.2839 3.79221 20.2656 3.76463 20.2748 3.75237C20.2809 3.73705 20.3113 3.73705 20.3662 3.7585C20.5126 3.80754 20.79 3.85351 21.1985 3.89948C21.4668 3.93013 21.9028 3.97611 22.5065 4.03127H22.5827C22.6376 4.02208 22.6711 4.01288 22.6924 4.00982V4.00369ZM21.7473 2.7042C21.7168 2.67049 21.6772 2.63371 21.6254 2.5908C21.6071 2.56935 21.5979 2.55709 21.601 2.54789C21.604 2.5387 21.6315 2.53563 21.6833 2.54176C21.7382 2.56015 21.7992 2.58774 21.8662 2.62451C21.9242 2.65823 21.9882 2.69807 22.0552 2.74711C22.0827 2.7655 22.0979 2.78389 22.101 2.80227C22.104 2.82373 22.0918 2.84518 22.0644 2.87277L22.0248 2.90954L21.8662 3.05053C21.915 3.08424 21.9821 3.11795 22.0613 3.15779C22.1315 3.19151 22.2107 3.22522 22.3022 3.25893C22.3388 3.27732 22.3754 3.28958 22.412 3.29571C22.4272 3.29878 22.4546 3.30184 22.4912 3.30491C22.54 3.30797 22.5827 3.31717 22.6193 3.32943C22.6803 3.35088 22.7565 3.39685 22.8479 3.46428C22.9303 3.51945 22.9546 3.57155 22.9302 3.61445C22.9028 3.65736 22.8418 3.65123 22.7443 3.6022L22.5918 3.52557C22.4363 3.44895 22.3113 3.38153 22.2138 3.33249C22.0492 3.24361 21.9089 3.16699 21.79 3.10263C21.6498 3.19764 21.476 3.28652 21.2687 3.3662C21.0735 3.43669 20.854 3.49799 20.6101 3.54396C20.5522 3.54703 20.5217 3.54396 20.5156 3.52864C20.5095 3.51638 20.5339 3.50412 20.5857 3.49186C20.8449 3.41831 21.0827 3.32636 21.3022 3.2099C21.5309 3.0873 21.6955 2.96471 21.8022 2.83599L21.8113 2.80534C21.8113 2.78082 21.787 2.74711 21.7504 2.70726L21.7473 2.7042ZM20.8693 4.9262C20.8449 4.91394 20.8052 4.89556 20.7504 4.87104C20.7107 4.85878 20.6924 4.84345 20.6924 4.83119C20.6924 4.81587 20.729 4.80667 20.7992 4.80055C20.8632 4.80667 20.9363 4.81893 21.0126 4.83732C21.0827 4.85571 21.1284 4.87104 21.1559 4.8833C21.2748 4.89862 21.3876 4.91088 21.4912 4.91701C21.5613 4.9262 21.6711 4.93846 21.8174 4.95072L21.9333 4.96298C21.9516 4.96298 21.9668 4.96298 21.9851 4.95992C21.9943 4.95992 22.0065 4.95992 22.0248 4.95992L22.1132 4.95379C22.1193 4.9262 22.1254 4.88943 22.1315 4.84345C22.1376 4.8128 22.1467 4.75764 22.162 4.67795L22.1742 4.59827L21.2199 4.51245C21.1955 4.51245 21.1742 4.51245 21.1559 4.52165C21.1467 4.52165 21.1345 4.52778 21.1162 4.5339C21.0827 4.54616 21.0522 4.54616 21.0217 4.54003C20.979 4.52471 20.9059 4.48487 20.8022 4.41744C20.7595 4.38986 20.7443 4.3684 20.7504 4.35921C20.7595 4.34695 20.79 4.35001 20.851 4.36534C20.9821 4.39292 21.1711 4.42051 21.4211 4.44809C21.6589 4.47261 21.8906 4.49406 22.1162 4.50632L22.1559 4.49713C22.1742 4.49406 22.1894 4.48793 22.2016 4.48793C22.226 4.48793 22.2626 4.49713 22.3113 4.51245C22.3784 4.52471 22.4181 4.54003 22.4272 4.55842C22.4333 4.57068 22.4242 4.58907 22.3998 4.61666L22.3754 4.65956V4.66569C22.3357 4.73618 22.3113 4.79135 22.2931 4.82506C22.2626 4.88636 22.2412 4.93233 22.2321 4.95992C22.3113 4.98444 22.354 5.00895 22.354 5.04267C22.354 5.07638 22.3144 5.08864 22.2382 5.07945L21.1772 4.97524L21.1467 4.98137C21.1467 4.98137 21.1254 4.9875 21.1193 4.9875C21.1132 4.99363 21.1101 5.00282 21.1101 5.01508L21.0735 5.30624C21.0735 5.33076 21.0735 5.35222 21.0857 5.3706C21.0979 5.38286 21.1162 5.39206 21.1467 5.39512C21.2351 5.40738 21.3479 5.41964 21.4882 5.43803C21.6528 5.45948 21.8113 5.47481 21.9638 5.49013C22.0034 5.49013 22.04 5.484 22.0674 5.47787C22.0857 5.47787 22.104 5.46868 22.1284 5.45948C22.1589 5.44723 22.1924 5.4411 22.2199 5.4411C22.2687 5.4411 22.3388 5.44723 22.4394 5.46868C22.5187 5.49013 22.5522 5.52385 22.5461 5.57288C22.537 5.62192 22.5004 5.64337 22.4302 5.63418L21.1437 5.47481C21.0309 5.45948 20.9546 5.4319 20.915 5.39206C20.8815 5.35834 20.8693 5.31544 20.8784 5.26027L20.912 4.98444C20.912 4.96605 20.8937 4.94766 20.8662 4.92927L20.8693 4.9262Z" fill="#231815"/>
<path d="M26.1582 4.06789C26.1734 4.04951 26.1765 4.01886 26.1673 3.97595C26.149 3.93611 26.149 3.91159 26.1673 3.90546C26.1887 3.89933 26.2192 3.91772 26.2588 3.9545C26.3137 4.00966 26.3442 4.04951 26.3442 4.08015C26.3442 4.09548 26.332 4.11387 26.3045 4.13532C26.2954 4.14145 26.2862 4.14758 26.2801 4.15065C26.271 4.15984 26.2649 4.16597 26.2618 4.17516C26.4326 4.28856 26.5393 4.42342 26.582 4.57972C26.6185 4.7207 26.6002 4.85556 26.524 4.98122C26.4478 5.10687 26.335 5.18962 26.1887 5.23253C26.0301 5.28157 25.8624 5.26931 25.6887 5.19575C25.4996 5.11607 25.3685 4.9996 25.2893 4.84636C25.2161 4.70844 25.2009 4.56746 25.2466 4.42342C25.2893 4.28243 25.3807 4.17823 25.5179 4.1108C25.6673 4.03725 25.8503 4.02805 26.0576 4.08322L26.0789 4.08935C26.1155 4.08935 26.1399 4.08322 26.1551 4.06789H26.1582ZM25.4813 5.75662C25.4539 5.71984 25.4021 5.67387 25.3289 5.6187C25.2801 5.58499 25.2588 5.56047 25.2679 5.53901C25.2771 5.51756 25.3167 5.52063 25.3868 5.53901C25.4752 5.57886 25.5484 5.61257 25.6063 5.64322C25.6643 5.67387 25.707 5.69839 25.7344 5.71984C25.7649 5.73823 25.7801 5.75968 25.7771 5.77807C25.7771 5.79033 25.771 5.81178 25.7496 5.84243L25.7283 5.88228L25.5393 6.33894C25.524 6.37265 25.5271 6.40023 25.5454 6.42475C25.5606 6.44927 25.5911 6.47685 25.6429 6.50137L26.274 6.76188C26.3198 6.77721 26.3594 6.7864 26.3899 6.78947C26.4112 6.78947 26.4326 6.78947 26.457 6.78947C26.4935 6.78334 26.524 6.78334 26.5515 6.78947C26.6002 6.79866 26.6704 6.82624 26.7618 6.86915C26.8076 6.89061 26.8381 6.91512 26.8594 6.94577C26.8777 6.97336 26.8868 6.99788 26.8807 7.02546C26.8746 7.04691 26.8624 7.0653 26.8442 7.0745C26.8228 7.08369 26.7954 7.08369 26.7679 7.0745L25.6003 6.57799C25.4935 6.52896 25.4204 6.47992 25.3868 6.43088C25.3472 6.37571 25.3381 6.31135 25.3624 6.2378L25.5179 5.87308C25.5271 5.84243 25.5179 5.80566 25.4844 5.76275L25.4813 5.75662ZM25.6826 4.23033C25.5728 4.27324 25.4966 4.34986 25.4509 4.46019C25.4051 4.57053 25.4051 4.6778 25.4509 4.78813C25.4996 4.91072 25.5942 5.00267 25.7405 5.06397C25.8868 5.12526 26.021 5.13446 26.1429 5.08542C26.2527 5.04251 26.332 4.96589 26.3777 4.85862C26.4234 4.74829 26.4234 4.64102 26.3777 4.53068C26.3259 4.41116 26.2283 4.31921 26.082 4.25485C25.9387 4.19355 25.8045 4.18742 25.6856 4.2334L25.6826 4.23033ZM27.4204 4.36212C27.3899 4.31002 27.3381 4.24872 27.2649 4.1721C27.2222 4.12919 27.207 4.09854 27.2222 4.08322C27.2374 4.06483 27.2771 4.07096 27.3442 4.09854C27.4082 4.12919 27.4631 4.1629 27.5088 4.19968C27.5393 4.22114 27.5789 4.25485 27.6307 4.30082L27.649 4.31921C27.6887 4.35599 27.71 4.38664 27.7131 4.40503C27.7131 4.42035 27.7039 4.4418 27.6856 4.46632L27.6582 4.51843L27.1216 5.78727C27.0637 5.92518 27.0118 6.03552 26.9722 6.11214C26.9265 6.20102 26.8838 6.27151 26.8411 6.32055C26.7801 6.38184 26.7374 6.4033 26.707 6.38797C26.6795 6.37265 26.6856 6.32055 26.7222 6.23167L27.4539 4.49084C27.4631 4.45713 27.4539 4.41422 27.4173 4.35905L27.4204 4.36212Z" fill="#231815"/>
<path d="M29.5824 7.89282C29.5702 7.85297 29.5549 7.81007 29.5305 7.76409C29.4939 7.71506 29.4848 7.68441 29.497 7.67215C29.5092 7.65989 29.5427 7.67215 29.5976 7.7028C29.7226 7.8162 29.7958 7.89895 29.8202 7.95105C29.8354 7.9817 29.8293 8.00928 29.8019 8.03074L29.7836 8.04912L29.6677 8.19624L30.4269 8.78468L30.5519 8.62838C30.5671 8.60692 30.5671 8.5824 30.558 8.54869C30.5488 8.51498 30.5305 8.47207 30.497 8.4169C30.4604 8.3648 30.4482 8.33109 30.4604 8.31576C30.4696 8.30044 30.5061 8.3127 30.5702 8.34948C30.6342 8.41384 30.683 8.46901 30.7196 8.50885C30.75 8.54563 30.7714 8.57934 30.7805 8.60386C30.7897 8.62225 30.7897 8.64064 30.7805 8.65596C30.7775 8.66516 30.7683 8.67741 30.7531 8.6958L30.7317 8.72339L30.6799 8.78775C30.5244 8.9839 30.4147 9.11569 30.3537 9.18924C30.2531 9.30571 30.1769 9.38233 30.125 9.4191C30.058 9.46201 30.0092 9.47121 29.9787 9.45588C29.9482 9.43443 29.9696 9.37007 30.0458 9.26586L29.2805 8.67435C29.1921 8.74178 29.1189 8.77549 29.0641 8.77242C29.0092 8.77242 29.0122 8.72645 29.0763 8.6437L29.5732 8.00009L29.5854 7.98476C29.5976 7.96637 29.6007 7.93266 29.5885 7.89282H29.5824ZM29.3446 8.60079L30.0976 9.19231L30.3659 8.85517L29.6067 8.26673L29.3446 8.59773V8.60079ZM30.8171 6.93046C30.8171 6.93046 30.8446 6.93965 30.8628 6.94272C30.8903 6.94885 30.9147 6.95804 30.933 6.96724C30.9665 6.98563 31.0092 7.01628 31.0671 7.06225C31.1098 7.09596 31.1372 7.12967 31.1494 7.16032C31.1616 7.18791 31.1616 7.21242 31.1494 7.22775C31.1403 7.24307 31.122 7.2492 31.0946 7.24614C31.0641 7.24614 31.0305 7.23081 31 7.20629C30.8964 7.12354 30.7988 7.04999 30.7104 6.98256C30.6464 6.93352 30.5488 6.86303 30.4177 6.77109L30.4238 6.814C30.4238 6.82932 30.4299 6.84158 30.433 6.85077C30.433 6.86303 30.433 6.87529 30.433 6.88449C30.433 6.90288 30.4269 6.9182 30.4177 6.93046C30.4116 6.93659 30.3994 6.94272 30.3842 6.95191L30.3598 6.9703C30.4817 7.09903 30.5519 7.23388 30.5641 7.3718C30.5732 7.49745 30.5366 7.60166 30.4574 7.68747C30.375 7.77022 30.2683 7.81007 30.1403 7.81007C30 7.81007 29.8598 7.7549 29.7226 7.64457C29.5946 7.54343 29.5153 7.42083 29.4848 7.28598C29.4543 7.16339 29.4696 7.04999 29.5305 6.94885C29.5915 6.84464 29.6799 6.78335 29.7988 6.76189C29.933 6.74044 30.0763 6.77722 30.2317 6.87223C30.2683 6.87836 30.2958 6.8661 30.311 6.83239C30.3263 6.80174 30.3324 6.75883 30.3293 6.70366C30.2836 6.66995 30.2409 6.6393 30.2013 6.60865C30.1342 6.56268 30.0641 6.51671 29.9878 6.46767C29.9726 6.45848 29.9543 6.44928 29.9391 6.44622C29.9299 6.44315 29.9208 6.44009 29.9025 6.44009C29.875 6.43396 29.8537 6.4217 29.8385 6.40024C29.8171 6.37266 29.7836 6.30523 29.7378 6.20103C29.7165 6.14586 29.7104 6.11828 29.7256 6.11215C29.7378 6.10602 29.7622 6.12134 29.7927 6.15812C29.9025 6.26233 30.0244 6.3696 30.1616 6.47993C30.2927 6.58413 30.4604 6.70979 30.6616 6.85384L30.7317 6.90288C30.7561 6.91514 30.7805 6.92433 30.8049 6.93046H30.8171ZM29.936 6.88755C29.8446 6.89675 29.7714 6.93659 29.7135 7.01015C29.6586 7.08064 29.6342 7.16339 29.6464 7.25227C29.6586 7.35341 29.7135 7.44229 29.811 7.52197C29.9147 7.60472 30.0183 7.64457 30.125 7.63844C30.2196 7.63231 30.2958 7.59246 30.3507 7.52197C30.4086 7.44842 30.4299 7.36567 30.4147 7.27066C30.3964 7.16645 30.3354 7.07451 30.2317 6.99176C30.1342 6.91207 30.0336 6.87836 29.936 6.88449V6.88755ZM30.3933 6.28072C30.3781 6.24394 30.3628 6.19797 30.3476 6.1428C30.3415 6.10296 30.3415 6.07844 30.3507 6.07231C30.3628 6.06618 30.3903 6.08763 30.4299 6.13973C30.4756 6.19184 30.5183 6.23474 30.561 6.27459C30.6281 6.33895 30.7348 6.43089 30.8811 6.54736C30.9574 6.61172 30.9787 6.66075 30.9513 6.69447C30.9238 6.72818 30.8659 6.71286 30.7775 6.65156L30.4452 6.38185C30.4238 6.35734 30.4055 6.32362 30.3903 6.28378L30.3933 6.28072ZM31.6494 7.10209C31.6342 7.04079 31.6037 6.97337 31.5641 6.89675C31.5336 6.85077 31.5183 6.82013 31.5183 6.8048C31.5183 6.77722 31.5519 6.78335 31.622 6.82319C31.6525 6.84771 31.7013 6.89675 31.7622 6.97337C31.811 7.03773 31.8506 7.08677 31.8781 7.12967C31.9086 7.17565 31.9208 7.20936 31.9177 7.23081C31.9177 7.24614 31.9025 7.26453 31.8811 7.28292L31.8354 7.32582L31.2013 8.11962C31.122 8.22075 31.0549 8.29431 31 8.34335C30.9299 8.40771 30.8598 8.45062 30.7927 8.47514C30.75 8.48433 30.7317 8.46901 30.7378 8.43223C30.7439 8.39239 30.7744 8.34028 30.8293 8.27286L30.8872 8.20237L30.8141 8.1472C30.7683 8.11655 30.7348 8.09203 30.7135 8.07977C30.6799 8.05832 30.6525 8.04299 30.6311 8.0338C30.6189 8.02461 30.6067 8.02154 30.5946 8.01848C30.5885 8.01848 30.5793 8.01541 30.5671 8.01235C30.5427 8.01235 30.5244 8.00009 30.5122 7.98476C30.4909 7.95718 30.4543 7.89895 30.4116 7.81313C30.3964 7.77635 30.3964 7.75184 30.4147 7.74571C30.433 7.73958 30.4574 7.76103 30.4909 7.80394C30.5336 7.84072 30.5824 7.88056 30.6403 7.9204C30.6769 7.94798 30.7317 7.98476 30.8049 8.03074L30.9482 8.12574L31.25 7.74877L31.0183 7.57101L30.997 7.55875C30.9817 7.54956 30.9635 7.54036 30.9482 7.5373C30.9421 7.5373 30.9299 7.53423 30.9177 7.53117C30.8933 7.53117 30.875 7.51891 30.8598 7.50052C30.8385 7.476 30.8049 7.4239 30.7653 7.33502C30.7439 7.27372 30.7378 7.24001 30.7531 7.23081C30.7683 7.22468 30.7958 7.2492 30.8415 7.29518C30.9513 7.38712 31.0336 7.45455 31.0915 7.50052C31.1555 7.54956 31.2287 7.60472 31.311 7.66602L31.6525 7.23694C31.6738 7.21242 31.6738 7.16645 31.6525 7.10209H31.6494Z" fill="#231815"/>
<path d="M34.2101 10.6516C34.2101 10.6516 34.2436 10.6699 34.2649 10.6791C34.2985 10.6945 34.3259 10.7098 34.3473 10.7251C34.3777 10.7558 34.4174 10.8079 34.4662 10.8814C34.4905 10.9182 34.5027 10.955 34.5058 10.9856C34.5058 11.0132 34.4997 11.0347 34.4844 11.05C34.4692 11.0622 34.4479 11.0653 34.4235 11.0592C34.396 11.05 34.3716 11.0285 34.3473 10.9979L33.9113 10.4493C33.9082 10.4769 33.9021 10.4952 33.8991 10.5075C33.896 10.529 33.8899 10.5443 33.8869 10.5565C33.8808 10.5657 33.8747 10.5719 33.8625 10.578C33.8564 10.5811 33.8503 10.5841 33.8351 10.5841C33.8229 10.5841 33.8168 10.5841 33.8137 10.5841C33.8046 10.5872 33.7985 10.5933 33.7954 10.6025C33.8716 10.7312 33.9052 10.863 33.8869 10.9917C33.8747 11.1082 33.8259 11.2032 33.7436 11.2737C33.6582 11.3442 33.5607 11.3749 33.4448 11.3626C33.3198 11.3473 33.2009 11.286 33.0881 11.1756L32.893 11.3197C32.9692 11.4086 33.0729 11.5189 33.204 11.6476C33.3594 11.7978 33.4966 11.9173 33.6125 12.0001L34.9601 11.0255C34.9814 11.0071 34.9875 10.9642 34.9844 10.8998C34.9783 10.8354 34.9662 10.7588 34.9418 10.6761C34.9204 10.6117 34.9174 10.578 34.9296 10.5688C34.9448 10.5565 34.9783 10.5811 35.0271 10.6362C35.0607 10.6883 35.0942 10.7435 35.1216 10.8048C35.1369 10.8416 35.1582 10.8906 35.1796 10.958L35.1979 11.0193C35.2101 11.0592 35.2131 11.0837 35.204 11.099C35.1979 11.1113 35.1857 11.1205 35.1582 11.1327C35.146 11.1389 35.1369 11.1419 35.1277 11.145C35.1155 11.1542 35.1064 11.1603 35.0973 11.1664L33.9296 12.0154L33.4296 12.3801C33.3015 12.4721 33.2009 12.5426 33.1247 12.5885C33.0271 12.6498 32.9326 12.6958 32.8442 12.7326C32.771 12.751 32.7253 12.7479 32.707 12.7264C32.6796 12.7019 32.707 12.6621 32.7832 12.6039L33.5607 12.0369C33.3747 11.9081 33.1643 11.7426 32.9326 11.5373C32.7314 11.3595 32.521 11.1603 32.3015 10.9458C32.2924 10.9366 32.2832 10.9305 32.271 10.9243C32.2649 10.9213 32.2588 10.9182 32.2466 10.9121C32.2131 10.8998 32.1887 10.8722 32.1735 10.8354C32.1521 10.7803 32.1247 10.6546 32.0912 10.4554C32.0851 10.391 32.0912 10.3543 32.1094 10.3512C32.1277 10.3451 32.1491 10.3727 32.1735 10.4278C32.2131 10.529 32.2893 10.6454 32.396 10.7833C32.4814 10.8906 32.5973 11.0224 32.7436 11.1787L32.957 11.0255C32.8747 10.8784 32.8442 10.7404 32.8564 10.6056C32.8686 10.483 32.9174 10.388 33.0027 10.3206C33.0881 10.2501 33.1887 10.2255 33.3076 10.2439C33.4387 10.2654 33.5637 10.3389 33.6826 10.4646C33.7101 10.4769 33.7405 10.4677 33.771 10.4462C33.7985 10.4217 33.8168 10.388 33.8229 10.3451L33.8076 10.3236C33.7619 10.2654 33.7283 10.2225 33.704 10.1888C33.6613 10.1336 33.6216 10.0846 33.582 10.0417C33.5698 10.0263 33.5546 10.0141 33.5424 10.0049C33.5332 10.0018 33.521 9.99261 33.5088 9.98648C33.4814 9.97116 33.4631 9.94971 33.454 9.92212C33.4418 9.88535 33.4265 9.80566 33.4174 9.68C33.4174 9.63403 33.4265 9.60951 33.4418 9.60645C33.457 9.60645 33.4753 9.6279 33.4966 9.68307C33.5485 9.79034 33.6338 9.92825 33.7588 10.0999C33.8503 10.2286 33.9692 10.391 34.1216 10.5841L34.1338 10.5995C34.1613 10.6209 34.1857 10.6393 34.2101 10.6546V10.6516ZM33.396 10.4125C33.3046 10.3941 33.2223 10.4125 33.146 10.4677C33.0729 10.5198 33.0302 10.5933 33.018 10.6853C33.0027 10.7895 33.0332 10.8937 33.1094 10.9979C33.1826 11.1021 33.2741 11.1634 33.3747 11.1848C33.4662 11.2063 33.5485 11.1879 33.6216 11.1358C33.6979 11.0806 33.7405 11.0071 33.7497 10.9121C33.7619 10.8079 33.7283 10.7067 33.6552 10.6025C33.579 10.4983 33.4905 10.4339 33.3899 10.4156L33.396 10.4125ZM34.4631 10.437C34.4692 10.4707 34.4631 10.4952 34.454 10.5136C34.4418 10.532 34.4235 10.5382 34.4021 10.532C34.3747 10.5259 34.3472 10.5044 34.3168 10.4677L34.1247 10.201L34.0454 10.0907C34.0271 10.06 34.0149 10.0202 34.0149 9.97423C34.0119 9.92825 34.0149 9.86696 34.0302 9.79647C34.0393 9.75662 34.0485 9.73823 34.0637 9.7413C34.0759 9.74436 34.0942 9.77195 34.1155 9.82405C34.1491 9.89148 34.1857 9.96197 34.2253 10.0325C34.268 10.1029 34.332 10.201 34.4113 10.3206L34.4204 10.3328C34.4448 10.3665 34.4601 10.4033 34.4662 10.437H34.4631Z" fill="#231815"/>
<path d="M3.60716 17.0167C3.60716 17.2987 3.3785 17.5285 3.09801 17.5285C2.81753 17.5285 2.58887 17.2987 2.58887 17.0167C2.58887 16.7347 2.81753 16.5049 3.09801 16.5049C3.3785 16.5049 3.60716 16.7347 3.60716 17.0167Z" fill="#231815"/>
<path d="M36.4294 16.8634C36.4294 17.1454 36.2008 17.3752 35.9203 17.3752C35.6398 17.3752 35.4111 17.1454 35.4111 16.8634C35.4111 16.5814 35.6398 16.3516 35.9203 16.3516C36.2008 16.3516 36.4294 16.5814 36.4294 16.8634Z" fill="#231815"/>
<path d="M3.89622 22.8462L3.82 22.8584C3.80781 22.7879 3.78647 22.7389 3.75598 22.7174C3.72244 22.6929 3.66756 22.6899 3.5883 22.7021L1.93281 22.9688C1.86878 22.978 1.8261 22.9994 1.80476 23.0331C1.78037 23.0668 1.77732 23.1189 1.78647 23.1894L1.71025 23.2017L1.62793 22.6899L1.70415 22.6776C1.71634 22.745 1.73769 22.7941 1.76817 22.8186C1.80171 22.8431 1.84744 22.8523 1.91147 22.84L3.56695 22.5734C3.64317 22.5611 3.695 22.5366 3.71939 22.5029C3.74378 22.4692 3.74683 22.4171 3.73769 22.3497L3.81391 22.3374L3.89622 22.8492V22.8462Z" fill="#231815"/>
<path d="M1.84099 23.5419C1.85623 23.6063 1.88367 23.6492 1.92026 23.6676C1.95684 23.689 2.01477 23.689 2.08794 23.6706L3.6855 23.2906C3.76172 23.2722 3.8105 23.2446 3.83794 23.2109C3.86233 23.1741 3.86843 23.1251 3.85318 23.0638L3.9233 23.0454L3.98428 23.3059L2.40196 24.6636L3.96294 24.2928C4.02086 24.2805 4.0605 24.253 4.08184 24.2192C4.10013 24.1825 4.10318 24.1365 4.08794 24.0721L4.15806 24.0568L4.25562 24.4767L4.1855 24.492C4.17025 24.4307 4.14586 24.3878 4.11233 24.3633C4.07879 24.3418 4.03306 24.3357 3.97513 24.351L2.05135 24.8077L2.04221 24.774L3.71294 23.3519L2.10013 23.735C2.02391 23.7534 1.97513 23.7779 1.95074 23.8086C1.92635 23.8423 1.92026 23.8913 1.9355 23.9587L1.85928 23.9771L1.76172 23.5603L1.83794 23.5419H1.84099Z" fill="#231815"/>
<path d="M2.3997 25.6994C2.42409 25.7729 2.44848 25.822 2.47592 25.8465C2.51555 25.8833 2.56738 25.8924 2.63141 25.871L4.25946 25.3285C4.32043 25.3071 4.36007 25.2825 4.37531 25.2488C4.39055 25.2151 4.39055 25.1691 4.36921 25.1078C4.33263 24.9945 4.25336 24.9117 4.1375 24.8657C4.06433 24.8351 3.94848 24.8167 3.79604 24.8044L3.80519 24.7677L4.32653 24.7217L4.71372 25.8955L4.25031 26.1805L4.22287 26.153L4.26555 26.1162C4.38446 26.015 4.46068 25.9384 4.49726 25.8802C4.55519 25.7913 4.56433 25.6963 4.5308 25.5921C4.50641 25.5216 4.47897 25.4756 4.44238 25.4511C4.4058 25.4266 4.36007 25.4235 4.29909 25.445L2.66799 25.9875C2.60092 26.0089 2.56433 26.0426 2.55214 26.0886C2.54604 26.1254 2.55214 26.1836 2.58263 26.2664L2.50641 26.2909L2.31738 25.7208L2.3936 25.6963L2.3997 25.6994Z" fill="#231815"/>
<path d="M2.85344 26.9835C2.87783 27.0417 2.91137 27.0785 2.95405 27.0907C2.99674 27.106 3.04857 27.0999 3.11869 27.0693L4.63088 26.4165C4.69491 26.3889 4.73454 26.3552 4.75283 26.3153C4.76808 26.2785 4.76503 26.2295 4.74064 26.1713L4.81076 26.1406L5.23454 27.1367L4.81076 27.48L4.77113 27.4646L4.8443 27.3758C4.93271 27.2715 4.99064 27.1888 5.01503 27.1275C5.05771 27.0202 5.05771 26.913 5.01198 26.8026L4.92966 26.6126C4.90832 26.5605 4.87783 26.5299 4.84125 26.5176C4.80161 26.5053 4.74979 26.5115 4.68576 26.5421L4.00588 26.8363L4.13088 27.1306C4.16137 27.2011 4.21015 27.2409 4.27418 27.2532C4.3443 27.2654 4.44491 27.244 4.57296 27.1888L4.59125 27.2317L3.80161 27.5719L3.78332 27.529C3.90527 27.4769 3.99064 27.4187 4.03332 27.3574C4.07601 27.2961 4.0821 27.2348 4.05161 27.1643L3.92661 26.8701L3.17357 27.1949C3.10649 27.2225 3.06381 27.2562 3.04247 27.2961C3.02113 27.3328 3.02418 27.3788 3.04247 27.434L3.11869 27.6117C3.16442 27.7221 3.24064 27.8018 3.3443 27.8508C3.44491 27.8968 3.59125 27.9244 3.78637 27.9336L3.77418 27.9795L3.2254 28.0623L2.78027 27.0233L2.8504 26.9926L2.85344 26.9835Z" fill="#231815"/>
<path d="M3.48735 28.4578C3.52394 28.5252 3.56357 28.562 3.6093 28.5712C3.65199 28.5804 3.70686 28.5682 3.77699 28.5314L5.2404 27.7468C5.30138 27.7131 5.33796 27.6794 5.34711 27.6395C5.35626 27.6027 5.34406 27.5506 5.30747 27.4801L5.37455 27.4434L5.69162 28.0441C5.76479 28.182 5.77699 28.3138 5.72821 28.4394C5.68247 28.559 5.58491 28.6601 5.44162 28.7367C5.30443 28.8103 5.17638 28.8409 5.05747 28.8287C4.92943 28.8164 4.82577 28.7551 4.7526 28.6417L4.1276 29.3589C4.08796 29.4049 4.06662 29.4447 4.06357 29.4845C4.06052 29.5213 4.07272 29.5642 4.10016 29.6163L4.03308 29.6531L3.89894 29.4018L4.67638 28.5161L4.53918 28.2617L3.82882 28.6417C3.76174 28.6785 3.71906 28.7183 3.70382 28.7582C3.68552 28.8011 3.69467 28.8562 3.72821 28.9206L3.66113 28.9574L3.41113 28.4885L3.47821 28.4517L3.48735 28.4578ZM4.79528 28.5712C4.84406 28.6632 4.92638 28.7122 5.04528 28.7122C5.14284 28.7122 5.2526 28.6785 5.3776 28.6141C5.50869 28.5436 5.59406 28.4609 5.63674 28.3659C5.67943 28.2709 5.67638 28.1759 5.62455 28.0778L5.53613 27.9153C5.51174 27.8694 5.48126 27.8418 5.44772 27.8326C5.40808 27.8234 5.3593 27.8357 5.30138 27.8663L4.6154 28.2341L4.79528 28.5743V28.5712Z" fill="#231815"/>
<path d="M4.25286 29.8708C4.28944 29.926 4.32908 29.9566 4.36871 29.9627C4.41139 29.9689 4.46322 29.9505 4.52725 29.9076L5.8931 28.9943C5.95713 28.9513 5.99676 28.9084 6.00591 28.8655C6.0181 28.8257 6.00591 28.7766 5.96932 28.7215L6.0303 28.6816L6.17664 28.9054L5.16139 30.732L6.49676 29.8401C6.54554 29.8064 6.57603 29.7697 6.58213 29.7298C6.58822 29.69 6.57298 29.644 6.5364 29.5919L6.59737 29.5521L6.83518 29.9137L6.7742 29.9535C6.74066 29.9014 6.70103 29.8708 6.6614 29.8585C6.62176 29.8493 6.57603 29.8585 6.5303 29.8922L4.88091 30.9925L4.86261 30.9649L5.93883 29.0402L4.55774 29.9627C4.49371 30.0056 4.45408 30.0455 4.44493 30.0853C4.43274 30.1252 4.44493 30.1742 4.48457 30.2324L4.41749 30.2754L4.17969 29.9168L4.24676 29.8739L4.25286 29.8708Z" fill="#231815"/>
<path d="M6.21956 32.1849C6.16773 32.2523 6.14029 32.3075 6.13724 32.3534C6.13115 32.3963 6.14639 32.4423 6.18297 32.4852L6.122 32.5343L5.78663 32.1266L5.84761 32.0776C5.90554 32.1481 5.95127 32.1818 5.98785 32.1849C6.03054 32.1879 6.07627 32.1573 6.1281 32.0868L6.44517 31.6485L6.04578 31.1643L5.6281 31.3666C5.52444 31.4187 5.46651 31.4677 5.45432 31.5106C5.44212 31.5535 5.46651 31.6087 5.52444 31.6822L5.46346 31.7313L5.17383 31.3819L5.2348 31.3328C5.27139 31.3788 5.31407 31.4003 5.35676 31.3972C5.40554 31.3941 5.4909 31.3604 5.6159 31.3022L7.28054 30.4839L7.40858 30.5299L6.21956 32.1879V32.1849ZM6.1281 31.1244L6.50005 31.575L7.20736 30.6004L6.1281 31.1244Z" fill="#231815"/>
<path d="M6.67402 32.994C6.7289 33.0492 6.77463 33.0798 6.81121 33.089C6.86304 33.1043 6.91182 33.089 6.9606 33.0369L8.16182 31.7926C8.20756 31.7435 8.2289 31.7037 8.2289 31.6669C8.2289 31.6301 8.20451 31.5903 8.15878 31.5443C8.07341 31.4585 7.9667 31.4248 7.8417 31.4371C7.76243 31.4432 7.65268 31.48 7.50938 31.5413L7.50329 31.5045L7.94231 31.2256L8.82646 32.0899L8.54597 32.5557L8.50938 32.5435L8.52768 32.4914C8.58865 32.3473 8.61914 32.2431 8.62524 32.1757C8.63439 32.0715 8.60085 31.9795 8.52463 31.906C8.4728 31.8539 8.42402 31.8263 8.38134 31.8202C8.33865 31.814 8.29597 31.8355 8.25024 31.8815L7.04902 33.1258C7.00024 33.1748 6.98195 33.2239 6.99414 33.2698C7.00329 33.3035 7.03987 33.3526 7.10085 33.4139L7.04902 33.469L6.61914 33.0492L6.67097 32.994H6.67402Z" fill="#231815"/>
<path d="M9.43281 32.5892L9.38708 32.6474C9.3322 32.6014 9.28342 32.58 9.24378 32.583C9.20415 32.5892 9.15842 32.6198 9.10659 32.6811L8.04256 33.9837C8.00293 34.0327 7.98464 34.0787 7.98769 34.1185C7.99378 34.1584 8.02427 34.2013 8.0761 34.2472L8.02732 34.3085L7.62793 33.9806L7.67671 33.9193C7.72854 33.9622 7.77732 33.9837 7.81695 33.9806C7.85659 33.9806 7.89927 33.95 7.93891 33.9009L9.00293 32.5984C9.05171 32.5371 9.0761 32.485 9.07 32.4451C9.06391 32.4053 9.03647 32.3624 8.98159 32.3195L9.02732 32.2612L9.42671 32.5892H9.43281Z" fill="#231815"/>
<path d="M10.3683 33.6436C10.3348 33.8857 10.2281 34.1371 10.0482 34.3976C9.87138 34.6581 9.67626 34.845 9.46285 34.9584C9.22504 35.0902 9.02077 35.0933 8.84699 34.9738C8.67931 34.8573 8.61529 34.6642 8.65492 34.3976C8.68846 34.1585 8.79516 33.9072 8.97199 33.6498C9.15187 33.3892 9.34699 33.1992 9.55736 33.0797C9.79212 32.9479 9.99334 32.9418 10.161 33.0582C10.3348 33.1778 10.4019 33.3739 10.3683 33.6406V33.6436ZM9.61529 33.187C9.43236 33.3065 9.25553 33.4904 9.08785 33.7325C8.92321 33.9746 8.81651 34.2014 8.77077 34.416C8.71895 34.655 8.75858 34.8205 8.88968 34.9125C9.02687 35.0075 9.1976 34.9891 9.40492 34.8573C9.58785 34.7408 9.76468 34.56 9.92931 34.3179C10.097 34.0727 10.2037 33.8428 10.2494 33.6283C10.2982 33.3862 10.2555 33.2176 10.1183 33.1226C9.98724 33.0307 9.81955 33.0521 9.61224 33.187H9.61529Z" fill="#231815"/>
<path d="M9.78647 35.455C9.84439 35.4856 9.89317 35.4948 9.93281 35.4795C9.97244 35.4642 10.0121 35.4243 10.0487 35.3569L10.8261 33.9072C10.8627 33.8367 10.8779 33.7816 10.8657 33.7417C10.8566 33.6988 10.8231 33.662 10.7651 33.6314L10.8017 33.564L11.0365 33.6896L10.9938 35.7798L11.756 34.3608C11.7834 34.3087 11.7926 34.2627 11.7804 34.2229C11.7651 34.1861 11.7316 34.1524 11.6767 34.1218L11.7133 34.0543L12.0913 34.2597L12.0548 34.3271C11.9999 34.2965 11.9511 34.2873 11.9115 34.2965C11.8718 34.3057 11.8383 34.3363 11.8109 34.3884L10.8749 36.1354L10.8474 36.12L10.8962 33.9195L10.1096 35.3875C10.0731 35.458 10.0578 35.5101 10.067 35.55C10.0761 35.5898 10.1096 35.6297 10.1706 35.6603L10.134 35.7277L9.75293 35.5224L9.78952 35.455H9.78647Z" fill="#231815"/>
<path d="M12.6064 36.5614C12.5912 36.6441 12.5942 36.7085 12.6125 36.7514C12.6277 36.7912 12.6613 36.8249 12.7162 36.8464L12.6857 36.9169L12.1979 36.7146L12.2283 36.6441C12.3107 36.6778 12.3686 36.687 12.4021 36.6748C12.4418 36.6564 12.4662 36.6073 12.4783 36.5215L12.5546 35.979L11.9753 35.74L11.6979 36.12C11.6308 36.215 11.6033 36.2855 11.6125 36.3315C11.6216 36.3744 11.6674 36.4143 11.7558 36.451L11.7253 36.5215L11.3076 36.3499L11.3381 36.2794C11.393 36.3009 11.4387 36.3009 11.4783 36.2794C11.521 36.2518 11.582 36.1844 11.6613 36.071L12.7497 34.56L12.8838 34.5386L12.6094 36.5644L12.6064 36.5614ZM12.0302 35.6664L12.5698 35.8902L12.7375 34.6949L12.0302 35.6664Z" fill="#231815"/>
<path d="M13.0088 36.9414C13.0789 36.9628 13.1338 36.9628 13.1734 36.9414C13.2069 36.9199 13.2344 36.8801 13.2557 36.8157L13.7496 35.2097C13.771 35.1362 13.774 35.0841 13.7557 35.0504C13.7374 35.0136 13.6917 34.986 13.6185 34.9645L13.6399 34.894L14.1551 35.0534L14.1338 35.1239C14.0514 35.0994 13.9905 35.0933 13.9539 35.1116C13.9204 35.13 13.8929 35.1729 13.8716 35.2465L13.3777 36.8525C13.3594 36.9168 13.3533 36.9659 13.3655 36.9996C13.3777 37.0364 13.4112 37.0639 13.4661 37.0823L13.6704 37.1467C13.7618 37.1743 13.8624 37.162 13.9722 37.1007C14.0758 37.0456 14.1795 36.9536 14.2801 36.8249L14.3106 36.8647L14.0057 37.3306L12.9844 37.0118L13.0088 36.9352V36.9414Z" fill="#231815"/>
<path d="M15.3531 37.5912C15.4263 37.6034 15.4781 37.5973 15.5056 37.5728C15.533 37.5483 15.5544 37.49 15.5726 37.4011L15.8684 35.7798C15.8806 35.7094 15.8775 35.6603 15.8623 35.6266C15.8409 35.5868 15.7952 35.5622 15.7251 35.55L15.7373 35.4795L16.78 35.6726L16.8379 36.1967L16.8044 36.2181C16.7678 36.0802 16.7251 35.9729 16.6763 35.8902C16.6001 35.7676 16.5056 35.6971 16.3928 35.6756L16.1794 35.6358C16.1306 35.6266 16.0909 35.6358 16.0605 35.6664C16.033 35.694 16.0117 35.74 15.9995 35.8044L15.8653 36.5338L16.1641 36.589C16.2434 36.6043 16.3013 36.5951 16.3409 36.5614C16.3928 36.5154 16.4324 36.4173 16.4598 36.2641L16.5086 36.2733L16.3531 37.1284L16.3044 37.1192C16.3318 36.9721 16.3287 36.8587 16.2952 36.7851C16.2678 36.7208 16.219 36.6809 16.1458 36.6686L15.8501 36.6135L15.7037 37.4257C15.6885 37.5115 15.6915 37.5758 15.7129 37.6126C15.7373 37.6494 15.7891 37.6739 15.8745 37.6892L15.8592 37.7659L15.3379 37.6708L15.3531 37.5942V37.5912Z" fill="#231815"/>
<path d="M16.8685 37.8575C16.9417 37.8667 16.9966 37.8575 17.0301 37.8269C17.0606 37.7993 17.0789 37.7533 17.088 37.6859L17.2801 36.0125C17.2893 35.9359 17.2801 35.8838 17.2557 35.8562C17.2313 35.8255 17.1795 35.8041 17.1063 35.7949L17.1155 35.7183L17.6551 35.7796L17.646 35.8562C17.5606 35.847 17.4996 35.8562 17.4691 35.8776C17.4417 35.9022 17.4204 35.9512 17.4143 36.0247L17.2222 37.6981C17.213 37.7625 17.2222 37.8146 17.2374 37.8453C17.2557 37.879 17.2954 37.9004 17.3502 37.9066L17.5636 37.9311C17.6612 37.9433 17.7557 37.9096 17.8502 37.8299C17.9417 37.7564 18.0271 37.646 18.1033 37.4989L18.1399 37.5326L17.9264 38.0506L16.8594 37.928L16.8685 37.8514V37.8575Z" fill="#231815"/>
<path d="M19.6675 36.2485C19.7651 36.4722 19.8078 36.742 19.7895 37.0576C19.7743 37.3733 19.7041 37.6338 19.5852 37.8453C19.4511 38.0813 19.2804 38.1947 19.07 38.1855C18.8657 38.1763 18.7102 38.0445 18.6035 37.7963C18.509 37.5725 18.4694 37.3059 18.4846 36.9933C18.4999 36.6776 18.5669 36.414 18.6858 36.1995C18.8169 35.9635 18.9846 35.8532 19.1889 35.8623C19.3993 35.8746 19.5578 36.0033 19.6675 36.2485ZM18.7895 36.2608C18.695 36.46 18.6401 36.7082 18.6249 37.0025C18.6096 37.2936 18.6401 37.5449 18.7133 37.7503C18.7956 37.9801 18.9145 38.0997 19.073 38.1089C19.2377 38.1181 19.3749 38.0108 19.4816 37.7901C19.5761 37.594 19.631 37.3488 19.6462 37.0546C19.6615 36.7573 19.631 36.506 19.5578 36.3006C19.4724 36.0677 19.3474 35.9482 19.1828 35.939C19.0243 35.9298 18.8901 36.037 18.7864 36.2608H18.7895Z" fill="#231815"/>
<path d="M20.1282 38.0996C20.2044 38.0996 20.2562 38.0812 20.2867 38.0445C20.3141 38.0107 20.3294 37.9556 20.3294 37.879L20.3233 36.2117C20.3233 36.1412 20.308 36.0922 20.2806 36.0676C20.2532 36.0431 20.1983 36.0278 20.1221 36.0278V35.9512H20.7989C20.9544 35.9512 21.0763 36.0002 21.1648 36.1013C21.2501 36.1994 21.2928 36.3312 21.2928 36.4936C21.2928 36.65 21.2593 36.7756 21.1952 36.8768C21.1251 36.9871 21.0215 37.0453 20.8904 37.0606L21.2318 37.9525C21.2532 38.0077 21.2806 38.0475 21.3141 38.0659C21.3446 38.0843 21.3873 38.0966 21.4452 38.0966V38.1732H21.1617L20.7471 37.0698H20.4574V37.879C20.4574 37.9556 20.4727 38.0107 20.5032 38.0445C20.5337 38.0812 20.5855 38.0996 20.6587 38.0966V38.1732H20.1312V38.0996H20.1282ZM20.8385 36.9901C20.9452 36.9901 21.0245 36.938 21.0794 36.8338C21.1251 36.745 21.1465 36.6316 21.1465 36.4936C21.1465 36.3465 21.1129 36.2301 21.0489 36.1473C20.9849 36.0646 20.8995 36.0247 20.7867 36.0247H20.6007C20.5459 36.0247 20.5093 36.0401 20.4879 36.0646C20.4635 36.0952 20.4483 36.1443 20.4513 36.2117V36.9932H20.8385V36.9901Z" fill="#231815"/>
<path d="M22.1068 35.896L22.1129 35.9726C22.0397 35.9787 21.991 35.9941 21.9666 36.0247C21.9391 36.0584 21.93 36.1136 21.933 36.1902L22.0428 37.8728C22.0458 37.9372 22.0641 37.9831 22.0946 38.0077C22.1251 38.0322 22.1769 38.0444 22.247 38.0414L22.2531 38.118L21.7409 38.1517L21.7349 38.0751C21.805 38.072 21.8507 38.0536 21.8812 38.023C21.9086 37.9923 21.9208 37.9464 21.9178 37.882L21.808 36.1994C21.8019 36.1197 21.7836 36.0676 21.7531 36.04C21.7227 36.0155 21.6708 36.0033 21.6038 36.0063L21.5977 35.9297L22.1099 35.896H22.1068Z" fill="#231815"/>
<path d="M22.86 37.8425C22.9819 37.9467 23.1069 37.9866 23.238 37.9682C23.3508 37.9529 23.4331 37.9038 23.485 37.8242C23.546 37.7322 23.5642 37.6035 23.5399 37.4349C23.5216 37.2909 23.4697 37.1867 23.3935 37.1223C23.3264 37.0671 23.2045 37.015 23.0277 36.9691C22.8752 36.9231 22.7563 36.8649 22.671 36.7944C22.5551 36.6963 22.485 36.5553 22.4606 36.3776C22.4392 36.2274 22.4545 36.0987 22.5033 35.9914C22.5642 35.8596 22.674 35.783 22.8264 35.7615C22.8661 35.7554 22.9088 35.7554 22.9484 35.7615C22.9728 35.7677 23.0033 35.7738 23.0429 35.786C23.0734 35.7952 23.0917 35.7983 23.1039 35.8014C23.1222 35.8014 23.1374 35.8014 23.1466 35.7922L23.238 35.7217L23.4423 36.258L23.4118 36.2917C23.3234 36.1354 23.2319 36.019 23.1405 35.9454C23.0338 35.8596 22.924 35.8228 22.8112 35.8381C22.7197 35.8504 22.6496 35.8933 22.6008 35.9638C22.546 36.0466 22.5307 36.163 22.549 36.3101C22.5703 36.4572 22.6283 36.5676 22.7228 36.6473C22.7929 36.7055 22.8996 36.7515 23.0399 36.7913C23.2136 36.8311 23.3417 36.8863 23.427 36.9568C23.5429 37.0488 23.613 37.1836 23.6405 37.3614C23.6679 37.5667 23.6435 37.7291 23.5673 37.8487C23.4972 37.959 23.3935 38.0234 23.2502 38.0418C23.2075 38.0479 23.1618 38.0448 23.113 38.0356C23.0856 38.0295 23.046 38.0203 22.9972 38.005C22.9728 37.9988 22.9575 37.9927 22.9453 37.9897C22.9301 37.9897 22.9179 37.9897 22.9118 37.9897C22.8905 37.9897 22.8661 38.005 22.8386 38.0264C22.8142 38.0448 22.7929 38.0693 22.7716 38.1L22.546 37.5361L22.5825 37.4993C22.671 37.6464 22.7594 37.7598 22.8478 37.8333L22.86 37.8425Z" fill="#231815"/>
<path d="M24.4848 37.7012C24.558 37.6828 24.6098 37.6614 24.6372 37.6369C24.6769 37.6001 24.6891 37.548 24.6738 37.4836L24.2622 35.8072C24.247 35.7428 24.2226 35.703 24.1921 35.6846C24.1616 35.6662 24.1129 35.6631 24.0519 35.6784C23.936 35.706 23.8507 35.7796 23.7958 35.893C23.7592 35.9635 23.7318 36.0769 23.7074 36.2301L23.6738 36.2179V35.6938L24.8659 35.3965L25.1098 35.8838L25.0793 35.9083L25.0458 35.8654C24.9574 35.7397 24.8842 35.6539 24.8324 35.6141C24.747 35.5497 24.6555 35.5313 24.5519 35.5559C24.4787 35.5742 24.4299 35.5988 24.4055 35.6325C24.3781 35.6662 24.372 35.7152 24.3903 35.7765L24.8019 37.453C24.8171 37.5204 24.8476 37.5633 24.8933 37.5756C24.9269 37.5848 24.9879 37.5817 25.0702 37.5603L25.0885 37.6369L24.5061 37.7809L24.4879 37.7043L24.4848 37.7012Z" fill="#231815"/>
<path d="M26.0031 37.1283C26.1433 37.2019 26.2744 37.2172 26.3994 37.1713C26.5061 37.1314 26.5762 37.067 26.6098 36.9782C26.6494 36.877 26.6403 36.7452 26.5823 36.5859C26.5305 36.448 26.4604 36.356 26.3689 36.307C26.2927 36.2671 26.1616 36.2426 25.9756 36.2334C25.814 36.2212 25.686 36.1905 25.5915 36.1415C25.4573 36.0679 25.3598 35.9484 25.2988 35.7829C25.247 35.6419 25.2348 35.5132 25.2592 35.3967C25.2927 35.2557 25.3811 35.1546 25.5244 35.1025C25.561 35.0872 25.6037 35.081 25.6433 35.078C25.6677 35.078 25.7012 35.078 25.7409 35.081C25.7714 35.081 25.7927 35.081 25.8049 35.081C25.8232 35.081 25.8354 35.0718 25.8445 35.0626L25.9177 34.9707L26.2378 35.4519L26.2195 35.4917C26.1006 35.3569 25.9878 35.2649 25.8811 35.2128C25.7592 35.1515 25.6433 35.1393 25.5366 35.1791C25.4482 35.2128 25.3903 35.268 25.3598 35.3477C25.3232 35.4396 25.3323 35.5561 25.3842 35.6971C25.436 35.835 25.5153 35.93 25.625 35.9882C25.7073 36.0281 25.8201 36.0526 25.9665 36.0618C26.1433 36.0618 26.2805 36.0894 26.3781 36.1415C26.5092 36.2058 26.6037 36.3254 26.6646 36.4939C26.7348 36.687 26.747 36.8525 26.6951 36.9874C26.6494 37.11 26.561 37.1927 26.4268 37.2448C26.3872 37.2601 26.3415 37.2693 26.2896 37.2693C26.2622 37.2693 26.2226 37.2693 26.1707 37.2663C26.1463 37.2663 26.1281 37.2663 26.1189 37.2663C26.1037 37.2663 26.0915 37.2693 26.0854 37.2724C26.064 37.2816 26.0427 37.2969 26.0213 37.3245C26 37.349 25.9848 37.3766 25.9726 37.4103L25.6342 36.9138L25.6646 36.8709C25.7835 36.9966 25.8933 37.0854 25.9939 37.1406L26.0031 37.1283Z" fill="#231815"/>
<path d="M28.9514 35.6113C29.0093 35.6726 29.0581 35.7094 29.1038 35.7216C29.1465 35.7339 29.1923 35.7247 29.241 35.6971L29.2807 35.7645L28.8234 36.0312L28.7837 35.9637C28.8599 35.9178 28.9026 35.8779 28.9118 35.8412C28.924 35.8013 28.8996 35.7492 28.8386 35.6879L28.4575 35.2987L27.9148 35.6174L28.0459 36.0679C28.0795 36.1783 28.1191 36.2457 28.1587 36.2641C28.1984 36.2825 28.2593 36.2702 28.3386 36.2212L28.3782 36.2886L27.988 36.5185L27.9484 36.4511C28.0002 36.4204 28.0276 36.3836 28.0307 36.3407C28.0337 36.2917 28.0185 36.1997 27.9788 36.0679L27.4453 34.2811L27.5093 34.1616L28.9453 35.6144L28.9514 35.6113ZM27.8935 35.5316L28.3965 35.2374L27.5551 34.3762L27.8935 35.5316Z" fill="#231815"/>
<path d="M29.622 35.2554C29.7774 35.2892 29.9085 35.2646 30.0152 35.185C30.1067 35.1175 30.1555 35.0348 30.1646 34.9398C30.1738 34.8294 30.1281 34.7068 30.0274 34.572C29.9421 34.4555 29.8476 34.385 29.747 34.3667C29.6616 34.3513 29.5305 34.3666 29.3506 34.4065C29.1921 34.4402 29.061 34.4463 28.9543 34.4249C28.8049 34.3942 28.6768 34.3054 28.5701 34.1613C28.4817 34.0387 28.4299 33.9192 28.4238 33.7997C28.4146 33.6525 28.4726 33.533 28.5976 33.4411C28.6311 33.4166 28.6677 33.3982 28.7073 33.3828C28.7317 33.3767 28.7622 33.3675 28.8049 33.3583C28.8354 33.3522 28.8567 33.3461 28.8659 33.343C28.8811 33.3369 28.8933 33.3246 28.8994 33.3123L28.9451 33.2051L29.3842 33.5759L29.3781 33.6188C29.2256 33.5238 29.0915 33.4656 28.9756 33.4472C28.8415 33.4227 28.7287 33.4441 28.6372 33.5116C28.561 33.5667 28.5213 33.6372 28.5122 33.723C28.5031 33.8211 28.5457 33.9314 28.6342 34.054C28.7226 34.1736 28.8262 34.2441 28.9482 34.2655C29.0366 34.2808 29.1524 34.2747 29.2957 34.241C29.4665 34.195 29.6037 34.1797 29.7134 34.2011C29.8567 34.2257 29.9817 34.3115 30.0884 34.4555C30.2104 34.621 30.2653 34.7743 30.2531 34.9183C30.2439 35.047 30.1829 35.1543 30.0671 35.2401C30.0335 35.2646 29.9909 35.2861 29.9421 35.3014C29.9146 35.3106 29.875 35.3198 29.8262 35.3321C29.8018 35.3382 29.7835 35.3413 29.7744 35.3443C29.7592 35.3505 29.75 35.3535 29.7439 35.3597C29.7256 35.3719 29.7104 35.3964 29.6982 35.4271C29.686 35.4547 29.6799 35.4884 29.6738 35.5221L29.2104 35.139L29.2256 35.09C29.375 35.1758 29.5031 35.2309 29.6189 35.2554H29.622Z" fill="#231815"/>
<path d="M30.7952 34.3299C30.9537 34.3483 31.0818 34.3115 31.1793 34.2227C31.2647 34.146 31.3043 34.0602 31.3043 33.9652C31.3043 33.8549 31.2464 33.7384 31.1336 33.6128C31.036 33.5055 30.9354 33.4442 30.8348 33.435C30.7494 33.4258 30.6183 33.4534 30.4446 33.5147C30.2921 33.5637 30.161 33.5821 30.0543 33.5729C29.9019 33.5545 29.7677 33.481 29.6488 33.3461C29.5482 33.2327 29.4873 33.1193 29.469 33.0029C29.4476 32.8588 29.4933 32.7331 29.6062 32.6289C29.6366 32.6014 29.6702 32.5799 29.7098 32.5615C29.7312 32.5523 29.7647 32.5401 29.8043 32.5278C29.8348 32.5186 29.8531 32.5094 29.8653 32.5064C29.8805 32.4972 29.8927 32.488 29.8958 32.4726L29.9324 32.3623L30.408 32.6841V32.727C30.2433 32.6473 30.1031 32.6014 29.9873 32.5922C29.8501 32.5799 29.7403 32.6136 29.6549 32.6902C29.5848 32.7546 29.5513 32.8282 29.5513 32.914C29.5513 33.012 29.6031 33.1193 29.7007 33.2297C29.7982 33.34 29.911 33.3982 30.033 33.4105C30.1244 33.4197 30.2373 33.3982 30.3775 33.3522C30.5421 33.2879 30.6793 33.2634 30.7891 33.2726C30.9324 33.2848 31.0635 33.3584 31.1854 33.4932C31.3226 33.6465 31.3927 33.7966 31.3927 33.9407C31.3927 34.0694 31.344 34.1828 31.2373 34.2778C31.2068 34.3054 31.1671 34.3299 31.1214 34.3514C31.094 34.3636 31.0574 34.3759 31.0086 34.3912C30.9842 34.4004 30.969 34.4035 30.9568 34.4096C30.9446 34.4157 30.9324 34.4219 30.9293 34.428C30.911 34.4433 30.8988 34.4678 30.8897 34.5016C30.8805 34.5322 30.8744 34.5629 30.8775 34.5996L30.3805 34.2625L30.3927 34.2104C30.5482 34.284 30.6854 34.3238 30.7982 34.3391L30.7952 34.3299Z" fill="#231815"/>
<path d="M31.2439 31.4736C31.4756 31.5379 31.7103 31.6789 31.942 31.8934C32.1738 32.108 32.3323 32.3256 32.4146 32.5524C32.5091 32.8068 32.4878 33.0121 32.3445 33.1684C32.2073 33.3186 32.0091 33.3584 31.75 33.2818C31.5183 33.2144 31.2896 33.0734 31.0579 32.8619C30.8262 32.6474 30.6677 32.4298 30.5792 32.1999C30.4847 31.9486 30.503 31.7463 30.6433 31.5961C30.7866 31.4398 30.9878 31.3969 31.2469 31.4705L31.2439 31.4736ZM30.689 32.1662C30.7805 32.3654 30.9359 32.5646 31.1524 32.7669C31.3658 32.9631 31.5762 33.101 31.7805 33.1745C32.0091 33.2573 32.1768 33.2389 32.2866 33.1224C32.3994 32.9998 32.4055 32.8251 32.3049 32.6014C32.2164 32.4022 32.064 32.203 31.8475 32.0038C31.6311 31.8015 31.4177 31.6666 31.2134 31.5931C30.9817 31.5103 30.8109 31.5318 30.6981 31.6544C30.5884 31.7739 30.5884 31.9425 30.689 32.1662Z" fill="#231815"/>
<path d="M33.5489 31.3911C33.5885 31.5535 33.5641 31.6945 33.4757 31.8109C33.3599 31.9611 33.1861 32.0255 32.9544 31.9979C32.7044 31.9703 32.433 31.8447 32.1464 31.624C31.8904 31.4278 31.7105 31.2194 31.6068 30.9988C31.4971 30.7658 31.5001 30.5758 31.6129 30.4287C31.6464 30.3827 31.683 30.346 31.7227 30.3214C31.7471 30.3031 31.7867 30.2816 31.8416 30.2571L31.8629 30.2479L31.8964 30.0854L32.433 30.3122V30.3552C32.2775 30.3214 32.1434 30.3061 32.0336 30.3122C31.8721 30.3214 31.7532 30.3735 31.68 30.4716C31.5916 30.5881 31.6007 30.7444 31.7074 30.9375C31.8141 31.1306 31.991 31.3206 32.2379 31.5106C32.4696 31.6884 32.6952 31.7926 32.9086 31.8263C33.1251 31.86 33.2867 31.8109 33.3873 31.6792C33.4513 31.5933 33.4757 31.4922 33.4605 31.3788C33.4422 31.2623 33.3812 31.1214 33.2775 30.9589L33.3202 30.9467C33.4422 31.1091 33.5214 31.2562 33.555 31.3911H33.5489Z" fill="#231815"/>
<path d="M32.4513 29.3188L32.5122 29.3618C32.4726 29.4231 32.4574 29.4721 32.4635 29.5119C32.4726 29.5518 32.5092 29.5947 32.5763 29.6376L33.9726 30.5724C34.0275 30.6091 34.0732 30.6214 34.1129 30.6122C34.1525 30.603 34.1921 30.5693 34.2318 30.5111L34.2988 30.557L34.0153 30.9861L33.9482 30.9401C33.9848 30.8819 34.0031 30.8329 33.994 30.793C33.9879 30.7532 33.9574 30.7133 33.9055 30.6796L32.5092 29.7449C32.4452 29.702 32.3903 29.6836 32.3507 29.6928C32.311 29.702 32.2714 29.7357 32.2348 29.7939L32.1738 29.751L32.4574 29.3219L32.4513 29.3188Z" fill="#231815"/>
<path d="M34.8598 29.037C34.939 29.0646 35.0031 29.0707 35.0458 29.0554C35.0884 29.0462 35.125 29.0156 35.1525 28.9665L35.2195 29.0064L34.9543 29.4661L34.8872 29.4263C34.9329 29.3496 34.9512 29.2914 34.939 29.2577C34.9269 29.2178 34.8811 29.1841 34.7988 29.1596L34.2775 29.0094L33.9604 29.555L34.2958 29.8829C34.3811 29.9626 34.4451 29.9994 34.4909 29.9963C34.5336 29.9963 34.5793 29.9503 34.6281 29.8707L34.6951 29.9105L34.4665 30.3028L34.3994 30.263C34.4299 30.2139 34.436 30.1649 34.4177 30.125C34.3964 30.0791 34.3384 30.0086 34.2378 29.9136L32.8994 28.6202V28.4854L34.8567 29.0401L34.8598 29.037ZM33.8994 29.4906L34.1921 28.9849L33.0366 28.6539L33.8964 29.4937L33.8994 29.4906Z" fill="#231815"/>
<path d="M35.4788 28.3292C35.5124 28.2587 35.5276 28.2066 35.5276 28.1699C35.5276 28.1147 35.4941 28.0748 35.4331 28.0442L33.8874 27.2841C33.8264 27.2565 33.7807 27.2473 33.7502 27.2596C33.7136 27.2719 33.6831 27.3056 33.6557 27.3638C33.6038 27.4741 33.6008 27.5845 33.6557 27.6979C33.6861 27.7714 33.7532 27.8664 33.8569 27.9829L33.8233 28.0013L33.4209 27.6672L33.9636 26.5547L34.4941 26.6773V26.7171H34.4392C34.2837 26.7049 34.1739 26.7049 34.1099 26.7202C34.0063 26.7447 33.9331 26.8029 33.8843 26.901C33.8508 26.9684 33.8386 27.0205 33.8477 27.0635C33.8569 27.1064 33.8904 27.1401 33.9483 27.1677L35.4941 27.9277C35.5581 27.9584 35.6069 27.9614 35.6465 27.9369C35.677 27.9155 35.7105 27.8664 35.7471 27.7898L35.8172 27.8235L35.555 28.3629L35.4849 28.3292H35.4788Z" fill="#231815"/>
<path d="M34.2892 25.77L34.3563 25.7976C34.3289 25.865 34.3197 25.9171 34.335 25.9539C34.3502 25.9907 34.3959 26.0275 34.4691 26.0581L36.0148 26.7232C36.0728 26.7477 36.1215 26.7538 36.1581 26.7385C36.1947 26.7232 36.2283 26.6803 36.2557 26.6159L36.3258 26.6466L36.1246 27.1216L36.0545 27.091C36.0819 27.0266 36.088 26.9776 36.0728 26.9377C36.0575 26.8979 36.0209 26.8672 35.963 26.8427L34.4173 26.1776C34.3472 26.147 34.2892 26.1409 34.2496 26.1562C34.213 26.1715 34.1795 26.2114 34.152 26.2757L34.085 26.2481L34.2862 25.7731L34.2892 25.77Z" fill="#231815"/>
<path d="M35.0975 24.5255C35.3384 24.4979 35.6067 24.5378 35.9024 24.6481C36.1981 24.7585 36.4237 24.9025 36.5884 25.0803C36.7744 25.2795 36.8292 25.4787 36.7561 25.6779C36.6859 25.871 36.5152 25.9813 36.2469 26.0089C36.0061 26.0334 35.7408 25.9936 35.4481 25.8832C35.1555 25.7729 34.9237 25.6289 34.7561 25.4542C34.5731 25.258 34.5152 25.0649 34.5884 24.8719C34.6616 24.6726 34.8323 24.5562 35.1006 24.5255H35.0975ZM34.8445 25.3745C35.0061 25.5247 35.2225 25.6503 35.5 25.7515C35.7713 25.8526 36.0183 25.8986 36.2378 25.8894C36.4786 25.8802 36.628 25.8005 36.6829 25.6503C36.7408 25.494 36.6829 25.3316 36.503 25.163C36.3445 25.0128 36.128 24.8872 35.8536 24.786C35.5762 24.6818 35.3292 24.6359 35.1097 24.6481C34.8658 24.6604 34.7134 24.7431 34.6555 24.8994C34.6006 25.0496 34.6616 25.209 34.8414 25.3745H34.8445Z" fill="#231815"/>
<path d="M36.991 24.6359C37.0093 24.5716 37.0063 24.5225 36.9849 24.4858C36.9636 24.449 36.9148 24.4214 36.8417 24.3969L35.2715 23.931C35.1953 23.9096 35.1404 23.9065 35.1008 23.9249C35.0612 23.9433 35.0337 23.9831 35.0154 24.0475L34.9453 24.026L35.0215 23.7686L37.0642 23.3794L35.5246 22.9227C35.4667 22.9043 35.4209 22.9074 35.3843 22.9288C35.3508 22.9503 35.3264 22.9901 35.3081 23.0514L35.238 23.03L35.3599 22.6162L35.4301 22.6377C35.4118 22.699 35.4118 22.748 35.4301 22.7848C35.4484 22.8216 35.4849 22.8491 35.5429 22.8645L37.4362 23.4284L37.427 23.4621L35.2715 23.8636L36.8599 24.3356C36.9362 24.357 36.991 24.3601 37.0276 24.3448C37.0642 24.3264 37.0947 24.2865 37.116 24.2191L37.1923 24.2406L37.0703 24.6574L36.9941 24.6359H36.991Z" fill="#231815"/>
</g>
<defs>
<clipPath id="clip0_65_1228">
<rect width="39" height="39" fill="white" transform="translate(0 1)"/>
</clipPath>
</defs>
</svg>
