<svg width="184" height="166" viewBox="0 0 184 166" fill="none" xmlns="http://www.w3.org/2000/svg">
<rect x="4.5" y="1.5" width="139" height="131" fill="#D9D9D9" fill-opacity="0.3" stroke="#D9D9D9"/>
<path d="M168.21 11.4209C168.21 12.0003 168.166 12.5179 168.078 12.9736C167.99 13.4294 167.852 13.8151 167.663 14.1309C167.474 14.4466 167.23 14.6875 166.931 14.8535C166.631 15.0163 166.271 15.0977 165.852 15.0977C165.321 15.0977 164.882 14.9528 164.533 14.6631C164.188 14.3734 163.929 13.9551 163.757 13.4082C163.588 12.8581 163.503 12.1956 163.503 11.4209C163.503 10.6592 163.579 10.0049 163.732 9.45801C163.889 8.90788 164.139 8.48633 164.484 8.19336C164.829 7.89714 165.285 7.74902 165.852 7.74902C166.389 7.74902 166.831 7.89551 167.18 8.18848C167.528 8.47819 167.787 8.89811 167.956 9.44824C168.125 9.99512 168.21 10.6527 168.21 11.4209ZM164.318 11.4209C164.318 12.085 164.369 12.6383 164.47 13.0811C164.571 13.5238 164.733 13.8558 164.958 14.0771C165.186 14.2952 165.484 14.4043 165.852 14.4043C166.219 14.4043 166.516 14.2952 166.74 14.0771C166.968 13.859 167.132 13.5286 167.233 13.0859C167.338 12.6432 167.39 12.0882 167.39 11.4209C167.39 10.7666 167.339 10.2197 167.238 9.78027C167.137 9.33757 166.975 9.00553 166.75 8.78418C166.525 8.55957 166.226 8.44727 165.852 8.44727C165.477 8.44727 165.178 8.55957 164.953 8.78418C164.729 9.00553 164.566 9.33757 164.465 9.78027C164.367 10.2197 164.318 10.7666 164.318 11.4209ZM169.755 14.4922C169.755 14.2643 169.81 14.1032 169.921 14.0088C170.032 13.9111 170.167 13.8623 170.326 13.8623C170.492 13.8623 170.632 13.9111 170.746 14.0088C170.86 14.1032 170.917 14.2643 170.917 14.4922C170.917 14.7168 170.86 14.8812 170.746 14.9854C170.632 15.0863 170.492 15.1367 170.326 15.1367C170.167 15.1367 170.032 15.0863 169.921 14.9854C169.81 14.8812 169.755 14.7168 169.755 14.4922ZM174.699 10.6348C175.184 10.6348 175.605 10.7178 175.963 10.8838C176.321 11.0465 176.598 11.2842 176.793 11.5967C176.992 11.9092 177.091 12.2884 177.091 12.7344C177.091 13.2227 176.985 13.6442 176.774 13.999C176.562 14.3506 176.258 14.6224 175.861 14.8145C175.464 15.0033 174.988 15.0977 174.435 15.0977C174.064 15.0977 173.719 15.0651 173.4 15C173.081 14.9349 172.812 14.8372 172.594 14.707V13.9355C172.832 14.0788 173.12 14.1927 173.458 14.2773C173.797 14.362 174.126 14.4043 174.445 14.4043C174.806 14.4043 175.122 14.3473 175.392 14.2334C175.665 14.1162 175.877 13.9404 176.027 13.7061C176.18 13.4684 176.256 13.1706 176.256 12.8125C176.256 12.3372 176.11 11.971 175.817 11.7139C175.527 11.4535 175.068 11.3232 174.44 11.3232C174.238 11.3232 174.017 11.3395 173.776 11.3721C173.535 11.4046 173.336 11.4404 173.18 11.4795L172.77 11.2109L173.043 7.86133H176.593V8.60352H173.737L173.556 10.7568C173.68 10.7308 173.839 10.7048 174.035 10.6787C174.23 10.6494 174.451 10.6348 174.699 10.6348ZM183.714 15H182.772L180.843 11.8555L178.885 15H178.002L180.379 11.2793L178.168 7.86133H179.09L180.873 10.708L182.665 7.86133H183.544L181.337 11.2646L183.714 15Z" fill="#2C2C2C"/>
<g clip-path="url(#clip0_65_1112)">
<path d="M25 22H122.999V113H25V108.677H118.17V25.8025H25V22Z" fill="#231815"/>
<path d="M25 38.5098H62.9569V42.0848H47.214V86.9348H51.1095V78.4523C51.1095 78.4523 50.8519 70.9773 54.6186 68.1823C57.6449 65.9723 60.3492 64.7373 66.6271 64.2173V68.4098C62.5706 68.7673 61.1541 69.5473 59.6731 70.7498C57.9024 72.1798 57.8059 74.7473 57.7415 76.9573V86.7723H64.1481V90.5098H57.7415V100.52H50.9807V90.8023H25V86.9348H40.7108V42.1173H25V38.5423V38.5098Z" fill="#231815"/>
</g>
<line x1="4" y1="21.75" x2="144" y2="21.75" stroke="#A5A5A5" stroke-width="0.5" stroke-dasharray="1 1"/>
<line x1="4" y1="112.75" x2="144" y2="112.75" stroke="#A5A5A5" stroke-width="0.5" stroke-dasharray="1 1"/>
<line x1="25.25" y1="1" x2="25.25" y2="132" stroke="#A5A5A5" stroke-width="0.5" stroke-dasharray="1 1"/>
<line x1="123.25" y1="1" x2="123.25" y2="132" stroke="#A5A5A5" stroke-width="0.5" stroke-dasharray="1 1"/>
<path d="M148 1H159V22H148" stroke="#231815" stroke-width="0.5"/>
<path d="M5.20996 152.421C5.20996 153 5.16602 153.518 5.07812 153.974C4.99023 154.429 4.85189 154.815 4.66309 155.131C4.47428 155.447 4.23014 155.688 3.93066 155.854C3.63118 156.016 3.27148 156.098 2.85156 156.098C2.32096 156.098 1.88151 155.953 1.5332 155.663C1.18815 155.373 0.929362 154.955 0.756836 154.408C0.587565 153.858 0.50293 153.196 0.50293 152.421C0.50293 151.659 0.579427 151.005 0.732422 150.458C0.888672 149.908 1.13932 149.486 1.48438 149.193C1.82943 148.897 2.28516 148.749 2.85156 148.749C3.38867 148.749 3.83138 148.896 4.17969 149.188C4.52799 149.478 4.78678 149.898 4.95605 150.448C5.12533 150.995 5.20996 151.653 5.20996 152.421ZM1.31836 152.421C1.31836 153.085 1.36882 153.638 1.46973 154.081C1.57064 154.524 1.7334 154.856 1.95801 155.077C2.18587 155.295 2.48372 155.404 2.85156 155.404C3.2194 155.404 3.51562 155.295 3.74023 155.077C3.9681 154.859 4.13249 154.529 4.2334 154.086C4.33757 153.643 4.38965 153.088 4.38965 152.421C4.38965 151.767 4.33919 151.22 4.23828 150.78C4.13737 150.338 3.97461 150.006 3.75 149.784C3.52539 149.56 3.22591 149.447 2.85156 149.447C2.47721 149.447 2.17773 149.56 1.95312 149.784C1.72852 150.006 1.56576 150.338 1.46484 150.78C1.36719 151.22 1.31836 151.767 1.31836 152.421ZM6.75508 155.492C6.75508 155.264 6.81042 155.103 6.92109 155.009C7.03177 154.911 7.16686 154.862 7.32637 154.862C7.49238 154.862 7.63236 154.911 7.74629 155.009C7.86022 155.103 7.91719 155.264 7.91719 155.492C7.91719 155.717 7.86022 155.881 7.74629 155.985C7.63236 156.086 7.49238 156.137 7.32637 156.137C7.16686 156.137 7.03177 156.086 6.92109 155.985C6.81042 155.881 6.75508 155.717 6.75508 155.492ZM11.6986 151.635C12.1837 151.635 12.6052 151.718 12.9633 151.884C13.3214 152.047 13.598 152.284 13.7934 152.597C13.9919 152.909 14.0912 153.288 14.0912 153.734C14.0912 154.223 13.9854 154.644 13.7738 154.999C13.5622 155.351 13.2579 155.622 12.8607 155.814C12.4636 156.003 11.9883 156.098 11.435 156.098C11.0639 156.098 10.7188 156.065 10.3998 156C10.0808 155.935 9.81224 155.837 9.59414 155.707V154.936C9.83177 155.079 10.1199 155.193 10.4584 155.277C10.7969 155.362 11.1257 155.404 11.4447 155.404C11.8061 155.404 12.1218 155.347 12.392 155.233C12.6654 155.116 12.877 154.94 13.0268 154.706C13.1798 154.468 13.2563 154.171 13.2563 153.812C13.2563 153.337 13.1098 152.971 12.8168 152.714C12.5271 152.453 12.0681 152.323 11.4398 152.323C11.238 152.323 11.0167 152.34 10.7758 152.372C10.5349 152.405 10.3363 152.44 10.1801 152.479L9.76992 152.211L10.0434 148.861H13.5932V149.604H10.7367L10.5561 151.757C10.6798 151.731 10.8393 151.705 11.0346 151.679C11.2299 151.649 11.4512 151.635 11.6986 151.635ZM20.7145 156H19.7721L17.8434 152.855L15.8854 156H15.0016L17.3795 152.279L15.1676 148.861H16.0904L17.8727 151.708L19.6646 148.861H20.5436L18.3365 152.265L20.7145 156Z" fill="#2C2C2C"/>
<path d="M25 135L25 145L4 145L4 135" stroke="#231815" stroke-width="0.5"/>
<defs>
<clipPath id="clip0_65_1112">
<rect width="98" height="91" fill="white" transform="translate(25 22)"/>
</clipPath>
</defs>
</svg>
