<svg width="216" height="215" viewBox="0 0 216 215" fill="none" xmlns="http://www.w3.org/2000/svg">
<rect x="0.5" y="0.5" width="215" height="214" fill="#D9D9D9" fill-opacity="0.3" stroke="#D9D9D9"/>
<line y1="33.75" x2="216" y2="33.75" stroke="#A5A5A5" stroke-width="0.5" stroke-dasharray="1 1"/>
<line y1="179.75" x2="216" y2="179.75" stroke="#A5A5A5" stroke-width="0.5" stroke-dasharray="1 1"/>
<line x1="35.25" x2="35.25" y2="215" stroke="#A5A5A5" stroke-width="0.5" stroke-dasharray="1 1"/>
<line x1="181.25" x2="181.25" y2="215" stroke="#A5A5A5" stroke-width="0.5" stroke-dasharray="1 1"/>
<g clip-path="url(#clip0_65_1176)">
<path d="M92.7521 73.7783H121.217V77.576H109.313V125.076H113.787V116.104C113.787 116.104 113.616 108.176 115.99 105.239C117.884 102.898 119.585 101.579 123.523 101.028V105.457C120.977 105.835 120.076 106.661 119.151 107.935C118.044 109.438 117.987 112.18 117.953 114.521V124.916H121.982V128.862H117.953V139.475H113.718V129.195H92.501V125.088H105.238V77.5875H92.6265L92.7635 73.7898L92.7521 73.7783Z" fill="#231815"/>
<path d="M108 53.4131C78.7704 53.4131 55.0762 77.232 55.0762 106.616C55.0762 135.999 78.7704 159.818 108 159.818C137.23 159.818 160.924 135.999 160.924 106.616C160.924 77.232 137.23 53.4131 108 53.4131ZM108 158.682C79.3981 158.682 56.2175 135.38 56.2175 106.627C56.2175 77.8745 79.3981 54.5604 108 54.5604C136.602 54.5604 159.783 77.8631 159.783 106.616C159.783 135.368 136.602 158.671 108 158.671V158.682Z" fill="#231815"/>
<path d="M108 34C67.6765 34 35 66.6879 35 107.006C35 147.324 67.6765 180 108 180C148.323 180 181 147.324 181 107.006C181 66.6879 148.312 34 108 34ZM108 178.428C68.5553 178.428 36.575 146.452 36.575 107.006C36.575 67.5599 68.5553 35.5719 108 35.5719C147.445 35.5719 179.425 67.5484 179.425 106.994C179.425 146.44 147.445 178.417 108 178.417V178.428Z" fill="#231815"/>
<path d="M52.8959 68.443C52.8959 68.443 52.9302 68.3627 52.9416 68.3168C52.9644 68.2594 52.9872 68.2136 53.0215 68.1677C53.0785 68.0873 53.1698 67.9726 53.3068 67.812C53.478 67.6169 53.5921 67.5137 53.6606 67.5137C53.7063 67.5137 53.7519 67.5825 53.809 67.7202C53.8318 67.7776 53.8546 67.812 53.866 67.8464C53.8889 67.9038 53.9231 67.9497 53.9574 67.9956C54.2769 68.4316 54.6193 68.9134 54.9731 69.4412C55.3155 69.969 55.5438 70.3247 55.6465 70.5197L56.2058 69.6018C56.2629 69.4986 56.2971 69.3953 56.3085 69.3265C56.3199 69.2806 56.3313 69.2232 56.3313 69.1544C56.3313 69.0626 56.3542 68.9708 56.3884 68.8905C56.4455 68.7643 56.571 68.5807 56.7536 68.3398C56.902 68.1447 57.0504 68.0185 57.1873 67.9497C57.3015 67.8923 57.4042 67.8923 57.4841 67.9497C57.5526 67.9956 57.5868 68.0759 57.5868 68.1906C57.5868 68.3168 57.5412 68.443 57.4499 68.5692C57.0047 69.1544 56.514 69.8543 55.9661 70.6574C55.4753 71.3802 55.1215 71.9195 54.9047 72.2866C55.4525 72.6538 55.8862 72.975 56.2058 73.2389C56.5368 73.4914 56.7879 73.7208 56.9591 73.9273L57.7238 72.6997L57.8607 72.4128C57.895 72.3096 57.9406 72.2293 57.9749 72.1719C58.0319 72.0686 58.1232 71.9424 58.2488 71.7933C58.3972 71.6097 58.5113 71.5294 58.5912 71.5409C58.6368 71.5409 58.6825 71.6097 58.7282 71.7359C58.751 71.7818 58.7624 71.8048 58.7738 71.8277C58.7852 71.8621 58.808 71.8851 58.8309 71.8965L60.3945 72.998C60.6342 73.1701 60.8282 73.3307 60.9766 73.4684C61.1364 73.629 61.2733 73.7897 61.3875 73.9388C61.5587 74.2257 61.6043 74.4092 61.513 74.4781C61.4445 74.5469 61.2847 74.501 61.0451 74.3289L58.283 72.4473C58.0776 72.7571 57.7466 73.2734 57.2901 73.9962C56.7879 74.8223 56.3998 75.4992 56.1031 76.0499C56.0574 76.1303 56.0232 76.2106 56.0003 76.2909C55.9889 76.3368 55.9775 76.4056 55.9547 76.4745C55.9319 76.6351 55.8634 76.7613 55.7721 76.8531C55.6237 76.9793 55.3155 77.1514 54.8362 77.3923C54.6536 77.4612 54.5509 77.4727 54.528 77.4153C54.5052 77.3694 54.5623 77.2776 54.7221 77.1284C55.0302 76.8187 55.384 76.3712 55.7835 75.7746C56.0917 75.3271 56.3656 74.8796 56.6167 74.4322L54.4595 72.9636C54.0943 73.5372 53.7747 74.0536 53.5008 74.5125C53.1812 75.0403 52.9986 75.373 52.953 75.5107C52.9187 75.5795 52.8959 75.6369 52.8845 75.7057C52.8845 75.7402 52.8731 75.7975 52.8503 75.8549C52.816 76.0155 52.7475 76.1532 52.6334 76.2679C52.4622 76.4286 52.097 76.6695 51.5377 77.0022C51.3665 77.0711 51.2638 77.094 51.2296 77.0481C51.1725 77.0137 51.2296 76.899 51.4236 76.7039C51.9943 76.0844 52.6905 75.1435 53.5122 73.8929C53.9688 73.1816 54.5737 72.2178 55.2927 71.0016L55.4069 70.8295C55.2128 70.5427 54.9503 70.2099 54.6079 69.8313C54.197 69.3724 53.7405 68.9364 53.2383 68.5004C53.0329 68.7872 52.6562 69.3609 52.097 70.2329C51.5377 71.1163 51.104 71.8277 50.773 72.3899C50.7274 72.4702 50.6931 72.5505 50.6703 72.6308C50.6589 72.6767 50.6475 72.7456 50.6246 72.8259C50.579 72.998 50.5105 73.1242 50.4192 73.216C50.2822 73.3307 49.9855 73.5028 49.5404 73.7323C49.3806 73.8126 49.2779 73.8356 49.2208 73.8126C49.1637 73.7897 49.2208 73.6864 49.3806 73.5028C49.5632 73.3307 49.8371 73.0095 50.1909 72.5161C50.6361 71.9195 51.1154 71.2196 51.629 70.405L52.7361 68.6495C52.7818 68.5692 52.816 68.5004 52.8274 68.443H52.8959Z" fill="#231815"/>
<path d="M64.3782 59.3561L63.4994 60.251C63.4423 60.3084 63.4081 60.3658 63.3738 60.4231C63.351 60.4461 63.3396 60.492 63.3167 60.5379C63.2825 60.6297 63.2254 60.6985 63.1455 60.7444C63.0314 60.8132 62.7803 60.905 62.4151 61.0198C62.164 61.0542 62.0156 61.0542 61.9928 61.0198C61.9586 60.9739 62.0613 60.8821 62.2781 60.7444C62.552 60.5608 62.9173 60.274 63.3738 59.8724C63.7733 59.5167 64.1157 59.1955 64.401 58.8972L64.5152 58.7021C64.538 58.6448 64.5722 58.5874 64.6065 58.5415C64.6749 58.4727 64.8233 58.3579 65.0288 58.2088C65.1885 58.0826 65.2913 58.0367 65.3483 58.0711C65.3826 58.094 65.4054 58.1629 65.4168 58.2661L65.4396 58.3579C65.588 58.8627 65.6907 59.2987 65.7706 59.6774C65.8505 60.0904 65.9076 60.5494 65.9647 61.0542C66.3413 61.1689 66.6609 61.2378 66.9234 61.2492C67.0832 61.2607 67.2544 61.2607 67.4484 61.2492C67.5625 61.2492 67.6424 61.2378 67.6995 61.2492C67.7908 61.2492 67.8821 61.2837 67.9848 61.3295C68.2702 61.4558 68.4984 61.582 68.6696 61.7196C68.8066 61.8344 68.8865 61.9262 68.9321 62.0294C68.955 62.1097 68.9435 62.1786 68.8865 62.2245C68.8294 62.2704 68.7723 62.2933 68.6925 62.2704C68.4984 62.2474 68.2473 62.1901 67.9392 62.0868C67.7566 62.0294 67.4712 61.9376 67.0946 61.7885C66.8092 61.6852 66.6038 61.6049 66.4783 61.559C66.2614 61.4902 66.0902 61.4328 65.9647 61.4099C65.9647 62.0868 65.9076 62.7752 65.7934 63.4636C65.6907 64.0947 65.5424 64.806 65.3369 65.5747C65.2798 65.7698 65.2228 65.8616 65.1657 65.8501C65.1201 65.8501 65.1086 65.7239 65.1543 65.5174C65.3141 64.829 65.4054 63.9455 65.4282 62.867C65.451 61.2837 65.2342 59.9872 64.7891 58.989L64.6065 59.1611L64.3782 59.3905V59.3561ZM65.5766 56.396C65.3826 56.4189 65.1201 56.4648 64.8119 56.5566C64.6065 56.6369 64.4809 56.6484 64.4695 56.591C64.4467 56.5222 64.5266 56.4189 64.7092 56.2583C64.8918 56.1206 65.0858 56.0059 65.2798 55.9026C65.4282 55.8223 65.6223 55.742 65.8391 55.6502C66.0217 55.5813 66.1473 55.5584 66.2157 55.5813C66.2614 55.5813 66.3071 55.6272 66.3527 55.7075C66.3755 55.7534 66.3984 55.7764 66.4098 55.7993C66.4326 55.8452 66.4668 55.8796 66.5011 55.9141L70.7697 60.9968C70.998 61.2951 71.1806 61.559 71.3175 61.777C71.4088 61.9262 71.5001 62.0868 71.5915 62.2589C71.6942 62.5687 71.6942 62.7408 71.5686 62.7523C71.3746 62.7637 71.1007 62.5572 70.7354 62.1327L68.1104 59.0234L67.4598 59.6888C67.4598 59.6888 67.3685 59.7921 67.3457 59.8495C67.3228 59.8839 67.3 59.9183 67.2772 59.9757C67.243 60.0675 67.1973 60.1248 67.1402 60.1593C67.0489 60.2166 66.8663 60.274 66.5924 60.3543C66.3641 60.4117 66.25 60.4117 66.2386 60.3658C66.2272 60.3084 66.3299 60.2166 66.5353 60.0675C66.7408 59.8954 66.9804 59.6659 67.2544 59.402C67.5283 59.1381 67.7451 58.9201 67.8821 58.7595L65.919 56.4304C65.919 56.4304 65.7592 56.3845 65.5538 56.4074L65.5766 56.396ZM66.3984 54.2963C66.2272 54.3307 65.9418 54.3996 65.5309 54.5143C65.2913 54.6061 65.1657 54.6176 65.1543 54.5487C65.1315 54.4914 65.2 54.3766 65.3597 54.216C65.5424 54.0783 65.7706 53.9292 66.0445 53.7915C66.2157 53.6997 66.4212 53.6079 66.6951 53.5046C66.8663 53.4473 66.9804 53.4243 67.0489 53.4473C67.0946 53.4473 67.1631 53.5161 67.2315 53.6308L67.3343 53.7685L72.9154 60.4117C73.1665 60.71 73.3719 60.9853 73.5089 61.2263C73.6002 61.3754 73.7029 61.5705 73.8056 61.8229L73.8285 61.8459C73.9426 62.1442 73.9426 62.3163 73.8285 62.3622C73.6915 62.3966 73.4632 62.2245 73.1323 61.8344L66.7978 54.3193C66.7978 54.3193 66.6152 54.2619 66.4098 54.3078L66.3984 54.2963Z" fill="#231815"/>
<path d="M78.1884 47.0222C78.1884 47.0222 78.2341 46.9763 78.2455 46.9534C78.2683 46.9304 78.2911 46.896 78.3254 46.8731C78.3939 46.8272 78.508 46.7813 78.6678 46.701C78.9988 46.5633 79.2042 46.5289 79.2727 46.5977C79.3069 46.6321 79.3069 46.7354 79.2613 46.919C79.2499 46.9648 79.2384 46.9993 79.227 47.0222C79.227 47.0681 79.227 47.114 79.227 47.137C79.3183 47.8827 79.3754 48.4793 79.3982 48.9153C79.4325 49.5808 79.3982 50.0971 79.3183 50.4757C79.2384 50.6937 79.17 50.797 79.1129 50.8085C79.0558 50.8085 79.0102 50.7167 78.9988 50.5216C78.9759 50.1086 78.9189 49.6152 78.8162 49.0301C78.702 48.3302 78.5765 47.7221 78.4167 47.2287L77.3895 47.8598C77.3324 47.8942 77.2753 47.9401 77.2411 47.986C77.2183 48.0089 77.184 48.0319 77.1498 48.0778C77.0699 48.1581 76.99 48.2155 76.9101 48.2384C76.7732 48.2728 76.5335 48.2843 76.1911 48.2843C76.0655 48.2728 75.997 48.2384 75.997 48.204C75.9856 48.1466 76.0769 48.0892 76.271 48.0204C76.4992 47.9171 76.7161 47.8139 76.9215 47.7221C77.184 47.5959 77.4237 47.4697 77.6748 47.3435L78.0058 47.1714C78.0857 47.114 78.1428 47.0681 78.177 47.0337L78.1884 47.0222ZM80.7336 48.7432C80.6309 48.7203 80.4711 48.7203 80.2771 48.7432C80.1059 48.7662 80.0031 48.7432 79.9917 48.6859C79.9689 48.6285 80.0374 48.5597 80.2086 48.4793C80.745 48.2499 81.0988 48.1351 81.2814 48.1351C81.3842 48.1351 81.4641 48.204 81.4983 48.3417L81.544 48.4449L82.1831 49.948C82.5826 49.7529 82.925 49.5808 83.2103 49.4202C83.5527 49.2481 83.9408 49.0301 84.3402 48.7662C84.4772 48.6859 84.5913 48.6056 84.6826 48.5252C84.7283 48.4793 84.7854 48.4335 84.8538 48.3531C84.9451 48.2614 85.0364 48.1925 85.1278 48.1351C85.2875 48.0548 85.5386 47.9516 85.881 47.8368C86.0751 47.768 86.2463 47.745 86.3832 47.768C86.5088 47.7795 86.6001 47.8254 86.6343 47.9171C86.6686 47.986 86.6343 48.0778 86.5658 48.1696C86.4745 48.2728 86.349 48.3531 86.1664 48.4335C85.3104 48.7432 84.1919 49.2366 82.8223 49.925C81.6238 50.5216 80.4939 51.1068 79.4096 51.6575C79.0901 51.8984 78.896 52.0591 78.839 52.1164C78.8047 52.1509 78.7591 52.1968 78.702 52.2541C78.5879 52.4033 78.4623 52.4951 78.314 52.541C78.0971 52.5869 77.6976 52.5983 77.1041 52.5869C76.8873 52.5639 76.7846 52.5295 76.796 52.4606C76.796 52.4033 76.9329 52.3344 77.184 52.2541C77.652 52.105 78.2569 51.8526 78.9988 51.5198C79.6265 51.2215 80.4711 50.797 81.5325 50.2463L80.8934 48.835C80.8934 48.835 80.8021 48.7547 80.6994 48.7318L80.7336 48.7432ZM84.7968 51.8181C84.7968 51.8181 84.8881 51.7263 84.9451 51.6575C85.025 51.5657 85.1049 51.4969 85.1734 51.451C85.299 51.3707 85.493 51.2789 85.7669 51.1871C85.9609 51.1182 86.1321 51.0953 86.2577 51.1182C86.3718 51.1412 86.4403 51.1986 86.4631 51.2789C86.4859 51.3477 86.4631 51.428 86.3718 51.5198C86.2919 51.6116 86.1778 51.6804 86.018 51.7263C85.7783 51.8067 85.3104 52.0132 84.6142 52.3459C84.0663 52.5983 83.5984 52.8278 83.2103 53.0343C83.3587 53.1146 83.45 53.1835 83.4842 53.2408C83.4956 53.2753 83.5071 53.3326 83.4842 53.4129V53.4933C83.8951 53.5392 84.2489 53.585 84.5457 53.608C84.7968 53.6309 85.0479 53.6539 85.2875 53.6539C85.356 53.6539 85.4359 53.6539 85.5158 53.6424C85.5615 53.6424 85.6299 53.6195 85.7212 53.5965C85.9381 53.5506 86.1321 53.5391 86.2919 53.5621C86.5773 53.5736 86.9653 53.6424 87.4447 53.7801C87.6729 53.8489 87.7757 53.9866 87.7414 54.1817C87.6958 54.3652 87.536 54.4341 87.2506 54.3767L85.8925 54.1587C85.3788 54.0784 84.9908 54.0096 84.7055 53.9522C84.2375 53.8719 83.8152 53.803 83.45 53.7571C83.1647 54.5488 82.8223 55.2258 82.4342 55.8109C82.0233 56.4075 81.4755 57.0041 80.8021 57.6008C80.6537 57.727 80.5624 57.7729 80.551 57.7384C80.5396 57.704 80.5966 57.6008 80.7564 57.4287C81.2586 56.855 81.6695 56.2584 81.9891 55.6503C82.3086 55.0192 82.5369 54.3652 82.6739 53.6654C82.6625 53.5621 82.6396 53.4818 82.6054 53.4588C82.5597 53.4015 82.457 53.4244 82.3201 53.5047L81.1217 54.1931C81.1217 54.1931 81.0303 54.262 80.9961 54.3079C80.9733 54.3308 80.939 54.3652 80.8934 54.3997C80.8135 54.5029 80.7222 54.5718 80.6081 54.6062C80.4254 54.6521 80.083 54.675 79.5809 54.6636C79.3868 54.6406 79.2841 54.6062 79.2727 54.5603C79.2499 54.5144 79.3298 54.4685 79.5124 54.4111C79.9803 54.262 80.4825 54.0555 81.0189 53.803C81.3613 53.6424 81.8978 53.3785 82.6396 52.9999L82.8793 52.8737L84.5114 52.0361C84.6256 51.9788 84.7169 51.9099 84.7854 51.8296L84.7968 51.8181ZM82.3315 45.0947C82.3315 45.0947 82.3543 45.0603 82.3771 45.0373C82.4228 44.9685 82.4684 44.9226 82.5255 44.8881C82.6054 44.8193 82.7538 44.7505 82.9478 44.6816C83.2331 44.5669 83.4043 44.521 83.4728 44.5325C83.5185 44.5439 83.5413 44.6243 83.5185 44.7505C83.5185 44.8193 83.5185 44.8652 83.5185 44.8996C83.5185 44.9685 83.5185 45.0488 83.5413 45.1176V45.2782C83.6326 46.0125 83.6897 46.5518 83.7011 46.896C83.7353 47.4467 83.7239 47.8713 83.6668 48.1925C83.6098 48.4449 83.5413 48.5711 83.4728 48.5826C83.4157 48.5826 83.3701 48.4679 83.3587 48.2384C83.3016 47.8254 83.2217 47.3664 83.119 46.8386C82.9935 46.2535 82.8565 45.7142 82.6967 45.2438L81.6695 45.7946L81.544 45.8749L81.3271 46.0699C81.2358 46.1617 81.1559 46.2191 81.0646 46.242C80.9276 46.2764 80.6765 46.2994 80.3113 46.3109C80.1858 46.3109 80.1287 46.2764 80.1287 46.242C80.1287 46.2191 80.2086 46.1617 80.3684 46.0929C80.551 46.0125 80.7907 45.9093 81.0988 45.7601C81.3157 45.6569 81.601 45.5077 81.9777 45.3127L82.2744 45.152C82.2744 45.152 82.3201 45.1176 82.3429 45.0947H82.3315ZM81.5668 52.4262C81.4298 52.4147 81.213 52.3803 80.9276 52.323C80.7907 52.3 80.7336 52.2771 80.745 52.2312C80.745 52.1853 80.8363 52.1394 81.0418 52.082C81.2929 52.0017 81.6467 51.864 82.126 51.669C82.4684 51.5083 82.8679 51.3362 83.2902 51.1412C83.3587 51.1068 83.4386 51.1068 83.5299 51.1412C83.6098 51.1641 83.6554 51.2215 83.6897 51.2789C83.7239 51.3477 83.7125 51.428 83.6554 51.5198C83.5869 51.6116 83.4728 51.7034 83.313 51.7952L82.069 52.3918C81.932 52.4262 81.7722 52.4377 81.5668 52.4262Z" fill="#231815"/>
<path d="M96.2093 43.431C96.2207 43.3278 96.1865 43.2245 96.0838 43.1212C95.9696 43.0295 95.9126 42.9721 95.9354 42.9262C95.9582 42.8803 96.0723 42.8574 96.2778 42.8459C96.5745 42.9032 96.7457 42.995 96.8142 43.0983C96.8485 43.1671 96.837 43.2704 96.78 43.4081L96.7343 43.5802C97.0425 43.6031 97.3164 43.6605 97.5561 43.7523C97.8072 43.8326 98.0126 43.9588 98.161 44.108L100.067 43.7408L99.7703 41.7559C99.736 41.6412 99.6105 41.5379 99.3822 41.4346C99.1768 41.3314 98.9942 41.274 98.823 41.2511C98.6289 41.2052 98.5262 41.1593 98.5262 41.0904C98.5034 41.0331 98.6289 40.9757 98.8686 40.9183C99.0398 40.9183 99.2681 40.9183 99.5534 40.9528C99.7817 40.9872 99.9871 41.0216 100.17 41.0675C100.318 41.1019 100.409 41.1363 100.444 41.1822C100.478 41.2166 100.489 41.274 100.478 41.3658L100.501 41.5723L101.459 48.0204C101.528 48.5023 101.551 48.9039 101.551 49.2137C101.551 49.5693 101.517 49.8447 101.448 50.0398C101.357 50.2463 101.265 50.3151 101.186 50.2463C101.083 50.1774 101.003 49.925 100.934 49.4776L100.512 46.6665C100.341 46.6895 100.17 46.7239 100.01 46.7583C99.9072 46.7813 99.7703 46.8157 99.5991 46.8616L99.5534 46.8845C99.485 46.9075 99.4165 46.9304 99.3708 46.9534C99.3366 46.9763 99.3023 46.9993 99.2567 47.0337C99.1882 47.0796 99.1083 47.114 99.0398 47.114C98.9257 47.114 98.7203 47.0566 98.4235 46.9763C98.2523 47.1714 98.0583 47.3435 97.83 47.4697C97.5561 47.6303 97.2593 47.7451 96.9512 47.791C96.2778 47.8942 95.7071 47.7909 95.2049 47.4582C94.7598 47.1714 94.4631 46.7813 94.3261 46.265C94.1777 45.7487 94.2462 45.2668 94.5087 44.8078C94.7826 44.303 95.2734 43.9359 95.9468 43.7064L96.0723 43.672C96.1408 43.6146 96.1865 43.5458 96.1979 43.4654L96.2093 43.431ZM95.2278 44.7964C94.9995 45.1291 94.9082 45.5077 94.9767 45.9322C95.0451 46.3568 95.2278 46.6895 95.5473 46.9304C95.9011 47.2173 96.3463 47.3091 96.8713 47.2287C97.3506 47.1599 97.7159 46.9304 97.9441 46.5633C98.1496 46.242 98.2295 45.8634 98.161 45.4389C98.0925 45.0144 97.9213 44.6816 97.6246 44.4292C97.2936 44.1539 96.8827 44.0506 96.4033 44.1194C95.8783 44.1998 95.4789 44.4292 95.2163 44.7849L95.2278 44.7964ZM100.113 44.0965L98.4577 44.4522C98.6404 44.762 98.7545 45.1176 98.7887 45.5077C98.823 45.9208 98.7659 46.2879 98.6175 46.5977C98.7887 46.5977 99.0627 46.5518 99.4165 46.4715C99.6333 46.4256 99.9757 46.3453 100.444 46.2535L100.124 44.108L100.113 44.0965ZM101.174 40.3906C100.98 40.2873 100.695 40.1726 100.33 40.0578C100.101 40.0119 99.9871 39.9546 100.01 39.8743C100.033 39.8054 100.181 39.748 100.444 39.7021C100.615 39.7021 100.82 39.7021 101.037 39.7366C101.163 39.748 101.345 39.771 101.596 39.8169L101.768 39.8513C101.962 39.8972 102.099 39.9546 102.156 40.0119C102.201 40.0578 102.213 40.1611 102.224 40.2988V40.4709L103.468 48.6859C103.525 49.076 103.571 49.4431 103.582 49.7759C103.594 50.1315 103.582 50.4299 103.56 50.6478C103.48 50.9691 103.388 51.1297 103.274 51.1412C103.149 51.1412 103.069 50.9576 103.012 50.5905L101.528 40.7462C101.494 40.6315 101.38 40.5282 101.186 40.402L101.174 40.3906Z" fill="#231815"/>
<path d="M119.949 45.2441C119.949 45.2441 120.04 45.2211 120.109 45.1982C120.212 45.1523 120.314 45.1293 120.417 45.1408C120.588 45.1408 120.862 45.1867 121.227 45.267C121.41 45.3014 121.536 45.3703 121.627 45.4621C121.718 45.5424 121.752 45.6227 121.741 45.7145C121.741 45.8063 121.672 45.8751 121.581 45.921C121.501 45.9669 121.387 45.9784 121.262 45.9554C120.68 45.8636 119.903 45.7489 118.91 45.6227C117.883 45.508 117.141 45.4276 116.685 45.3932L116.662 45.4735C116.616 45.8177 116.582 46.0587 116.548 46.2078C116.502 46.4258 116.434 46.6209 116.354 46.793C116.205 47.0569 116.069 47.1831 115.932 47.1601C115.795 47.1257 115.749 46.9651 115.795 46.6553L115.954 45.3473C115.509 45.3014 115.053 45.2555 114.573 45.2211C114.037 45.1752 113.615 45.1523 113.295 45.1408C113.17 45.1408 113.055 45.1408 112.941 45.1867C112.884 45.1867 112.816 45.2211 112.747 45.2441C112.599 45.3014 112.439 45.3129 112.302 45.2555C112.074 45.1867 111.674 44.9687 111.092 44.5901C110.933 44.4524 110.864 44.3491 110.898 44.3032C110.921 44.2459 111.035 44.2459 111.241 44.3262C111.789 44.5098 112.827 44.6819 114.357 44.854C115.361 44.9687 116.993 45.1408 119.253 45.3473H119.538C119.744 45.3129 119.869 45.2785 119.949 45.267V45.2441ZM116.411 40.3793C116.297 40.2531 116.148 40.1154 115.954 39.9548C115.886 39.8745 115.852 39.8286 115.863 39.7942C115.874 39.7597 115.977 39.7483 116.171 39.7712C116.377 39.8401 116.605 39.9433 116.856 40.081C117.073 40.2072 117.313 40.3564 117.564 40.5399C117.666 40.6088 117.723 40.6776 117.735 40.7465C117.746 40.8268 117.701 40.9071 117.598 41.0104L117.45 41.148L116.856 41.6758C117.039 41.802 117.29 41.9282 117.587 42.0774C117.849 42.2036 118.146 42.3298 118.488 42.456C118.625 42.5249 118.762 42.5707 118.899 42.5937C118.956 42.6052 119.059 42.6166 119.196 42.6281C119.378 42.6396 119.538 42.674 119.675 42.7199C119.903 42.8002 120.189 42.9723 120.531 43.2247C120.839 43.4313 120.931 43.6263 120.839 43.7869C120.737 43.9476 120.508 43.9246 120.143 43.741L119.572 43.4542C118.99 43.1674 118.522 42.9149 118.157 42.7314C117.541 42.3986 117.016 42.1118 116.571 41.8709C116.046 42.2265 115.395 42.5593 114.619 42.8576C113.889 43.1215 113.067 43.3509 112.154 43.523C111.937 43.5345 111.823 43.523 111.8 43.4657C111.777 43.4198 111.868 43.3739 112.062 43.328C113.033 43.0526 113.923 42.7084 114.745 42.2724C115.601 41.8135 116.217 41.3546 116.616 40.8727L116.651 40.7579C116.651 40.6661 116.559 40.5399 116.422 40.3908L116.411 40.3793ZM113.124 48.6976C113.033 48.6517 112.884 48.5828 112.679 48.4911C112.53 48.4452 112.462 48.3878 112.462 48.3419C112.462 48.2845 112.599 48.2501 112.861 48.2272C113.101 48.2501 113.375 48.296 113.66 48.3649C113.923 48.4337 114.094 48.4911 114.197 48.537C114.642 48.5943 115.064 48.6402 115.452 48.6632C115.715 48.6976 116.126 48.7435 116.673 48.7894L117.107 48.8353C117.176 48.8353 117.233 48.8353 117.301 48.8238C117.335 48.8238 117.381 48.8238 117.45 48.8238L117.781 48.8008C117.803 48.6976 117.826 48.5599 117.849 48.3878C117.872 48.2731 117.906 48.0665 117.963 47.7682L118.009 47.4699L114.436 47.1487C114.345 47.1487 114.265 47.1487 114.197 47.1831C114.162 47.1831 114.117 47.206 114.048 47.229C113.923 47.2749 113.809 47.2749 113.695 47.2519C113.535 47.1946 113.261 47.0454 112.873 46.793C112.713 46.6897 112.656 46.6094 112.679 46.575C112.713 46.5291 112.827 46.5406 113.055 46.5979C113.546 46.7012 114.254 46.8045 115.19 46.9077C116.08 46.9995 116.947 47.0798 117.792 47.1257L117.94 47.0913C118.009 47.0798 118.066 47.0569 118.112 47.0569C118.203 47.0569 118.34 47.0913 118.522 47.1487C118.773 47.1946 118.922 47.2519 118.956 47.3208C118.979 47.3667 118.945 47.4355 118.853 47.5388L118.762 47.6994V47.7223C118.614 47.9862 118.522 48.1927 118.454 48.319C118.34 48.5484 118.26 48.7205 118.226 48.8238C118.522 48.9156 118.682 49.0074 118.682 49.1336C118.682 49.2598 118.534 49.3057 118.248 49.2713L114.277 48.8812L114.162 48.9041C114.162 48.9041 114.083 48.9271 114.06 48.9271C114.037 48.95 114.026 48.9844 114.026 49.0303L113.889 50.1203C113.889 50.2121 113.889 50.2924 113.934 50.3612C113.98 50.4071 114.048 50.4416 114.162 50.453C114.493 50.4989 114.916 50.5448 115.441 50.6137C116.057 50.694 116.651 50.7513 117.221 50.8087C117.37 50.8087 117.507 50.7858 117.609 50.7628C117.678 50.7628 117.746 50.7284 117.838 50.694C117.952 50.6481 118.077 50.6251 118.18 50.6251C118.363 50.6251 118.625 50.6481 119.002 50.7284C119.299 50.8087 119.424 50.9349 119.401 51.1185C119.367 51.3021 119.23 51.3824 118.968 51.348L114.151 50.7513C113.729 50.694 113.443 50.5907 113.295 50.4416C113.17 50.3153 113.124 50.1547 113.158 49.9482L113.284 48.9156C113.284 48.8467 113.215 48.7779 113.112 48.7091L113.124 48.6976Z" fill="#231815"/>
<path d="M132.927 45.485C132.984 45.4162 132.995 45.3014 132.961 45.1408C132.892 44.9916 132.892 44.8999 132.961 44.8769C133.041 44.854 133.155 44.9228 133.303 45.0605C133.509 45.267 133.623 45.4162 133.623 45.5309C133.623 45.5883 133.577 45.6571 133.474 45.7374C133.44 45.7604 133.406 45.7833 133.383 45.7948C133.349 45.8292 133.326 45.8522 133.315 45.8866C133.954 46.3111 134.353 46.8159 134.513 47.4011C134.65 47.9289 134.581 48.4337 134.296 48.9041C134.011 49.3745 133.588 49.6843 133.041 49.8449C132.447 50.0285 131.819 49.9826 131.169 49.7072C130.461 49.4089 129.97 48.9729 129.674 48.3993C129.4 47.883 129.343 47.3552 129.514 46.8159C129.674 46.2881 130.016 45.898 130.53 45.6456C131.089 45.3703 131.774 45.3358 132.55 45.5424L132.63 45.5653C132.767 45.5653 132.858 45.5424 132.915 45.485H132.927ZM130.393 51.8069C130.29 51.6692 130.096 51.4971 129.822 51.2906C129.639 51.1644 129.56 51.0726 129.594 50.9923C129.628 50.912 129.776 50.9234 130.039 50.9923C130.37 51.1414 130.644 51.2676 130.861 51.3824C131.078 51.4971 131.237 51.5889 131.34 51.6692C131.454 51.738 131.511 51.8184 131.5 51.8872C131.5 51.9331 131.477 52.0134 131.397 52.1281L131.317 52.2773L130.61 53.9868C130.553 54.1131 130.564 54.2163 130.632 54.3081C130.689 54.3999 130.804 54.5032 130.998 54.5949L133.36 55.5702C133.531 55.6276 133.68 55.662 133.794 55.6734C133.874 55.6734 133.954 55.6734 134.045 55.6734C134.182 55.6505 134.296 55.6505 134.399 55.6734C134.581 55.7079 134.844 55.8111 135.186 55.9718C135.358 56.0521 135.472 56.1439 135.552 56.2586C135.62 56.3619 135.654 56.4536 135.631 56.5569C135.609 56.6372 135.563 56.7061 135.495 56.7405C135.415 56.7749 135.312 56.7749 135.209 56.7405L130.838 54.8818C130.438 54.6982 130.164 54.5146 130.039 54.3311C129.891 54.1245 129.856 53.8836 129.948 53.6082L130.53 52.2429C130.564 52.1281 130.53 51.9905 130.404 51.8298L130.393 51.8069ZM131.146 46.0931C130.735 46.2537 130.45 46.5406 130.279 46.9536C130.107 47.3667 130.107 47.7682 130.279 48.1813C130.461 48.6402 130.815 48.9844 131.363 49.2139C131.911 49.4434 132.413 49.4778 132.869 49.2942C133.28 49.1336 133.577 48.8467 133.748 48.4452C133.919 48.0321 133.919 47.6305 133.748 47.2175C133.554 46.77 133.189 46.4258 132.641 46.1849C132.105 45.9554 131.603 45.9325 131.157 46.1046L131.146 46.0931ZM137.652 46.5865C137.538 46.3914 137.343 46.1619 137.07 45.8751C136.91 45.7145 136.853 45.5997 136.91 45.5424C136.967 45.4735 137.115 45.4965 137.366 45.5997C137.606 45.7145 137.811 45.8407 137.983 45.9784C138.097 46.0587 138.245 46.1849 138.439 46.357L138.508 46.4258C138.656 46.5635 138.736 46.6782 138.747 46.7471C138.747 46.8045 138.713 46.8848 138.645 46.9766L138.542 47.1716L136.533 51.9216C136.316 52.4379 136.122 52.851 135.974 53.1378C135.803 53.4705 135.643 53.7344 135.483 53.918C135.255 54.1475 135.095 54.2278 134.981 54.1704C134.878 54.1131 134.901 53.918 135.038 53.5853L137.777 47.0683C137.811 46.9421 137.777 46.7815 137.64 46.575L137.652 46.5865Z" fill="#231815"/>
<path d="M145.744 59.8034C145.699 59.6543 145.642 59.4936 145.55 59.3215C145.413 59.138 145.379 59.0232 145.425 58.9773C145.47 58.9314 145.596 58.9773 145.801 59.0921C146.269 59.5166 146.543 59.8264 146.634 60.0214C146.692 60.1362 146.669 60.2394 146.566 60.3197L146.498 60.3886L146.064 60.9393L148.906 63.1422L149.374 62.5571C149.431 62.4767 149.431 62.385 149.397 62.2588C149.362 62.1325 149.294 61.9719 149.168 61.7654C149.031 61.5703 148.986 61.4441 149.031 61.3868C149.066 61.3294 149.202 61.3753 149.442 61.513C149.682 61.7539 149.864 61.9604 150.001 62.1096C150.116 62.2473 150.195 62.3735 150.23 62.4653C150.264 62.5341 150.264 62.603 150.23 62.6603C150.218 62.6947 150.184 62.7406 150.127 62.8095L150.047 62.9127L149.853 63.1537C149.271 63.888 148.86 64.3813 148.632 64.6567C148.255 65.0927 147.97 65.3795 147.776 65.5172C147.525 65.6778 147.342 65.7123 147.228 65.6549C147.114 65.5746 147.194 65.3336 147.479 64.9435L144.614 62.7292C144.283 62.9816 144.009 63.1078 143.804 63.0963C143.599 63.0963 143.61 62.9242 143.85 62.6144L145.71 60.205L145.756 60.1476C145.801 60.0788 145.813 59.9526 145.767 59.8034H145.744ZM144.854 62.4538L147.673 64.6682L148.677 63.4061L145.836 61.2032L144.854 62.4423V62.4538ZM150.367 56.2008C150.367 56.2008 150.469 56.2352 150.538 56.2467C150.641 56.2696 150.732 56.304 150.8 56.3384C150.926 56.4073 151.086 56.522 151.303 56.6941C151.462 56.8203 151.565 56.9465 151.611 57.0613C151.656 57.1645 151.656 57.2563 151.611 57.3137C151.576 57.3711 151.508 57.394 151.405 57.3825C151.291 57.3825 151.166 57.3252 151.051 57.2334C150.663 56.9236 150.298 56.6482 149.967 56.3958C149.728 56.2122 149.362 55.9483 148.871 55.6041L148.894 55.7648C148.894 55.8221 148.917 55.868 148.929 55.9024C148.929 55.9483 148.929 55.9942 148.929 56.0287C148.929 56.0975 148.906 56.1549 148.871 56.2008C148.849 56.2237 148.803 56.2467 148.746 56.2811L148.655 56.3499C149.111 56.8318 149.374 57.3366 149.419 57.8529C149.454 58.3234 149.317 58.7134 149.02 59.0347C148.712 59.3445 148.312 59.4936 147.833 59.4936C147.308 59.4936 146.783 59.2871 146.269 58.8741C145.79 58.4955 145.493 58.0365 145.379 57.5317C145.265 57.0727 145.322 56.6482 145.55 56.2696C145.778 55.8795 146.109 55.65 146.555 55.5697C147.057 55.4894 147.593 55.6271 148.175 55.9828C148.312 56.0057 148.415 55.9598 148.472 55.8336C148.529 55.7189 148.552 55.5582 148.541 55.3517C148.369 55.2255 148.21 55.1108 148.061 54.996C147.81 54.8239 147.548 54.6518 147.262 54.4683C147.205 54.4338 147.137 54.3994 147.08 54.3879C147.045 54.3765 147.011 54.365 146.943 54.365C146.84 54.3421 146.76 54.2962 146.703 54.2158C146.623 54.1126 146.498 53.8602 146.326 53.4701C146.246 53.2635 146.224 53.1603 146.281 53.1373C146.326 53.1144 146.418 53.1718 146.532 53.3094C146.943 53.6995 147.399 54.1011 147.913 54.5142C148.404 54.9043 149.031 55.3747 149.785 55.9139L150.047 56.0975C150.138 56.1434 150.23 56.1778 150.321 56.2008H150.367ZM147.068 56.0401C146.726 56.0745 146.452 56.2237 146.235 56.4991C146.03 56.763 145.938 57.0727 145.984 57.4055C146.03 57.7841 146.235 58.1168 146.6 58.4151C146.988 58.7249 147.376 58.8741 147.776 58.8511C148.13 58.8282 148.415 58.679 148.62 58.4151C148.837 58.1398 148.917 57.83 148.86 57.4743C148.792 57.0842 148.563 56.74 148.175 56.4302C147.81 56.1319 147.433 56.0057 147.068 56.0287V56.0401ZM148.78 53.7684C148.723 53.6307 148.666 53.4586 148.609 53.2521C148.586 53.1029 148.586 53.0111 148.62 52.9882C148.666 52.9652 148.769 53.0456 148.917 53.2406C149.088 53.4357 149.248 53.5963 149.408 53.7454C149.659 53.9864 150.058 54.3306 150.606 54.7666C150.892 55.0075 150.972 55.1911 150.869 55.3173C150.766 55.4435 150.549 55.3861 150.218 55.1567L148.974 54.147C148.894 54.0552 148.826 53.929 148.769 53.7799L148.78 53.7684ZM153.483 56.8433C153.425 56.6138 153.311 56.3614 153.163 56.0745C153.049 55.9024 152.992 55.7877 152.992 55.7303C152.992 55.6271 153.117 55.65 153.38 55.7992C153.494 55.891 153.677 56.0745 153.905 56.3614C154.087 56.6023 154.236 56.7859 154.339 56.9465C154.453 57.1186 154.498 57.2448 154.487 57.3252C154.487 57.3825 154.43 57.4514 154.35 57.5202L154.179 57.6808L151.805 60.6525C151.508 61.0311 151.257 61.3065 151.051 61.49C150.789 61.731 150.526 61.8916 150.275 61.9834C150.116 62.0178 150.047 61.9604 150.07 61.8228C150.093 61.6736 150.207 61.4786 150.412 61.2261L150.629 60.9623L150.355 60.7557C150.184 60.641 150.058 60.5492 149.979 60.5033C149.853 60.423 149.75 60.3656 149.67 60.3312C149.625 60.2968 149.579 60.2853 149.533 60.2738C149.511 60.2738 149.476 60.2624 149.431 60.2509C149.339 60.2509 149.271 60.205 149.225 60.1476C149.145 60.0444 149.008 59.8264 148.849 59.5051C148.792 59.3674 148.792 59.2757 148.86 59.2527C148.929 59.2298 149.02 59.3101 149.145 59.4707C149.305 59.6084 149.488 59.7575 149.705 59.9067C149.842 60.01 150.047 60.1476 150.321 60.3197L150.857 60.6754L151.987 59.2642L151.12 58.5987L151.04 58.5528C150.983 58.5184 150.914 58.484 150.857 58.4725C150.835 58.4725 150.789 58.461 150.743 58.4496C150.652 58.4496 150.584 58.4037 150.526 58.3348C150.447 58.243 150.321 58.048 150.173 57.7153C150.093 57.4858 150.07 57.3596 150.127 57.3252C150.184 57.3022 150.287 57.394 150.458 57.5661C150.869 57.9103 151.177 58.1627 151.394 58.3348C151.634 58.5184 151.907 58.7249 152.216 58.9544L153.494 57.3481C153.574 57.2563 153.574 57.0842 153.494 56.8433H153.483Z" fill="#231815"/>
<path d="M163.07 70.1297C163.07 70.1297 163.195 70.1986 163.275 70.233C163.401 70.2904 163.503 70.3477 163.583 70.4051C163.698 70.5198 163.846 70.7149 164.028 70.9903C164.12 71.1279 164.165 71.2656 164.177 71.3804C164.177 71.4836 164.154 71.5639 164.097 71.6213C164.04 71.6672 163.96 71.6787 163.869 71.6557C163.766 71.6213 163.675 71.541 163.583 71.4262L161.951 69.3725C161.94 69.4758 161.917 69.5446 161.906 69.5905C161.894 69.6708 161.871 69.7282 161.86 69.7741C161.837 69.8085 161.814 69.8314 161.769 69.8544C161.746 69.8659 161.723 69.8773 161.666 69.8773C161.62 69.8773 161.597 69.8773 161.586 69.8773C161.552 69.8888 161.529 69.9117 161.518 69.9462C161.803 70.4281 161.928 70.9214 161.86 71.4033C161.814 71.8393 161.632 72.195 161.324 72.4589C161.004 72.7227 160.639 72.8375 160.205 72.7916C159.737 72.7342 159.292 72.5048 158.87 72.0917L158.139 72.631C158.425 72.9637 158.813 73.3767 159.303 73.8586C159.885 74.4208 160.399 74.8683 160.833 75.1781L165.877 71.5295C165.957 71.4607 165.98 71.3 165.969 71.0591C165.946 70.8181 165.9 70.5313 165.809 70.2215C165.729 69.9806 165.718 69.8544 165.763 69.82C165.82 69.7741 165.946 69.8659 166.129 70.0724C166.254 70.2674 166.38 70.4739 166.482 70.7034C166.539 70.8411 166.619 71.0247 166.699 71.2771L166.768 71.5066C166.813 71.6557 166.825 71.7475 166.791 71.8049C166.768 71.8508 166.722 71.8852 166.619 71.9311C166.574 71.954 166.539 71.9655 166.505 71.977C166.46 72.0114 166.425 72.0343 166.391 72.0573L162.02 75.2354L160.148 76.6008C159.669 76.945 159.292 77.2089 159.007 77.381C158.641 77.6104 158.288 77.7825 157.957 77.9202C157.683 77.9891 157.511 77.9776 157.443 77.8973C157.34 77.8055 157.443 77.6563 157.728 77.4383L160.639 75.3158C159.943 74.8339 159.155 74.2143 158.288 73.4456C157.534 72.7801 156.747 72.0343 155.925 71.2312C155.891 71.1968 155.857 71.1738 155.811 71.1509C155.788 71.1394 155.765 71.1279 155.72 71.105C155.594 71.0591 155.503 70.9558 155.446 70.8181C155.366 70.6116 155.263 70.1412 155.137 69.3954C155.115 69.1545 155.137 69.0168 155.206 69.0053C155.274 68.9824 155.354 69.0857 155.446 69.2922C155.594 69.6708 155.879 70.1068 156.279 70.6231C156.598 71.0247 157.032 71.518 157.58 72.1032L158.379 71.5295C158.071 70.9788 157.957 70.4625 158.002 69.9576C158.048 69.4987 158.23 69.143 158.55 68.8906C158.87 68.6267 159.246 68.5349 159.691 68.6038C160.182 68.6841 160.65 68.9594 161.095 69.4299C161.198 69.4758 161.312 69.4413 161.426 69.361C161.529 69.2692 161.597 69.143 161.62 68.9824L161.563 68.9021C161.392 68.6841 161.266 68.5235 161.175 68.3972C161.015 68.1907 160.867 68.0071 160.719 67.8465C160.673 67.7892 160.616 67.7433 160.57 67.7088C160.536 67.6974 160.49 67.6629 160.445 67.64C160.342 67.5826 160.273 67.5023 160.239 67.3991C160.194 67.2614 160.137 66.9631 160.102 66.4926C160.102 66.3205 160.137 66.2288 160.194 66.2173C160.251 66.2173 160.319 66.2976 160.399 66.5041C160.593 66.9057 160.913 67.422 161.381 68.0645C161.723 68.5464 162.168 69.1545 162.739 69.8773L162.784 69.9347C162.887 70.015 162.978 70.0838 163.07 70.1412V70.1297ZM160.022 69.2348C159.68 69.166 159.372 69.2348 159.086 69.4413C158.813 69.6364 158.653 69.9117 158.607 70.2559C158.55 70.646 158.664 71.0361 158.95 71.4262C159.223 71.8163 159.566 72.0458 159.943 72.1261C160.285 72.2064 160.593 72.1376 160.867 71.9425C161.152 71.736 161.312 71.4607 161.346 71.105C161.392 70.7149 161.266 70.3363 160.993 69.9462C160.707 69.5561 160.376 69.3151 160 69.2463L160.022 69.2348ZM164.017 69.3266C164.04 69.4528 164.017 69.5446 163.983 69.6134C163.937 69.6823 163.869 69.7052 163.789 69.6823C163.686 69.6593 163.583 69.579 163.469 69.4413L162.75 68.4431L162.453 68.0301C162.385 67.9154 162.339 67.7662 162.339 67.5941C162.328 67.422 162.339 67.1925 162.396 66.9286C162.431 66.7795 162.465 66.7106 162.522 66.7221C162.568 66.7336 162.636 66.8369 162.716 67.0319C162.841 67.2843 162.978 67.5482 163.127 67.8121C163.287 68.076 163.526 68.4431 163.823 68.8906L163.857 68.9365C163.949 69.0627 164.006 69.2004 164.028 69.3266H164.017Z" fill="#231815"/>
<path d="M48.5025 93.9605C48.5025 95.0161 47.6465 95.8766 46.5965 95.8766C45.5464 95.8766 44.6904 95.0161 44.6904 93.9605C44.6904 92.9049 45.5464 92.0444 46.5965 92.0444C47.6465 92.0444 48.5025 92.9049 48.5025 93.9605Z" fill="#231815"/>
<path d="M171.378 93.3868C171.378 94.4423 170.522 95.3028 169.472 95.3028C168.422 95.3028 167.566 94.4423 167.566 93.3868C167.566 92.3312 168.422 91.4707 169.472 91.4707C170.522 91.4707 171.378 92.3312 171.378 93.3868Z" fill="#231815"/>
<path d="M49.5863 115.783L49.3009 115.829C49.2553 115.565 49.1754 115.381 49.0613 115.301C48.9357 115.209 48.7303 115.198 48.4335 115.244L42.2361 116.242C41.9964 116.276 41.8366 116.357 41.7567 116.483C41.6654 116.609 41.654 116.804 41.6882 117.068L41.4029 117.114L41.0947 115.198L41.3801 115.152C41.4257 115.404 41.5056 115.588 41.6197 115.68C41.7453 115.772 41.9165 115.806 42.1562 115.76L48.3536 114.762C48.639 114.716 48.833 114.624 48.9243 114.498C49.0156 114.372 49.027 114.177 48.9928 113.924L49.2781 113.878L49.5863 115.794V115.783Z" fill="#231815"/>
<path d="M41.8934 118.388C41.9505 118.628 42.0532 118.789 42.1902 118.858C42.3271 118.938 42.544 118.938 42.8179 118.869L48.7985 117.447C49.0839 117.378 49.2665 117.275 49.3692 117.148C49.4605 117.011 49.4833 116.827 49.4263 116.598L49.6888 116.529L49.917 117.504L43.9935 122.587L49.8371 121.199C50.054 121.153 50.2024 121.049 50.2823 120.923C50.3507 120.785 50.3622 120.613 50.3051 120.372L50.5676 120.315L50.9328 121.887L50.6703 121.944C50.6133 121.715 50.5219 121.554 50.3964 121.462C50.2709 121.382 50.0996 121.359 49.8828 121.417L42.681 123.126L42.6467 123L48.9012 117.676L42.8636 119.11C42.5782 119.179 42.3956 119.271 42.3043 119.386C42.213 119.512 42.1902 119.695 42.2472 119.948L41.9619 120.017L41.5967 118.456L41.882 118.388H41.8934Z" fill="#231815"/>
<path d="M43.982 126.465C44.0733 126.74 44.1646 126.924 44.2673 127.015C44.4157 127.153 44.6097 127.188 44.8494 127.107L50.9442 125.076C51.1724 124.996 51.3208 124.904 51.3779 124.778C51.4349 124.652 51.4349 124.48 51.355 124.25C51.2181 123.826 50.9213 123.516 50.4876 123.344C50.2137 123.229 49.78 123.16 49.2093 123.114L49.2436 122.977L51.1952 122.805L52.6447 127.199L50.9099 128.266L50.8072 128.163L50.967 128.025C51.4121 127.646 51.6974 127.36 51.8344 127.142C52.0513 126.809 52.0855 126.453 51.9599 126.063C51.8686 125.799 51.7659 125.627 51.629 125.535C51.492 125.444 51.3208 125.432 51.0925 125.512L44.9864 127.543C44.7353 127.624 44.5983 127.75 44.5527 127.922C44.5298 128.06 44.5527 128.278 44.6668 128.587L44.3815 128.679L43.6738 126.545L43.9592 126.453L43.982 126.465Z" fill="#231815"/>
<path d="M45.6831 131.272C45.7744 131.49 45.9 131.628 46.0597 131.674C46.2195 131.731 46.4136 131.708 46.6761 131.594L52.3371 129.15C52.5768 129.047 52.7252 128.92 52.7936 128.771C52.8507 128.633 52.8393 128.45 52.748 128.232L53.0105 128.117L54.597 131.846L53.0105 133.131L52.8621 133.074L53.136 132.741C53.467 132.351 53.6839 132.041 53.7752 131.812C53.935 131.41 53.935 131.009 53.7638 130.595L53.4556 129.884C53.3757 129.689 53.2616 129.574 53.1246 129.528C52.9763 129.483 52.7822 129.505 52.5425 129.62L49.9974 130.722L50.4653 131.823C50.5794 132.087 50.7621 132.236 51.0017 132.282C51.2642 132.328 51.6409 132.248 52.1203 132.041L52.1887 132.202L49.2327 133.475L49.1642 133.315C49.6207 133.12 49.9403 132.902 50.1001 132.672C50.2599 132.443 50.2827 132.213 50.1686 131.949L49.7006 130.848L46.8815 132.064C46.6304 132.167 46.4706 132.294 46.3907 132.443C46.3108 132.58 46.3223 132.752 46.3907 132.959L46.6761 133.624C46.8473 134.038 47.1326 134.336 47.5207 134.519C47.8973 134.691 48.4451 134.795 49.1756 134.829L49.1299 135.001L47.0755 135.311L45.4092 131.422L45.6717 131.307L45.6831 131.272Z" fill="#231815"/>
<path d="M48.0568 136.791C48.1938 137.043 48.3422 137.181 48.5134 137.215C48.6731 137.25 48.8786 137.204 49.1411 137.066L54.6195 134.129C54.8478 134.003 54.9847 133.877 55.019 133.727C55.0532 133.59 55.0076 133.395 54.8706 133.131L55.1217 132.993L56.3087 135.242C56.5826 135.758 56.6283 136.252 56.4457 136.722C56.2745 137.17 55.9092 137.548 55.3728 137.835C54.8592 138.11 54.3798 138.225 53.9347 138.179C53.4554 138.133 53.0673 137.904 52.7934 137.479L50.4536 140.164C50.3053 140.336 50.2254 140.485 50.2139 140.635C50.2025 140.772 50.2482 140.933 50.3509 141.128L50.0998 141.266L49.5976 140.325L52.508 137.009L51.9944 136.057L49.3351 137.479C49.084 137.617 48.9242 137.766 48.8672 137.915C48.7987 138.076 48.8329 138.282 48.9585 138.523L48.7074 138.661L47.7715 136.906L48.0226 136.768L48.0568 136.791ZM52.9532 137.215C53.1358 137.56 53.4439 137.743 53.8891 137.743C54.2543 137.743 54.6652 137.617 55.1331 137.376C55.6239 137.112 55.9435 136.802 56.1033 136.447C56.263 136.091 56.2516 135.735 56.0576 135.368L55.7266 134.76C55.6353 134.588 55.5212 134.485 55.3956 134.45C55.2473 134.416 55.0646 134.462 54.8478 134.577L52.2798 135.953L52.9532 137.227V137.215Z" fill="#231815"/>
<path d="M50.9214 142.08C51.0583 142.287 51.2067 142.401 51.3551 142.424C51.5149 142.447 51.7089 142.378 51.9486 142.218L57.0618 138.799C57.3015 138.638 57.4498 138.477 57.4841 138.317C57.5297 138.168 57.4841 137.984 57.3471 137.778L57.5754 137.628L58.1232 138.466L54.3226 145.304L59.3216 141.965C59.5042 141.839 59.6184 141.701 59.6412 141.552C59.664 141.403 59.607 141.231 59.47 141.036L59.6983 140.887L60.5885 142.241L60.3602 142.39C60.2347 142.195 60.0863 142.08 59.938 142.034C59.7896 142 59.6184 142.034 59.4472 142.16L53.2725 146.279L53.2041 146.176L57.233 138.971L52.0627 142.424C51.823 142.585 51.6747 142.734 51.6404 142.883C51.5948 143.032 51.6404 143.216 51.7888 143.434L51.5377 143.595L50.6475 142.252L50.8986 142.092L50.9214 142.08Z" fill="#231815"/>
<path d="M58.283 150.743C58.0889 150.995 57.9862 151.202 57.9748 151.374C57.952 151.534 58.009 151.707 58.146 151.867L57.9177 152.051L56.6623 150.525L56.8905 150.341C57.1074 150.605 57.2786 150.731 57.4155 150.743C57.5753 150.754 57.7465 150.64 57.9406 150.376L59.1275 148.735L57.6324 146.922L56.0688 147.679C55.6807 147.874 55.4638 148.058 55.4182 148.219C55.3725 148.379 55.4639 148.586 55.6807 148.861L55.4524 149.045L54.3682 147.737L54.5964 147.553C54.7334 147.725 54.8932 147.806 55.053 147.794C55.2356 147.783 55.5552 147.656 56.0231 147.438L62.2548 144.375L62.7342 144.547L58.283 150.754V150.743ZM57.9406 146.773L59.333 148.46L61.9809 144.811L57.9406 146.773Z" fill="#231815"/>
<path d="M59.9838 153.772C60.1892 153.978 60.3604 154.093 60.4974 154.127C60.6914 154.185 60.874 154.127 61.0566 153.932L65.5535 149.274C65.7247 149.09 65.8046 148.941 65.8046 148.804C65.8046 148.666 65.7133 148.517 65.5421 148.345C65.2225 148.023 64.823 147.897 64.3551 147.943C64.0583 147.966 63.6475 148.104 63.111 148.333L63.0882 148.195L64.7317 147.151L68.0416 150.387L66.9916 152.131L66.8546 152.085L66.9231 151.89C67.1514 151.351 67.2655 150.961 67.2883 150.708C67.3226 150.318 67.197 149.974 66.9117 149.698C66.7177 149.503 66.535 149.4 66.3753 149.377C66.2155 149.354 66.0557 149.435 65.8845 149.607L61.3876 154.265C61.205 154.448 61.1365 154.632 61.1822 154.804C61.2164 154.93 61.3534 155.114 61.5816 155.343L61.3876 155.55L59.7783 153.978L59.9723 153.772H59.9838Z" fill="#231815"/>
<path d="M70.3134 152.257L70.1422 152.475C69.9367 152.303 69.7541 152.223 69.6057 152.234C69.4574 152.257 69.2862 152.372 69.0921 152.601L65.1089 157.477C64.9605 157.661 64.892 157.833 64.9034 157.982C64.9262 158.131 65.0404 158.292 65.2344 158.464L65.0518 158.694L63.5566 157.466L63.7393 157.236C63.9333 157.397 64.1159 157.477 64.2643 157.466C64.4126 157.466 64.5724 157.351 64.7208 157.168L68.7041 152.291C68.8867 152.062 68.978 151.867 68.9552 151.718C68.9323 151.569 68.8296 151.408 68.6242 151.247L68.7954 151.029L70.2905 152.257H70.3134Z" fill="#231815"/>
<path d="M73.8172 156.204C73.6917 157.11 73.2922 158.051 72.6188 159.026C71.9568 160.002 71.2264 160.702 70.4274 161.126C69.5372 161.619 68.7725 161.631 68.1219 161.183C67.4942 160.747 67.2545 160.025 67.4029 159.026C67.5284 158.132 67.9279 157.191 68.5899 156.227C69.2633 155.252 69.9937 154.54 70.7813 154.093C71.6601 153.6 72.4134 153.577 73.0411 154.013C73.6917 154.46 73.9428 155.194 73.8172 156.193V156.204ZM70.9981 154.494C70.3133 154.942 69.6513 155.63 69.0236 156.537C68.4073 157.443 68.0078 158.292 67.8366 159.095C67.6426 159.99 67.791 160.61 68.2817 160.954C68.7953 161.31 69.4345 161.241 70.2106 160.747C70.8954 160.311 71.5574 159.635 72.1737 158.728C72.8014 157.81 73.2009 156.95 73.3721 156.147C73.5547 155.24 73.3949 154.609 72.8813 154.253C72.3905 153.909 71.7628 153.99 70.9867 154.494H70.9981Z" fill="#231815"/>
<path d="M71.6373 162.985C71.8541 163.1 72.0367 163.134 72.1851 163.077C72.3335 163.019 72.4819 162.87 72.6188 162.618L75.5292 157.191C75.6662 156.927 75.7233 156.72 75.6776 156.571C75.6434 156.411 75.5178 156.273 75.301 156.158L75.4379 155.906L76.3168 156.376L76.157 164.201L79.0103 158.889C79.113 158.694 79.1473 158.522 79.1016 158.373C79.0446 158.235 78.919 158.109 78.7136 157.994L78.8505 157.742L80.2658 158.51L80.1288 158.763C79.9234 158.648 79.7408 158.614 79.5924 158.648C79.444 158.682 79.3185 158.797 79.2158 158.992L75.7118 165.532L75.6091 165.475L75.7917 157.237L72.8471 162.732C72.7101 162.996 72.6531 163.191 72.6873 163.341C72.7215 163.49 72.8471 163.639 73.0754 163.754L72.9384 164.006L71.5117 163.237L71.6487 162.985H71.6373Z" fill="#231815"/>
<path d="M82.1941 167.127C82.1371 167.436 82.1485 167.677 82.217 167.838C82.274 167.987 82.3996 168.113 82.605 168.194L82.4909 168.458L80.6647 167.7L80.7789 167.436C81.087 167.563 81.3039 167.597 81.4294 167.551C81.5778 167.482 81.6691 167.299 81.7148 166.978L82.0001 164.947L79.8316 164.052L78.7929 165.475C78.5418 165.83 78.4391 166.094 78.4734 166.266C78.5076 166.427 78.6788 166.576 79.0098 166.714L78.8957 166.978L77.332 166.335L77.4462 166.071C77.6516 166.151 77.8228 166.151 77.9712 166.071C78.131 165.968 78.3592 165.715 78.656 165.291L82.7306 159.635L83.2327 159.554L82.2055 167.138L82.1941 167.127ZM80.037 163.776L82.0572 164.614L82.6849 160.139L80.037 163.776Z" fill="#231815"/>
<path d="M83.7007 168.55C83.9632 168.63 84.1686 168.63 84.317 168.55C84.4426 168.469 84.5453 168.32 84.6252 168.079L86.4741 162.067C86.554 161.792 86.5654 161.597 86.497 161.47C86.4285 161.333 86.2573 161.229 85.9834 161.149L86.0633 160.885L87.9921 161.482L87.9122 161.746C87.6041 161.654 87.3758 161.631 87.2388 161.7C87.1133 161.769 87.0106 161.929 86.9307 162.205L85.0817 168.217C85.0132 168.458 84.9904 168.641 85.036 168.768C85.0817 168.905 85.2072 169.008 85.4127 169.077L86.1774 169.318C86.5198 169.422 86.8964 169.376 87.3073 169.146C87.6954 168.94 88.0834 168.595 88.4601 168.114L88.5742 168.263L87.4329 170.007L83.6094 168.813L83.7007 168.527V168.55Z" fill="#231815"/>
<path d="M92.478 170.982C92.7519 171.028 92.9459 171.005 93.0486 170.913C93.1514 170.821 93.2312 170.603 93.2997 170.271L94.4068 164.201C94.4525 163.937 94.4411 163.754 94.384 163.627C94.3041 163.478 94.1329 163.386 93.8704 163.341L93.916 163.077L97.8194 163.799L98.0363 165.761L97.9107 165.842C97.7738 165.325 97.614 164.924 97.4314 164.614C97.146 164.155 96.7922 163.891 96.3699 163.811L95.571 163.662C95.3884 163.627 95.24 163.662 95.1259 163.777C95.0231 163.88 94.9433 164.052 94.8976 164.293L94.3954 167.024L95.5139 167.23C95.8107 167.287 96.0275 167.253 96.1759 167.127C96.3699 166.955 96.5183 166.588 96.621 166.014L96.8036 166.048L96.2216 169.249L96.0389 169.215C96.1417 168.664 96.1302 168.24 96.0047 167.964C95.902 167.723 95.7194 167.574 95.4454 167.528L94.3383 167.322L93.7905 170.362C93.7334 170.684 93.7449 170.925 93.8247 171.062C93.9161 171.2 94.1101 171.292 94.4297 171.349L94.3726 171.636L92.4209 171.28L92.478 170.993V170.982Z" fill="#231815"/>
<path d="M98.1505 171.98C98.4244 172.015 98.6298 171.98 98.7554 171.865C98.8695 171.762 98.938 171.59 98.9722 171.338L99.6913 165.073C99.7255 164.786 99.6913 164.591 99.5999 164.488C99.5086 164.373 99.3146 164.293 99.0407 164.259L99.0749 163.972L101.095 164.201L101.061 164.488C100.741 164.454 100.513 164.488 100.399 164.568C100.296 164.66 100.216 164.844 100.193 165.119L99.4744 171.384C99.4402 171.624 99.4744 171.82 99.5315 171.934C99.6 172.06 99.7483 172.141 99.9538 172.164L100.753 172.256C101.118 172.301 101.472 172.175 101.826 171.877C102.168 171.602 102.488 171.188 102.773 170.638L102.91 170.764L102.111 172.703L98.1162 172.244L98.1505 171.957V171.98Z" fill="#231815"/>
<path d="M108.628 165.956C108.993 166.794 109.153 167.804 109.084 168.985C109.027 170.167 108.765 171.142 108.32 171.934C107.817 172.818 107.178 173.242 106.391 173.208C105.626 173.173 105.044 172.68 104.645 171.751C104.291 170.913 104.142 169.915 104.199 168.744C104.256 167.563 104.508 166.576 104.953 165.773C105.443 164.889 106.071 164.476 106.836 164.511C107.623 164.557 108.217 165.039 108.628 165.956ZM105.341 166.002C104.987 166.748 104.781 167.677 104.724 168.779C104.667 169.869 104.781 170.81 105.055 171.578C105.364 172.439 105.809 172.886 106.402 172.921C107.018 172.955 107.532 172.554 107.932 171.728C108.285 170.993 108.491 170.075 108.548 168.974C108.605 167.861 108.491 166.92 108.217 166.151C107.897 165.279 107.429 164.832 106.813 164.798C106.22 164.763 105.717 165.165 105.329 166.002H105.341Z" fill="#231815"/>
<path d="M110.351 172.887C110.636 172.887 110.83 172.818 110.944 172.68C111.047 172.554 111.104 172.347 111.104 172.061L111.081 165.819C111.081 165.555 111.024 165.372 110.922 165.28C110.819 165.188 110.613 165.131 110.328 165.131V164.844H112.862C113.444 164.844 113.901 165.027 114.232 165.406C114.551 165.773 114.711 166.266 114.711 166.875C114.711 167.46 114.585 167.93 114.346 168.309C114.083 168.722 113.695 168.94 113.204 168.997L114.483 172.336C114.562 172.542 114.665 172.692 114.791 172.76C114.905 172.829 115.065 172.875 115.282 172.875V173.162H114.22L112.668 169.032H111.584V172.061C111.584 172.347 111.641 172.554 111.755 172.68C111.869 172.818 112.063 172.887 112.337 172.875V173.162H110.362V172.887H110.351ZM113.01 168.733C113.41 168.733 113.706 168.538 113.912 168.148C114.083 167.815 114.163 167.391 114.163 166.875C114.163 166.324 114.037 165.888 113.798 165.578C113.558 165.268 113.239 165.119 112.816 165.119H112.12C111.915 165.119 111.778 165.176 111.698 165.268C111.606 165.383 111.549 165.567 111.561 165.819V168.745H113.01V168.733Z" fill="#231815"/>
<path d="M117.759 164.637L117.781 164.924C117.507 164.947 117.325 165.004 117.234 165.119C117.131 165.245 117.097 165.452 117.108 165.739L117.519 172.038C117.53 172.279 117.599 172.451 117.713 172.542C117.827 172.634 118.021 172.68 118.284 172.669L118.306 172.955L116.389 173.082L116.366 172.795C116.629 172.783 116.8 172.715 116.914 172.6C117.017 172.485 117.062 172.313 117.051 172.072L116.64 165.773C116.617 165.475 116.549 165.28 116.435 165.176C116.32 165.085 116.126 165.039 115.875 165.05L115.853 164.763L117.77 164.637H117.759Z" fill="#231815"/>
<path d="M120.577 171.923C121.034 172.313 121.502 172.462 121.993 172.393C122.415 172.336 122.723 172.152 122.917 171.854C123.145 171.51 123.214 171.028 123.122 170.397C123.054 169.857 122.86 169.467 122.575 169.226C122.324 169.02 121.867 168.825 121.205 168.653C120.634 168.481 120.189 168.263 119.87 167.999C119.436 167.631 119.173 167.104 119.082 166.438C119.002 165.876 119.059 165.394 119.242 164.993C119.47 164.499 119.881 164.212 120.452 164.132C120.6 164.109 120.76 164.109 120.908 164.132C121 164.155 121.114 164.178 121.262 164.224C121.376 164.258 121.445 164.27 121.49 164.281C121.559 164.281 121.616 164.281 121.65 164.247L121.993 163.983L122.757 165.991L122.643 166.117C122.312 165.532 121.97 165.096 121.627 164.82C121.228 164.499 120.817 164.362 120.395 164.419C120.052 164.465 119.79 164.625 119.607 164.889C119.402 165.199 119.345 165.635 119.413 166.186C119.493 166.737 119.71 167.15 120.064 167.448C120.326 167.666 120.726 167.838 121.251 167.987C121.901 168.136 122.381 168.343 122.7 168.607C123.134 168.951 123.396 169.456 123.499 170.121C123.602 170.89 123.511 171.498 123.225 171.946C122.963 172.359 122.575 172.599 122.038 172.668C121.878 172.691 121.707 172.68 121.525 172.645C121.422 172.622 121.273 172.588 121.091 172.531C121 172.508 120.943 172.485 120.897 172.473C120.84 172.473 120.794 172.473 120.771 172.473C120.691 172.473 120.6 172.531 120.497 172.611C120.406 172.68 120.326 172.772 120.246 172.886L119.402 170.775L119.539 170.638C119.87 171.188 120.201 171.613 120.532 171.888L120.577 171.923Z" fill="#231815"/>
<path d="M126.661 171.395C126.935 171.326 127.129 171.246 127.232 171.154C127.38 171.017 127.426 170.821 127.369 170.581L125.828 164.305C125.771 164.064 125.679 163.914 125.565 163.846C125.451 163.777 125.269 163.765 125.04 163.823C124.607 163.926 124.287 164.201 124.082 164.626C123.945 164.89 123.842 165.314 123.751 165.888L123.625 165.842V163.88L128.088 162.767L129.001 164.591L128.887 164.683L128.761 164.523C128.43 164.052 128.156 163.731 127.962 163.582C127.643 163.341 127.3 163.272 126.912 163.364C126.638 163.433 126.456 163.524 126.364 163.651C126.261 163.777 126.239 163.96 126.307 164.19L127.848 170.466C127.905 170.718 128.019 170.879 128.19 170.925C128.316 170.959 128.544 170.948 128.852 170.867L128.921 171.154L126.741 171.693L126.672 171.407L126.661 171.395Z" fill="#231815"/>
<path d="M132.345 169.249C132.87 169.525 133.361 169.582 133.828 169.41C134.228 169.261 134.49 169.02 134.616 168.687C134.764 168.308 134.73 167.815 134.513 167.218C134.319 166.702 134.057 166.358 133.714 166.174C133.429 166.025 132.938 165.933 132.242 165.899C131.637 165.853 131.158 165.738 130.804 165.555C130.302 165.279 129.937 164.832 129.708 164.212C129.514 163.685 129.469 163.203 129.56 162.767C129.685 162.239 130.016 161.86 130.553 161.665C130.69 161.608 130.85 161.585 130.998 161.573C131.089 161.573 131.215 161.573 131.363 161.585C131.477 161.585 131.557 161.585 131.603 161.585C131.671 161.585 131.717 161.551 131.751 161.516L132.025 161.172L133.224 162.973L133.155 163.122C132.71 162.618 132.288 162.273 131.888 162.078C131.432 161.849 130.998 161.803 130.599 161.952C130.268 162.078 130.051 162.285 129.937 162.583C129.8 162.927 129.834 163.363 130.028 163.891C130.222 164.407 130.519 164.763 130.929 164.981C131.238 165.13 131.66 165.222 132.208 165.256C132.87 165.256 133.383 165.36 133.749 165.555C134.239 165.796 134.593 166.243 134.821 166.874C135.084 167.597 135.13 168.217 134.936 168.721C134.764 169.18 134.433 169.49 133.931 169.685C133.783 169.743 133.612 169.777 133.418 169.777C133.315 169.777 133.167 169.777 132.972 169.766C132.881 169.766 132.813 169.766 132.778 169.766C132.721 169.766 132.676 169.777 132.653 169.788C132.573 169.823 132.493 169.88 132.413 169.984C132.333 170.075 132.276 170.179 132.231 170.305L130.964 168.446L131.078 168.285C131.523 168.756 131.934 169.089 132.311 169.295L132.345 169.249Z" fill="#231815"/>
<path d="M143.381 163.57C143.598 163.799 143.781 163.937 143.952 163.983C144.112 164.029 144.283 163.995 144.466 163.891L144.614 164.144L142.902 165.142L142.754 164.889C143.039 164.717 143.199 164.568 143.233 164.431C143.279 164.281 143.187 164.086 142.959 163.857L141.532 162.4L139.501 163.593L139.992 165.28C140.117 165.693 140.266 165.945 140.414 166.014C140.562 166.083 140.791 166.037 141.087 165.853L141.236 166.106L139.775 166.966L139.626 166.714C139.82 166.599 139.923 166.461 139.935 166.301C139.946 166.117 139.889 165.773 139.741 165.28L137.743 158.591L137.983 158.143L143.359 163.582L143.381 163.57ZM139.421 163.272L141.304 162.17L138.154 158.946L139.421 163.272Z" fill="#231815"/>
<path d="M145.892 162.239C146.474 162.365 146.965 162.274 147.365 161.975C147.707 161.723 147.89 161.413 147.924 161.057C147.958 160.644 147.787 160.185 147.41 159.681C147.091 159.245 146.737 158.981 146.36 158.912C146.041 158.855 145.55 158.912 144.876 159.061C144.283 159.187 143.792 159.21 143.393 159.13C142.833 159.015 142.354 158.682 141.955 158.143C141.624 157.684 141.43 157.237 141.407 156.789C141.373 156.239 141.589 155.791 142.057 155.447C142.183 155.355 142.32 155.286 142.468 155.229C142.56 155.206 142.674 155.172 142.833 155.137C142.948 155.114 143.028 155.091 143.062 155.08C143.119 155.057 143.164 155.011 143.187 154.965L143.359 154.563L145.002 155.952L144.979 156.112C144.409 155.757 143.906 155.539 143.473 155.47C142.97 155.378 142.548 155.458 142.206 155.711C141.92 155.917 141.772 156.181 141.738 156.502C141.704 156.87 141.863 157.283 142.194 157.742C142.525 158.189 142.913 158.453 143.37 158.533C143.701 158.591 144.135 158.568 144.671 158.442C145.31 158.269 145.824 158.212 146.235 158.292C146.771 158.384 147.239 158.705 147.639 159.245C148.095 159.864 148.301 160.438 148.255 160.977C148.221 161.459 147.992 161.861 147.559 162.182C147.433 162.274 147.273 162.354 147.091 162.411C146.988 162.446 146.84 162.48 146.657 162.526C146.566 162.549 146.497 162.56 146.463 162.572C146.406 162.595 146.372 162.606 146.349 162.629C146.28 162.675 146.223 162.767 146.178 162.882C146.132 162.985 146.109 163.111 146.086 163.237L144.351 161.803L144.409 161.62C144.968 161.941 145.447 162.147 145.881 162.239H145.892Z" fill="#231815"/>
<path d="M150.287 158.774C150.88 158.843 151.359 158.705 151.725 158.373C152.044 158.086 152.193 157.765 152.193 157.409C152.193 156.996 151.976 156.56 151.554 156.089C151.188 155.688 150.812 155.458 150.435 155.424C150.115 155.389 149.625 155.493 148.974 155.722C148.403 155.906 147.913 155.975 147.513 155.94C146.942 155.871 146.44 155.596 145.995 155.091C145.619 154.667 145.39 154.242 145.322 153.806C145.242 153.267 145.413 152.796 145.835 152.406C145.95 152.303 146.075 152.223 146.223 152.154C146.303 152.12 146.429 152.074 146.577 152.028C146.691 151.993 146.76 151.959 146.806 151.947C146.863 151.913 146.908 151.879 146.92 151.821L147.057 151.408L148.837 152.613V152.774C148.221 152.475 147.696 152.303 147.262 152.269C146.748 152.223 146.338 152.349 146.018 152.636C145.756 152.877 145.63 153.152 145.63 153.473C145.63 153.841 145.824 154.242 146.189 154.655C146.554 155.068 146.977 155.286 147.433 155.332C147.776 155.367 148.198 155.286 148.723 155.114C149.339 154.873 149.853 154.781 150.264 154.816C150.8 154.862 151.291 155.137 151.748 155.642C152.261 156.216 152.524 156.778 152.524 157.317C152.524 157.799 152.341 158.223 151.942 158.579C151.827 158.682 151.679 158.774 151.508 158.854C151.405 158.9 151.268 158.946 151.086 159.004C150.994 159.038 150.937 159.05 150.892 159.072C150.846 159.095 150.8 159.118 150.789 159.141C150.72 159.199 150.675 159.29 150.64 159.417C150.606 159.531 150.583 159.646 150.595 159.784L148.734 158.522L148.78 158.327C149.362 158.602 149.876 158.751 150.298 158.809L150.287 158.774Z" fill="#231815"/>
<path d="M151.964 148.081C152.831 148.322 153.71 148.849 154.578 149.653C155.445 150.456 156.038 151.27 156.347 152.119C156.7 153.072 156.621 153.84 156.084 154.426C155.57 154.988 154.829 155.137 153.858 154.85C152.991 154.598 152.135 154.07 151.268 153.278C150.4 152.475 149.807 151.66 149.476 150.8C149.122 149.859 149.19 149.102 149.715 148.54C150.252 147.955 151.005 147.794 151.975 148.069L151.964 148.081ZM149.887 150.674C150.229 151.42 150.811 152.165 151.621 152.923C152.42 153.657 153.208 154.173 153.973 154.449C154.829 154.758 155.456 154.689 155.867 154.253C156.29 153.795 156.312 153.141 155.936 152.303C155.605 151.557 155.034 150.811 154.224 150.066C153.413 149.308 152.614 148.804 151.85 148.528C150.982 148.218 150.343 148.299 149.921 148.758C149.51 149.205 149.51 149.836 149.887 150.674Z" fill="#231815"/>
<path d="M160.593 147.771C160.741 148.379 160.65 148.907 160.319 149.343C159.885 149.905 159.235 150.146 158.367 150.043C157.431 149.939 156.416 149.469 155.343 148.643C154.384 147.909 153.711 147.128 153.323 146.302C152.912 145.43 152.923 144.719 153.345 144.168C153.471 143.996 153.608 143.859 153.756 143.767C153.848 143.698 153.996 143.618 154.201 143.526L154.281 143.491L154.407 142.883L156.416 143.732V143.893C155.834 143.767 155.331 143.709 154.921 143.732C154.316 143.767 153.87 143.962 153.597 144.329C153.266 144.765 153.3 145.35 153.699 146.073C154.099 146.796 154.761 147.507 155.685 148.218C156.553 148.884 157.397 149.274 158.196 149.4C159.007 149.526 159.611 149.343 159.988 148.85C160.228 148.528 160.319 148.15 160.262 147.725C160.194 147.289 159.965 146.761 159.577 146.153L159.737 146.107C160.194 146.715 160.49 147.266 160.616 147.771H160.593Z" fill="#231815"/>
<path d="M156.484 140.015L156.712 140.176C156.564 140.405 156.507 140.589 156.53 140.738C156.564 140.887 156.701 141.048 156.952 141.208L162.179 144.708C162.385 144.845 162.556 144.891 162.704 144.857C162.853 144.823 163.001 144.696 163.149 144.478L163.4 144.65L162.339 146.257L162.088 146.085C162.225 145.867 162.293 145.683 162.259 145.534C162.236 145.385 162.122 145.236 161.928 145.109L156.701 141.61C156.461 141.449 156.256 141.38 156.107 141.415C155.959 141.449 155.811 141.576 155.674 141.794L155.445 141.633L156.507 140.027L156.484 140.015Z" fill="#231815"/>
<path d="M165.501 138.959C165.798 139.063 166.037 139.085 166.197 139.028C166.357 138.994 166.494 138.879 166.597 138.695L166.848 138.845L165.855 140.566L165.604 140.416C165.775 140.13 165.843 139.912 165.798 139.785C165.752 139.636 165.581 139.51 165.273 139.418L163.321 138.856L162.134 140.898L163.389 142.126C163.709 142.424 163.949 142.562 164.12 142.55C164.28 142.55 164.451 142.378 164.633 142.08L164.885 142.229L164.029 143.698L163.777 143.549C163.892 143.365 163.914 143.182 163.846 143.032C163.766 142.86 163.549 142.596 163.173 142.241L158.162 137.399V136.894L165.489 138.971L165.501 138.959ZM161.906 140.657L163.001 138.764L158.676 137.525L161.894 140.669L161.906 140.657Z" fill="#231815"/>
<path d="M167.817 136.309C167.943 136.045 168 135.85 168 135.713C168 135.506 167.874 135.357 167.646 135.242L161.86 132.397C161.631 132.293 161.46 132.259 161.346 132.305C161.209 132.351 161.095 132.477 160.992 132.695C160.798 133.108 160.787 133.521 160.992 133.946C161.106 134.221 161.357 134.577 161.745 135.013L161.62 135.081L160.113 133.831L162.145 129.666L164.131 130.125V130.274H163.925C163.343 130.228 162.932 130.228 162.693 130.286C162.305 130.377 162.031 130.595 161.848 130.963C161.723 131.215 161.677 131.41 161.711 131.571C161.745 131.731 161.871 131.857 162.088 131.961L167.874 134.806C168.114 134.921 168.297 134.932 168.445 134.841C168.559 134.76 168.685 134.577 168.822 134.29L169.084 134.416L168.103 136.435L167.84 136.309H167.817Z" fill="#231815"/>
<path d="M163.366 126.729L163.617 126.832C163.515 127.084 163.48 127.279 163.537 127.417C163.595 127.555 163.766 127.692 164.04 127.807L169.826 130.297C170.043 130.389 170.226 130.412 170.363 130.354C170.5 130.297 170.625 130.136 170.728 129.895L170.99 130.01L170.237 131.788L169.975 131.674C170.077 131.433 170.1 131.249 170.043 131.1C169.986 130.951 169.849 130.836 169.632 130.744L163.846 128.254C163.583 128.14 163.366 128.117 163.218 128.174C163.081 128.232 162.955 128.381 162.853 128.622L162.602 128.518L163.355 126.74L163.366 126.729Z" fill="#231815"/>
<path d="M166.391 122.071C167.293 121.967 168.297 122.117 169.404 122.53C170.512 122.943 171.356 123.482 171.972 124.147C172.669 124.893 172.874 125.639 172.6 126.385C172.338 127.107 171.699 127.521 170.694 127.624C169.793 127.716 168.8 127.566 167.704 127.153C166.608 126.74 165.741 126.201 165.113 125.547C164.428 124.813 164.211 124.09 164.485 123.367C164.759 122.621 165.398 122.185 166.403 122.071H166.391ZM165.444 125.249C166.049 125.811 166.859 126.281 167.898 126.66C168.914 127.039 169.838 127.211 170.66 127.176C171.562 127.142 172.121 126.844 172.326 126.281C172.543 125.696 172.326 125.088 171.653 124.457C171.059 123.895 170.249 123.425 169.222 123.046C168.183 122.656 167.259 122.484 166.437 122.53C165.524 122.575 164.953 122.885 164.736 123.47C164.531 124.033 164.759 124.629 165.433 125.249H165.444Z" fill="#231815"/>
<path d="M173.479 122.483C173.547 122.242 173.536 122.059 173.456 121.921C173.376 121.784 173.193 121.68 172.919 121.588L167.042 119.844C166.756 119.764 166.551 119.753 166.402 119.822C166.254 119.89 166.151 120.04 166.083 120.28L165.82 120.2L166.106 119.236L173.753 117.779L167.989 116.07C167.772 116.001 167.601 116.012 167.464 116.093C167.338 116.173 167.247 116.322 167.178 116.552L166.916 116.471L167.373 114.922L167.635 115.003C167.567 115.232 167.567 115.416 167.635 115.553C167.704 115.691 167.84 115.794 168.057 115.852L175.145 117.963L175.111 118.089L167.042 119.592L172.988 121.359C173.273 121.439 173.479 121.451 173.616 121.393C173.753 121.325 173.867 121.175 173.947 120.923L174.232 121.003L173.775 122.564L173.49 122.483H173.479Z" fill="#231815"/>
</g>
<defs>
<clipPath id="clip0_65_1176">
<rect width="146" height="146" fill="white" transform="translate(35 34)"/>
</clipPath>
</defs>
</svg>
