<svg width="19" height="19" viewBox="0 0 19 19" fill="none" xmlns="http://www.w3.org/2000/svg">
<path fill-rule="evenodd" clip-rule="evenodd" d="M5.9362 0.791504C6.37342 0.791504 6.72786 1.14595 6.72786 1.58317V2.37484H12.2695V1.58317C12.2695 1.14595 12.624 0.791504 13.0612 0.791504C13.4984 0.791504 13.8529 1.14595 13.8529 1.58317V2.39438C15.8531 2.59298 17.4154 4.28064 17.4154 6.33317V13.4582C17.4154 15.6443 15.6432 17.4165 13.457 17.4165H5.54036C3.35424 17.4165 1.58203 15.6443 1.58203 13.4582V6.33317C1.58203 4.28064 3.14426 2.59298 5.14453 2.39438V1.58317C5.14453 1.14595 5.49897 0.791504 5.9362 0.791504ZM3.30051 5.5415H15.6969C15.3709 4.61906 14.4911 3.95817 13.457 3.95817H5.54036C4.50627 3.95817 3.62654 4.61906 3.30051 5.5415ZM15.832 7.12484H3.16536V13.4582C3.16536 14.7698 4.22869 15.8332 5.54036 15.8332H13.457C14.7687 15.8332 15.832 14.7698 15.832 13.4582V7.12484ZM4.7487 9.49984C4.7487 9.06261 5.10314 8.70817 5.54036 8.70817H13.457C13.8943 8.70817 14.2487 9.06261 14.2487 9.49984C14.2487 9.93706 13.8943 10.2915 13.457 10.2915H5.54036C5.10314 10.2915 4.7487 9.93706 4.7487 9.49984Z" fill="#E32449"/>
</svg>
