<svg width="76" height="76" viewBox="0 0 76 76" fill="none" xmlns="http://www.w3.org/2000/svg">
<circle cx="38" cy="38" r="37" stroke="#E32449" stroke-width="2"/>
<path d="M43.7521 62.1197L43.7521 43.847L62.282 43.847C63.5787 43.8035 64.6664 42.7159 64.7071 41.4219L64.9019 35.1515C64.9429 33.8522 63.9217 32.831 62.6249 32.8745L44.095 32.8745L44.2822 14.3772C44.3231 13.0779 43.5815 12.3363 42.2822 12.3772L35.7399 12.3002C34.4432 12.3437 33.3583 13.4285 33.3148 14.7253L33.1302 33.2252L14.6303 33.2199C13.3335 33.2634 12.2486 34.3482 12.2051 35.645L12.005 41.9155C11.9668 43.2121 12.9854 44.2307 14.282 44.1926L32.7821 44.1925L32.7794 62.468C32.7387 63.762 33.7682 64.5856 35.0648 64.5474H41.3296C42.6263 64.5039 43.7112 63.4191 43.7521 62.1197Z" fill="#E32449"/>
</svg>
