<svg width="24" height="24" viewBox="0 0 24 24" fill="none" xmlns="http://www.w3.org/2000/svg">
<path d="M20.0002 10.999H22.0002C22.0002 5.869 18.1272 2 12.9902 2V4C17.0522 4 20.0002 6.943 20.0002 10.999Z" fill="white"/>
<path d="M12.9998 7.99829C15.1028 7.99829 15.9998 8.89529 15.9998 10.9983H17.9998C17.9998 7.77329 16.2248 5.99829 12.9998 5.99829V7.99829ZM16.4218 13.4413C16.2296 13.2666 15.9771 13.1735 15.7176 13.1815C15.4581 13.1895 15.2118 13.2981 15.0308 13.4843L12.6378 15.9453C12.0618 15.8353 10.9038 15.4743 9.71179 14.2853C8.51979 13.0923 8.15879 11.9313 8.05179 11.3593L10.5108 8.96529C10.6972 8.78441 10.8059 8.53811 10.814 8.27849C10.822 8.01888 10.7287 7.76633 10.5538 7.57429L6.85879 3.51129C6.68384 3.31864 6.44067 3.20179 6.18095 3.18555C5.92122 3.1693 5.66539 3.25494 5.46779 3.42429L3.29779 5.28529C3.1249 5.4588 3.02171 5.68974 3.00779 5.93429C2.99279 6.18429 2.70679 12.1063 7.29879 16.7003C11.3048 20.7053 16.3228 20.9983 17.7048 20.9983C17.9068 20.9983 18.0308 20.9923 18.0638 20.9903C18.3083 20.9766 18.5391 20.8729 18.7118 20.6993L20.5718 18.5283C20.7413 18.3308 20.8271 18.0751 20.811 17.8153C20.795 17.5556 20.6783 17.3124 20.4858 17.1373L16.4218 13.4413Z" fill="black"/>
</svg>
