<svg width="25" height="24" viewBox="0 0 25 24" fill="none" xmlns="http://www.w3.org/2000/svg">
<path fill-rule="evenodd" clip-rule="evenodd" d="M3 9.42105C3 5.32252 6.32252 2 10.4211 2C14.5196 2 17.8421 5.32252 17.8421 9.42105C17.8421 13.5196 14.5196 16.8421 10.4211 16.8421C6.32252 16.8421 3 13.5196 3 9.42105ZM10.4211 0C5.21795 0 1 4.21795 1 9.42105C1 14.6242 5.21795 18.8421 10.4211 18.8421C12.6624 18.8421 14.7209 18.0594 16.3382 16.7524L22.3455 22.7597C22.736 23.1503 23.3692 23.1503 23.7597 22.7597C24.1503 22.3692 24.1503 21.736 23.7597 21.3455L17.7524 15.3382C19.0594 13.7209 19.8421 11.6624 19.8421 9.42105C19.8421 4.21795 15.6242 0 10.4211 0Z" fill="black"/>
</svg>
